<?xml version="1.0" encoding="utf-8"?>
<!-- Generator: Adobe Illustrator 18.1.1, SVG Export Plug-In . SVG Version: 6.00 Build 0)  -->
<svg version="1.1" id="Layer_1" xmlns="http://www.w3.org/2000/svg" xmlns:xlink="http://www.w3.org/1999/xlink" x="0px" y="0px"
	 viewBox="0 0 49.3 40.8" enable-background="new 0 0 49.3 40.8" xml:space="preserve">
<g>
	<g id="Layer_5_78_">
		<path d="M48.6,37.9c0,0-0.5,0-0.6,0c-0.3,0-0.3-0.4-0.3-0.4V9.7c0-0.7-0.6-1.3-1.3-1.3c0,0-7.4,0-9.8,0
			c-0.4,0-0.3-0.3-0.3-0.3V2.8c0-0.1,0-0.1,0.2-0.1c0.4,0,0.7-0.3,0.7-0.7V0.7c0-0.4-0.3-0.7-0.7-0.7H13.6c-0.4,0-0.7,0.3-0.7,0.7V2
			c0,0.4,0.3,0.7,0.7,0.7c0.2,0,0.2,0.2,0.2,0.2V8c0,0,0,0.5-0.3,0.5c-2.7,0-10.6,0-10.6,0C2.2,8.5,1.6,9,1.6,9.7c0,0,0,20.9,0,27.8
			c0,0.3-0.1,0.3-0.4,0.3c-0.4,0-0.5,0-0.5,0c-0.4,0-0.7,0.3-0.7,0.7v1.5c0,0.4,0.3,0.7,0.7,0.7h47.9c0.4,0,0.7-0.3,0.7-0.7v-1.5
			C49.3,38.2,49,37.9,48.6,37.9z M27.7,14.6h4.2c0.3,0,0.6,0.3,0.6,0.6v4.2c0,0.3-0.3,0.6-0.6,0.6h-4.2c-0.3,0-0.6-0.3-0.6-0.6v-4.2
			C27.1,14.8,27.4,14.6,27.7,14.6z M27.1,11.9V7.7c0-0.3,0.3-0.6,0.6-0.6h4.2c0.3,0,0.6,0.3,0.6,0.6v4.2c0,0.3-0.3,0.6-0.6,0.6h-4.2
			C27.4,12.5,27.1,12.2,27.1,11.9z M27.7,21.7h4.2c0.3,0,0.6,0.3,0.6,0.6v4.2c0,0.3-0.3,0.6-0.6,0.6h-4.2c-0.3,0-0.6-0.3-0.6-0.6
			v-4.2C27.1,22,27.4,21.7,27.7,21.7z M28.3,30.2c0.3,0,0.6,0.3,0.6,0.6v6.5c0,0.3-0.3,0.6-0.6,0.6h-6.5c-0.3,0-0.6-0.3-0.6-0.6
			v-6.5c0-0.3,0.3-0.6,0.6-0.6H28.3z M22.9,11.9c0,0.3-0.3,0.6-0.6,0.6h-4.2c-0.3,0-0.6-0.3-0.6-0.6V7.7c0-0.3,0.3-0.6,0.6-0.6h4.2
			c0.3,0,0.6,0.3,0.6,0.6V11.9z M18.1,14.6h4.2c0.3,0,0.6,0.3,0.6,0.6v4.2c0,0.3-0.3,0.6-0.6,0.6h-4.2c-0.3,0-0.6-0.3-0.6-0.6v-4.2
			C17.5,14.8,17.8,14.6,18.1,14.6z M18.1,21.7h4.2c0.3,0,0.6,0.3,0.6,0.6v4.2c0,0.3-0.3,0.6-0.6,0.6h-4.2c-0.3,0-0.6-0.3-0.6-0.6
			v-4.2C17.5,22,17.8,21.7,18.1,21.7z M37.9,15c0-0.3,0.3-0.6,0.6-0.6h4.2c0.3,0,0.6,0.3,0.6,0.6v4.2c0,0.3-0.3,0.6-0.6,0.6h-4.2
			c-0.3,0-0.6-0.3-0.6-0.6V15z M37.9,22.4c0-0.3,0.3-0.6,0.6-0.6h4.2c0.3,0,0.6,0.3,0.6,0.6v4.2c0,0.3-0.3,0.6-0.6,0.6h-4.2
			c-0.3,0-0.6-0.3-0.6-0.6V22.4z M37.9,29.5c0-0.3,0.3-0.6,0.6-0.6h4.2c0.3,0,0.6,0.3,0.6,0.6v4.2c0,0.3-0.3,0.6-0.6,0.6h-4.2
			c-0.3,0-0.6-0.3-0.6-0.6V29.5z M6,15c0-0.3,0.3-0.6,0.6-0.6h4.2c0.3,0,0.6,0.3,0.6,0.6v4.2c0,0.3-0.3,0.6-0.6,0.6H6.6
			c-0.3,0-0.6-0.3-0.6-0.6V15z M6,22.4c0-0.3,0.3-0.6,0.6-0.6h4.2c0.3,0,0.6,0.3,0.6,0.6v4.2c0,0.3-0.3,0.6-0.6,0.6H6.6
			c-0.3,0-0.6-0.3-0.6-0.6V22.4z M6,29.5C6,29.2,6.3,29,6.6,29h4.2c0.3,0,0.6,0.3,0.6,0.6v4.2c0,0.3-0.3,0.6-0.6,0.6H6.6
			c-0.3,0-0.6-0.3-0.6-0.6V29.5z"/>
	</g>
</g>
</svg>
