<?xml version="1.0" encoding="UTF-8" standalone="no"?>
<svg width="25px" height="18px" viewBox="0 0 25 18" version="1.1" xmlns="http://www.w3.org/2000/svg" xmlns:xlink="http://www.w3.org/1999/xlink" xmlns:sketch="http://www.bohemiancoding.com/sketch/ns">
    <!-- Generator: Sketch 3.5.1 (25234) - http://www.bohemiancoding.com/sketch -->
    <title>Group 29</title>
    <desc>Created with Sketch.</desc>
    <defs></defs>
    <g id="Page-1" stroke="none" stroke-width="1" fill-rule="evenodd"  sketch:type="MSPage">
        <g id="Artboard-1" sketch:type="MSArtboardGroup" transform="translate(-813.000000, -2713.000000)">
            <g id="Group-28" sketch:type="MSLayerGroup" transform="translate(558.000000, 2612.000000)">
                <g id="Group-29" transform="translate(255.000000, 101.000000)" sketch:type="MSShapeGroup">
                    <path d="M2.37573613,14.6928895 C2.60933231,14.2685803 2.87733904,13.9082603 3.17699168,13.629744 C4.11994537,12.7533028 5.49146745,12.1682149 6.5401479,11.9474256 C7.85413612,11.6707784 8.09351124,9.49915571 6.98649512,8.79092456 C6.01532533,8.16960326 5.36680333,6.88022847 5.36680333,5.42369813 C5.36680333,3.25312786 6.6076027,1.6787445 8.23492534,1.6787445 C9.85619513,1.6787445 11.1030474,3.26552761 11.1030474,5.42369813 C11.1030474,6.88022847 10.4545254,8.16960326 9.48335557,8.79092456 C8.37633945,9.49915571 8.61571456,11.6707784 9.92970279,11.9474256 C10.9783832,12.1682149 12.3499053,12.7533028 13.292859,13.629744 C13.5925117,13.9082603 13.8605184,14.2685803 14.0941146,14.6928895 C14.3236016,15.1097348 14.4790963,15.6070778 14.4790963,15.6070778 L8.21090276,15.6070778 L2.10153081,15.6070778 C2.10153081,15.6070778 2.14624904,15.1097348 2.37573613,14.6928895 Z M0.0105147264,16.2948749 C-0.0906349888,16.84216 0.717215564,17.2858223 0.841577709,17.2858223 L0.841577709,17.2858223 L8.21090276,17.2858223 L15.628273,17.2858223 L15.628273,17.2858223 C16.1884061,17.2858223 16.478936,16.4009236 16.459336,16.2948749 L16.459336,16.2948749 C16.428939,16.1304078 16.3657729,15.8639579 16.2627113,15.5279512 C16.091967,14.9712818 15.8666566,14.4139251 15.5767779,13.8873832 C15.2622774,13.3161176 14.8891264,12.814437 14.4474375,12.4039032 C13.4627853,11.4887048 12.2696876,10.8733323 11.14519,10.5265501 C10.8917011,10.448377 10.6416983,10.3838526 10.398355,10.3326191 C10.398355,10.3326191 10.3983548,10.1546421 10.398355,10.1546419 C11.8729999,9.21121437 12.7929554,7.42984207 12.7929554,5.42369813 C12.7929554,2.41670914 10.8939692,0 8.23492534,0 C5.57118816,0 3.6768953,2.40356597 3.6768953,5.42369813 C3.6768953,7.42984207 4.5968506,9.21121437 6.07149553,10.1546419 C6.07149554,10.1546421 6.07149553,10.3326191 6.07149553,10.3326191 C4.74866126,10.6111288 3.22902967,11.282397 2.0224132,12.4039032 C1.58072431,12.814437 1.20757332,13.3161176 0.893072777,13.8873832 C0.603194108,14.4139251 0.377883712,14.9712818 0.207139352,15.5279512 C0.104077745,15.8639579 0.040911678,16.1304078 0.0105147264,16.2948749 L0.0105147264,16.2948749 Z" id="User"></path>
                    <path d="M23.9762051,7.98205915 L20.4201396,7.98205915 L20.4201396,4.44647861 C20.4201396,4.12094675 20.1548234,3.85710544 19.8275862,3.85710544 C19.5001835,3.85710544 19.2348258,4.12094675 19.2348258,4.44647861 L19.2348258,7.98205915 L15.6789259,7.98205915 C15.3515231,7.98205915 15.0862069,8.2458593 15.0862069,8.57122654 C15.0862069,8.8967584 15.3515231,9.16059971 15.6789259,9.16059971 L19.2348258,9.16059971 L19.2348258,12.6961802 C19.2348258,13.0217121 19.5001835,13.2855123 19.8275862,13.2855123 C20.1548234,13.2855123 20.4201396,13.0217121 20.4201396,12.6961802 L20.4201396,9.16059971 L23.9762051,9.16059971 C24.3036079,9.16059971 24.5689655,8.8967584 24.5689655,8.57122654 C24.5689655,8.2458593 24.3036079,7.98205915 23.9762051,7.98205915 L23.9762051,7.98205915 Z" id="Fill-1-Copy"></path>
                </g>
            </g>
        </g>
    </g>
</svg>