<?xml version="1.0" encoding="UTF-8" standalone="no"?>
<svg width="14px" height="17px" viewBox="0 0 14 17" version="1.1" xmlns="http://www.w3.org/2000/svg" xmlns:xlink="http://www.w3.org/1999/xlink">
    <!-- Generator: Sketch 39.1 (31720) - http://www.bohemiancoding.com/sketch -->
    <title>Line 75</title>
    <desc>Created with Sketch.</desc>
    <defs></defs>
    <g id="Page-1" stroke="none" stroke-width="1">
        <g id="Icon" >
            <path d="M13.375,1.375 C13.375,0.960786438 13.0392136,0.625 12.625,0.625 L4.75,0.625 C4.53738512,0.625 4.33476125,0.715241056 4.19252939,0.873276451 L0.81752939,4.62327645 C0.693582713,4.76099498 0.625,4.93971867 0.625,5.125 L0.625,15.625 C0.625,16.0392136 0.960786438,16.375 1.375,16.375 L12.625,16.375 C13.0392136,16.375 13.375,16.0392136 13.375,15.625 L13.375,1.375 Z M2.125,14.875 L2.125,5.37774658 L5.05065918,2.125 L11.875,2.125 L11.875,14.875 L2.125,14.875 Z M5.38000011,5.3805542 L2.13275146,5.3805542 L2.13275148,6.13000011 L2.13275148,6.88000011 L6.13000011,6.88000011 C6.54421368,6.88000011 6.88000011,6.54421368 6.88000011,6.13000011 L6.88000011,5.3805542 L6.88000011,2.12426758 C6.88000011,2.12426758 6.54421368,2.12426759 6.13000011,2.12426759 C5.71578655,2.12426759 5.38000011,2.12426758 5.38000011,2.12426758 L5.38000011,5.3805542 Z" id="Line-75"></path>
        </g>
    </g>
</svg>
