<?xml version="1.0" encoding="UTF-8" ?>
<!DOCTYPE svg PUBLIC "-//W3C//DTD SVG 1.1//EN" "http://www.w3.org/Graphics/SVG/1.1/DTD/svg11.dtd">
<svg width="626pt" height="626pt" viewBox="0 0 626 626" version="1.1" xmlns="http://www.w3.org/2000/svg">
<g id="#ffffffff">
</g>
<g id="#000000ff">
<path  d=" M 405.04 39.89 C 408.95 39.03 412.99 39.24 416.97 39.22 C 464.29 39.23 511.62 39.22 558.94 39.22 C 563.28 39.25 567.70 38.93 571.96 39.99 C 577.52 41.13 582.21 44.95 584.72 50.00 C 585.15 51.29 585.54 52.59 585.97 53.89 C 587.08 58.18 586.73 62.65 586.78 67.03 C 586.78 98.02 586.78 129.00 586.78 159.98 C 586.58 179.95 587.18 199.94 586.46 219.89 C 585.87 221.23 585.29 222.58 584.72 223.94 C 582.35 228.82 577.92 232.25 572.81 233.91 C 569.45 234.86 565.94 234.47 562.51 234.41 C 562.49 234.27 562.46 234.01 562.44 233.87 C 561.30 233.58 560.19 233.25 559.09 232.89 C 552.35 229.73 547.64 222.69 547.99 215.15 C 547.86 182.78 547.97 150.40 547.93 118.03 C 547.87 113.87 548.25 109.65 547.36 105.54 C 546.98 106.13 546.21 107.30 545.83 107.89 C 542.43 111.10 539.20 114.49 535.85 117.76 C 535.58 118.03 535.04 118.58 534.78 118.85 C 533.49 120.17 532.19 121.47 530.88 122.77 C 530.60 123.04 530.04 123.57 529.76 123.84 C 526.31 127.35 522.82 130.80 519.36 134.29 C 517.66 135.96 515.99 137.64 514.32 139.34 C 514.07 139.58 513.57 140.05 513.32 140.29 C 511.66 141.97 509.99 143.63 508.32 145.30 C 508.07 145.55 507.56 146.05 507.31 146.30 C 505.57 148.03 503.84 149.77 502.17 151.56 L 501.92 151.55 C 500.45 153.19 498.88 154.74 497.34 156.30 C 495.51 158.14 493.67 159.97 491.80 161.76 C 491.54 162.02 491.03 162.56 490.77 162.82 C 489.45 164.15 488.14 165.48 486.81 166.79 C 486.54 167.05 486.02 167.56 485.75 167.82 C 484.16 169.51 482.51 171.14 480.80 172.72 C 480.54 173.00 480.02 173.56 479.76 173.85 C 478.38 175.24 476.99 176.61 475.53 177.91 L 475.54 178.22 C 475.24 178.49 474.63 179.05 474.32 179.32 C 472.72 180.89 471.15 182.50 469.43 183.94 L 469.84 184.53 C 469.55 184.55 468.95 184.57 468.66 184.59 C 467.47 186.07 466.20 187.48 464.88 188.84 C 464.59 189.07 464.03 189.53 463.75 189.75 C 462.32 191.34 460.79 192.83 459.30 194.35 C 459.06 194.59 458.57 195.07 458.32 195.31 C 456.83 196.80 455.33 198.29 453.80 199.74 C 451.86 201.78 449.88 203.79 447.84 205.73 C 447.56 206.00 447.02 206.54 446.75 206.81 C 445.08 208.59 443.32 210.29 441.48 211.88 L 441.53 212.19 C 440.10 213.53 438.68 214.88 437.29 216.25 C 437.03 216.52 436.51 217.04 436.26 217.31 C 434.78 218.80 433.30 220.30 431.82 221.79 C 431.55 222.03 431.01 222.52 430.75 222.77 C 429.28 224.32 427.78 225.83 426.27 227.33 C 426.02 227.56 425.53 228.02 425.29 228.25 C 423.64 229.96 421.95 231.63 420.26 233.29 C 420.03 233.54 419.58 234.04 419.35 234.29 C 417.98 235.63 416.61 236.98 415.24 238.32 C 415.01 238.56 414.54 239.04 414.31 239.28 C 412.82 240.76 411.36 242.27 409.83 243.72 C 409.55 244.00 408.99 244.55 408.71 244.83 C 407.12 246.52 405.48 248.14 403.77 249.71 C 403.52 249.99 403.02 250.56 402.77 250.85 C 401.44 252.15 400.11 253.45 398.77 254.74 C 398.52 255.01 398.01 255.55 397.76 255.82 C 396.13 257.48 394.48 259.12 392.79 260.71 C 388.52 265.02 384.52 269.83 378.96 272.51 C 375.11 273.97 370.94 273.84 366.91 273.43 C 365.58 272.84 364.25 272.28 362.92 271.70 C 359.16 269.77 356.17 266.73 354.20 263.00 C 351.76 258.42 351.88 253.01 352.99 248.07 C 353.57 247.00 354.16 245.94 354.69 244.84 C 356.14 242.32 358.09 240.15 360.20 238.18 C 361.66 236.67 363.15 235.19 364.63 233.70 C 370.16 228.22 375.64 222.68 381.18 217.21 C 382.95 215.35 384.78 213.54 386.63 211.76 C 386.90 211.47 387.44 210.88 387.72 210.59 C 389.22 209.14 390.67 207.65 392.19 206.22 C 392.44 205.96 392.95 205.44 393.20 205.18 C 398.29 199.95 403.55 194.88 408.67 189.68 C 413.96 184.33 419.33 179.06 424.62 173.71 C 424.89 173.44 425.44 172.89 425.72 172.62 C 432.90 165.50 439.97 158.26 447.21 151.19 C 449.00 149.33 450.83 147.50 452.66 145.67 C 457.97 140.35 463.34 135.08 468.60 129.71 C 468.88 129.44 469.44 128.90 469.72 128.63 C 473.37 124.97 477.04 121.33 480.68 117.65 C 482.51 115.83 484.33 114.00 486.19 112.19 C 489.83 108.49 493.49 104.81 497.21 101.19 C 502.30 95.98 507.50 90.87 512.64 85.72 C 512.92 85.45 513.47 84.91 513.74 84.64 C 515.74 82.42 517.89 80.33 520.32 78.58 C 516.57 77.84 512.74 78.08 508.94 78.07 C 477.29 78.08 445.64 78.06 413.98 78.07 C 410.15 78.06 406.22 77.93 402.62 76.50 C 397.53 73.87 393.35 69.24 392.05 63.56 L 391.61 63.57 C 391.62 60.08 390.90 56.39 392.35 53.09 C 392.37 52.78 392.40 52.18 392.42 51.87 C 394.40 47.37 397.59 43.51 402.02 41.26 C 403.02 40.80 404.03 40.35 405.04 39.89 Z" />
<path  d=" M 248.12 353.02 C 251.96 352.07 256.00 352.02 259.86 352.90 C 260.90 353.36 261.95 353.80 262.99 354.27 C 266.82 356.18 269.80 359.29 271.76 363.08 C 272.21 364.06 272.66 365.05 273.12 366.03 C 274.02 370.36 274.03 374.97 272.44 379.15 C 269.74 384.62 265.00 388.56 260.76 392.80 C 259.15 394.47 257.53 396.13 255.85 397.74 C 255.57 398.01 255.02 398.55 254.75 398.81 C 253.31 400.32 251.82 401.79 250.34 403.25 C 250.07 403.52 249.52 404.06 249.24 404.33 C 247.59 406.01 245.94 407.68 244.27 409.35 C 242.60 410.99 240.96 412.66 239.31 414.33 C 239.06 414.56 238.57 415.01 238.32 415.24 C 236.99 416.60 235.66 417.96 234.34 419.32 C 234.09 419.57 233.58 420.06 233.32 420.31 C 231.64 421.98 229.96 423.68 228.23 425.31 C 227.99 425.62 227.52 426.26 227.29 426.58 L 226.94 426.54 C 225.76 427.80 224.56 429.05 223.36 430.29 C 223.07 430.61 222.49 431.24 222.21 431.56 L 221.91 431.54 C 220.46 433.18 218.89 434.73 217.33 436.28 C 217.08 436.55 216.56 437.10 216.30 437.37 C 214.79 438.84 213.30 440.32 211.76 441.75 C 211.52 442.01 211.04 442.55 210.81 442.82 C 209.15 444.49 207.48 446.16 205.77 447.79 C 204.18 449.48 202.54 451.12 200.84 452.72 C 200.57 453.00 200.01 453.56 199.73 453.84 C 198.29 455.34 196.81 456.81 195.34 458.30 C 195.08 458.56 194.56 459.08 194.30 459.34 C 192.92 460.72 191.55 462.12 190.21 463.55 L 189.82 463.45 C 189.56 463.80 189.05 464.52 188.79 464.88 C 187.12 466.52 185.48 468.20 183.75 469.79 C 182.26 471.41 180.68 472.94 179.22 474.59 L 178.32 474.43 L 179.16 475.41 C 178.74 475.50 177.89 475.66 177.47 475.75 C 176.34 477.17 175.17 478.57 173.80 479.78 C 171.83 481.79 169.87 483.83 167.80 485.76 C 165.85 487.83 163.83 489.85 161.76 491.82 C 160.34 493.33 158.82 494.76 157.39 496.27 C 157.11 496.54 156.56 497.08 156.28 497.35 C 154.79 498.81 153.34 500.32 151.85 501.79 C 151.58 502.05 151.03 502.56 150.76 502.82 C 149.31 504.34 147.83 505.83 146.34 507.32 C 144.24 509.34 142.20 511.43 140.20 513.55 L 139.35 513.48 L 139.62 514.16 C 138.18 515.50 136.77 516.89 135.36 518.27 C 135.09 518.54 134.54 519.08 134.27 519.35 C 132.48 521.20 130.64 523.02 128.77 524.81 C 127.16 526.52 125.49 528.17 123.80 529.81 C 123.56 530.06 123.08 530.55 122.84 530.80 C 121.51 532.13 120.19 533.46 118.84 534.77 C 118.57 535.04 118.02 535.58 117.75 535.85 C 116.16 537.52 114.52 539.12 112.84 540.70 C 112.57 540.99 112.02 541.57 111.75 541.85 C 110.46 543.17 109.17 544.50 107.90 545.85 C 107.30 546.23 106.11 546.99 105.51 547.37 C 108.97 548.12 112.52 547.95 116.04 547.93 C 146.35 547.92 176.67 547.93 206.98 547.93 C 210.70 547.94 214.44 547.77 218.14 548.22 C 224.57 548.71 230.14 553.38 232.81 559.08 C 233.40 560.58 233.94 562.11 234.49 563.65 C 234.51 566.09 234.49 568.54 234.48 570.99 C 232.95 576.45 229.86 581.58 224.75 584.35 C 223.40 584.91 222.05 585.46 220.70 586.01 C 220.29 587.07 219.42 588.16 218.64 586.72 C 166.09 586.85 113.55 586.71 61.01 586.79 C 58.60 586.81 56.21 586.49 53.85 586.02 C 50.53 585.09 47.63 583.14 44.88 581.14 C 42.81 578.34 40.76 575.40 39.93 571.97 C 39.46 569.69 39.18 567.36 39.21 565.04 C 39.24 516.70 39.21 468.37 39.22 420.03 C 39.31 415.03 38.88 409.97 39.86 405.03 C 40.36 404.00 40.86 402.97 41.34 401.94 C 43.66 397.13 48.04 393.89 52.97 392.08 C 56.43 391.20 60.03 391.50 63.57 391.61 L 63.58 392.09 C 64.76 392.42 65.93 392.79 67.09 393.20 C 73.34 396.32 78.13 402.74 77.97 409.93 C 78.20 440.62 78.00 471.32 78.07 502.02 C 78.28 508.15 77.53 514.36 78.63 520.44 C 79.00 519.87 79.76 518.73 80.13 518.16 C 81.65 516.69 83.14 515.21 84.63 513.72 C 84.91 513.45 85.45 512.91 85.73 512.64 C 90.70 507.67 95.66 502.71 100.62 497.74 C 100.90 497.46 101.46 496.90 101.74 496.62 C 103.37 495.00 104.98 493.36 106.64 491.78 C 106.92 491.49 107.46 490.91 107.73 490.62 C 109.39 488.97 111.05 487.33 112.70 485.68 C 114.35 484.00 116.02 482.34 117.69 480.68 C 119.69 478.66 121.71 476.67 123.73 474.66 C 125.36 472.99 127.02 471.34 128.68 469.69 C 133.98 464.34 139.34 459.05 144.64 453.70 C 144.92 453.44 145.48 452.92 145.76 452.66 C 147.55 450.79 149.37 448.95 151.24 447.17 C 154.68 443.64 158.18 440.16 161.67 436.67 C 163.51 434.85 165.32 433.02 167.20 431.24 C 168.99 429.36 170.83 427.52 172.67 425.68 C 174.66 423.67 176.66 421.66 178.70 419.69 C 182.01 416.36 185.35 413.07 188.64 409.73 C 188.92 409.46 189.47 408.92 189.74 408.65 C 193.37 404.98 197.06 401.37 200.68 397.69 C 202.18 396.19 203.66 394.67 205.23 393.24 C 205.47 392.98 205.95 392.44 206.19 392.18 C 207.67 390.69 209.17 389.21 210.68 387.76 C 210.94 387.48 211.47 386.94 211.73 386.67 C 213.20 385.18 214.67 383.70 216.17 382.25 C 216.44 381.98 216.98 381.46 217.26 381.19 C 222.33 375.99 227.52 370.90 232.65 365.75 C 232.92 365.48 233.46 364.94 233.73 364.67 C 235.20 363.18 236.65 361.68 238.17 360.25 C 238.44 359.97 238.96 359.43 239.23 359.16 C 240.89 357.43 242.79 355.94 244.82 354.68 C 245.94 354.16 247.02 353.58 248.12 353.02 Z" />
</g>
</svg>
