<?xml version="1.0" encoding="utf-8"?>
<!-- Generator: Adobe Illustrator 17.1.0, SVG Export Plug-In . SVG Version: 6.00 Build 0)  -->
<!DOCTYPE svg PUBLIC "-//W3C//DTD SVG 1.1//EN" "http://www.w3.org/Graphics/SVG/1.1/DTD/svg11.dtd">
<svg version="1.1" id="Layer_1" xmlns="http://www.w3.org/2000/svg" xmlns:xlink="http://www.w3.org/1999/xlink" x="0px" y="0px"
	 viewBox="0 0 78.4 100.2" enable-background="new 0 0 78.4 100.2" xml:space="preserve">
<path d="M2.7,2.3c-2.9,2.9-2.9,7.9,0,10.8l36.6,36.6L2.7,86.4c-2.9,2.9-2.9,7.9,0,10.8c2.9,2.9,7.9,2.9,10.8,0
	l41.9-41.9c0.2-0.1,0.3-0.3,0.4-0.4l0.1-0.1v0c1.2-1.4,2-3.1,2-5s-0.8-3.7-2-5v0l-0.1-0.1c-0.1-0.2-0.3-0.3-0.4-0.4L13.5,2.3
	C10.6-0.5,5.6-0.5,2.7,2.3z"/>
<path d="M75.1,8.1c0-4.1-3.6-7.6-7.6-7.6c-4.1,0-7.6,3.6-7.6,7.6l0,83.3c0,4.1,3.6,7.6,7.6,7.6
	c4.1,0,7.6-3.6,7.6-7.6L75.1,8.1z"/>
</svg>
