<?xml version="1.0" encoding="UTF-8" standalone="no"?>
<svg width="20px" height="14px" viewBox="0 0 20 14" version="1.1" xmlns="http://www.w3.org/2000/svg" xmlns:xlink="http://www.w3.org/1999/xlink" xmlns:sketch="http://www.bohemiancoding.com/sketch/ns">
    <!-- Generator: Sketch 3.4.3 (16044) - http://www.bohemiancoding.com/sketch -->
    <title>Arrow Left</title>
    <desc>Created with Sketch.</desc>
    <defs></defs>
    <g id="Detail-View" stroke="none" stroke-width="1" fill-rule="evenodd" sketch:type="MSPage">
        <g id="Cardview-(-Detail-1-Image-)" sketch:type="MSArtboardGroup" transform="translate(-20.000000, -37.000000)">
            <path d="M20,43.9543401 C20,44.5437946 20.4816736,45.0792806 20.4816736,45.0792806 L25.9511693,50.6057659 C26.4756659,51.1306817 27.3236419,51.1330847 27.8533685,50.6029348 C28.3794274,50.0764554 28.379864,49.2233006 27.8561973,48.6992154 L24.4621695,45.3024751 L38.6585879,45.3024751 C39.3994294,45.3024751 40,44.7040855 40,43.9543403 C40,43.209786 39.3952783,42.6062055 38.6585879,42.6062055 L24.5534159,42.6062055 L27.8561973,39.3007846 C28.379864,38.7766994 28.3794274,37.9235446 27.8533685,37.3970652 C27.3236419,36.8669153 26.4756659,36.8693183 25.9511693,37.3942341 L20.5514222,42.7394964 C20.5514222,42.7394964 20,43.3648856 20,43.9543401 Z" id="Arrow-Left" sketch:type="MSShapeGroup"></path>
        </g>
    </g>
</svg>
