<?xml version="1.0" encoding="UTF-8" standalone="no"?>
<svg width="19px" height="22px" viewBox="0 0 19 22" version="1.1" xmlns="http://www.w3.org/2000/svg" xmlns:xlink="http://www.w3.org/1999/xlink">
    <!-- Generator: Sketch 39 (31667) - http://www.bohemiancoding.com/sketch -->
    <title>reload</title>
    <desc>Created with Sketch.</desc>
    <defs></defs>
    <g id="Views" stroke="none" stroke-width="1">
        <g id="List-View" transform="translate(-332.000000, -123.000000)">
            <g id="reload" transform="translate(332.000000, 123.000000)">
                <g id="Capa_1">
                    <path d="M10.5534543,21.9174327 C14.9230094,21.4235551 18.4248829,17.8990653 18.9232436,13.4900857 C19.5773419,7.72518776 15.1365925,2.81784082 9.57008197,2.75498367 L9.57008197,0.168861224 C9.57008197,0.0251877551 9.39209602,-0.0511387755 9.2719555,0.0386571429 L3.99467213,3.94926939 C3.90567916,4.01661633 3.90567916,4.14682041 3.99467213,4.21416735 L9.2719555,8.12477959 C9.39209602,8.21457551 9.57008197,8.13375918 9.57008197,7.99457551 L9.57008197,5.41294286 C13.4813232,5.4758 16.6138759,8.83416735 16.346897,12.8480449 C16.1199649,16.300698 13.3300351,19.1023306 9.90825527,19.3223306 C6.28179157,19.5558 3.19818501,16.9427388 2.64642857,13.4855959 C2.54408665,12.8435551 1.98788056,12.3766163 1.34713115,12.3766163 C0.550644028,12.3766163 -0.0723067916,13.0904939 0.0522833724,13.8851878 C0.826522248,18.8104939 5.33401639,22.5055959 10.5534543,21.9174327 L10.5534543,21.9174327 Z" id="Shape"></path>
                </g>
            </g>
        </g>
    </g>
</svg>
