<?xml version="1.0" encoding="UTF-8" standalone="no"?>
<svg width="16px" height="19px" viewBox="0 0 16 19" version="1.1" xmlns="http://www.w3.org/2000/svg" xmlns:xlink="http://www.w3.org/1999/xlink" xmlns:sketch="http://www.bohemiancoding.com/sketch/ns">
    <!-- Generator: Sketch 3.3.3 (12081) - http://www.bohemiancoding.com/sketch -->
    <title>Bell</title>
    <desc>Created with Sketch.</desc>
    <defs></defs>
    <g id="Cardview" stroke="none" stroke-width="1" fill-rule="evenodd" sketch:type="MSPage">
        <g id="Card-View-(Board-Members)" sketch:type="MSArtboardGroup" transform="translate(-1184.000000, -31.000000)">
            <g id="Header" sketch:type="MSLayerGroup" transform="translate(219.000000, 0.000000)">
                <g id="Notifications" transform="translate(955.000000, 19.000000)" sketch:type="MSShapeGroup">
                    <path d="M19.989267,13.6216705 C21.9864197,14.4610387 23.5421026,16.4689337 23.5421026,18.6300974 C23.5421026,21.3377101 24.2511318,23.9340082 25.4385963,25.1548291 L25.6467778,25.3688586 C26.2672493,26.0067595 26.0491001,26.5246179 25.1586428,26.5246179 L24.8600659,26.5246179 L18.000009,26.5246179 L11.1399521,26.5246179 L10.8413752,26.5246179 C9.95148619,26.5246179 9.73237245,26.0071668 10.3532402,25.3688586 L10.5614217,25.1548291 C11.7488862,23.9340082 12.4579154,21.3377101 12.4579154,18.6300974 C12.4579154,16.1885712 14.4434093,13.9426594 16.8078647,13.3562157 C16.925265,12.5882645 17.5886396,12 18.3894107,12 C19.2730663,12 19.9894107,12.7163444 19.9894107,13.6 C19.9894107,13.6072348 19.9893627,13.6144584 19.989267,13.6216705 L19.989267,13.6216705 Z M17.4219516,14.8744804 C15.6627251,15.1899557 14.0720464,16.8838893 14.0720464,18.6300974 C14.0720464,20.753437 13.4176068,23.5124075 12.7049223,24.910487 L18.000009,24.9104868 L23.3715463,24.910487 C22.4697303,23.4479763 21.9279716,20.7086675 21.9279716,18.6300974 C21.9279716,17.0685561 20.6559415,15.5488177 19.1288602,15.0192482 C18.9076959,15.1347141 18.6561775,15.2 18.3894107,15.2 C18.0258602,15.2 17.6906293,15.078749 17.4219516,14.8744804 L17.4219516,14.8744804 Z M18.000009,30.5316834 C19.1143339,30.5316834 20.0176728,29.0989946 20.0176728,27.3316834 C20.0176728,27.3316833 15.9823452,27.3316834 15.9823452,27.3316834 C15.9823452,29.0989946 16.8856841,30.5316834 18.000009,30.5316834 Z" id="Bell"></path>
                </g>
            </g>
        </g>
    </g>
</svg>