<?xml version="1.0" encoding="UTF-8" standalone="no"?>
<svg width="9px" height="11px" viewBox="0 0 9 11" version="1.1" xmlns="http://www.w3.org/2000/svg" xmlns:xlink="http://www.w3.org/1999/xlink" xmlns:sketch="http://www.bohemiancoding.com/sketch/ns">
    <!-- Generator: Sketch 3.3.3 (12081) - http://www.bohemiancoding.com/sketch -->
    <title>B</title>
    <desc>Created with Sketch.</desc>
    <defs></defs>
    <g id="New-Card" stroke="none" stroke-width="1" fill-rule="evenodd" sketch:type="MSPage">
        <g id="Card-View-Copy" sketch:type="MSArtboardGroup" transform="translate(-422.000000, -347.000000)">
            <g id="FormattingBar" sketch:type="MSLayerGroup" transform="translate(403.000000, 332.000000)">
                <g id="TextButtons" transform="translate(0.302595, 0.685092)" sketch:type="MSShapeGroup">
                    <g id="Bold" transform="translate(17.834065, 14.842546)">
                        <path d="M0.96025722,0.152511827 L4.71166209,0.152511827 C5.45426472,0.152511827 6.00800751,0.183939983 6.37290708,0.246797239 C6.73780665,0.309654495 7.39082433,0.739898111 7.67890294,0.939307336 C7.96698154,1.13871656 8.20704345,1.4042303 8.39909585,1.73585651 C8.59114826,2.06748272 8.68717302,2.43920195 8.68717302,2.85102535 C8.68717302,3.29752861 8.56874248,3.70717838 8.33187785,4.07998693 C8.09501321,4.45279548 7.77386373,4.7323977 7.36841977,4.91880198 C7.94030915,5.08786632 8.37988917,5.37613838 8.68717302,5.78362679 C8.99445686,6.19111521 9.14809648,6.67012366 9.14809648,7.22066652 C9.14809648,7.65416484 9.0488709,8.07573563 8.85041675,8.48539154 C8.65196259,8.89504745 8.38095938,9.22233376 8.03739897,9.46726031 C7.69383855,9.71218686 6.94372917,9.56371292 6.44012509,9.62006771 C6.12430558,9.65474757 5.36250914,9.67642216 4.1547129,9.68509213 L0.96025722,9.68509213 L0.96025722,0.152511827 Z M2.8551648,1.73910773 L2.8551648,3.94343564 L4.09709747,3.94343564 C4.83543227,3.94343564 5.29421724,3.93259835 5.47346615,3.91092343 C5.79782133,3.87190858 6.05282041,3.75811698 6.23847107,3.56954522 C6.42412173,3.38097345 6.51694567,3.13279939 6.51694567,2.82501558 C6.51694567,2.53023673 6.43692503,2.2907325 6.27688136,2.10649572 C6.11683769,1.92225893 5.87890967,1.81063479 5.56309016,1.77161994 C5.37530559,1.74994502 4.83543304,1.73910773 3.94345632,1.73910773 L2.8551648,1.73910773 Z M2.8551648,5.53003155 L2.8551648,8.0789889 L4.60923466,8.0789889 C5.29208765,8.0789889 5.72526602,8.05948177 5.90878276,8.02046692 C6.19045962,7.96844712 6.41985211,7.84165076 6.5969671,7.64007405 C6.7740821,7.43849733 6.86263827,7.16864868 6.86263827,6.83051999 C6.86263827,6.5444111 6.79435399,6.30165569 6.65778339,6.10224646 C6.52121279,5.90283724 6.32382856,5.75761748 6.06562477,5.66658283 C5.80742098,5.57554819 5.24727654,5.53003155 4.38517464,5.53003155 L2.8551648,5.53003155 Z" id="B"></path>
                    </g>
                </g>
            </g>
        </g>
    </g>
</svg>