<?xml version="1.0" encoding="UTF-8" standalone="no"?>
<svg width="204px" height="262px" viewBox="0 0 204 262" version="1.1" xmlns="http://www.w3.org/2000/svg" xmlns:xlink="http://www.w3.org/1999/xlink" xmlns:sketch="http://www.bohemiancoding.com/sketch/ns">
    <!-- Generator: Sketch 3.5.2 (25235) - http://www.bohemiancoding.com/sketch -->
    <title>book</title>
    <desc>Created with Sketch.</desc>
    <defs></defs>
    <g id="Page-1" stroke-width="1" fill-rule="evenodd" sketch:type="MSPage">
        <g id="Artboard-1" sketch:type="MSArtboardGroup" transform="translate(-355.000000, -5025.000000)" stroke-width="0.5">
            <g id="Group-32" sketch:type="MSLayerGroup" transform="translate(308.000000, 4897.000000)">
                <g id="book" transform="translate(48.000000, 129.000000)" sketch:type="MSShapeGroup">
                    <g id="Capa_1">
                        <g id="Group">
                            <path d="M192.89866,21.0620472 L159.414147,21.0620472 L159.414147,8.53018373 C159.414147,3.81879265 155.447151,0 150.554498,0 C145.661846,0 141.694849,3.81879265 141.694849,8.53018373 L141.694849,21.0620472 L109.800112,21.0620472 L109.800112,8.53018373 C109.800112,3.81879265 105.833116,0 100.940463,0 C96.0478105,0 92.080814,3.81879265 92.080814,8.53018373 L92.080814,21.0620472 L60.1860772,21.0620472 L60.1860772,8.53018373 C60.1860772,3.81879265 56.2190807,0 51.3264281,0 C46.4337754,0 42.4667789,3.81879265 42.4667789,8.53018373 L42.4667789,21.0620472 L8.98226667,21.0620472 C4.08961404,21.0620472 0.122617544,24.8815223 0.122617544,29.592231 L0.122617544,251.355171 C0.122617544,256.065879 4.08961404,259.885354 8.98226667,259.885354 L192.89866,259.885354 C197.791312,259.885354 201.758309,256.065879 201.758309,251.355171 L201.758309,29.592231 C201.758309,24.8815223 197.791312,21.0620472 192.89866,21.0620472 L192.89866,21.0620472 Z M184.039011,242.824987 L17.8419158,242.824987 L17.8419158,38.1224147 L42.4667789,38.1224147 L42.4667789,48.0788451 C42.4667789,52.7902362 46.4337754,56.6090289 51.3264281,56.6090289 C56.2190807,56.6090289 60.1860772,52.7902362 60.1860772,48.0788451 L60.1860772,38.1224147 L92.080814,38.1224147 L92.080814,48.0788451 C92.080814,52.7902362 96.0478105,56.6090289 100.940463,56.6090289 C105.833116,56.6090289 109.800112,52.7902362 109.800112,48.0788451 L109.800112,38.1224147 L141.694849,38.1224147 L141.694849,48.0788451 C141.694849,52.7902362 145.661846,56.6090289 150.554498,56.6090289 C155.447151,56.6090289 159.414147,52.7902362 159.414147,48.0788451 L159.414147,38.1224147 L184.039011,38.1224147 L184.039011,242.824987 L184.039011,242.824987 Z" id="Shape"></path>
                            <path d="M153.389586,95.3729134 L48.4913404,95.3729134 C43.5986877,95.3729134 39.6316912,99.1923885 39.6316912,103.903097 C39.6316912,108.613806 43.5986877,112.433281 48.4913404,112.433281 L153.389586,112.433281 C158.282239,112.433281 162.249235,108.613806 162.249235,103.903097 C162.249235,99.1923885 158.282239,95.3729134 153.389586,95.3729134 L153.389586,95.3729134 Z" id="Shape"></path>
                            <path d="M153.389586,143.141942 L48.4913404,143.141942 C43.5986877,143.141942 39.6316912,146.9621 39.6316912,151.672126 C39.6316912,156.382835 43.5986877,160.20231 48.4913404,160.20231 L153.389586,160.20231 C158.282239,160.20231 162.249235,156.382835 162.249235,151.672126 C162.249235,146.961417 158.282239,143.141942 153.389586,143.141942 L153.389586,143.141942 Z" id="Shape"></path>
                            <path d="M153.389586,190.910971 L48.4913404,190.910971 C43.5986877,190.910971 39.6316912,194.731129 39.6316912,199.441155 C39.6316912,204.151864 43.5986877,207.971339 48.4913404,207.971339 L153.389586,207.971339 C158.282239,207.971339 162.249235,204.151864 162.249235,199.441155 C162.249235,194.730446 158.282239,190.910971 153.389586,190.910971 L153.389586,190.910971 Z" id="Shape"></path>
                        </g>
                    </g>
                </g>
            </g>
        </g>
    </g>
</svg>
