<?xml version="1.0" encoding="UTF-8" ?>
<!DOCTYPE svg PUBLIC "-//W3C//DTD SVG 1.1//EN" "http://www.w3.org/Graphics/SVG/1.1/DTD/svg11.dtd">
<svg width="512pt" height="512pt" viewBox="0 0 512 512" version="1.1" xmlns="http://www.w3.org/2000/svg">
<g id="#000000ff">
<path d=" M 249.14 4.14 C 253.59 1.39 259.67 1.95 263.66 5.28 C 268.23 9.02 270.11 14.87 271.91 20.27 C 289.80 73.99 307.70 127.71 325.62 181.41 C 379.76 181.42 433.91 181.41 488.06 181.42 C 493.19 181.45 498.73 181.96 502.96 185.17 C 506.91 188.06 508.93 193.31 507.86 198.10 C 506.84 203.15 503.21 207.16 499.30 210.30 C 453.37 247.08 407.40 283.80 361.47 320.58 C 379.71 375.30 397.94 430.02 416.18 484.74 C 417.73 489.50 419.13 494.69 417.52 499.63 C 416.07 504.57 411.13 508.20 405.97 508.08 C 400.95 508.05 396.46 505.34 392.65 502.30 C 346.97 465.76 301.27 429.23 255.60 392.66 C 209.85 429.18 164.17 465.80 118.44 502.35 C 114.60 505.41 110.03 508.09 104.97 508.02 C 99.66 508.02 94.70 504.07 93.47 498.91 C 92.10 493.99 93.60 488.94 95.12 484.25 C 113.31 429.70 131.49 375.14 149.67 320.58 C 103.90 283.93 58.10 247.32 12.31 210.69 C 8.52 207.68 4.94 203.98 3.62 199.20 C 2.07 194.16 4.00 188.33 8.24 185.21 C 12.69 181.80 18.57 181.41 23.98 181.41 C 77.83 181.42 131.67 181.41 185.52 181.42 C 203.72 126.93 221.85 72.41 240.03 17.91 C 241.79 12.68 244.17 7.07 249.14 4.14 M 255.54 31.28 C 236.79 87.65 217.99 144.02 199.19 200.38 C 142.73 200.39 86.27 200.37 29.82 200.39 C 77.14 238.30 124.52 276.14 171.85 314.03 C 153.47 369.15 135.09 424.27 116.74 479.41 C 163.04 442.42 209.30 405.38 255.58 368.37 C 301.84 405.41 348.12 442.40 394.40 479.42 C 376.06 424.28 357.67 369.16 339.30 314.03 C 386.62 276.13 434.01 238.30 481.33 200.39 C 424.87 200.37 368.41 200.39 311.95 200.38 C 293.11 144.02 274.42 87.62 255.54 31.28 Z" />
</g>
</svg>
