<?xml version="1.0" encoding="UTF-8" standalone="no"?>
<svg width="25px" height="20px" viewBox="0 0 25 20" version="1.1" xmlns="http://www.w3.org/2000/svg" xmlns:xlink="http://www.w3.org/1999/xlink" xmlns:sketch="http://www.bohemiancoding.com/sketch/ns">
    <!-- Generator: Sketch 3.3.3 (12081) - http://www.bohemiancoding.com/sketch -->
    <title>Chat Copy 2</title>
    <desc>Created with Sketch.</desc>
    <defs></defs>
    <g id="Cardview" stroke="none" stroke-width="1" fill-rule="evenodd" sketch:type="MSPage">
        <g id="Comments-+-Chat-Copy-2" sketch:type="MSLayerGroup" transform="translate(0.000000, -1.000000)">
            <path d="M2.0448175,10.7128831 C2.0448175,6.53758212 6.46213745,3.0448175 12.0133028,3.0448175 C17.5644682,3.0448175 21.9817882,6.53758212 21.9817882,10.7128831 C21.9817882,14.8881842 17.5644682,18.3809488 12.0133028,18.3809488 C10.3826435,18.3809488 8.81086481,18.0781035 7.39927492,17.5073315 L6.82018987,17.2731803 L6.34755438,17.6815698 C5.90098727,18.0674345 4.99633027,18.6109607 4.8175709,18.5776713 C5.07076426,18.2149883 5.27280291,17.5895363 5.35441233,17.1122745 L5.45818515,16.5053984 L4.9703295,16.1298133 C3.09892452,14.6890757 2.0448175,12.7555639 2.0448175,10.7128831 Z M3.72293219,17.7500844 L3.33884936,16.7676232 C3.18323315,17.6776857 2.79819478,18.5371368 2.2228675,19.2594103 L0.934066296,20.8773883 L3.0021961,20.9186261 C3.85230777,20.935577 4.70227741,20.795684 5.51693968,20.4991712 C6.31947378,20.2070727 7.05061391,19.7764997 7.6844708,19.2288038 L7.01601259,18.4551868 L6.63275026,19.4030421 C8.28905345,20.0727631 10.1211534,20.4257663 12.0133028,20.4257663 C18.6023438,20.4257663 24.0266057,16.1368151 24.0266057,10.7128831 C24.0266057,5.28895122 18.6023438,1 12.0133028,1 C5.42426184,1 0,5.28895122 0,10.7128831 C0,13.4242103 1.37139063,15.9397043 3.72293219,17.7500844 L3.72293219,17.7500844 Z" id="Chat-Copy-2" sketch:type="MSShapeGroup"></path>
        </g>
    </g>
</svg>