<?xml version="1.0" encoding="UTF-8" standalone="no"?>
<svg width="22px" height="23px" viewBox="0 0 22 23" version="1.1" xmlns="http://www.w3.org/2000/svg" xmlns:xlink="http://www.w3.org/1999/xlink">
    <!-- Generator: Sketch 39.1 (31720) - http://www.bohemiancoding.com/sketch -->
    <title>broken-link</title>
    <desc>Created with Sketch.</desc>
    <defs></defs>
    <g id="Page-1" stroke="none" stroke-width="1">
        <g id="broken-link">
            <g id="Group">
                <polygon id="Shape" points="10.2666667 0 11.7333333 0 11.7333333 5.75 10.2666667 5.75"></polygon>
                <polygon id="Shape" points="10.2666667 17.25 11.7333333 17.25 11.7333333 23 10.2666667 23"></polygon>
                <path d="M10.2666667,12.9375 L4.4,12.9375 C3.52,12.9375 2.93333333,12.3625 2.93333333,11.5 C2.93333333,10.6375 3.52,10.0625 4.4,10.0625 L10.2666667,10.0625 L10.2666667,7.1875 L4.4,7.1875 C1.90666667,7.1875 0,9.05625 0,11.5 C0,13.94375 1.90666667,15.8125 4.4,15.8125 L10.2666667,15.8125 L10.2666667,12.9375 L10.2666667,12.9375 Z" id="Shape"></path>
                <path d="M17.6,7.1875 L11.7333333,7.1875 L11.7333333,10.0625 L17.6,10.0625 C18.48,10.0625 19.0666667,10.6375 19.0666667,11.5 C19.0666667,12.3625 18.48,12.9375 17.6,12.9375 L11.7333333,12.9375 L11.7333333,15.8125 L17.6,15.8125 C20.0933333,15.8125 22,13.94375 22,11.5 C22,9.05625 20.0933333,7.1875 17.6,7.1875 L17.6,7.1875 Z" id="Shape"></path>
                <polygon id="Shape" points="5.13333333 22.1375 8.8 17.25 7.04 17.25 3.96 21.41875"></polygon>
                <polygon id="Shape" points="16.8666667 22.1375 13.2 17.25 14.96 17.25 18.04 21.41875"></polygon>
                <polygon id="Shape" points="16.8666667 1.4375 13.2 5.75 14.96 5.75 18.04 1.86875"></polygon>
                <polygon id="Shape" points="5.13333333 1.4375 8.8 5.75 7.04 5.75 3.96 1.86875"></polygon>
            </g>
        </g>
    </g>
</svg>
