<?xml version="1.0" encoding="UTF-8" ?>
<!DOCTYPE svg PUBLIC "-//W3C//DTD SVG 1.1//EN" "http://www.w3.org/Graphics/SVG/1.1/DTD/svg11.dtd">
<svg width="512pt" height="416pt" viewBox="0 0 512 416" version="1.1" xmlns="http://www.w3.org/2000/svg">
<g id="#babfd2ff">
<path d=" M 46.21 0.00 L 455.48 0.00 C 473.63 0.48 490.78 12.19 497.91 28.87 C 500.53 34.87 501.85 41.42 501.87 47.97 C 501.88 146.32 501.87 244.67 501.87 343.01 C 501.80 352.14 502.56 361.55 499.35 370.28 C 493.13 389.28 474.09 403.13 454.06 402.94 C 319.02 402.97 183.98 402.94 48.94 402.95 C 37.24 403.17 25.53 398.98 16.69 391.28 C 6.67 382.76 0.51 369.99 0.00 356.84 L 0.00 46.28 C 0.42 34.96 4.98 23.88 12.69 15.59 C 21.22 6.22 33.54 0.51 46.21 0.00 M 46.29 35.34 C 40.21 36.09 35.13 41.73 35.22 47.90 C 35.19 150.28 35.19 252.67 35.22 355.05 C 35.06 361.88 41.28 367.92 48.08 367.74 C 183.06 367.77 318.04 367.74 453.02 367.75 C 460.09 368.28 466.83 362.12 466.66 354.97 C 466.69 253.96 466.65 152.95 466.68 51.94 C 466.64 49.05 466.92 46.05 465.79 43.32 C 463.84 38.27 458.51 34.89 453.12 35.20 C 368.09 35.21 283.06 35.20 198.03 35.20 C 147.45 35.29 96.86 35.02 46.29 35.34 Z" />
<path d=" M 95.35 101.51 C 97.17 100.90 99.11 100.75 101.02 100.74 C 195.35 100.74 289.69 100.74 384.02 100.73 C 390.09 100.43 396.17 103.68 399.18 108.97 C 402.95 115.20 401.99 123.82 396.91 129.05 C 393.64 132.59 388.80 134.51 383.99 134.32 C 289.67 134.31 195.35 134.31 101.03 134.32 C 95.72 134.53 90.37 132.11 87.16 127.86 C 79.95 119.22 84.52 104.52 95.35 101.51 Z" />
<path d=" M 95.34 185.52 C 97.17 184.90 99.11 184.71 101.04 184.69 C 184.35 184.69 267.67 184.68 350.99 184.70 C 356.52 184.61 361.99 187.42 365.10 192.00 C 368.55 196.93 368.99 203.77 366.18 209.10 C 363.36 214.68 357.26 218.35 351.01 218.25 C 267.68 218.27 184.35 218.26 101.01 218.26 C 92.42 218.67 84.30 211.63 83.73 203.01 C 82.87 195.38 88.04 187.75 95.34 185.52 Z" />
<path d=" M 96.18 269.16 C 99.04 268.42 102.03 268.66 104.96 268.63 C 198.28 268.65 291.60 268.61 384.93 268.65 C 393.72 268.44 401.54 276.28 401.48 285.04 C 401.92 294.01 394.02 302.33 385.01 302.19 C 290.02 302.22 195.03 302.22 100.04 302.19 C 91.76 302.28 84.31 295.26 83.73 287.04 C 82.80 279.09 88.40 271.05 96.18 269.16 Z" />
</g>
</svg>
