<?xml version="1.0" encoding="utf-8"?>
<!-- Generator: Adobe Illustrator 18.1.0, SVG Export Plug-In . SVG Version: 6.00 Build 0)  -->
<svg version="1.1" id="Layer_1" xmlns="http://www.w3.org/2000/svg" xmlns:xlink="http://www.w3.org/1999/xlink" x="0px" y="0px"
	 viewBox="0 0 81.9 71" enable-background="new 0 0 81.9 71" xml:space="preserve">
<g>
	<path d="M47.2,46.6c4.2-1.8,7.6-4.2,10-7.3c2.5-3.1,3.7-6.4,3.7-10.1s-1.2-7-3.7-10.1c-2.5-3.1-5.8-5.5-10-7.3
		c-4.2-1.8-8.8-2.7-13.8-2.7c-5,0-9.6,0.9-13.8,2.7c-4.2,1.8-7.6,4.2-10,7.3c-2.5,3.1-3.7,6.4-3.7,10.1c0,3.1,0.9,6,2.8,8.8
		c1.9,2.7,4.4,5,7.6,6.9c-0.3,0.6-0.5,1.2-0.8,1.7c-0.3,0.5-0.6,1-1,1.5c-0.4,0.5-0.7,0.9-0.9,1.1c-0.2,0.3-0.5,0.7-1,1.2
		c-0.5,0.5-0.8,0.8-0.9,1c0,0-0.1,0-0.2,0.2c-0.1,0.1-0.2,0.2-0.2,0.2c0,0-0.1,0.1-0.2,0.2c-0.1,0.1-0.1,0.2-0.1,0.2l-0.1,0.2
		c0,0.1-0.1,0.2-0.1,0.2c0,0.1,0,0.2,0,0.3c0,0.1,0,0.2,0,0.3c0.1,0.3,0.2,0.6,0.5,0.8c0.2,0.2,0.5,0.3,0.8,0.3h0.1
		c1.3-0.2,2.4-0.4,3.4-0.6c4-1,7.6-2.7,10.9-5c2.3,0.4,4.6,0.6,6.9,0.6C38.4,49.3,43,48.4,47.2,46.6L47.2,46.6z M47.2,46.6"/>
	<path d="M73.2,48.1c1.9-2.7,2.8-5.7,2.8-8.8c0-3.2-1-6.2-2.9-9c-2-2.8-4.6-5.1-8-7c0.6,2,0.9,3.9,0.9,6c0,3.5-0.9,6.8-2.6,9.9
		c-1.7,3.1-4.3,5.9-7.5,8.3c-3,2.2-6.5,3.9-10.3,5c-3.9,1.2-7.9,1.8-12.1,1.8c-0.8,0-1.9-0.1-3.4-0.2c5.2,3.4,11.4,5.2,18.5,5.2
		c2.2,0,4.5-0.2,6.9-0.6c3.2,2.3,6.9,4,10.9,5c0.9,0.2,2.1,0.4,3.4,0.6c0.3,0,0.6-0.1,0.9-0.3c0.3-0.2,0.4-0.5,0.5-0.9
		c0-0.2,0-0.2,0-0.3c0,0,0-0.1,0-0.3c-0.1-0.2-0.1-0.2-0.1-0.2l-0.1-0.2c0-0.1-0.1-0.1-0.1-0.2c-0.1-0.1-0.1-0.2-0.2-0.2
		c0,0-0.1-0.1-0.2-0.2c-0.1-0.1-0.1-0.2-0.2-0.2c-0.1-0.2-0.4-0.5-0.9-1c-0.5-0.5-0.8-0.9-1-1.2c-0.2-0.3-0.5-0.7-0.9-1.1
		c-0.4-0.5-0.7-1-1-1.5c-0.3-0.5-0.5-1.1-0.8-1.7C68.8,53.1,71.3,50.8,73.2,48.1L73.2,48.1z M73.2,48.1"/>
</g>
</svg>
