<?xml version="1.0" encoding="utf-8"?>
<!-- Generator: Adobe Illustrator 18.1.0, SVG Export Plug-In . SVG Version: 6.00 Build 0)  -->
<svg version="1.1" id="Layer_1" xmlns="http://www.w3.org/2000/svg" xmlns:xlink="http://www.w3.org/1999/xlink" x="0px" y="0px"
	 viewBox="0 0 81.9 71" enable-background="new 0 0 81.9 71" xml:space="preserve">
<g>
	<path d="M64.4,39.6c-0.2-0.1-0.3-0.1-0.5-0.1c-0.3,0-0.6,0.1-0.9,0.4l-2.5,2.5c-0.2,0.2-0.3,0.5-0.3,0.9V53c0,1.7-0.6,3.2-1.8,4.4
		c-1.2,1.2-2.7,1.8-4.4,1.8H21.8c-1.7,0-3.2-0.6-4.4-1.8c-1.2-1.2-1.8-2.7-1.8-4.4V20.8c0-1.7,0.6-3.2,1.8-4.4
		c1.2-1.2,2.7-1.8,4.4-1.8H54c0.6,0,1.1,0.1,1.7,0.2c0.2,0.1,0.3,0.1,0.3,0.1c0.3,0,0.6-0.1,0.9-0.4l1.9-1.9
		c0.3-0.3,0.4-0.7,0.3-1.1c-0.1-0.4-0.3-0.7-0.7-0.9c-1.4-0.6-2.9-1-4.5-1H21.8c-3.1,0-5.7,1.1-7.9,3.3c-2.2,2.2-3.3,4.8-3.3,7.9V53
		c0,3.1,1.1,5.7,3.3,7.9c2.2,2.2,4.8,3.3,7.9,3.3H54c3.1,0,5.7-1.1,7.9-3.3c2.2-2.2,3.3-4.8,3.3-7.9V40.7
		C65.1,40.1,64.9,39.8,64.4,39.6L64.4,39.6z M64.4,39.6"/>
	<path d="M74.1,17.3l-4.3-4.3c-0.6-0.6-1.4-0.9-2.2-0.9c-0.9,0-1.6,0.3-2.2,0.9L40.4,38.1L30.2,27.9C29.5,27.3,28.8,27,28,27
		c-0.9,0-1.6,0.3-2.2,0.9l-4.3,4.3c-0.6,0.6-0.9,1.4-0.9,2.2c0,0.9,0.3,1.6,0.9,2.2l16.6,16.7c0.6,0.6,1.4,0.9,2.2,0.9
		c0.9,0,1.6-0.3,2.2-0.9l31.5-31.5c0.6-0.6,0.9-1.4,0.9-2.2C75,18.7,74.7,18,74.1,17.3L74.1,17.3z M74.1,17.3"/>
</g>
</svg>
