<?xml version="1.0" encoding="utf-8"?>
<svg version="1.1" id="check-all" xmlns="http://www.w3.org/2000/svg" xmlns:xlink="http://www.w3.org/1999/xlink" x="0px" y="0px"
	 viewBox="-295 389 21 16" style="enable-background:new -295 389 21 16;" xml:space="preserve">
<path class="st0" d="M-277.2,390.3l-11.4,11.4l-4.1-4.1c-0.4-0.4-1.1-0.4-1.5,0l-0.1,0.1c-0.4,0.4-0.4,1.1,0,1.5l4.9,4.9
	c0.4,0.4,1.1,0.4,1.5,0l12.3-12.3c0.4-0.4,0.4-1.1,0-1.5l-0.1-0.1c-0.2-0.2-0.5-0.3-0.8-0.3C-276.8,390-277,390.1-277.2,390.3z"/>
<path class="st0" d="M-293.6,393.2c-0.6,0-1.1,0.5-1.1,1.1c0,0.6,0.5,1.1,1.1,1.1h7.5c0.6,0,1.1-0.5,1.1-1.1c0-0.6-0.5-1.1-1.1-1.1
	H-293.6z"/>
<path class="st0" d="M-293.6,389.5c-0.6,0-1.1,0.5-1.1,1.1s0.5,1.1,1.1,1.1h10.8c0.6,0,1.1-0.5,1.1-1.1s-0.5-1.1-1.1-1.1H-293.6z"/>
<g class="st1">
	<g>
		<defs>
			<rect id="SVGID_1_" x="-295" y="1165" width="20" height="16"/>
		</defs>
		<clipPath id="SVGID_2_">
			<use xlink:href="#SVGID_1_"  style="overflow:visible;"/>
		</clipPath>
		<g class="st2">
			<defs>
				<rect id="SVGID_3_" x="-553" y="1136" width="300" height="768"/>
			</defs>
			<clipPath id="SVGID_4_">
				<use xlink:href="#SVGID_3_"  style="overflow:visible;"/>
			</clipPath>
			<g class="st3">
				<defs>
					<rect id="SVGID_5_" x="-295" y="1165" width="20" height="16"/>
				</defs>
				<clipPath id="SVGID_6_">
					<use xlink:href="#SVGID_5_"  style="overflow:visible;"/>
				</clipPath>
				<g class="st4">
					<g>
						<defs>
							<rect id="SVGID_7_" x="-295" y="1165" width="20" height="16"/>
						</defs>
						<clipPath id="SVGID_8_">
							<use xlink:href="#SVGID_7_"  style="overflow:visible;"/>
						</clipPath>
						<g class="st5">
							<defs>
								<path id="SVGID_9_" d="M-277.2,1166.2l-11.4,11.4l-4.1-4.1c-0.4-0.4-1.1-0.4-1.5,0l-0.1,0.1c-0.4,0.4-0.4,1.1,0,1.5l4.9,4.9
									c0.4,0.4,1.1,0.4,1.5,0l12.3-12.3c0.4-0.4,0.4-1.1,0-1.5l-0.1-0.1c-0.2-0.2-0.5-0.3-0.8-0.3
									C-276.8,1165.9-277,1166-277.2,1166.2z"/>
							</defs>
							<clipPath id="SVGID_10_">
								<use xlink:href="#SVGID_9_"  style="overflow:visible;"/>
							</clipPath>
							<g class="st6">
								<defs>
									<rect id="SVGID_11_" x="-295" y="1165" width="20" height="16"/>
								</defs>
								<clipPath id="SVGID_12_">
									<use xlink:href="#SVGID_11_"  style="overflow:visible;"/>
								</clipPath>
								<g class="st7">
									<g>
										<defs>
											<rect id="SVGID_13_" x="-295" y="1165" width="20" height="16"/>
										</defs>
										<clipPath id="SVGID_14_">
											<use xlink:href="#SVGID_13_"  style="overflow:visible;"/>
										</clipPath>
										<g class="st8">
											<defs>
												<rect id="SVGID_15_" x="-294.9" y="1165.6" width="19.8" height="15"/>
											</defs>
											<clipPath id="SVGID_16_">
												<use xlink:href="#SVGID_15_"  style="overflow:visible;"/>
											</clipPath>
											<g class="st9">
												<defs>
													<rect id="SVGID_17_" x="-295" y="1165" width="20" height="16"/>
												</defs>
												<clipPath id="SVGID_18_">
													<use xlink:href="#SVGID_17_"  style="overflow:visible;"/>
												</clipPath>
												<rect x="-299.9" y="1160.6" class="st10" width="29.8" height="25"/>
											</g>
										</g>
									</g>
								</g>
							</g>
						</g>
						<g class="st5">
							<defs>
								<path id="SVGID_19_" d="M-293.6,1169.1c-0.6,0-1.1,0.5-1.1,1.1c0,0.6,0.5,1.1,1.1,1.1h7.5c0.6,0,1.1-0.5,1.1-1.1
									c0-0.6-0.5-1.1-1.1-1.1H-293.6z"/>
							</defs>
							<clipPath id="SVGID_20_">
								<use xlink:href="#SVGID_19_"  style="overflow:visible;"/>
							</clipPath>
							<g class="st11">
								<defs>
									<rect id="SVGID_21_" x="-295" y="1165" width="20" height="16"/>
								</defs>
								<clipPath id="SVGID_22_">
									<use xlink:href="#SVGID_21_"  style="overflow:visible;"/>
								</clipPath>
								<g class="st12">
									<g>
										<defs>
											<rect id="SVGID_23_" x="-295" y="1169" width="10" height="3"/>
										</defs>
										<clipPath id="SVGID_24_">
											<use xlink:href="#SVGID_23_"  style="overflow:visible;"/>
										</clipPath>
										<g class="st13">
											<defs>
												<rect id="SVGID_25_" x="-295" y="1168.9" width="10.2" height="2.7"/>
											</defs>
											<clipPath id="SVGID_26_">
												<use xlink:href="#SVGID_25_"  style="overflow:visible;"/>
											</clipPath>
											<g class="st14">
												<defs>
													<rect id="SVGID_27_" x="-295" y="1169" width="10" height="3"/>
												</defs>
												<clipPath id="SVGID_28_">
													<use xlink:href="#SVGID_27_"  style="overflow:visible;"/>
												</clipPath>
												<rect x="-300" y="1163.9" class="st15" width="20.2" height="12.7"/>
											</g>
										</g>
									</g>
								</g>
							</g>
						</g>
						<g class="st5">
							<defs>
								<path id="SVGID_29_" d="M-293.6,1165.5c-0.6,0-1.1,0.5-1.1,1.1c0,0.6,0.5,1.1,1.1,1.1h10.8c0.6,0,1.1-0.5,1.1-1.1
									c0-0.6-0.5-1.1-1.1-1.1H-293.6z"/>
							</defs>
							<clipPath id="SVGID_30_">
								<use xlink:href="#SVGID_29_"  style="overflow:visible;"/>
							</clipPath>
							<g class="st16">
								<defs>
									<rect id="SVGID_31_" x="-295" y="1165" width="20" height="16"/>
								</defs>
								<clipPath id="SVGID_32_">
									<use xlink:href="#SVGID_31_"  style="overflow:visible;"/>
								</clipPath>
								<g class="st17">
									<g>
										<defs>
											<rect id="SVGID_33_" x="-295" y="1165" width="14" height="3"/>
										</defs>
										<clipPath id="SVGID_34_">
											<use xlink:href="#SVGID_33_"  style="overflow:visible;"/>
										</clipPath>
										<g class="st18">
											<defs>
												<rect id="SVGID_35_" x="-295" y="1165.3" width="13.5" height="2.7"/>
											</defs>
											<clipPath id="SVGID_36_">
												<use xlink:href="#SVGID_35_"  style="overflow:visible;"/>
											</clipPath>
											<g class="st19">
												<defs>
													<rect id="SVGID_37_" x="-295" y="1165" width="14" height="3"/>
												</defs>
												<clipPath id="SVGID_38_">
													<use xlink:href="#SVGID_37_"  style="overflow:visible;"/>
												</clipPath>
												<rect x="-300" y="1160.3" class="st20" width="23.5" height="12.7"/>
											</g>
										</g>
									</g>
								</g>
							</g>
						</g>
					</g>
				</g>
			</g>
		</g>
	</g>
</g>
</svg>
