<?xml version="1.0" encoding="UTF-8" standalone="no"?>
<svg width="21px" height="20px" viewBox="0 0 21 20" version="1.1" xmlns="http://www.w3.org/2000/svg" xmlns:xlink="http://www.w3.org/1999/xlink" xmlns:sketch="http://www.bohemiancoding.com/sketch/ns">
    <!-- Generator: Sketch 3.3.3 (12081) - http://www.bohemiancoding.com/sketch -->
    <title>Plus Circle</title>
    <desc>Created with Sketch.</desc>
    <defs></defs>
    <g id="Cardview" stroke="none" stroke-width="1" fill-rule="evenodd" sketch:type="MSPage">
        <g id="Card-View" sketch:type="MSArtboardGroup" transform="translate(-177.000000, -101.000000)">
            <path d="M187.727922,121 C193.25077,121 197.727922,116.522847 197.727922,111 C197.727922,105.477153 193.25077,101 187.727922,101 C182.205075,101 177.727922,105.477153 177.727922,111 C177.727922,116.522847 182.205075,121 187.727922,121 L187.727922,121 Z M187.727922,119.666667 C182.941454,119.666667 179.061255,115.786468 179.061255,111 C179.061255,106.213532 182.941454,102.333333 187.727922,102.333333 C192.51439,102.333333 196.394589,106.213532 196.394589,111 C196.394589,115.786468 192.51439,119.666667 187.727922,119.666667 Z M187.061255,110.333333 L183.391794,110.333333 C183.027202,110.333333 182.727922,110.63181 182.727922,111 C182.727922,111.370757 183.025148,111.666667 183.391794,111.666667 L187.061255,111.666667 L187.061255,115.336128 C187.061255,115.70072 187.359732,116 187.727922,116 C188.098679,116 188.394589,115.702774 188.394589,115.336128 L188.394589,111.666667 L192.06405,111.666667 C192.428642,111.666667 192.727922,111.36819 192.727922,111 C192.727922,110.629243 192.430696,110.333333 192.06405,110.333333 L188.394589,110.333333 L188.394589,106.663872 C188.394589,106.29928 188.096112,106 187.727922,106 C187.357165,106 187.061255,106.297226 187.061255,106.663872 L187.061255,110.333333 Z" id="Plus-Circle" sketch:type="MSShapeGroup"></path>
        </g>
    </g>
</svg>