<?xml version="1.0" encoding="UTF-8" ?>
<!DOCTYPE svg PUBLIC "-//W3C//DTD SVG 1.1//EN" "http://www.w3.org/Graphics/SVG/1.1/DTD/svg11.dtd">
<svg width="35pt" height="35pt" viewBox="0 0 35 35" version="1.1" xmlns="http://www.w3.org/2000/svg">
<g id="#f0f0f0f0">
<path d=" M 15.69 0.00 L 19.15 0.00 C 27.29 0.74 34.17 7.60 35.00 15.72 L 35.00 19.16 C 34.26 27.29 27.41 34.16 19.31 35.00 L 15.85 35.00 C 7.72 34.26 0.84 27.41 0.00 19.30 L 0.00 15.82 C 0.76 7.70 7.60 0.85 15.69 0.00 M 15.41 2.48 C 7.09 3.41 0.79 12.16 2.61 20.35 C 3.92 28.31 12.39 34.11 20.29 32.41 C 28.28 31.11 34.12 22.64 32.40 14.71 C 31.14 6.98 23.15 1.21 15.41 2.48 Z" />
<path d=" M 11.41 12.01 C 13.90 10.22 15.56 14.66 17.50 15.85 C 19.03 14.29 20.52 12.68 22.22 11.29 C 25.73 12.98 20.40 15.68 19.15 17.50 C 20.57 19.31 23.32 20.59 23.57 23.00 C 21.09 24.77 19.44 20.33 17.50 19.15 C 15.97 20.71 14.48 22.33 12.78 23.70 C 9.28 22.02 14.60 19.32 15.85 17.50 C 14.40 15.70 11.72 14.42 11.41 12.01 Z" />
</g>
</svg>
