<?xml version="1.0" encoding="UTF-8" standalone="no"?>
<svg width="27px" height="27px" viewBox="0 0 27 27" version="1.1" xmlns="http://www.w3.org/2000/svg" xmlns:xlink="http://www.w3.org/1999/xlink" xmlns:sketch="http://www.bohemiancoding.com/sketch/ns">
    <!-- Generator: Sketch 3.4 (15588) - http://www.bohemiancoding.com/sketch -->
    <title>round68 (1)</title>
    <desc>Created with Sketch.</desc>
    <defs></defs>
    <g id="New-Card" stroke="none" stroke-width="1" fill-rule="evenodd" sketch:type="MSPage">
        <g id="New-Card-Modal" sketch:type="MSArtboardGroup" transform="translate(-625.000000, -267.000000)">
            <g id="round68-(1)" sketch:type="MSLayerGroup" transform="translate(625.000000, 267.000000)">
                <path d="M13.4996625,0 C6.05559375,0 0,6.05618437 0,13.5 C0,20.9438156 6.05559375,27 13.4996625,27 C20.9438156,27 27,20.9438156 27,13.5 C27,6.05618437 20.9438156,0 13.4996625,0 L13.4996625,0 Z M13.4996625,25.229475 C7.03215,25.229475 1.770525,19.9675125 1.770525,13.5 C1.770525,7.0324875 7.03215,1.770525 13.4996625,1.770525 C19.9675125,1.770525 25.229475,7.0324875 25.229475,13.5 C25.229475,19.9675125 19.967175,25.229475 13.4996625,25.229475 L13.4996625,25.229475 Z" id="Fill-1" sketch:type="MSShapeGroup"></path>
                <path d="M18.3875063,9.08052187 L11.4262313,16.0414594 L8.61215625,13.2280594 C8.26613438,12.8827125 7.7061375,12.882375 7.36036875,13.2283969 C7.01434688,13.5741656 7.01434688,14.1345 7.36036875,14.4805219 L10.8003375,17.9198156 C10.9730531,18.0925312 11.1994313,18.1788469 11.4262313,18.1788469 C11.6526094,18.1788469 11.8797469,18.0925312 12.0524625,17.9194781 C12.0528,17.9188031 12.0533906,17.9181281 12.0540656,17.9172 L19.6392938,10.3323094 C19.9849781,9.98654062 19.9849781,9.42595312 19.6392938,9.08052187 C19.293525,8.73475312 18.7329375,8.73475312 18.3875063,9.08052187 L18.3875063,9.08052187 Z" id="Fill-4" sketch:type="MSShapeGroup"></path>
            </g>
        </g>
    </g>
</svg>
