<?xml version="1.0" encoding="utf-8"?>
<!-- Generator: Adobe Illustrator 18.1.0, SVG Export Plug-In . SVG Version: 6.00 Build 0)  -->
<svg version="1.1" id="Layer_1" xmlns="http://www.w3.org/2000/svg" xmlns:xlink="http://www.w3.org/1999/xlink" x="0px" y="0px"
	 viewBox="0 0 81.9 71" enable-background="new 0 0 81.9 71" xml:space="preserve">
<g>
	<path d="M61.5,12.1h-7.1v-1.5c0-1.8-1.4-3.2-3.2-3.2h-4.4c0-0.1,0-0.3,0-0.4c0-3.1-2.5-5.6-5.6-5.6c-3.1,0-5.6,2.5-5.6,5.6
		c0,0.1,0,0.3,0,0.4h-4.4c-1.8,0-3.2,1.4-3.2,3.2v1.5h-7.1c-2.7,0-4.8,2.2-4.8,4.8v47.5c0,2.7,2.2,4.8,4.8,4.8h40.4
		c2.7,0,4.8-2.2,4.8-4.8V16.9C66.4,14.3,64.2,12.1,61.5,12.1z M61.5,61.5c0,1.6-1.3,3-3,3H24.1c-1.6,0-3-1.3-3-3V19.9
		c0-1.6,1.3-3,3-3h4.1c0,1.3,1.1,2.4,2.4,2.4h21.5c1.3,0,2.4-1.1,2.4-2.4h4.1c1.6,0,3,1.3,3,3V61.5z"/>
	<path d="M30,47.8c-1.7,0-3.1,1.4-3.1,3.1c0,1.7,1.4,3.1,3.1,3.1c1.7,0,3.1-1.4,3.1-3.1C33.1,49.1,31.7,47.8,30,47.8z"/>
	<path d="M53.8,48.5H39.5c-1.3,0-2.4,1.1-2.4,2.4c0,1.3,1.1,2.4,2.4,2.4h14.3c1.3,0,2.4-1,2.4-2.4C56.2,49.6,55.1,48.5,53.8,48.5z"
		/>
	<path d="M30,37.4c-1.7,0-3.1,1.4-3.1,3.1c0,1.7,1.4,3.1,3.1,3.1c1.7,0,3.1-1.4,3.1-3.1C33.1,38.8,31.7,37.4,30,37.4z"/>
	<path d="M53.8,38.2H39.5c-1.3,0-2.4,1.1-2.4,2.4c0,1.3,1.1,2.4,2.4,2.4h14.3c1.3,0,2.4-1,2.4-2.4C56.2,39.3,55.1,38.2,53.8,38.2z"
		/>
	<path d="M30,27.1c-1.7,0-3.1,1.4-3.1,3.1c0,1.7,1.4,3.1,3.1,3.1c1.7,0,3.1-1.4,3.1-3.1C33.1,28.5,31.7,27.1,30,27.1z"/>
	<path d="M53.8,27.9H39.5c-1.3,0-2.4,1.1-2.4,2.4c0,1.3,1.1,2.4,2.4,2.4h14.3c1.3,0,2.4-1,2.4-2.4C56.2,28.9,55.1,27.9,53.8,27.9z"
		/>
</g>
</svg>
