<?xml version="1.0" encoding="utf-8"?>
<!-- Generator: Adobe Illustrator 18.1.1, SVG Export Plug-In . SVG Version: 6.00 Build 0)  -->
<svg version="1.1" id="Layer_1" xmlns="http://www.w3.org/2000/svg" xmlns:xlink="http://www.w3.org/1999/xlink" x="0px" y="0px"
	 viewBox="0 0 53.9 40.6" enable-background="new 0 0 53.9 40.6" xml:space="preserve">
<g>
	<path d="M50.1,0H3.7C1.7,0,0,1.7,0,3.7v33.1c0,2.1,1.7,3.7,3.7,3.7h46.4c2.1,0,3.7-1.7,3.7-3.7V3.7
		C53.9,1.7,52.2,0,50.1,0z M50.9,36.8c0,0.4-0.4,0.8-0.8,0.8h-5.8v-3c0-0.9-0.7-1.6-1.5-1.6c-0.9,0-1.5,0.7-1.5,1.6v3H28.7v-3
		c0-0.9-0.7-1.6-1.5-1.6c-0.9,0-1.5,0.7-1.5,1.6v3H12.5v-3c0-0.9-0.7-1.6-1.5-1.6c-0.9,0-1.5,0.7-1.5,1.6v3H3.7
		c-0.4,0-0.8-0.4-0.8-0.8V3.7c0-0.4,0.4-0.8,0.8-0.8h46.4c0.4,0,0.8,0.4,0.8,0.8V36.8z"/>
	<path d="M20,21.6h-1c-1.1,0-1.9-0.9-1.9-1.9V19c0.4-0.5,0.7-1.1,0.9-1.7c0-0.1,0.1-0.2,0.2-0.2
		c0.4-0.4,0.4-1,0.2-1.4c0-0.1-0.1-0.1-0.1-0.2c0-0.6,0-1.1,0-1.7c0-0.7-0.2-1.4-0.7-1.9c-0.4-0.4-0.9-0.6-1.5-0.7
		c-0.7-0.1-1.4-0.1-2.1,0c-0.6,0.1-1.1,0.5-1.5,1c-0.3,0.4-0.4,1-0.5,1.5c0,0.6,0,1.1,0,1.7c0,0.1-0.1,0.2-0.1,0.3
		c-0.3,0.5-0.1,1.1,0.3,1.5c0.1,0.1,0.1,0.2,0.2,0.3c0.2,0.6,0.5,1.1,0.9,1.5v0.6c0,1.1-0.9,1.9-1.9,1.9h-1c0,0-1.7,0.5-2.9,2.9v1
		c0,0.5,0.4,1,1,1h13.4c0.5,0,1-0.4,1-1v-1C21.8,22.1,20,21.6,20,21.6z"/>
	<path d="M43.9,22.4h-14c-0.9,0-1.6,0.7-1.6,1.5c0,0.9,0.7,1.5,1.6,1.5h14c0.9,0,1.6-0.7,1.6-1.5
		C45.5,23.1,44.8,22.4,43.9,22.4z"/>
	<path d="M43.9,16.5h-14c-0.9,0-1.6,0.7-1.6,1.5c0,0.9,0.7,1.5,1.6,1.5h14c0.9,0,1.6-0.7,1.6-1.5
		C45.5,17.2,44.8,16.5,43.9,16.5z"/>
	<path d="M43.9,10.7h-14c-0.9,0-1.6,0.7-1.6,1.5c0,0.9,0.7,1.5,1.6,1.5h14c0.9,0,1.6-0.7,1.6-1.5
		C45.5,11.3,44.8,10.7,43.9,10.7z"/>
</g>
</svg>
