<?xml version="1.0" encoding="UTF-8" ?>
<!DOCTYPE svg PUBLIC "-//W3C//DTD SVG 1.1//EN" "http://www.w3.org/Graphics/SVG/1.1/DTD/svg11.dtd">
<svg width="614pt" height="512pt" viewBox="0 0 614 512" version="1.1" xmlns="http://www.w3.org/2000/svg">
<g id="#000000cc">
<path d=" M 234.21 0.00 L 238.40 0.00 C 245.08 0.84 251.51 3.94 255.97 9.04 C 261.11 14.70 263.79 22.36 263.81 29.97 C 263.89 64.14 263.79 98.32 263.86 132.49 C 309.76 134.87 355.70 142.66 398.70 159.24 C 432.76 172.21 464.78 190.72 492.54 214.38 C 515.50 233.85 535.58 256.68 552.18 281.80 C 588.75 337.32 608.88 402.80 614.00 468.86 L 614.00 487.21 C 612.17 499.64 602.05 510.50 589.37 512.00 L 584.63 512.00 C 574.89 510.99 566.46 504.42 562.22 495.74 C 545.68 464.65 519.23 439.57 488.82 422.17 C 449.77 399.75 405.43 388.18 361.04 382.37 C 328.85 378.16 296.28 376.89 263.85 378.25 C 263.80 412.85 263.88 447.45 263.81 482.04 C 263.84 491.53 259.51 501.09 251.80 506.76 C 247.96 509.68 243.29 511.24 238.57 512.00 L 234.44 512.00 C 227.50 511.31 220.96 507.95 216.33 502.74 C 147.17 427.84 78.04 352.91 8.88 278.00 C 3.65 272.68 0.73 265.46 0.00 258.09 L 0.00 255.44 C 0.24 250.40 1.40 245.35 3.84 240.92 C 6.11 236.69 9.56 233.28 12.78 229.78 C 80.62 156.29 148.43 82.79 216.28 9.32 C 220.87 4.13 227.33 0.79 234.21 0.00 M 229.69 45.11 C 164.80 115.40 99.92 185.70 35.05 256.00 C 99.92 326.30 164.80 396.60 229.70 466.89 C 229.71 426.45 229.69 386.01 229.71 345.56 C 257.96 344.26 286.26 342.79 314.55 344.18 C 340.38 345.20 366.15 347.90 391.58 352.56 C 427.67 359.38 463.32 369.99 495.92 387.13 C 528.27 403.98 557.41 427.66 578.59 457.52 C 572.54 403.88 555.76 350.99 526.76 305.26 C 504.72 270.54 475.28 240.46 440.59 218.31 C 404.77 195.26 363.87 180.83 322.06 173.34 C 291.63 167.52 260.59 166.49 229.71 165.03 C 229.68 125.06 229.72 85.09 229.69 45.11 Z" />
</g>
</svg>
