<?xml version="1.0" encoding="UTF-8" ?>
<!DOCTYPE svg PUBLIC "-//W3C//DTD SVG 1.1//EN" "http://www.w3.org/Graphics/SVG/1.1/DTD/svg11.dtd">
<svg width="75pt" height="75pt" viewBox="0 0 75 75" version="1.1" xmlns="http://www.w3.org/2000/svg">
<g id="#e1e1e1ff">
<path d=" M 35.47 0.00 L 39.62 0.00 C 39.60 0.73 39.56 2.20 39.55 2.94 C 35.85 2.96 32.16 3.28 28.55 4.11 C 28.36 3.39 27.97 1.94 27.78 1.22 C 30.32 0.70 32.88 0.22 35.47 0.00 Z" />
<path d=" M 45.62 0.86 C 49.52 1.78 53.24 3.29 56.73 5.24 C 56.22 6.10 55.72 6.96 55.21 7.82 C 51.99 6.03 48.55 4.66 44.98 3.78 C 45.14 3.05 45.46 1.59 45.62 0.86 Z" />
<path d=" M 12.15 9.81 C 15.17 7.19 18.52 4.96 22.13 3.25 C 22.44 3.93 23.04 5.31 23.35 6.00 C 20.02 7.59 16.92 9.60 14.15 12.04 C 13.48 11.29 12.82 10.55 12.15 9.81 Z" />
<path d=" M 61.61 8.76 C 64.64 11.37 67.26 14.42 69.43 17.78 C 68.80 18.18 67.53 18.97 66.89 19.37 C 64.89 16.28 62.46 13.48 59.70 11.06 C 60.17 10.48 61.13 9.33 61.61 8.76 Z" />
<path d=" M 2.20 24.63 C 3.71 20.93 5.61 17.39 8.06 14.23 C 8.65 14.70 9.82 15.63 10.41 16.10 C 8.17 19.02 6.36 22.25 5.03 25.69 C 4.32 25.42 2.91 24.89 2.20 24.63 Z" />
<path d=" M 69.41 24.27 C 70.34 23.90 71.27 23.52 72.19 23.14 C 73.65 26.86 74.58 30.78 74.93 34.76 C 74.18 34.82 72.69 34.93 71.94 34.98 C 71.59 31.31 70.75 27.71 69.41 24.27 Z" />
<path d=" M 0.62 30.45 C 1.35 30.59 2.81 30.87 3.55 31.01 C 2.99 34.65 2.89 38.34 3.23 42.01 C 2.50 42.11 1.04 42.31 0.31 42.40 C 0.23 41.60 0.08 39.98 0.00 39.17 L 0.00 35.93 C 0.18 34.10 0.39 32.27 0.62 30.45 Z" />
<path d=" M 71.93 40.52 C 72.67 40.58 74.15 40.70 74.89 40.76 C 74.47 44.74 73.49 48.65 71.97 52.35 C 71.05 51.96 70.13 51.56 69.22 51.17 C 70.61 47.76 71.49 44.17 71.93 40.52 Z" />
<path d=" M 1.55 48.28 C 2.26 48.06 3.69 47.62 4.41 47.41 C 5.54 50.92 7.17 54.25 9.20 57.32 C 8.38 57.88 7.57 58.45 6.75 59.01 C 4.52 55.70 2.78 52.08 1.55 48.28 Z" />
<path d=" M 66.60 56.06 C 67.45 56.58 68.30 57.11 69.15 57.64 C 66.99 61.01 64.26 63.97 61.24 66.59 C 60.76 66.01 59.79 64.86 59.31 64.29 C 62.10 61.88 64.60 59.16 66.60 56.06 Z" />
<path d=" M 10.59 63.66 C 11.12 63.13 12.20 62.09 12.73 61.56 C 15.35 64.15 18.33 66.35 21.55 68.13 C 21.21 68.79 20.51 70.12 20.17 70.79 C 16.67 68.85 13.41 66.49 10.59 63.66 Z" />
<path d=" M 44.50 71.33 C 48.09 70.50 51.55 69.18 54.78 67.41 C 55.15 68.06 55.90 69.37 56.27 70.02 C 52.78 71.96 48.99 73.32 45.12 74.27 C 44.96 73.54 44.65 72.07 44.50 71.33 Z" />
<path d=" M 26.62 70.32 C 30.64 71.51 34.82 72.06 39.01 72.05 C 39.05 72.79 39.11 74.26 39.15 75.00 L 35.58 75.00 C 32.23 74.78 28.93 74.06 25.70 73.15 C 25.93 72.44 26.39 71.02 26.62 70.32 Z" />
</g>
</svg>
