<?xml version="1.0" encoding="utf-8"?>
<!-- Generator: Adobe Illustrator 18.1.0, SVG Export Plug-In . SVG Version: 6.00 Build 0)  -->
<svg version="1.1" id="Capa_1" xmlns="http://www.w3.org/2000/svg" xmlns:xlink="http://www.w3.org/1999/xlink" x="0px" y="0px"
	 width="603px" height="783px" viewBox="0 0 603 783" enable-background="new 0 0 603 783" xml:space="preserve">
<g>
	<g id="data">
		<path d="M305.5,92C178.4,92,41.7,130.3,41.7,214.5v358c0,84.1,136.7,122.5,263.8,122.5
			c127.1,0,263.8-38.3,263.8-122.5v-358C569.3,130.3,432.5,92,305.5,92z M531.6,572.5c0,46.8-101.2,84.8-226.1,84.8
			c-124.9,0-226.1-38-226.1-84.8v-70.4c38.9,40.1,132.8,61,226.1,61s187.2-20.9,226.1-61V572.5z M531.6,459.5L531.6,459.5
			c-0.1,0.2,0,0.4,0,0.6c0,46.5-101.2,84.2-226.1,84.2S79.4,506.6,79.4,460c0-0.2,0.1-0.4,0.1-0.6h-0.1v-70.4
			c38.9,40.1,132.8,61,226.1,61s187.2-20.9,226.1-61V459.5z M531.6,346.4L531.6,346.4c-0.1,0.2,0,0.4,0,0.6
			c0,46.5-101.2,84.2-226.1,84.2S79.4,393.5,79.4,347c0-0.2,0.1-0.4,0.1-0.6h-0.1v-64.7c49.4,37.6,139.9,55.3,226.1,55.3
			s176.7-17.7,226.1-55.3V346.4z M305.5,299.3c-124.9,0-226.1-38-226.1-84.8c0-46.8,101.2-84.8,226.1-84.8
			c124.9,0,226.1,38,226.1,84.8C531.6,261.3,430.4,299.3,305.5,299.3z"/>
		<circle cx="475.1" cy="581.9" r="18.8"/>
		<circle cx="475.1" cy="468.9" r="18.8"/>
		<circle cx="475.1" cy="355.8" r="18.8"/>
	</g>
</g>
</svg>
