<?xml version="1.0" encoding="utf-8"?>
<!-- Generator: Adobe Illustrator 18.1.1, SVG Export Plug-In . SVG Version: 6.00 Build 0)  -->
<svg version="1.1" id="Layer_1" xmlns="http://www.w3.org/2000/svg" xmlns:xlink="http://www.w3.org/1999/xlink" x="0px" y="0px"
	 viewBox="0 0 27.2 42" enable-background="new 0 0 27.2 42" xml:space="preserve">
<g>
	<g>
		<path d="M24.2,21.7c-1.3-1-3.1-1.8-5.6-2.4l-2-0.4v-8.3c0.1,0.1,0.1,0.1,0.2,0.1s0.1,0,0.1,0.1
			c1.7,0.8,2.5,2.2,2.6,4.1h6.6c-0.1-3.4-1.4-6-3.8-7.9c-1.6-1.2-3.5-2-5.6-2.4V0h-6.1v4.4C7.7,4.8,5.4,5.7,3.8,7.2
			c-2.2,1.9-3.2,4.4-3.2,7.3c0,3.2,1.1,5.6,3.3,7.1c1.2,0.9,3.4,1.7,6.7,2.4v8.9c-1.2-0.3-2.1-0.9-2.7-1.6c-0.7-0.8-1.1-1.9-1.3-3.2
			H0c0,3.4,1.2,6,3.7,7.9c1.8,1.4,4,2.2,6.8,2.6V42h6.1v-3.3c3-0.4,5.3-1.3,7.1-2.8c2.3-2,3.4-4.5,3.4-7.5
			C27.1,25.4,26.1,23.2,24.2,21.7z M10.5,17.4c-1-0.3-1.7-0.5-2-0.8c-1.1-0.6-1.6-1.5-1.6-2.6c0-1.3,0.5-2.3,1.6-3
			c0.6-0.3,1.3-0.6,2-0.9V17.4z M17.6,32.7c-0.3,0.1-0.6,0.2-1,0.3v-7.6c1.1,0.3,1.9,0.7,2.5,1c1,0.6,1.5,1.5,1.5,2.6
			C20.5,30.8,19.5,32,17.6,32.7z"/>
	</g>
</g>
</svg>
