<?xml version="1.0" encoding="UTF-8" ?>
<!DOCTYPE svg PUBLIC "-//W3C//DTD SVG 1.1//EN" "http://www.w3.org/Graphics/SVG/1.1/DTD/svg11.dtd">
<svg width="512pt" height="512pt" viewBox="0 0 512 512" version="1.1" xmlns="http://www.w3.org/2000/svg">
<g id="#4d4d4dff">
<path d=" M 40.66 45.56 C 47.50 36.51 58.68 31.06 69.99 30.97 C 133.67 31.02 197.34 30.95 261.01 31.00 C 271.69 30.88 282.04 35.97 289.13 43.83 C 312.37 69.27 335.56 94.74 358.83 120.13 C 365.99 127.16 370.52 136.89 370.60 146.99 C 370.62 167.11 370.60 187.23 370.60 207.36 C 362.14 205.82 353.51 205.38 345.03 207.01 C 344.96 191.51 345.01 176.00 345.01 160.49 C 318.32 160.49 291.62 160.53 264.93 160.48 C 257.16 160.80 250.12 153.76 250.39 146.00 C 250.36 116.19 250.39 86.38 250.37 56.57 C 190.27 56.60 130.17 56.55 70.07 56.60 C 65.32 56.54 60.83 59.77 59.21 64.20 C 58.02 67.66 58.58 71.38 58.48 74.97 C 58.50 197.65 58.47 320.32 58.49 443.00 C 58.23 447.54 60.74 452.20 64.92 454.12 C 68.35 455.88 72.31 455.33 76.02 455.40 C 130.54 455.38 185.06 455.40 239.58 455.40 C 247.52 464.90 256.47 473.57 266.41 480.98 C 205.25 481.03 144.08 480.98 82.92 481.00 C 77.58 481.00 72.22 481.14 66.89 480.81 C 52.62 479.64 39.45 469.57 34.99 455.90 C 32.06 448.25 33.11 439.97 32.91 431.98 C 32.89 311.66 32.93 191.34 32.89 71.02 C 32.43 61.97 35.09 52.74 40.66 45.56 M 279.22 70.93 C 279.22 91.17 279.23 111.41 279.22 131.65 C 297.70 131.63 316.18 131.63 334.66 131.65 C 316.17 111.42 297.71 91.16 279.22 70.93 Z" />
<path d=" M 112.47 168.61 C 142.63 168.38 172.80 168.59 202.97 168.51 C 206.58 168.35 210.41 169.36 212.89 172.14 C 216.79 176.03 217.39 182.70 214.17 187.19 C 211.95 190.47 208.01 192.45 204.05 192.32 C 174.02 192.31 144.00 192.37 113.97 192.30 C 107.82 192.49 102.30 187.13 102.10 181.03 C 101.59 175.02 106.51 169.24 112.47 168.61 Z" />
<path d=" M 340.60 234.80 C 362.85 232.00 385.89 235.25 406.37 244.46 C 433.07 256.26 455.27 277.86 467.80 304.23 C 482.73 335.06 483.79 372.19 470.73 403.85 C 457.66 436.30 430.12 462.57 397.05 474.01 C 362.73 486.24 323.05 482.13 292.04 462.98 C 270.52 449.88 253.11 430.10 243.02 407.01 C 232.88 384.21 230.08 358.27 234.84 333.79 C 240.14 306.00 255.48 280.30 277.29 262.28 C 295.23 247.38 317.44 237.66 340.60 234.80 M 346.08 263.19 C 330.00 264.94 314.34 270.77 301.23 280.27 C 283.16 293.15 269.65 312.48 264.32 334.08 C 259.26 353.87 260.85 375.31 268.86 394.11 C 277.72 415.27 294.58 432.94 315.28 442.80 C 332.75 451.27 352.89 454.03 372.02 450.77 C 390.37 447.73 407.70 438.98 421.22 426.23 C 432.17 415.94 440.52 402.98 445.58 388.85 C 452.11 370.40 452.74 349.89 447.25 331.09 C 440.68 308.03 424.88 287.81 404.18 275.74 C 386.84 265.40 366.12 261.06 346.08 263.19 Z" />
<path d=" M 103.27 249.10 C 102.30 242.35 108.20 235.65 115.04 235.89 C 165.46 235.75 215.88 235.94 266.30 235.79 C 256.90 242.73 248.48 250.90 240.81 259.70 C 198.90 259.55 156.99 259.71 115.09 259.62 C 109.23 259.72 103.79 254.95 103.27 249.10 Z" />
<path d=" M 108.98 304.91 C 112.26 302.79 116.30 303.22 120.01 303.21 C 151.48 303.23 182.95 303.21 214.42 303.22 C 211.36 310.95 208.70 318.84 206.95 326.98 C 176.62 327.02 146.29 327.00 115.96 326.99 C 111.05 327.33 106.17 324.42 104.20 319.92 C 101.69 314.65 103.94 307.80 108.98 304.91 Z" />
<path d=" M 342.78 319.01 C 342.71 317.31 342.92 314.60 345.09 314.40 C 346.63 314.02 347.98 315.11 349.28 315.75 C 371.63 328.75 394.10 341.54 416.41 354.59 C 418.88 355.68 418.71 359.23 416.24 360.20 C 393.42 373.43 370.61 386.68 347.72 399.76 C 345.63 401.45 342.41 399.69 342.82 397.02 C 342.85 387.94 342.75 378.85 342.84 369.77 C 330.58 369.72 318.31 369.83 306.05 369.72 C 300.28 369.59 294.98 364.89 294.34 359.12 C 293.18 352.24 298.95 345.17 305.94 345.07 C 318.24 344.91 330.54 345.02 342.83 345.03 C 342.72 336.36 342.91 327.68 342.78 319.01 Z" />
<path d=" M 103.20 381.97 C 103.24 375.80 108.83 370.37 115.01 370.55 C 144.97 370.49 174.93 370.56 204.89 370.52 C 205.67 378.51 206.49 386.52 208.44 394.32 C 177.30 394.27 146.17 394.36 115.03 394.28 C 108.50 394.48 102.78 388.46 103.20 381.97 Z" />
</g>
</svg>
