<?xml version="1.0" encoding="utf-8"?>
<!-- Generator: Adobe Illustrator 18.1.0, SVG Export Plug-In . SVG Version: 6.00 Build 0)  -->
<svg version="1.1" id="Capa_1" xmlns="http://www.w3.org/2000/svg" xmlns:xlink="http://www.w3.org/1999/xlink" x="0px" y="0px"
	 viewBox="-40.4 275.9 57.2 66.8" enable-background="new -40.4 275.9 57.2 66.8" xml:space="preserve">
<path d="M16.9,282.4c0-3.6-2.9-6.5-6.5-6.5h-44.6c-3.4,0-6.2,2.8-6.2,6.2v54.1c0,3.6,2.9,6.5,6.5,6.5h44.3
	c3.6,0,6.5-2.9,6.5-6.5V282.4z M10.4,331.3c0,2.7-2.2,4.9-4.9,4.9H-29c-2.7,0-4.9-2.2-4.9-4.9v-44.2c0-2.7,2.2-4.9,4.9-4.9H5.5
	c2.7,0,4.9,2.2,4.9,4.9L10.4,331.3z M10.4,331.3"/>
<path d="M-25.8,294.8H2.8c1.8,0,3.2-1.4,3.2-3.1c0-1.8-1.4-3.2-3.2-3.2h-28.6c-1.8,0-3.2,1.4-3.2,3.2
	C-29,293.4-27.5,294.8-25.8,294.8L-25.8,294.8z M-25.8,294.8"/>
<path d="M-25.8,306.4H2.8c1.8,0,3.2-1.4,3.2-3.1c0-1.8-1.4-3.1-3.2-3.1h-28.6c-1.8,0-3.2,1.4-3.2,3.1
	C-29,305-27.5,306.4-25.8,306.4L-25.8,306.4z M-25.8,306.4"/>
<path d="M-25.8,317.9H2.8c1.8,0,3.2-1.4,3.2-3.1c0-1.7-1.4-3.1-3.2-3.1h-28.6c-1.8,0-3.2,1.4-3.2,3.1
	C-29,316.5-27.5,317.9-25.8,317.9L-25.8,317.9z M-25.8,317.9"/>
<path d="M-25.8,329.1H2.8c1.8,0,3.2-1.4,3.2-3.2c0-1.7-1.4-3.1-3.2-3.1h-28.6c-1.8,0-3.2,1.4-3.2,3.1
	C-29,327.7-27.5,329.1-25.8,329.1L-25.8,329.1z M-25.8,329.1"/>
</svg>
