<?xml version="1.0" encoding="UTF-8" ?>
<!DOCTYPE svg PUBLIC "-//W3C//DTD SVG 1.1//EN" "http://www.w3.org/Graphics/SVG/1.1/DTD/svg11.dtd">
<svg width="175pt" height="35pt" viewBox="0 0 175 35" version="1.1" xmlns="http://www.w3.org/2000/svg">
<g id="#bfc4c8ff">
<path d=" M 18.86 0.00 L 20.57 0.00 C 27.04 0.26 33.59 3.30 37.16 8.85 C 40.47 13.75 40.63 20.52 37.53 25.56 C 34.12 31.37 27.48 34.63 20.89 35.00 L 19.11 35.00 C 9.94 34.83 0.64 28.02 0.00 18.42 L 0.00 16.71 C 0.53 7.12 9.74 0.31 18.86 0.00 Z" />
<path d=" M 86.38 0.00 L 88.20 0.00 C 94.74 0.27 101.36 3.39 104.88 9.05 C 108.30 14.23 108.15 21.40 104.56 26.45 C 101.05 31.68 94.88 34.55 88.72 35.00 L 86.69 35.00 C 79.92 34.70 73.08 31.29 69.70 25.27 C 66.68 20.13 67.03 13.31 70.49 8.47 C 74.02 3.27 80.22 0.42 86.38 0.00 Z" />
<path d=" M 154.13 0.00 L 156.00 0.00 C 165.08 0.24 174.26 6.93 175.00 16.42 L 175.00 18.12 C 174.60 27.72 165.41 34.63 156.29 35.00 L 154.37 35.00 C 147.69 34.73 140.92 31.44 137.46 25.56 C 134.36 20.52 134.52 13.73 137.84 8.83 C 141.35 3.37 147.77 0.36 154.13 0.00 Z" />
</g>
</svg>
