<?xml version="1.0" encoding="UTF-8" standalone="no"?>
<svg width="308px" height="175px" viewBox="0 0 308 175" version="1.1" xmlns="http://www.w3.org/2000/svg" xmlns:xlink="http://www.w3.org/1999/xlink" xmlns:sketch="http://www.bohemiancoding.com/sketch/ns">
    <!-- Generator: Sketch 3.5 (25232) - http://www.bohemiancoding.com/sketch -->
    <title>Group 2</title>
    <desc>Created with Sketch.</desc>
    <defs></defs>
    <g id="Drag-n-Drop" stroke="none" stroke-width="1" fill="none" fill-rule="evenodd" sketch:type="MSPage">
        <g id="Card-View-(Board-Members)" sketch:type="MSArtboardGroup" transform="translate(-486.000000, -219.000000)">
            <g id="Group-2" sketch:type="MSLayerGroup" transform="translate(485.000000, 219.000000)">
                <g id="arrow68" transform="translate(103.000000, 108.000000)" fill="#05A6F7" sketch:type="MSShapeGroup">
                    <g id="Capa_1">
                        <g id="Group">
                            <path d="M90.5165625,27.677 C87.478125,19.5762083 79.681875,13.8125 70.546875,13.8125 C68.4435938,13.8125 66.4125,14.118625 64.4896875,14.6880833 C59.285625,6.258125 49.9832813,0.645833333 39.375,0.645833333 C23.28375,0.645833333 10.1915625,13.5623333 9.8503125,29.622375 C3.96046875,33.0424167 0,39.4315417 0,46.7291667 C0,57.6311667 8.82,66.4791667 19.6875,66.4791667 L39.375,66.4791667 L39.375,59.8958333 L19.6776563,59.8958333 C12.4490625,59.8958333 6.5625,54.0004583 6.5625,46.7291667 C6.5625,40.4980417 10.8839063,35.2675833 16.6917188,33.9048333 C16.5014063,32.723125 16.40625,31.5085 16.40625,30.2708333 C16.40625,17.54525 26.6896875,7.22916667 39.375,7.22916667 C49.7503125,7.22916667 58.5178125,14.1317917 61.3659375,23.6052083 C63.8892188,21.594 67.0720313,20.3958333 70.546875,20.3958333 C78.14625,20.3958333 84.4101563,26.15625 85.2239063,33.5625 L85.3223438,33.5625 C92.5509375,33.5625 98.4375,39.457875 98.4375,46.7291667 C98.4375,53.9872917 92.5673438,59.8958333 85.3223438,59.8958333 L65.625,59.8958333 L65.625,66.4791667 L85.3125,66.4791667 C96.18,66.4791667 105,57.6147083 105,46.7291667 C105,37.6277083 98.8640625,29.9647083 90.5165625,27.677 L90.5165625,27.677 Z" id="Shape" opacity="0.4"></path>
                            <path d="M52.453125,29 L41,42.787381 L47.871875,42.787381 L47.871875,66.1705556 L57.034375,66.1705556 L57.034375,42.787381 L63.90625,42.787381 L52.453125,29 Z" id="Shape"></path>
                        </g>
                    </g>
                </g>
                <g id="Imported-Layers" transform="translate(41.547749, 95.462813) rotate(-30.000000) translate(-41.547749, -95.462813) translate(12.047749, 63.462813)" fill="#07A9EA" sketch:type="MSShapeGroup">
                    <path d="M55.9063415,0.192682927 L3.19121951,0.192682927 C1.58292683,0.192682927 0.280487805,1.49658537 0.280487805,3.10341463 L0.280487805,60.2102439 C0.280487805,61.8170732 1.58292683,63.1195122 3.19121951,63.1195122 L55.9063415,63.1195122 C57.5146341,63.1195122 58.8170732,61.8170732 58.8170732,60.2102439 L58.8170732,3.10341463 C58.8170732,1.49658537 57.5146341,0.192682927 55.9063415,0.192682927 L55.9063415,0.192682927 Z M6.13414634,6.04634146 L52.9634146,6.04634146 L52.9634146,57.2658537 L6.13414634,57.2658537 L6.13414634,6.04634146 Z" id="Fill-1" opacity="0.3"></path>
                    <path d="M13.4512195,23.12 L46.622439,23.12 L46.622439,26.5341463 L13.4512195,26.5341463 L13.4512195,23.12 Z" id="Fill-2"></path>
                    <path d="M13.4512195,30.7341463 L46.622439,30.7341463 L46.622439,34.1482927 L13.4512195,34.1482927 L13.4512195,30.7341463 Z" id="Fill-3"></path>
                    <path d="M13.4512195,38.3468293 L30.1839024,38.3468293 L30.1839024,41.7609756 L13.4512195,41.7609756 L13.4512195,38.3468293 Z" id="Fill-4"></path>
                </g>
                <g id="Imported-Layers" transform="translate(126.000000, 0.000000)" fill="#F0A839">
                    <path d="M55.6273171,0.8 L2.91073171,0.8 C1.30390244,0.8 0,2.10243902 0,3.71073171 L0,60.8160976 C0,62.4243902 1.30390244,63.7268293 2.91073171,63.7268293 L55.6273171,63.7268293 C57.2341463,63.7268293 58.5365854,62.4243902 58.5365854,60.8160976 L58.5365854,3.71073171 C58.5365854,2.10243902 57.2341463,0.8 55.6273171,0.8 L55.6273171,0.8 Z M5.85365854,6.65365854 L52.6829268,6.65365854 L52.6829268,57.8731707 L5.85365854,57.8731707 L5.85365854,6.65365854 Z" id="Fill-1" opacity="0.3" sketch:type="MSShapeGroup"></path>
                    <text id="Ai" sketch:type="MSTextLayer" font-family="Avenir" font-size="24" font-weight="420" sketch:alignment="middle" line-spacing="22">
                        <tspan x="18.5" y="50">Ai</tspan>
                    </text>
                </g>
                <g id="Imported-Layers" transform="translate(268.297749, 95.029800) rotate(-330.000000) translate(-268.297749, -95.029800) translate(238.797749, 63.529800)" fill="#81C48F" sketch:type="MSShapeGroup">
                    <g id="Fill-1-+-Group" transform="translate(0.000000, -0.000000)">
                        <path d="M55.6273171,-2.84217094e-14 L2.91073171,-2.84217094e-14 C1.30390244,-2.84217094e-14 0,1.30243902 0,2.91073171 L0,60.0160976 C0,61.6243902 1.30390244,62.9268293 2.91073171,62.9268293 L55.6273171,62.9268293 C57.2341463,62.9268293 58.5365854,61.6243902 58.5365854,60.0160976 L58.5365854,2.91073171 C58.5365854,1.30243902 57.2341463,-2.84217094e-14 55.6273171,-2.84217094e-14 L55.6273171,-2.84217094e-14 Z M5.85365854,5.85365854 L52.6829268,5.85365854 L52.6829268,57.0731707 L5.85365854,57.0731707 L5.85365854,5.85365854 Z" id="Fill-1" opacity="0.3"></path>
                        <g id="Group" transform="translate(12.000000, 16.800000)">
                            <path d="M0,14.4 L7.92723001,14.4 L7.92723001,17.8141463 L0,17.8141463 L0,14.4 Z" id="Fill-2"></path>
                            <path d="M0,21.6 L7.92723001,21.6 L7.92723001,25.0141463 L0,25.0141463 L0,21.6 Z" id="Fill-2"></path>
                            <path d="M0,28.8 L7.92723001,28.8 L7.92723001,32.2141463 L0,32.2141463 L0,28.8 Z" id="Fill-2"></path>
                            <path d="M0,7.2 L7.92723001,7.2 L7.92723001,10.6141463 L0,10.6141463 L0,7.2 Z" id="Fill-2"></path>
                            <path d="M0,0 L7.92723001,0 L7.92723001,3.41414634 L0,3.41414634 L0,0 Z" id="Fill-2"></path>
                            <path d="M12.7529372,14.4 L20.6801672,14.4 L20.6801672,17.8141463 L12.7529372,17.8141463 L12.7529372,14.4 Z" id="Fill-2"></path>
                            <path d="M12.7529372,21.6 L20.6801672,21.6 L20.6801672,25.0141463 L12.7529372,25.0141463 L12.7529372,21.6 Z" id="Fill-2"></path>
                            <path d="M12.7529372,28.8 L20.6801672,28.8 L20.6801672,32.2141463 L12.7529372,32.2141463 L12.7529372,28.8 Z" id="Fill-2"></path>
                            <path d="M12.7529372,7.2 L20.6801672,7.2 L20.6801672,10.6141463 L12.7529372,10.6141463 L12.7529372,7.2 Z" id="Fill-2"></path>
                            <path d="M12.7529372,0 L20.6801672,0 L20.6801672,3.41414634 L12.7529372,3.41414634 L12.7529372,0 Z" id="Fill-2"></path>
                            <path d="M25.5058744,14.4 L33.4331044,14.4 L33.4331044,17.8141463 L25.5058744,17.8141463 L25.5058744,14.4 Z" id="Fill-2"></path>
                            <path d="M25.5058744,21.6 L33.4331044,21.6 L33.4331044,25.0141463 L25.5058744,25.0141463 L25.5058744,21.6 Z" id="Fill-2"></path>
                            <path d="M25.5058744,28.8 L33.4331044,28.8 L33.4331044,32.2141463 L25.5058744,32.2141463 L25.5058744,28.8 Z" id="Fill-2"></path>
                            <path d="M25.5058744,7.2 L33.4331044,7.2 L33.4331044,10.6141463 L25.5058744,10.6141463 L25.5058744,7.2 Z" id="Fill-2"></path>
                            <path d="M25.5058744,0 L33.4331044,0 L33.4331044,3.41414634 L25.5058744,3.41414634 L25.5058744,0 Z" id="Fill-2"></path>
                        </g>
                    </g>
                </g>
            </g>
        </g>
    </g>
</svg>