<?xml version="1.0" encoding="UTF-8" ?>
<!DOCTYPE svg PUBLIC "-//W3C//DTD SVG 1.1//EN" "http://www.w3.org/Graphics/SVG/1.1/DTD/svg11.dtd">
<svg width="60pt" height="64pt" viewBox="0 0 60 64" version="1.1" xmlns="http://www.w3.org/2000/svg">
<g id="#4dc7e6ff">
<path d=" M 28.59 0.00 L 29.64 0.00 C 37.19 6.55 44.47 13.41 51.69 20.33 C 56.84 25.07 58.93 32.86 56.51 39.49 C 54.50 45.27 49.06 48.65 45.12 53.00 C 40.83 57.05 37.09 62.31 31.16 64.00 L 27.98 64.00 C 25.29 63.44 22.86 62.06 20.95 60.10 C 16.05 55.33 11.06 50.64 6.21 45.81 C -0.16 39.48 -0.85 28.06 5.55 21.51 C 13.03 14.13 20.83 7.08 28.59 0.00 M 13.85 27.87 C 10.46 30.65 10.98 36.24 14.11 39.02 C 19.13 43.96 24.22 48.82 29.30 53.69 C 29.25 51.43 29.31 49.16 29.04 46.91 C 26.59 43.74 23.33 41.28 20.54 38.40 C 19.11 36.80 16.67 35.48 16.95 33.00 C 18.01 30.99 19.89 29.61 21.51 28.07 C 27.20 33.64 32.92 39.18 38.69 44.67 C 41.04 42.31 43.67 40.19 45.78 37.59 C 48.03 34.54 46.94 30.13 44.33 27.65 C 39.42 22.79 34.37 18.05 29.43 13.21 C 24.03 17.87 19.01 22.95 13.85 27.87 Z" />
<path d=" M 25.00 24.64 C 26.55 23.19 28.09 21.75 29.62 20.29 C 33.52 24.25 37.83 27.82 41.46 32.02 C 42.42 34.56 39.69 35.96 38.29 37.59 C 33.85 33.29 29.29 29.10 25.00 24.64 Z" />
</g>
<g id="#ffffffff">
</g>
</svg>
