<?xml version="1.0" encoding="UTF-8" ?>
<!DOCTYPE svg PUBLIC "-//W3C//DTD SVG 1.1//EN" "http://www.w3.org/Graphics/SVG/1.1/DTD/svg11.dtd">
<svg width="928pt" height="786pt" viewBox="0 0 928 786" version="1.1" xmlns="http://www.w3.org/2000/svg">
<g id="#ffffffff">
<path fill="#ffffff" opacity="1.00" d=" M 603.14 0.00 L 621.32 0.00 C 623.12 1.03 624.82 2.22 626.54 3.38 C 627.12 3.59 628.30 4.01 628.88 4.23 C 630.42 7.55 630.18 11.31 629.84 14.85 C 628.76 17.46 628.14 20.20 627.84 23.00 C 626.55 23.00 625.28 23.00 624.01 23.00 C 624.00 22.50 624.00 21.50 623.99 21.00 C 623.33 21.00 622.01 21.00 621.35 21.00 C 620.93 20.51 620.09 19.53 619.67 19.04 C 618.69 18.98 617.72 18.91 616.76 18.84 C 611.41 17.00 605.52 18.45 599.96 18.00 C 600.00 15.60 599.82 13.14 600.50 10.80 C 602.49 8.33 601.62 5.06 602.76 2.28 C 602.86 1.71 603.04 0.57 603.14 0.00 M 603.21 16.11 C 603.48 19.29 606.39 14.60 603.21 16.11 Z" />
<path fill="#ffffff" opacity="1.00" d=" M 443.00 100.00 C 453.00 100.00 463.00 100.00 473.00 100.00 C 473.00 100.50 473.00 101.50 473.00 102.00 C 474.22 102.00 475.44 102.00 476.66 102.00 C 477.06 102.45 477.84 103.36 478.24 103.81 C 479.49 104.28 480.73 104.82 482.00 105.28 C 482.00 112.88 482.00 120.48 482.00 128.08 C 480.46 127.85 478.56 128.46 477.43 127.04 C 474.14 126.96 470.85 127.04 467.57 126.96 C 466.43 125.51 464.53 126.13 463.00 125.98 C 455.33 126.02 447.65 125.99 439.98 126.00 C 439.99 124.52 440.00 123.04 440.05 121.57 C 440.28 121.18 440.73 120.40 440.96 120.00 C 441.08 114.01 440.95 108.00 441.00 102.00 C 441.50 102.00 442.50 102.00 443.00 102.00 C 443.00 101.50 443.00 100.50 443.00 100.00 Z" />
<path fill="#ffffff" opacity="1.00" d=" M 359.09 114.57 C 360.55 112.96 359.43 110.36 361.31 108.95 C 362.91 110.03 364.86 110.38 366.57 111.26 C 367.85 112.24 369.49 111.96 371.00 112.08 C 371.00 112.56 371.00 113.52 371.00 114.00 C 372.56 114.00 374.13 114.00 375.70 114.00 C 376.10 114.50 376.90 115.49 377.29 115.99 C 378.33 116.00 379.38 116.02 380.43 116.05 C 381.56 117.46 383.46 116.85 385.00 117.08 C 385.00 117.56 385.00 118.51 385.00 118.98 C 385.63 119.00 386.90 119.02 387.53 119.04 C 388.46 119.91 389.44 120.76 390.52 121.47 C 391.55 121.74 392.60 121.97 393.66 122.16 C 394.29 123.79 395.50 125.09 396.42 126.55 C 397.21 128.11 396.96 129.89 397.02 131.57 C 395.67 132.85 394.00 134.04 393.65 136.00 C 393.25 136.00 392.44 136.00 392.04 136.00 C 392.01 136.61 391.96 137.83 391.93 138.44 C 390.56 139.59 391.13 141.47 390.92 143.00 C 390.49 143.00 389.63 143.00 389.20 143.00 C 389.03 144.18 388.78 145.33 388.45 146.47 C 387.56 149.18 385.03 149.34 382.58 148.99 C 381.48 147.50 379.53 148.16 378.00 147.92 C 378.00 147.44 378.00 146.48 378.00 146.00 C 377.25 146.00 375.75 146.00 375.00 146.00 C 375.00 145.51 375.00 144.53 375.00 144.04 C 374.39 144.01 373.17 143.96 372.56 143.93 C 371.41 142.56 369.52 143.14 368.00 142.92 C 368.00 142.44 368.00 141.48 368.00 141.00 C 366.66 141.00 365.33 141.00 364.01 141.00 C 364.00 140.56 364.00 139.68 364.00 139.23 C 362.37 138.63 360.74 137.97 359.00 137.79 C 359.00 137.34 359.00 136.45 359.00 136.00 C 358.50 136.00 357.50 136.00 357.00 136.00 C 357.00 135.25 357.00 133.75 357.00 133.00 C 356.50 133.00 355.50 133.00 355.00 133.00 C 355.00 129.33 355.00 125.67 355.00 122.00 C 355.50 122.00 356.50 122.00 357.00 122.00 C 357.00 120.33 357.00 118.67 357.00 117.00 C 357.49 117.00 358.47 117.00 358.96 117.00 C 358.99 116.39 359.05 115.18 359.09 114.57 Z" />
<path fill="#ffffff" opacity="1.00" d=" M 745.42 138.30 C 746.82 137.48 748.32 136.89 749.97 136.80 C 749.98 137.35 750.00 138.45 750.01 139.00 C 750.50 139.00 751.48 139.00 751.96 139.00 C 752.20 140.84 751.35 143.13 752.95 144.57 C 752.97 145.71 752.99 146.85 753.02 148.00 C 753.52 148.00 754.51 148.00 755.00 148.00 C 755.00 148.75 755.00 150.25 755.00 151.00 C 755.45 151.00 756.34 151.00 756.79 151.00 C 756.97 152.75 757.62 154.37 758.23 156.00 C 758.67 156.00 759.56 156.00 760.00 156.00 C 760.00 156.50 760.00 157.50 760.00 158.00 C 760.50 158.00 761.50 158.00 762.00 158.00 C 761.99 159.66 761.99 161.32 762.00 162.98 C 761.37 162.99 760.10 163.02 759.47 163.04 C 758.51 163.91 757.55 164.76 756.48 165.47 C 755.33 165.78 754.17 166.02 753.00 166.20 C 753.00 166.65 753.00 167.55 753.00 168.00 C 752.25 168.00 750.75 168.00 750.00 168.00 C 750.00 168.50 750.00 169.50 750.00 170.00 C 748.32 170.00 746.66 170.00 745.00 170.00 C 744.99 168.78 744.99 167.56 745.00 166.34 C 743.18 166.05 741.94 164.81 741.67 163.00 C 741.25 163.00 740.42 163.00 740.00 162.99 C 740.00 162.25 740.00 160.75 740.00 160.01 C 739.56 160.00 738.69 160.00 738.25 160.00 C 737.44 158.17 736.79 156.29 736.92 154.26 C 736.44 153.86 735.48 153.08 735.00 152.69 C 734.99 149.91 734.99 147.13 735.00 144.36 C 737.46 143.88 738.53 141.12 741.00 140.64 C 741.00 140.25 741.00 139.47 741.00 139.09 C 742.48 138.97 744.10 139.21 745.42 138.30 Z" />
<path fill="#ffffff" opacity="1.00" d=" M 505.22 137.84 C 507.25 137.82 509.15 138.44 511.00 139.25 C 511.00 139.60 511.00 140.30 511.00 140.65 C 512.37 140.93 513.37 141.87 514.38 142.78 C 515.58 143.29 516.77 143.84 518.00 144.30 C 518.00 144.73 518.00 145.58 518.01 146.00 C 518.75 146.00 520.25 146.00 521.00 146.00 C 520.99 147.66 520.99 149.33 521.00 151.00 C 520.50 151.00 519.50 151.00 519.00 151.00 C 518.99 152.33 518.99 153.66 519.00 155.00 C 518.50 155.00 517.50 155.00 517.00 155.00 C 517.00 155.75 517.00 157.25 517.00 158.00 C 516.55 158.00 515.66 158.00 515.21 158.00 C 515.05 159.64 514.47 161.18 513.83 162.68 C 511.49 163.27 510.39 165.88 508.00 166.36 C 508.00 166.77 508.00 167.59 507.99 168.00 C 507.25 168.00 505.75 168.00 505.00 168.00 C 505.00 168.50 505.00 169.50 505.00 170.00 C 503.66 170.00 502.33 170.00 501.00 170.00 C 501.00 169.50 501.00 168.50 501.00 168.00 C 500.25 168.00 498.75 168.00 498.01 168.00 C 498.00 167.57 498.00 166.70 498.00 166.27 C 496.65 165.79 495.34 165.21 494.00 164.73 C 494.00 164.29 494.00 163.43 494.00 163.00 C 493.31 163.00 491.92 163.00 491.23 163.00 C 490.63 161.38 489.98 159.77 489.78 158.04 C 490.34 158.03 491.45 158.00 492.00 157.99 C 492.00 157.49 492.00 156.50 492.00 156.00 C 492.50 156.00 493.50 156.00 494.00 156.00 C 494.00 155.58 494.00 154.75 494.00 154.33 C 495.81 154.05 497.05 152.81 497.33 151.00 C 497.69 151.00 498.41 151.00 498.76 151.00 C 499.37 149.37 500.02 147.75 500.21 146.00 C 500.66 146.00 501.55 146.00 502.00 146.00 C 502.00 145.25 502.00 143.75 502.00 143.00 C 502.48 143.00 503.43 143.00 503.91 143.00 C 503.94 141.18 503.84 139.25 505.22 137.84 Z" />
<path fill="#ffffff" opacity="1.00" d=" M 917.45 169.98 C 919.25 169.71 920.94 170.39 922.55 171.12 C 923.59 173.61 925.71 175.37 928.00 176.69 L 928.00 177.05 L 927.38 176.99 L 927.35 177.56 L 928.00 177.68 L 928.00 187.18 C 927.69 187.77 927.07 188.97 926.76 189.57 C 924.41 190.70 922.53 192.63 921.46 195.00 C 920.84 195.00 919.60 195.00 918.99 195.00 C 919.00 195.45 919.02 196.36 919.04 196.82 C 917.36 197.34 915.69 197.89 914.00 198.30 C 914.00 198.72 914.00 199.57 913.99 200.00 C 913.25 200.00 911.75 200.00 911.01 200.00 C 911.00 200.50 911.00 201.50 910.99 202.00 C 910.50 202.00 909.50 202.00 909.01 202.00 C 909.00 201.50 909.00 200.50 908.99 200.00 C 908.61 200.00 907.85 200.00 907.47 200.00 C 906.53 198.30 905.45 196.69 904.53 195.00 C 904.29 195.00 903.81 195.00 903.57 195.00 C 902.30 192.40 899.93 190.65 898.13 188.46 C 897.21 186.95 899.64 186.43 900.46 185.51 C 901.63 185.24 902.81 185.00 904.00 184.79 C 904.00 184.34 904.00 183.45 904.00 183.00 C 904.50 183.00 905.50 183.00 906.00 183.00 C 906.00 182.57 905.99 181.72 905.99 181.29 C 907.32 180.77 908.65 180.23 910.01 179.71 C 910.01 179.28 910.00 178.43 910.00 178.00 C 910.50 178.00 911.50 178.00 912.00 178.00 C 912.00 177.50 912.00 176.50 912.00 176.00 C 912.38 176.00 913.13 176.00 913.51 176.00 C 914.68 173.91 915.90 171.82 917.45 169.98 Z" />
<path fill="#ffffff" opacity="1.00" d=" M 572.97 196.18 C 574.44 194.75 576.97 194.34 578.55 195.88 C 579.02 195.94 579.98 196.06 580.45 196.12 C 581.65 197.41 583.44 196.90 584.98 197.02 C 589.82 197.11 594.69 196.75 599.51 197.16 L 600.56 197.93 C 601.17 197.96 602.40 198.01 603.01 198.04 C 602.85 200.19 603.50 202.55 602.31 204.50 C 602.02 205.59 601.70 206.67 601.12 207.64 C 602.66 209.36 602.46 212.76 601.07 214.56 C 601.04 215.17 600.99 216.39 600.96 217.00 C 593.31 217.00 585.65 217.00 578.00 217.00 C 578.00 216.50 578.00 215.50 578.00 215.00 C 576.32 215.00 574.66 215.00 573.00 215.00 C 573.00 214.50 573.00 213.50 573.00 213.00 C 572.50 213.00 571.50 213.00 571.00 213.00 C 570.99 211.00 570.99 209.00 571.00 207.00 C 571.50 207.00 572.50 207.00 573.00 207.00 C 572.99 203.39 573.02 199.78 572.97 196.18 Z" />
<path fill="#ffffff" opacity="1.00" d=" M 167.35 227.00 C 172.13 227.00 176.92 227.00 181.70 227.00 C 182.10 227.49 182.89 228.48 183.28 228.98 C 185.04 229.17 187.20 228.41 188.56 229.93 C 189.17 229.96 190.39 230.01 191.00 230.04 C 190.98 234.50 191.05 238.96 190.96 243.43 C 189.34 244.86 190.20 247.15 189.97 249.00 C 188.64 249.00 187.32 249.00 186.00 249.00 C 186.00 248.51 186.00 247.53 186.00 247.04 C 184.15 246.79 181.85 247.66 180.43 246.04 C 175.27 245.92 170.11 246.08 164.95 245.98 C 163.52 246.05 162.32 245.12 161.00 244.74 C 161.30 241.71 160.24 238.36 161.71 235.58 C 163.56 233.38 162.05 229.12 165.78 228.74 C 166.17 228.30 166.96 227.44 167.35 227.00 Z" />
<path fill="#ffffff" opacity="1.00" d=" M 91.00 240.00 C 91.50 240.00 92.50 240.00 93.00 240.00 C 93.00 240.50 93.00 241.50 93.00 242.00 C 93.42 242.00 94.24 242.00 94.65 242.00 C 95.11 244.41 97.25 245.87 99.40 246.68 C 100.48 247.20 101.43 247.93 102.38 248.65 C 103.57 249.16 104.52 250.04 105.45 250.93 C 105.95 250.97 106.94 251.06 107.44 251.10 C 108.92 252.60 111.15 251.81 113.00 252.03 C 113.00 252.53 113.00 253.51 113.00 254.00 C 113.75 254.00 115.25 254.00 116.00 254.00 C 116.00 254.75 116.00 256.25 116.00 257.00 C 115.50 257.00 114.50 257.00 114.00 257.00 C 114.00 258.33 114.00 259.66 114.00 261.00 C 113.50 261.00 112.50 261.00 112.00 261.00 C 112.00 261.75 112.00 263.25 112.00 263.99 C 111.60 263.99 110.78 264.00 110.38 264.00 C 109.97 264.97 109.48 265.91 108.92 266.81 C 107.42 266.84 106.52 268.02 105.54 268.98 C 104.13 268.99 102.72 268.99 101.31 269.00 C 100.91 268.52 100.13 267.55 99.74 267.07 C 98.28 266.87 96.51 267.39 95.44 266.07 C 94.83 266.04 93.61 265.99 93.00 265.96 C 93.00 265.56 93.00 264.75 93.00 264.35 C 91.05 264.00 89.87 262.34 88.59 261.01 C 87.94 261.01 86.65 261.00 86.00 260.99 C 86.00 260.50 86.00 259.50 86.00 259.00 C 85.50 259.00 84.50 259.00 84.00 259.00 C 84.00 258.50 84.00 257.50 84.00 257.00 C 83.50 257.00 82.50 257.00 82.00 257.00 C 82.00 256.25 82.00 254.75 82.00 254.00 C 82.45 254.00 83.34 254.00 83.79 254.00 C 83.97 252.25 84.63 250.63 85.23 249.00 C 85.68 249.00 86.56 249.00 87.00 249.00 C 87.00 248.32 87.00 246.97 87.00 246.30 C 87.50 245.90 88.50 245.10 89.00 244.70 C 89.00 244.03 89.00 242.68 89.00 242.00 C 89.50 242.00 90.50 242.00 91.00 242.00 C 91.00 241.50 91.00 240.50 91.00 240.00 Z" />
<path fill="#ffffff" opacity="1.00" d=" M 109.00 309.92 C 110.53 310.14 112.42 309.54 113.57 310.94 C 114.25 310.96 115.62 310.99 116.30 311.01 C 115.92 311.43 115.16 312.29 114.79 312.71 C 116.68 313.00 117.97 314.45 119.56 315.38 C 120.17 315.60 121.39 316.05 122.00 316.28 C 122.00 316.71 122.00 317.57 122.00 318.00 C 122.50 318.00 123.50 318.00 124.00 318.00 C 124.00 318.44 124.00 319.33 124.00 319.77 C 125.63 320.37 127.25 321.02 129.00 321.21 C 129.00 321.66 129.00 322.55 129.00 323.00 C 129.50 323.00 130.50 323.00 131.00 323.00 C 131.00 323.50 131.00 324.50 131.00 325.00 C 131.75 325.00 133.25 325.00 133.99 325.00 C 134.00 325.44 134.00 326.33 134.00 326.77 C 135.63 327.37 137.25 328.02 139.00 328.21 C 139.00 328.57 139.00 329.27 139.00 329.62 C 140.91 330.25 142.26 331.89 144.21 332.45 C 143.90 334.01 143.29 335.49 142.77 337.00 C 142.33 337.00 141.44 337.00 141.00 337.00 C 141.00 337.75 141.00 339.25 141.00 340.00 C 140.50 340.00 139.50 340.00 139.00 340.00 C 139.00 340.50 139.00 341.50 139.00 342.00 C 138.55 342.00 137.65 342.00 137.21 342.00 C 137.06 343.65 136.47 345.18 135.83 346.69 C 133.99 347.13 132.82 348.69 131.59 350.00 C 128.82 350.00 126.06 350.00 123.30 350.00 C 122.90 349.51 122.11 348.52 121.71 348.02 C 121.18 348.00 120.10 347.95 119.57 347.92 C 118.52 347.15 117.34 346.79 116.00 346.83 C 116.00 346.37 116.00 345.46 116.00 345.00 C 115.50 345.00 114.50 345.00 114.00 345.00 C 114.00 344.57 114.00 343.70 114.00 343.27 C 112.65 342.78 111.34 342.21 110.00 341.73 C 110.00 341.38 110.00 340.70 110.00 340.36 C 107.54 339.88 106.46 337.11 104.00 336.64 C 104.00 336.23 104.00 335.41 103.99 335.00 C 103.58 335.00 102.75 335.00 102.33 335.00 C 102.06 332.80 100.28 331.51 98.11 331.93 C 97.32 330.94 96.94 329.79 96.87 328.54 C 97.97 327.56 99.09 326.52 99.35 325.00 C 99.70 325.00 100.41 325.00 100.77 325.00 C 101.37 323.37 102.02 321.74 102.21 320.00 C 102.59 320.00 103.33 320.00 103.71 320.00 C 104.17 318.75 104.71 317.54 105.20 316.32 C 106.72 315.87 107.81 314.68 109.01 313.71 C 109.00 312.44 109.00 311.18 109.00 309.92 Z" />
<path fill="#ffffff" opacity="1.00" d=" M 340.55 330.62 C 342.18 328.77 343.80 326.77 346.13 325.78 C 349.40 325.24 352.72 325.52 356.02 325.47 C 462.02 325.48 568.03 325.47 674.03 325.47 C 676.67 325.14 678.97 326.41 681.10 327.81 C 681.67 328.61 682.24 329.42 682.82 330.24 C 683.75 336.10 683.40 342.06 683.41 347.97 C 683.42 375.33 683.43 402.69 683.41 430.05 C 683.54 462.39 682.99 494.73 683.09 527.07 C 675.69 532.28 669.14 538.54 662.09 544.18 C 619.99 579.71 577.88 615.23 535.74 650.70 C 531.39 654.58 526.68 658.39 520.95 659.98 C 511.33 663.01 500.33 660.90 492.55 654.49 C 463.98 630.39 435.37 606.32 406.81 582.21 C 384.81 563.97 363.24 545.22 341.11 527.15 C 341.09 515.43 341.10 503.71 341.10 492.00 C 341.07 486.72 341.55 481.38 340.41 476.19 C 340.16 450.48 340.37 424.75 340.30 399.04 C 340.46 376.23 339.98 353.41 340.55 330.62 M 390.28 363.28 C 386.39 364.64 383.28 368.03 382.40 372.07 C 381.09 377.63 381.84 383.38 381.63 389.04 C 381.64 394.38 381.36 400.56 385.18 404.81 C 389.60 409.81 396.99 409.29 403.05 409.04 C 409.77 408.05 417.58 410.84 423.48 406.53 C 427.35 403.64 428.96 398.67 428.58 393.98 C 428.45 387.63 428.66 381.28 428.51 374.93 C 428.53 369.33 424.16 364.53 419.01 362.90 C 413.71 362.11 408.34 362.71 403.01 362.54 C 398.77 362.67 394.38 361.98 390.28 363.28 M 449.65 371.69 C 448.96 375.36 449.36 379.12 449.34 382.83 C 455.84 383.52 462.38 383.11 468.91 383.19 C 487.29 383.25 505.68 383.10 524.06 383.25 C 526.19 383.27 528.31 382.96 530.42 382.61 C 530.16 378.88 530.17 375.13 530.43 371.40 C 525.00 370.50 519.49 370.89 514.01 370.84 C 494.33 370.82 474.64 370.93 454.96 370.81 C 453.16 370.85 451.30 370.92 449.65 371.69 M 449.83 399.08 C 449.61 402.52 453.70 402.22 456.04 402.24 C 514.36 402.13 572.68 402.20 630.99 402.18 C 634.78 402.02 638.81 402.83 642.43 401.39 C 643.20 397.73 642.76 393.96 642.66 390.26 C 636.13 389.32 629.53 389.96 622.97 389.79 C 566.31 389.75 509.65 389.81 452.99 389.76 C 447.99 389.33 449.98 396.01 449.83 399.08 M 392.33 434.54 C 387.75 435.23 383.76 438.88 382.54 443.34 C 381.18 448.13 381.74 453.15 381.65 458.06 C 381.70 462.82 381.21 467.73 382.76 472.32 C 384.28 477.01 388.89 480.75 393.92 480.69 C 401.28 480.77 408.65 480.70 416.02 480.72 C 422.84 481.19 428.81 474.63 428.55 467.98 C 428.54 461.00 428.55 454.03 428.55 447.05 C 428.74 441.55 424.85 436.20 419.55 434.72 C 416.40 434.12 413.17 434.38 409.99 434.35 C 404.10 434.51 398.20 434.06 392.33 434.54 M 450.01 442.90 C 449.87 446.48 449.18 450.22 450.26 453.72 C 450.83 455.19 452.73 454.94 454.00 455.12 C 477.66 455.23 501.33 455.05 524.99 455.20 C 526.56 454.92 528.98 455.61 529.72 453.72 C 530.39 451.22 530.33 448.58 530.16 446.02 C 529.98 444.68 530.08 442.30 528.02 442.66 C 502.02 442.69 476.00 442.35 450.01 442.90 M 449.52 462.31 C 448.97 466.13 449.40 470.01 449.39 473.85 C 463.56 474.44 477.76 474.00 491.94 474.15 C 542.22 473.96 592.52 474.42 642.79 473.93 C 642.89 469.70 642.86 465.47 642.66 461.25 C 579.44 461.21 516.22 461.27 453.00 461.22 C 451.91 461.47 449.93 460.89 449.52 462.31 M 390.30 502.53 C 385.88 504.11 382.53 508.35 382.03 513.03 C 381.26 518.66 381.82 524.37 381.63 530.04 C 381.60 535.43 381.85 541.84 386.61 545.38 C 391.70 549.87 398.87 548.07 405.03 548.38 C 410.99 548.10 417.61 549.64 422.88 546.07 C 426.78 543.90 428.61 539.30 428.55 535.00 C 428.55 528.33 428.56 521.65 428.55 514.98 C 428.61 510.47 426.44 505.78 422.40 503.55 C 417.43 500.68 411.47 501.77 406.01 501.60 C 400.78 501.78 395.38 500.91 390.30 502.53 M 451.25 510.18 C 448.66 513.23 449.27 518.67 451.03 522.09 C 454.35 522.66 457.73 522.44 461.08 522.45 C 480.03 522.36 498.98 522.43 517.92 522.43 C 521.62 522.40 525.34 522.74 529.01 522.13 C 530.79 518.62 530.56 514.27 529.52 510.57 C 528.11 509.84 526.48 509.84 524.95 509.78 C 502.31 509.86 479.67 509.90 457.03 509.77 C 455.09 509.79 453.14 509.75 451.25 510.18 M 449.38 529.28 C 449.28 533.36 449.30 537.46 449.53 541.54 C 461.01 541.91 472.50 541.56 483.98 541.68 C 536.89 541.68 589.79 541.68 642.69 541.69 C 642.73 537.67 643.30 533.58 642.37 529.63 C 640.40 528.63 638.12 528.88 636.00 528.82 C 617.99 529.02 599.97 529.12 581.96 528.91 C 548.98 528.93 516.00 529.06 483.01 528.91 C 471.80 529.36 460.57 528.31 449.38 529.28 Z" />
<path fill="#ffffff" opacity="1.00" d=" M 805.48 352.00 C 806.73 352.03 807.79 352.94 809.00 353.29 C 809.00 353.71 809.00 354.57 809.00 355.00 C 809.50 355.00 810.50 355.00 811.00 355.00 C 810.99 356.22 810.99 357.44 811.00 358.66 C 811.45 359.05 812.35 359.84 812.80 360.24 C 813.24 361.41 813.73 362.57 814.20 363.75 C 814.63 364.14 815.50 364.91 815.93 365.30 C 816.11 366.74 815.60 368.51 816.95 369.57 C 817.00 372.36 817.06 375.16 816.99 377.96 C 817.07 379.52 815.11 379.89 814.00 380.33 C 814.00 380.75 814.00 381.58 814.00 382.00 C 813.25 382.00 811.75 382.00 811.01 382.00 C 811.00 382.50 811.00 383.50 810.99 384.00 C 809.22 383.99 807.46 383.99 805.71 384.00 C 806.10 384.50 806.90 385.50 807.29 386.00 C 805.30 386.00 803.31 386.00 801.34 386.00 C 800.84 384.78 800.26 383.61 799.71 382.43 C 798.44 380.52 799.16 378.13 798.99 376.00 C 798.51 376.00 797.56 376.00 797.08 376.00 C 796.85 374.47 797.43 372.59 796.07 371.44 C 796.05 370.90 796.00 369.83 795.98 369.29 C 795.48 368.89 794.49 368.10 794.00 367.70 C 794.00 367.03 794.00 365.68 794.00 365.00 C 793.50 365.00 792.50 365.00 792.00 365.00 C 792.00 364.25 792.00 362.75 792.00 362.00 C 791.50 362.00 790.50 362.00 790.00 362.00 C 790.00 361.33 790.00 360.01 790.00 359.35 C 791.46 359.10 792.45 358.02 793.46 357.02 C 794.63 357.00 795.81 356.99 797.00 356.99 C 797.00 356.51 797.00 355.56 797.00 355.08 C 798.52 354.87 800.38 355.42 801.56 354.09 C 802.07 354.06 803.09 353.99 803.59 353.96 C 804.07 353.47 805.01 352.49 805.48 352.00 Z" />
<path fill="#ffffff" opacity="1.00" d=" M 762.30 411.00 C 762.98 411.00 764.32 411.00 765.00 411.00 C 765.00 411.50 765.00 412.50 765.00 413.00 C 765.50 413.00 766.50 413.00 767.00 413.00 C 767.00 413.67 767.00 415.01 767.00 415.67 C 767.46 416.06 768.38 416.85 768.85 417.24 C 769.38 418.70 769.95 420.16 770.18 421.72 C 771.43 422.95 772.68 424.18 773.98 425.38 C 773.99 426.39 774.02 427.41 774.06 428.44 C 776.09 431.39 774.50 435.43 775.03 438.83 C 773.01 441.15 769.51 438.87 767.44 440.93 C 766.90 440.95 765.83 441.00 765.29 441.02 C 764.89 441.52 764.10 442.51 763.70 443.00 C 763.03 443.00 761.68 443.00 761.00 443.00 C 761.00 443.50 761.00 444.50 761.00 445.00 C 759.65 444.99 758.32 444.99 757.00 445.00 C 756.99 443.33 756.99 441.66 757.00 440.00 C 756.50 440.00 755.50 440.00 755.00 439.99 C 754.99 438.66 754.99 437.33 755.00 436.00 C 754.52 436.00 753.56 436.00 753.08 436.00 C 752.84 434.46 753.45 432.57 752.05 431.43 C 752.01 430.28 751.99 429.14 751.98 428.00 C 751.48 428.00 750.49 428.00 750.00 428.00 C 750.00 425.12 749.99 422.25 750.00 419.38 C 751.58 418.03 752.85 416.11 755.00 415.65 C 755.00 415.28 755.00 414.54 755.00 414.17 C 756.33 414.20 757.52 413.84 758.57 413.08 C 759.10 413.05 760.18 413.00 760.71 412.98 C 761.11 412.48 761.90 411.49 762.30 411.00 Z" />
<path fill="#ffffff" opacity="1.00" d=" M 126.00 419.00 C 128.00 419.00 130.00 419.00 132.00 419.00 C 132.00 419.50 132.00 420.50 132.00 421.00 C 133.90 421.00 135.80 420.99 137.70 421.00 C 138.10 421.50 138.89 422.48 139.28 422.98 C 141.04 423.18 143.23 422.39 144.57 423.96 C 146.71 424.00 148.85 424.00 151.00 424.00 C 151.00 424.50 151.00 425.50 151.00 426.00 C 151.75 426.00 153.25 426.00 154.00 426.00 C 153.51 429.45 155.11 433.58 153.04 436.57 C 152.98 438.98 152.99 441.40 153.03 443.83 C 149.59 446.26 144.95 444.46 141.00 445.00 C 141.00 444.50 141.00 443.50 141.00 443.00 C 139.33 442.99 137.67 442.99 136.00 443.00 C 136.00 442.51 136.00 441.52 136.00 441.02 C 134.85 441.00 133.71 440.97 132.57 440.95 C 130.75 439.15 127.96 440.32 125.71 440.01 C 126.11 439.50 126.90 438.49 127.30 437.98 C 125.91 437.99 124.52 438.01 123.14 438.04 C 122.60 437.07 122.10 436.09 121.63 435.10 C 122.22 435.07 123.41 435.00 124.00 434.96 C 124.00 432.64 124.00 430.32 124.00 428.01 C 124.50 428.00 125.50 428.00 126.00 428.00 C 126.00 424.99 126.00 422.00 126.00 419.00 Z" />
<path fill="#ffffff" opacity="1.00" d=" M 244.01 438.82 C 245.33 438.80 246.51 439.16 247.56 439.89 C 249.23 440.16 251.30 439.47 252.57 440.96 C 254.71 441.00 256.85 441.00 259.00 441.00 C 259.00 441.50 259.00 442.50 259.00 443.00 C 260.90 443.00 262.80 442.99 264.70 443.00 C 265.10 443.50 265.90 444.50 266.30 445.00 C 268.20 445.00 270.10 444.99 272.00 445.00 C 271.99 448.14 272.03 451.28 271.96 454.43 C 270.01 456.77 271.39 460.19 271.01 463.00 C 270.33 463.00 268.97 463.00 268.30 463.00 C 267.90 463.50 267.10 464.50 266.70 465.00 C 265.13 464.99 263.57 464.99 262.00 465.00 C 262.00 464.50 262.00 463.51 262.00 463.01 C 259.39 463.01 256.60 463.42 254.41 461.68 C 253.45 461.30 252.48 460.97 251.50 460.69 C 249.85 459.62 247.84 460.08 246.00 459.96 C 246.00 459.48 246.00 458.52 246.00 458.04 C 243.93 457.91 241.57 458.49 239.96 456.82 C 239.98 455.54 240.00 454.27 240.01 453.00 C 240.51 453.00 241.50 453.00 242.00 453.00 C 242.00 450.66 242.00 448.33 242.00 446.00 C 242.50 446.00 243.50 446.00 244.00 446.00 C 244.00 443.60 243.99 441.21 244.01 438.82 Z" />
<path fill="#ffffff" opacity="1.00" d=" M 204.01 473.00 C 212.34 473.00 220.67 473.00 229.00 473.00 C 229.00 478.76 229.00 484.53 229.00 490.29 C 228.50 489.89 227.50 489.10 227.00 488.71 C 227.00 489.53 227.00 491.18 227.00 492.00 C 225.67 491.99 224.33 491.99 223.00 492.00 C 223.00 492.50 223.00 493.50 223.00 494.00 C 216.00 494.00 209.00 494.00 202.00 494.00 C 201.67 491.51 202.88 488.50 201.07 486.44 C 201.01 485.14 200.98 483.85 200.93 482.56 C 199.12 480.50 200.32 477.48 200.00 475.00 C 201.33 474.99 202.66 474.99 203.99 475.00 C 204.00 474.50 204.00 473.50 204.01 473.00 Z" />
<path fill="#ffffff" opacity="1.00" d=" M 806.00 473.00 C 807.58 472.99 809.17 472.99 810.77 473.00 C 811.36 474.63 812.01 476.25 812.21 478.00 C 812.66 478.00 813.55 478.00 814.00 478.00 C 813.99 479.33 813.99 480.66 814.00 482.00 C 814.45 482.00 815.34 482.00 815.79 482.00 C 815.97 483.74 816.62 485.36 817.23 487.00 C 817.73 487.01 818.72 487.03 819.22 487.04 C 819.00 488.76 818.36 490.38 817.77 492.00 C 816.40 492.00 815.05 491.99 813.70 492.00 C 814.10 492.48 814.88 493.44 815.28 493.92 C 813.81 493.75 812.53 494.08 811.44 494.93 C 810.83 494.96 809.61 495.01 809.00 495.04 C 809.00 495.53 809.00 496.51 809.00 497.00 C 808.25 497.00 806.75 497.00 806.00 497.00 C 806.00 497.49 806.00 498.47 806.00 498.96 C 805.39 498.99 804.17 499.04 803.56 499.07 C 801.82 500.75 799.19 499.77 797.06 500.03 C 795.33 500.25 793.82 499.47 792.32 498.81 C 791.42 496.14 788.88 494.54 786.99 492.62 C 786.99 491.96 786.99 490.66 787.00 490.00 C 786.50 490.00 785.50 490.00 785.00 490.00 C 785.00 489.25 785.00 487.75 785.00 487.00 C 785.50 487.00 786.50 487.00 787.00 487.00 C 787.00 486.50 787.00 485.50 787.00 485.00 C 787.83 485.00 789.47 485.01 790.30 485.01 C 789.91 484.54 789.12 483.60 788.73 483.13 C 790.58 483.12 792.29 482.42 794.00 481.76 C 794.00 481.32 794.00 480.44 794.00 480.00 C 794.50 480.00 795.50 480.00 796.00 480.00 C 796.00 479.55 796.00 478.66 796.00 478.21 C 797.65 478.03 799.21 477.44 800.76 476.84 C 801.16 476.38 801.94 475.46 802.33 475.00 C 803.54 474.99 804.76 474.99 806.00 475.00 C 806.00 474.50 806.00 473.50 806.00 473.00 Z" />
<path fill="#ffffff" opacity="1.00" d=" M 566.62 661.49 C 571.39 658.01 575.35 653.50 580.46 650.48 C 586.66 657.70 594.80 662.78 601.64 669.32 C 637.81 699.84 674.03 730.28 710.20 760.79 C 713.43 763.46 717.32 765.85 718.59 770.13 C 715.10 773.53 711.18 776.49 707.06 779.10 C 705.98 779.71 704.93 780.39 703.87 781.04 C 703.43 781.19 702.53 781.50 702.09 781.65 C 700.12 782.60 698.08 783.38 696.12 784.33 C 694.16 784.53 692.14 784.73 690.53 786.00 L 330.45 786.00 C 329.51 785.74 327.62 785.21 326.68 784.94 C 325.49 784.65 324.28 784.45 323.09 784.24 C 321.15 783.28 319.12 782.53 317.15 781.66 C 315.62 780.90 314.11 780.11 312.62 779.32 L 312.39 779.08 C 312.09 778.73 311.50 778.04 311.20 777.69 C 308.54 775.10 305.46 772.99 302.68 770.54 C 305.32 767.53 308.39 764.98 311.52 762.51 C 352.96 727.63 394.34 692.68 435.79 657.82 C 438.50 655.38 441.35 653.07 444.58 651.33 C 449.66 654.92 453.82 659.62 458.86 663.28 C 467.05 670.39 475.50 677.20 483.75 684.26 C 490.28 690.10 497.29 696.41 506.35 697.59 C 510.04 699.00 513.89 698.90 517.56 697.49 C 519.33 697.16 521.11 696.83 522.89 696.52 C 523.88 696.10 524.87 695.67 525.82 695.17 C 534.62 689.36 542.02 681.75 550.40 675.39 C 555.54 670.44 561.47 666.43 566.62 661.49 Z" />
</g>
<g id="#05a6f7ff">
<path fill="#05a6f7" opacity="1.00" d=" M 531.01 25.99 C 531.65 25.99 532.93 26.00 533.57 26.00 C 534.33 27.62 535.40 29.06 536.37 30.56 C 536.60 31.17 537.05 32.39 537.27 33.00 C 537.70 33.00 538.56 33.01 538.99 33.01 C 538.99 33.42 539.00 34.23 539.00 34.64 C 541.04 34.98 542.06 36.62 542.67 38.44 C 543.45 40.03 544.70 41.28 545.99 42.45 C 546.01 45.97 545.99 49.48 546.00 52.99 C 545.50 52.99 544.51 53.00 544.01 53.01 C 544.00 53.50 543.99 54.50 543.99 55.00 C 543.25 55.00 541.76 55.00 541.01 55.00 C 541.01 55.44 541.00 56.32 541.00 56.76 C 539.73 56.92 538.53 57.28 537.40 57.84 C 536.80 57.90 535.61 58.01 535.01 58.07 C 535.00 58.55 534.99 59.52 534.99 60.00 C 533.65 60.00 532.33 60.00 531.00 60.00 C 531.00 59.35 531.00 58.06 531.00 57.41 C 529.70 56.19 528.42 54.94 527.16 53.67 C 527.22 51.56 526.16 49.95 524.00 49.67 C 524.00 49.25 523.99 48.42 523.99 48.01 C 523.56 48.01 522.69 48.00 522.25 48.00 C 521.92 46.29 521.36 44.64 520.82 43.00 C 520.37 43.00 519.46 42.99 519.00 42.99 C 518.99 40.47 518.99 37.96 519.01 35.44 C 520.43 34.20 521.81 32.84 522.42 31.00 C 523.48 31.00 524.55 31.00 525.63 31.00 C 526.53 30.00 527.45 29.00 528.37 28.00 C 529.03 28.00 530.33 28.00 530.99 28.00 C 530.99 27.50 531.01 26.49 531.01 25.99 Z" />
<path fill="#05a6f7" opacity="1.00" d=" M 713.34 42.99 C 714.88 43.00 716.44 43.00 718.00 43.00 C 717.99 44.56 717.99 46.11 717.99 47.67 C 718.50 48.08 719.50 48.92 720.00 49.33 C 719.98 51.69 719.98 54.05 720.08 56.41 C 721.96 58.02 720.35 60.15 719.79 61.96 C 717.96 62.08 715.94 61.62 714.40 62.88 C 713.36 62.94 712.34 62.98 711.32 63.02 C 710.91 63.52 710.08 64.51 709.66 65.00 C 704.92 64.99 700.18 65.01 695.44 64.99 C 694.19 63.57 692.83 62.19 691.00 61.58 C 690.99 59.39 690.99 57.20 691.00 55.01 C 690.50 55.01 689.50 54.99 689.00 54.99 C 689.52 52.17 687.63 47.83 690.50 46.13 C 695.97 45.72 701.48 46.24 706.96 45.94 C 707.37 45.73 708.19 45.32 708.60 45.12 C 709.62 45.06 710.64 45.01 711.68 44.98 C 712.09 44.48 712.92 43.49 713.34 42.99 Z" />
<path fill="#05a6f7" opacity="1.00" d=" M 389.03 53.00 C 389.78 53.00 391.27 53.00 392.01 53.00 C 392.00 53.68 391.97 55.04 391.95 55.72 C 393.15 56.71 394.38 57.70 395.79 58.39 C 396.27 59.52 396.77 60.64 397.24 61.79 C 398.42 62.25 399.60 62.75 400.80 63.22 C 401.27 64.48 401.79 65.73 402.26 67.00 C 402.70 67.00 403.57 67.01 404.00 67.02 C 404.00 67.76 404.00 69.24 404.00 69.99 C 404.48 69.99 405.45 70.00 405.94 70.01 C 405.99 70.61 406.09 71.81 406.15 72.41 C 407.32 73.90 406.94 75.81 407.04 77.56 C 406.20 78.36 405.38 79.17 404.57 79.99 C 403.94 80.00 402.67 80.00 402.03 80.00 C 402.02 80.40 402.00 81.18 401.98 81.58 C 400.36 82.34 398.93 83.41 397.44 84.37 C 396.83 84.60 395.61 85.05 395.00 85.27 C 395.00 85.70 394.99 86.57 394.99 87.00 C 393.65 87.00 392.32 87.00 391.00 87.00 C 391.00 86.25 391.00 84.76 391.00 84.01 C 390.50 84.01 389.50 84.00 389.00 83.99 C 389.00 83.49 389.00 82.50 389.00 82.01 C 388.57 82.01 387.71 82.00 387.27 82.00 C 387.05 81.39 386.60 80.17 386.37 79.56 C 385.41 78.07 384.35 76.64 383.58 75.04 C 383.29 75.02 382.71 74.98 382.42 74.96 C 381.63 73.37 380.58 71.93 379.66 70.43 C 379.43 69.92 378.98 68.90 378.76 68.39 C 377.38 67.67 376.15 66.71 374.96 65.72 C 374.98 64.48 374.99 63.24 375.01 62.00 C 376.33 62.00 377.66 62.00 378.99 62.00 C 378.99 61.50 379.01 60.50 379.01 60.00 C 379.76 60.00 381.24 60.00 381.98 60.00 C 381.99 59.57 382.00 58.70 382.00 58.27 C 382.61 58.05 383.83 57.60 384.44 57.37 C 385.93 56.41 387.36 55.34 388.98 54.58 C 389.00 54.18 389.02 53.39 389.03 53.00 Z" />
<path fill="#05a6f7" opacity="1.00" d=" M 556.01 137.88 C 557.56 138.04 559.30 137.80 560.61 138.90 C 562.73 139.00 564.86 139.01 566.99 139.01 C 567.00 139.51 567.01 140.51 567.01 141.00 C 568.89 141.00 570.77 141.00 572.66 141.00 C 573.08 141.49 573.91 142.47 574.32 142.96 C 574.84 143.01 575.88 143.11 576.41 143.16 C 577.53 143.72 578.73 144.08 580.00 144.24 C 580.00 144.68 580.01 145.56 580.01 146.00 C 580.76 146.00 582.25 146.00 583.00 146.00 C 582.99 148.33 582.99 150.66 583.00 152.99 C 582.52 152.99 581.55 153.00 581.06 153.01 C 581.01 153.61 580.90 154.81 580.85 155.41 C 579.61 157.03 580.07 159.11 579.94 161.00 C 579.51 161.00 578.64 161.00 578.21 161.00 C 578.09 162.19 577.83 163.34 577.44 164.45 C 576.19 165.12 574.73 164.95 573.39 165.14 C 572.96 164.60 572.11 163.52 571.68 162.99 C 570.45 162.99 569.23 163.00 568.01 163.01 C 568.01 162.50 567.99 161.50 567.99 161.00 C 566.43 161.00 564.88 161.00 563.34 161.00 C 562.92 160.51 562.09 159.53 561.68 159.04 C 561.16 158.99 560.12 158.89 559.59 158.84 C 558.46 158.27 557.26 157.91 556.00 157.76 C 556.00 157.32 555.99 156.44 555.99 156.01 C 555.51 156.00 554.54 156.00 554.06 156.00 C 554.01 155.39 553.91 154.19 553.86 153.59 C 552.61 152.10 552.59 149.85 553.91 148.40 C 554.00 146.27 554.00 144.14 554.01 142.01 C 554.51 142.00 555.50 141.99 556.00 141.99 C 555.99 140.62 556.00 139.25 556.01 137.88 Z" />
<path fill="#05a6f7" opacity="1.00" d=" M 704.34 162.99 C 705.53 162.99 706.73 163.00 707.94 163.00 C 708.07 164.88 707.60 166.97 708.85 168.59 C 708.91 169.19 709.01 170.39 709.06 170.99 C 709.55 171.00 710.52 171.01 711.00 171.01 C 710.99 173.34 710.99 175.66 711.00 177.99 C 711.50 177.99 712.50 178.01 713.00 178.01 C 713.00 181.34 713.00 184.67 713.00 188.00 C 711.33 188.00 709.67 188.00 708.01 188.00 C 708.01 188.50 707.99 189.50 707.99 190.00 C 706.76 190.00 705.55 189.99 704.34 189.99 C 703.93 190.49 703.09 191.47 702.68 191.96 C 702.16 192.01 701.12 192.11 700.60 192.15 C 699.24 193.14 697.56 192.98 696.00 193.12 C 696.00 193.59 695.99 194.53 695.99 195.01 C 693.90 195.00 691.81 194.99 689.73 194.99 C 690.12 195.49 690.88 196.51 691.26 197.01 C 686.18 196.99 681.09 197.00 676.01 197.00 C 676.01 196.50 676.00 195.50 675.99 195.00 C 675.49 195.00 674.50 195.00 674.00 195.00 C 674.00 194.50 674.00 193.50 674.00 193.01 C 673.50 193.00 672.51 193.00 672.01 192.99 C 672.00 190.86 672.00 188.73 671.90 186.61 C 670.57 185.01 671.08 182.89 670.94 181.00 C 670.46 181.00 669.49 180.99 669.00 180.99 C 668.99 179.33 668.99 177.67 669.00 176.01 C 668.50 176.01 667.49 175.99 666.99 175.98 C 666.99 175.58 667.00 174.77 667.00 174.37 C 667.64 174.05 668.92 173.40 669.56 173.08 C 671.70 173.00 673.84 172.99 675.99 172.99 C 676.00 172.49 676.01 171.50 676.01 171.00 C 678.53 170.79 681.37 171.69 683.61 170.12 C 684.62 170.06 685.64 170.01 686.68 169.98 C 687.09 169.48 687.92 168.49 688.34 167.99 C 689.88 167.99 691.43 168.00 692.99 168.00 C 692.99 167.51 693.00 166.52 693.00 166.02 C 695.20 165.85 697.68 166.57 699.60 165.12 C 700.62 165.06 701.64 165.01 702.68 164.98 C 703.09 164.48 703.92 163.49 704.34 162.99 Z" />
<path fill="#05a6f7" opacity="1.00" d=" M 475.06 185.74 C 476.74 186.09 478.37 186.64 480.00 187.18 C 479.99 192.34 480.00 197.50 480.00 202.67 C 480.50 203.08 481.50 203.92 482.00 204.33 C 482.00 206.76 482.00 209.19 482.00 211.63 C 481.36 211.95 480.08 212.59 479.44 212.91 C 478.06 212.96 476.69 212.98 475.33 213.01 C 474.91 213.51 474.08 214.51 473.66 215.00 C 471.77 215.00 469.89 215.00 468.01 215.00 C 468.01 215.50 467.99 216.50 467.99 217.00 C 464.52 217.00 461.06 216.94 457.60 217.08 C 456.40 218.34 454.60 218.29 453.40 217.09 C 450.93 216.98 448.47 216.99 446.01 217.00 C 446.01 216.56 446.00 215.69 446.00 215.25 C 444.34 214.94 442.75 214.40 441.16 213.87 C 439.31 210.95 440.78 207.33 439.18 204.41 C 439.05 203.47 438.93 202.52 438.82 201.58 C 437.11 198.28 438.34 194.33 438.03 190.76 C 439.30 190.89 440.49 191.27 441.61 191.90 C 447.39 192.02 453.19 192.13 458.97 191.89 C 459.33 191.75 460.05 191.48 460.41 191.34 C 463.19 189.24 466.77 190.16 469.99 190.00 C 469.99 189.50 470.01 188.50 470.01 188.00 C 471.66 188.00 473.32 188.00 474.98 188.00 C 475.00 187.44 475.04 186.31 475.06 185.74 Z" />
<path fill="#05a6f7" opacity="1.00" d=" M 298.41 198.00 C 299.93 198.00 301.46 198.00 302.99 198.00 C 302.99 198.50 303.01 199.50 303.01 200.00 C 304.22 200.00 305.44 199.99 306.66 199.99 C 307.07 200.49 307.91 201.47 308.32 201.96 C 308.84 202.01 309.89 202.10 310.41 202.15 C 312.42 203.60 314.98 202.82 317.27 202.99 C 316.88 203.50 316.12 204.51 315.73 205.01 C 317.48 205.00 319.23 205.00 320.99 204.99 C 320.99 205.48 321.00 206.45 321.01 206.94 C 321.61 206.99 322.80 207.10 323.40 207.15 C 324.81 208.24 326.60 207.93 328.26 208.03 C 327.88 208.53 327.11 209.52 326.73 210.02 C 327.46 210.01 328.92 210.00 329.65 210.00 C 330.00 211.81 331.17 213.00 333.00 213.35 C 333.00 213.76 333.01 214.58 333.01 214.99 C 333.51 215.00 334.50 215.01 335.00 215.01 C 335.00 216.67 335.00 218.33 335.00 219.99 C 334.50 219.99 333.50 220.00 333.00 220.01 C 333.00 220.51 333.00 221.50 333.00 221.99 C 332.54 221.99 331.63 222.00 331.18 222.00 C 330.63 223.64 330.07 225.29 329.75 227.00 C 329.31 227.00 328.44 227.01 328.00 227.01 C 328.00 227.67 328.00 228.98 328.00 229.63 C 327.55 230.04 326.65 230.87 326.20 231.28 C 326.01 232.43 325.67 233.54 325.16 234.60 C 325.11 235.20 324.99 236.40 324.93 237.00 C 324.45 237.00 323.49 237.00 323.01 237.01 C 323.00 237.50 322.99 238.50 322.99 239.00 C 322.50 239.00 321.51 239.00 321.01 239.00 C 321.01 238.50 320.99 237.50 320.99 237.00 C 320.33 237.00 319.00 237.00 318.34 237.01 C 317.92 236.52 317.09 235.53 316.68 235.04 C 316.16 234.99 315.12 234.89 314.60 234.84 C 313.46 234.28 312.26 233.92 311.00 233.76 C 311.00 233.32 310.99 232.44 310.99 232.00 C 309.66 232.00 308.33 232.00 307.01 232.00 C 307.01 231.52 307.00 230.55 306.99 230.06 C 306.39 230.01 305.20 229.90 304.60 229.85 C 303.25 228.85 301.56 229.01 300.00 228.88 C 300.00 228.41 300.00 227.47 299.99 227.00 C 299.50 227.00 298.51 227.00 298.01 227.00 C 298.01 226.56 298.00 225.69 298.00 225.26 C 296.70 224.78 295.43 224.26 294.14 223.80 C 293.49 222.09 292.97 220.35 292.72 218.55 C 291.79 217.25 291.68 215.57 292.90 214.40 C 293.16 212.06 292.43 209.47 293.85 207.40 C 293.90 206.80 294.01 205.61 294.06 205.01 C 294.54 205.00 295.51 204.99 295.99 204.99 C 296.00 203.83 296.01 202.67 296.04 201.52 C 297.01 200.48 297.96 199.38 298.41 198.00 Z" />
<path fill="#05a6f7" opacity="1.00" d=" M 620.00 227.00 C 621.21 227.00 622.43 226.99 623.66 227.00 C 624.08 227.49 624.91 228.47 625.32 228.96 C 625.84 229.01 626.88 229.10 627.40 229.15 C 629.65 230.65 632.46 229.81 634.99 230.00 C 635.00 230.50 635.01 231.50 635.01 232.00 C 636.33 232.00 637.66 232.00 639.00 232.00 C 639.00 237.09 638.99 242.18 639.01 247.27 C 638.51 246.88 637.50 246.12 636.99 245.73 C 636.99 248.48 637.00 251.23 637.00 253.99 C 636.50 253.99 635.51 254.00 635.01 254.01 C 634.99 255.16 634.98 256.32 634.96 257.49 C 633.97 258.51 633.04 259.62 632.59 261.00 C 630.63 261.00 628.68 261.00 626.73 261.01 C 627.12 260.50 627.88 259.49 628.27 258.99 C 626.28 258.99 624.31 259.00 622.34 259.01 C 621.92 258.51 621.08 257.50 620.67 257.00 C 618.77 256.99 616.88 257.00 615.00 257.00 C 614.99 255.00 614.99 253.01 615.00 251.01 C 615.50 251.01 616.49 251.00 616.99 250.99 C 616.98 248.86 616.99 246.73 617.10 244.61 C 618.79 242.20 617.73 239.07 617.99 236.34 C 618.50 235.92 619.50 235.08 620.00 234.67 C 620.00 232.11 619.99 229.55 620.00 227.00 Z" />
<path fill="#05a6f7" opacity="1.00" d=" M 11.10 368.63 C 11.72 368.95 12.98 369.59 13.61 369.91 C 14.20 369.94 15.39 370.01 15.99 370.04 C 16.00 370.53 16.01 371.50 16.01 371.99 C 16.51 372.00 17.50 372.01 18.00 372.01 C 18.00 372.41 18.00 373.21 18.00 373.61 C 18.66 373.94 19.97 374.60 20.63 374.93 C 21.31 374.94 22.68 374.97 23.36 374.98 C 22.93 375.50 22.05 376.54 21.61 377.06 C 22.45 377.04 24.13 377.00 24.97 376.98 C 24.98 377.34 25.00 378.08 25.01 378.45 C 27.05 379.74 28.94 381.26 30.99 382.55 C 31.00 382.91 31.03 383.64 31.04 384.00 C 31.68 384.00 32.95 384.00 33.59 384.00 C 34.53 384.99 35.47 386.00 36.41 387.01 C 37.05 387.00 38.33 387.00 38.96 387.00 C 38.97 387.36 39.00 388.08 39.01 388.44 C 40.25 389.22 41.46 390.05 42.64 390.92 C 43.23 390.95 44.41 391.01 45.00 391.04 C 45.00 392.50 45.00 393.96 45.00 395.43 C 43.61 396.30 42.27 397.24 40.94 398.21 C 40.95 398.96 40.98 400.45 40.99 401.20 L 38.46 400.62 C 39.04 401.38 39.61 402.14 40.19 402.91 C 39.49 402.83 38.10 402.67 37.40 402.59 C 37.60 403.26 38.00 404.60 38.20 405.27 C 35.61 406.71 33.53 408.83 31.54 411.00 C 30.49 410.99 29.44 411.00 28.39 411.01 C 27.97 410.54 27.11 409.60 26.69 409.13 C 25.29 408.98 23.90 408.76 22.51 408.56 C 21.47 407.73 20.46 406.87 19.45 406.02 C 18.85 406.01 17.64 405.99 17.04 405.99 C 17.02 405.64 16.99 404.95 16.97 404.61 C 15.33 403.58 13.84 402.34 12.41 401.04 C 11.81 401.03 10.62 401.00 10.02 400.99 C 10.01 400.50 9.99 399.51 9.98 399.02 C 9.64 399.01 8.98 398.99 8.64 398.98 C 7.80 397.43 6.56 396.20 5.02 395.36 C 5.01 395.02 4.99 394.35 4.98 394.02 C 4.49 394.01 3.51 393.99 3.01 393.98 C 3.01 393.62 3.00 392.90 3.00 392.54 C 1.98 391.94 0.98 391.32 0.00 390.67 L 0.00 386.54 C 1.11 384.83 2.25 383.15 3.39 381.46 C 3.62 380.84 4.08 379.58 4.31 378.96 C 4.66 378.98 5.36 379.02 5.71 379.04 C 6.24 377.68 6.75 376.33 7.28 374.99 C 7.57 374.99 8.14 375.00 8.43 375.00 C 9.22 373.76 10.05 372.54 10.92 371.36 C 10.96 370.68 11.05 369.31 11.10 368.63 Z" />
<path fill="#05a6f7" opacity="1.00" d=" M 168.52 380.02 C 170.85 380.03 173.31 379.66 175.53 380.60 C 176.55 380.99 177.57 381.40 178.57 381.85 C 179.17 381.90 180.38 382.01 180.98 382.06 C 180.99 382.44 181.00 383.21 181.01 383.59 C 182.84 384.20 184.20 385.57 185.44 386.98 C 186.08 386.99 187.35 387.00 187.99 387.01 C 187.99 387.50 188.00 388.49 188.01 388.99 C 188.42 388.99 189.24 389.00 189.65 389.00 C 190.00 390.82 191.18 392.00 193.00 392.35 C 193.00 393.89 193.00 395.44 193.00 396.99 C 192.54 396.99 191.63 397.00 191.18 397.00 C 190.63 398.64 190.07 400.29 189.75 402.00 C 189.31 402.00 188.44 402.01 188.00 402.01 C 188.00 403.21 188.00 404.42 188.00 405.63 C 187.36 405.95 186.08 406.59 185.44 406.92 C 182.77 406.81 179.79 407.71 177.40 406.15 C 176.81 406.10 175.62 405.99 175.02 405.94 C 175.01 405.56 174.99 404.80 174.98 404.42 C 173.37 403.65 171.93 402.59 170.44 401.63 C 169.83 401.40 168.61 400.95 168.00 400.73 C 168.00 400.30 167.99 399.43 167.99 399.00 C 167.49 399.00 166.50 399.00 166.01 399.00 C 166.00 398.56 166.00 397.69 166.00 397.25 C 164.81 396.99 163.64 396.70 162.48 396.37 C 160.01 396.18 158.63 394.51 158.78 392.04 C 159.34 392.03 160.45 392.00 161.00 391.98 C 161.00 391.24 161.00 389.75 161.00 389.01 C 161.50 389.01 162.50 388.99 163.01 388.99 C 163.00 388.32 162.99 387.00 162.99 386.33 C 163.49 385.92 164.50 385.09 165.00 384.67 C 165.00 384.11 165.00 382.98 165.00 382.41 C 166.38 381.95 167.49 381.01 168.52 380.02 Z" />
<path fill="#05a6f7" opacity="1.00" d=" M 906.66 389.00 C 907.19 387.87 907.33 385.89 909.05 386.05 C 914.03 385.88 919.01 386.06 924.00 386.00 C 923.99 388.66 923.99 391.32 924.00 393.99 C 923.50 393.99 922.50 394.01 922.00 394.01 C 922.00 400.33 922.00 406.65 922.00 412.97 C 922.58 413.00 923.76 413.05 924.34 413.08 C 924.09 413.67 923.57 414.84 923.31 415.43 C 922.02 416.83 921.27 413.91 919.91 414.06 C 914.61 413.86 909.30 414.07 904.00 414.00 C 904.07 407.02 903.87 400.03 904.07 393.06 C 904.26 392.64 904.65 391.82 904.85 391.41 C 904.90 390.81 905.01 389.61 905.06 389.01 C 905.46 389.01 906.26 389.00 906.66 389.00 Z" />
<path fill="#05a6f7" opacity="1.00" d=" M 836.01 451.00 C 837.66 450.99 839.32 450.99 840.99 451.00 C 840.99 451.50 841.00 452.49 841.01 452.99 C 841.44 453.00 842.31 453.00 842.75 453.00 C 843.07 454.70 843.62 456.35 844.18 458.00 C 844.63 458.00 845.54 458.01 846.00 458.01 C 845.99 459.33 845.99 460.66 846.00 461.99 C 846.50 461.99 847.50 462.01 848.00 462.01 C 847.99 463.33 847.99 464.66 848.00 465.99 C 848.50 465.99 849.50 466.01 850.00 466.01 C 849.99 470.00 850.00 473.99 850.00 477.99 C 849.50 477.99 848.50 478.00 848.00 478.01 C 848.00 478.51 847.99 479.50 847.99 480.00 C 847.25 480.00 845.76 480.00 845.01 480.00 C 845.01 480.48 845.00 481.46 845.00 481.94 C 843.10 482.07 841.02 481.60 839.40 482.86 C 838.42 482.93 837.45 483.00 836.50 483.08 C 835.46 484.01 834.38 484.91 833.07 485.42 C 833.00 483.61 832.99 481.81 832.99 480.01 C 832.49 480.00 831.50 479.99 831.00 479.99 C 831.00 479.24 831.00 477.76 831.00 477.01 C 830.53 477.01 829.59 477.00 829.12 477.00 C 828.97 475.43 829.14 473.74 828.15 472.40 C 828.10 471.80 827.99 470.61 827.94 470.01 C 827.45 470.00 826.48 469.99 826.00 469.99 C 826.00 469.32 826.01 468.00 826.01 467.33 C 825.51 466.92 824.50 466.08 824.00 465.67 C 823.99 463.11 823.99 460.56 824.00 458.01 C 824.50 458.01 825.50 458.00 826.00 457.99 C 826.00 457.54 826.00 456.63 826.00 456.17 C 827.55 455.67 829.11 455.14 830.72 454.80 C 831.13 454.35 831.96 453.45 832.37 453.00 C 833.56 452.99 834.77 452.99 835.99 453.00 C 835.99 452.50 836.01 451.50 836.01 451.00 Z" />
</g>
<g id="#6d7886ff">
<path fill="#6d7886" opacity="1.00" d=" M 613.36 141.00 C 615.78 141.00 618.21 141.00 620.64 141.00 C 621.06 141.49 621.92 142.48 622.35 142.97 C 622.88 143.01 623.93 143.09 624.46 143.13 C 625.09 143.43 626.36 144.04 626.99 144.35 C 627.06 146.76 626.58 149.34 627.73 151.58 C 627.86 152.04 628.13 152.96 628.26 153.43 C 629.68 155.85 629.49 159.44 626.50 160.53 C 624.05 161.16 621.51 161.03 619.02 161.01 C 619.01 161.51 618.99 162.50 618.98 163.00 C 617.43 163.00 615.89 163.00 614.36 163.00 C 613.93 163.50 613.07 164.50 612.64 165.00 C 609.18 165.00 605.72 164.97 602.27 165.05 C 601.24 163.80 600.25 162.50 599.55 161.04 C 599.16 161.02 598.39 160.98 598.00 160.96 C 597.99 158.76 598.00 156.56 598.00 154.36 C 597.50 153.93 596.50 153.07 596.00 152.64 C 595.99 150.88 595.99 149.12 596.00 147.36 C 596.64 147.04 597.91 146.41 598.55 146.10 C 599.69 146.05 600.83 146.00 601.99 145.96 C 601.99 145.49 602.00 144.55 602.01 144.07 C 603.89 143.95 605.96 144.30 607.62 143.13 C 608.95 143.06 610.30 143.01 611.65 142.98 C 612.08 142.48 612.93 141.49 613.36 141.00 Z" />
<path fill="#6d7886" opacity="1.00" d=" M 834.37 183.00 C 835.78 183.00 837.20 183.00 838.63 183.00 C 839.05 183.47 839.89 184.41 840.32 184.88 C 841.77 185.01 843.29 185.03 844.61 185.81 C 845.20 185.88 846.39 186.01 846.98 186.07 C 846.99 186.55 847.01 187.50 847.02 187.97 C 847.41 187.99 848.18 188.02 848.57 188.03 C 849.78 190.36 851.23 192.57 852.96 194.56 C 852.98 196.36 852.99 198.17 853.01 199.98 C 853.50 199.99 854.50 200.01 854.99 200.02 C 854.98 202.47 854.97 204.93 855.12 207.38 C 856.62 209.63 855.83 212.45 856.01 214.98 C 856.51 214.99 857.50 215.01 858.00 215.02 C 857.99 217.34 857.99 219.66 858.00 221.98 C 858.48 221.99 859.44 222.00 859.92 222.01 C 860.03 223.89 859.71 225.93 860.82 227.60 C 860.88 228.20 861.01 229.39 861.07 229.98 C 861.54 229.99 862.50 230.01 862.97 230.02 C 862.99 230.40 863.01 231.16 863.03 231.55 C 864.28 232.17 865.43 232.98 866.55 233.86 C 867.02 233.95 867.95 234.14 868.41 234.24 C 870.18 235.29 872.28 234.93 874.25 235.01 C 873.87 235.51 873.12 236.51 872.74 237.02 C 874.47 237.00 876.22 237.00 877.98 236.99 C 877.99 237.46 878.00 238.39 878.00 238.85 C 879.56 239.00 881.23 238.94 882.62 239.85 C 883.73 239.92 884.85 239.99 885.98 240.06 C 885.99 240.54 886.01 241.52 886.02 242.00 C 887.22 242.00 888.42 242.00 889.64 242.00 C 890.07 242.50 890.93 243.49 891.36 243.99 C 891.88 244.01 892.94 244.03 893.47 244.05 C 894.44 244.87 895.45 245.69 896.48 246.47 C 897.51 246.72 898.56 246.96 899.62 247.20 C 900.86 249.44 902.27 251.61 903.96 253.56 C 904.03 258.03 903.99 262.50 904.00 266.98 C 903.57 266.98 902.71 267.00 902.28 267.01 C 901.79 268.21 901.29 269.39 900.80 270.59 C 898.79 271.75 897.09 273.37 895.04 274.46 C 895.02 274.85 894.98 275.62 894.96 276.00 C 894.22 276.00 892.76 276.00 892.03 276.00 C 892.02 276.43 892.00 277.29 891.99 277.72 C 890.76 277.99 889.56 278.35 888.39 278.80 C 887.80 278.87 886.61 279.01 886.02 279.07 C 886.01 279.56 885.99 280.52 885.98 281.00 C 885.24 281.00 883.77 281.00 883.03 281.00 C 883.02 281.43 883.00 282.30 882.99 282.73 C 881.29 283.11 879.64 283.63 878.00 284.15 C 878.00 284.62 877.99 285.54 877.98 286.00 C 877.24 286.00 875.76 286.00 875.02 286.00 C 875.01 286.49 874.99 287.46 874.98 287.95 C 874.37 287.99 873.15 288.08 872.54 288.12 C 871.91 288.43 870.65 289.03 870.01 289.34 C 870.00 289.75 869.99 290.56 869.98 290.97 C 869.60 290.99 868.83 291.01 868.45 291.03 C 867.82 292.30 866.99 293.45 866.12 294.56 C 866.01 295.50 865.90 296.45 865.82 297.40 C 864.71 299.07 865.01 301.11 864.97 303.00 C 865.03 309.33 864.98 315.65 865.00 321.98 C 864.50 321.99 863.50 322.01 863.00 322.02 C 862.99 325.67 862.99 329.32 863.00 332.98 C 862.50 332.99 861.50 333.01 861.00 333.02 C 860.99 334.22 860.99 335.42 861.00 336.63 C 859.20 337.02 858.02 338.20 857.63 340.00 C 856.91 340.00 855.47 339.99 854.75 339.99 C 855.12 340.49 855.87 341.48 856.25 341.97 C 855.02 342.01 853.82 342.07 852.62 342.14 C 849.20 343.55 844.80 343.55 841.38 342.15 C 840.25 342.07 839.12 342.00 838.01 341.94 C 838.00 341.46 837.99 340.49 837.99 340.01 C 837.49 340.00 836.51 340.00 836.01 339.99 C 836.01 339.56 836.00 338.68 836.00 338.24 C 834.65 337.75 833.33 337.24 832.00 336.76 C 832.00 336.32 831.99 335.45 831.99 335.01 C 831.50 335.01 830.51 334.99 830.01 334.99 C 830.01 334.55 830.00 333.68 830.00 333.24 C 828.65 332.76 827.33 332.24 826.00 331.76 C 826.00 331.33 825.99 330.45 825.99 330.02 C 825.58 330.01 824.77 330.00 824.37 329.99 C 823.96 328.20 822.79 327.02 821.02 326.63 C 821.01 326.22 820.98 325.41 820.97 325.00 C 820.23 325.00 818.76 325.00 818.02 325.00 C 818.01 324.50 817.99 323.51 817.99 323.02 C 817.58 323.01 816.76 323.00 816.35 322.99 C 816.05 320.64 814.18 319.79 812.00 319.76 C 812.00 319.32 811.98 318.44 811.98 318.00 C 806.99 318.00 802.00 318.00 797.02 318.00 C 797.01 318.49 797.00 319.47 796.99 319.97 C 794.77 320.10 792.32 319.51 790.38 320.88 C 788.69 320.96 787.02 320.99 785.35 321.02 C 784.92 321.51 784.07 322.51 783.64 323.00 C 781.76 323.00 779.88 323.00 778.02 323.00 C 778.01 323.50 777.99 324.50 777.98 325.00 C 773.32 325.00 768.67 325.00 764.02 325.00 C 764.01 324.50 763.99 323.51 763.98 323.01 C 763.35 323.00 762.10 322.99 761.47 322.98 C 760.20 321.57 758.79 320.26 757.01 319.55 C 757.01 319.00 757.00 317.91 757.00 317.36 C 756.50 316.93 755.50 316.07 755.00 315.64 C 755.00 314.98 755.00 313.68 755.00 313.02 C 754.50 313.01 753.50 312.99 753.00 312.98 C 752.99 310.32 752.99 307.67 753.00 305.02 C 753.50 305.01 754.50 304.99 755.00 304.98 C 754.99 303.32 754.99 301.67 755.00 300.02 C 755.46 300.01 756.39 300.00 756.85 300.00 C 756.99 298.42 756.93 296.76 757.86 295.38 C 757.92 294.17 757.97 292.96 758.03 291.76 C 758.53 292.13 759.52 292.88 760.01 293.26 C 760.00 291.51 759.99 289.76 759.99 288.02 C 760.49 288.01 761.49 287.99 761.99 287.98 C 761.99 286.83 762.01 285.67 762.03 284.53 C 762.87 283.53 763.72 282.53 764.55 281.51 C 764.94 279.70 765.02 277.84 765.10 276.00 C 765.57 276.00 766.52 275.99 767.00 275.98 C 766.99 272.77 766.99 269.56 767.00 266.36 C 766.50 265.93 765.51 265.07 765.01 264.65 C 764.99 264.12 764.96 263.07 764.94 262.54 C 764.12 261.55 763.33 260.56 762.58 259.53 C 762.38 258.90 761.97 257.63 761.77 257.00 C 761.38 257.00 760.62 257.00 760.23 257.00 C 759.99 255.85 759.72 254.71 759.43 253.57 C 758.42 252.09 757.39 250.62 756.56 249.04 C 756.17 249.02 755.39 248.98 755.00 248.96 C 755.00 248.22 755.00 246.74 755.00 246.00 C 754.44 246.01 753.31 246.02 752.75 246.02 C 753.13 245.51 753.88 244.49 754.25 243.98 C 753.69 243.98 752.56 243.99 752.00 244.00 C 752.00 243.35 752.00 242.05 752.00 241.40 C 750.65 240.14 749.33 238.86 748.00 237.59 C 748.00 232.64 748.00 227.69 747.99 222.75 C 748.49 223.12 749.50 223.87 750.01 224.25 C 749.99 222.99 750.00 221.73 750.01 220.47 C 752.13 219.38 753.83 217.64 755.96 216.54 C 755.98 216.15 756.02 215.38 756.04 215.00 C 757.35 215.00 758.66 215.00 759.98 215.00 C 759.99 214.50 760.01 213.50 760.02 213.00 C 763.76 213.00 767.50 213.00 771.25 212.99 C 770.88 213.49 770.12 214.51 769.75 215.01 C 776.04 214.99 782.34 215.01 788.64 215.00 C 789.07 215.50 789.93 216.50 790.36 217.00 C 792.78 217.00 795.21 217.00 797.64 217.00 C 798.07 216.50 798.93 215.50 799.36 214.99 C 800.65 215.00 801.95 215.00 803.27 215.02 C 802.90 214.55 802.16 213.61 801.79 213.15 C 804.03 213.26 806.04 212.47 806.35 210.03 C 806.65 210.01 807.25 209.98 807.55 209.96 C 808.43 207.76 810.29 206.26 811.87 204.59 C 811.64 204.24 811.18 203.53 810.95 203.18 C 812.85 203.02 813.98 201.83 814.36 200.01 C 814.76 200.00 815.57 199.99 815.98 199.98 C 815.99 199.58 816.01 198.79 816.01 198.39 C 817.99 197.96 819.06 196.37 819.70 194.56 C 820.19 193.07 821.31 192.11 822.81 191.65 C 823.29 190.44 823.79 189.23 824.27 188.00 C 824.70 188.00 825.56 187.99 825.98 187.99 C 825.99 187.51 826.01 186.55 826.01 186.07 C 826.61 186.01 827.80 185.88 828.39 185.81 C 829.69 185.04 831.21 185.00 832.68 184.88 C 833.11 184.41 833.95 183.47 834.37 183.00 Z" />
<path fill="#6d7886" opacity="1.00" d=" M 270.39 266.89 C 271.47 265.85 272.54 265.85 273.61 266.90 C 275.40 266.97 277.19 267.00 278.99 267.02 C 278.99 267.51 279.01 268.49 279.01 268.97 C 279.40 268.99 280.17 269.01 280.56 269.03 C 281.27 270.81 282.57 272.21 283.98 273.47 C 284.12 276.17 283.48 279.06 284.73 281.58 C 284.87 282.04 285.14 282.96 285.27 283.42 C 286.91 288.93 285.57 294.91 286.00 300.61 C 286.45 301.03 287.36 301.88 287.81 302.31 C 287.68 304.98 289.40 306.30 291.98 306.23 C 292.00 306.57 292.03 307.23 292.04 307.56 C 293.62 308.40 295.09 309.43 296.57 310.43 C 297.70 310.72 298.85 310.99 300.00 311.23 C 300.00 311.67 300.02 312.56 300.02 313.00 C 300.76 313.00 302.24 313.00 302.98 313.00 C 302.99 313.48 303.01 314.44 303.02 314.93 C 303.61 314.99 304.80 315.13 305.39 315.20 C 306.61 315.71 307.88 316.04 309.21 316.18 C 308.84 316.63 308.10 317.55 307.73 318.01 C 308.55 318.00 310.18 318.00 311.00 318.00 C 311.00 318.74 311.00 320.23 311.00 320.98 C 311.50 320.99 312.50 321.01 313.00 321.02 C 312.99 325.15 313.04 329.28 312.95 333.41 C 312.05 334.49 311.21 335.62 310.59 336.88 C 309.18 337.38 307.76 337.87 306.31 338.22 C 305.88 338.66 305.03 339.55 304.60 340.00 C 303.40 340.00 302.21 340.00 301.02 340.00 C 301.01 340.46 301.00 341.39 301.00 341.85 C 299.42 342.00 297.77 341.94 296.38 342.85 C 295.37 342.91 294.36 342.97 293.35 343.03 C 292.92 343.53 292.06 344.51 291.64 345.00 C 290.43 345.00 289.22 345.00 288.02 345.00 C 288.01 345.47 288.00 346.40 288.00 346.87 C 285.21 346.41 283.02 347.72 282.15 350.37 C 280.89 352.61 280.90 355.15 280.97 357.65 C 280.48 358.08 279.51 358.93 279.02 359.36 C 278.99 361.03 278.96 362.70 278.88 364.38 C 277.37 366.63 278.16 369.45 277.99 371.98 C 277.49 371.99 276.50 372.01 276.00 372.02 C 276.00 373.67 276.00 375.32 276.00 376.98 C 275.51 376.99 274.52 377.01 274.03 377.02 C 274.01 377.40 273.98 378.17 273.97 378.56 C 272.37 379.39 270.90 380.43 269.43 381.47 C 265.90 382.32 262.10 382.33 258.57 381.47 C 257.10 380.42 255.62 379.38 254.02 378.55 C 254.01 377.92 254.00 376.65 253.99 376.02 C 253.55 376.01 252.68 376.00 252.24 375.99 C 251.76 374.66 251.24 373.34 250.76 372.01 C 250.41 372.01 249.72 371.99 249.37 371.98 C 248.96 370.30 247.90 369.11 246.22 368.67 C 246.01 368.13 245.60 367.06 245.39 366.53 C 244.77 365.11 243.66 364.13 242.19 363.65 C 241.70 362.45 241.20 361.26 240.74 360.06 C 240.21 360.00 239.14 359.87 238.60 359.80 C 234.21 358.09 229.24 359.30 224.62 359.12 C 222.05 360.74 218.86 359.75 216.01 360.01 C 213.15 359.79 210.02 360.65 207.39 359.18 C 206.80 359.12 205.61 358.99 205.01 358.93 C 205.01 358.45 204.99 357.49 204.99 357.01 C 204.55 357.01 203.68 357.00 203.24 357.00 C 202.76 355.66 202.24 354.34 201.76 353.01 C 201.32 353.00 200.44 352.98 200.00 352.98 C 199.99 349.84 199.98 346.70 200.04 343.57 C 201.11 342.35 202.03 341.01 202.78 339.57 C 203.63 338.04 204.58 336.57 205.41 335.03 C 205.81 335.01 206.60 334.98 207.00 334.96 C 207.00 334.32 207.00 333.03 207.00 332.39 C 208.00 331.46 208.99 330.53 210.00 329.61 C 210.00 328.97 210.00 327.67 210.00 327.03 C 210.42 327.02 211.27 327.00 211.70 326.99 C 212.36 325.00 214.11 323.09 213.23 320.89 C 212.56 318.09 213.71 314.98 212.18 312.39 C 212.12 311.80 211.99 310.61 211.93 310.02 C 211.45 310.01 210.48 309.99 210.00 309.98 C 210.00 308.32 210.00 306.67 210.00 305.02 C 209.54 305.01 208.61 305.00 208.15 305.00 C 207.99 303.43 208.04 301.79 207.19 300.40 C 207.13 299.88 207.01 298.86 206.95 298.35 C 206.46 297.92 205.49 297.06 205.00 296.64 C 205.00 293.10 205.00 289.57 205.00 286.04 C 205.39 286.02 206.17 285.99 206.56 285.97 C 207.53 283.49 209.49 281.53 211.97 280.56 C 211.99 280.17 212.02 279.39 212.04 279.00 C 215.68 279.00 219.33 279.00 222.98 279.00 C 222.99 279.50 223.01 280.50 223.02 281.00 C 224.89 281.00 226.76 281.00 228.64 281.00 C 229.07 281.49 229.92 282.48 230.35 282.98 C 231.69 283.01 233.03 283.05 234.38 283.13 C 238.44 285.00 243.18 283.58 247.53 283.98 C 248.79 282.58 250.19 281.27 251.97 280.56 C 251.98 280.23 252.01 279.57 252.02 279.24 C 253.35 278.75 254.66 278.23 256.00 277.76 C 256.00 277.32 256.01 276.45 256.01 276.01 C 256.50 276.00 257.48 276.00 257.97 275.99 C 257.99 275.61 258.02 274.85 258.04 274.47 C 260.15 273.36 261.85 271.63 263.96 270.53 C 263.98 270.15 264.01 269.39 264.03 269.01 C 264.52 269.00 265.50 269.00 265.98 269.00 C 265.99 268.51 266.00 267.53 266.01 267.04 C 267.47 266.99 268.93 266.96 270.39 266.89 M 214.10 318.25 C 212.57 321.31 217.35 318.46 214.10 318.25 Z" />
<path fill="#6d7886" opacity="1.00" d=" M 157.75 526.99 C 162.16 527.00 166.57 527.00 170.98 527.00 C 170.99 527.50 171.01 528.50 171.02 529.00 C 171.76 529.00 173.24 529.00 173.98 529.00 C 173.99 529.44 174.00 530.32 174.01 530.76 C 175.34 531.23 176.66 531.75 178.00 532.24 C 178.00 532.68 178.01 533.55 178.01 533.99 C 178.50 533.99 179.46 534.01 179.95 534.01 C 180.00 535.13 180.07 536.25 180.15 537.38 C 181.48 539.34 180.89 541.77 181.03 543.99 C 181.53 544.00 182.51 544.01 183.00 544.02 C 183.00 547.10 183.00 550.17 182.99 553.25 C 183.49 552.88 184.50 552.13 185.00 551.75 C 184.99 553.96 185.00 556.17 185.11 558.38 C 186.60 560.51 185.85 563.22 186.00 565.64 C 186.50 566.07 187.50 566.93 188.00 567.36 C 188.00 568.56 188.00 569.76 188.00 570.97 C 188.44 570.98 189.31 571.00 189.75 571.00 C 189.96 571.62 190.38 572.85 190.60 573.47 C 191.32 576.11 193.94 576.20 196.24 576.05 C 195.86 576.54 195.12 577.52 194.74 578.01 C 196.48 578.00 198.23 577.99 199.98 577.99 C 199.99 578.48 200.01 579.46 200.02 579.94 C 201.13 580.00 202.26 580.07 203.38 580.16 C 204.77 581.03 206.42 581.00 208.00 581.15 C 208.00 581.61 208.01 582.54 208.02 583.00 C 209.22 582.99 210.43 582.99 211.64 583.00 C 212.06 583.49 212.92 584.47 213.35 584.96 C 214.36 585.01 215.37 585.08 216.38 585.16 C 217.77 586.04 219.42 585.99 221.00 586.15 C 221.00 586.60 221.01 587.52 221.02 587.97 C 221.62 588.00 222.83 588.05 223.43 588.07 C 225.22 589.58 227.73 590.50 228.41 592.97 C 228.81 592.99 229.60 593.02 230.00 593.04 C 230.00 593.69 230.00 594.99 230.00 595.64 C 230.50 596.07 231.50 596.93 232.00 597.36 C 232.00 601.56 232.00 605.77 232.00 609.98 C 231.50 609.99 230.51 610.01 230.01 610.02 C 230.00 610.65 229.98 611.90 229.98 612.53 C 228.62 613.76 227.36 615.12 226.60 616.81 C 225.55 617.03 224.51 617.27 223.48 617.53 C 222.45 618.30 221.45 619.11 220.47 619.95 C 219.86 619.97 218.63 620.00 218.02 620.02 C 218.01 620.50 217.99 621.47 217.98 621.95 C 217.37 621.99 216.15 622.08 215.54 622.12 C 214.91 622.43 213.65 623.04 213.02 623.34 C 213.00 623.76 212.98 624.59 212.97 625.00 C 212.23 625.00 210.76 625.00 210.02 625.00 C 210.01 625.50 209.99 626.50 209.98 627.00 C 209.24 627.00 207.76 627.00 207.02 627.00 C 207.02 627.44 207.00 628.33 207.00 628.77 C 205.85 629.00 204.71 629.27 203.57 629.57 C 202.09 630.56 200.62 631.58 199.05 632.44 C 199.03 632.73 198.98 633.31 198.95 633.60 C 197.43 634.09 196.24 635.07 195.51 636.49 C 195.25 637.65 195.01 638.82 194.79 640.00 C 194.34 640.00 193.45 640.02 193.00 640.02 C 193.00 645.01 192.98 650.00 193.03 654.99 C 192.97 656.87 193.27 658.90 192.22 660.59 C 192.07 661.52 191.93 662.46 191.79 663.41 C 189.68 667.50 192.34 672.52 190.18 676.60 C 190.12 677.20 189.99 678.39 189.93 678.99 C 189.45 678.99 188.49 679.01 188.01 679.01 C 188.00 679.51 188.00 680.49 187.99 680.98 C 187.58 680.99 186.76 681.00 186.35 681.01 C 186.05 683.35 184.18 684.19 182.00 684.24 C 182.00 684.68 181.98 685.56 181.98 686.00 C 177.32 686.00 172.67 686.00 168.02 686.00 C 168.01 685.51 167.99 684.54 167.98 684.05 C 167.37 684.01 166.15 683.92 165.54 683.88 C 164.91 683.57 163.65 682.96 163.01 682.66 C 163.00 682.25 162.98 681.43 162.97 681.03 C 162.59 681.01 161.83 680.98 161.45 680.97 C 160.60 679.00 159.09 677.48 157.62 675.98 C 156.97 675.99 155.67 676.00 155.02 676.01 C 155.01 675.51 154.99 674.51 154.99 674.02 C 154.58 674.01 153.77 674.00 153.37 673.99 C 152.97 672.20 151.80 671.02 150.01 670.63 C 150.00 670.22 149.99 669.41 149.98 669.01 C 149.49 669.00 148.51 669.00 148.02 668.99 C 148.01 668.56 148.00 667.68 148.00 667.24 C 146.66 666.75 145.35 666.23 144.02 665.76 C 144.01 665.43 143.98 664.77 143.96 664.44 C 142.37 663.59 140.90 662.56 139.43 661.53 C 135.53 660.85 131.08 660.23 127.38 661.87 C 125.59 661.96 123.80 662.00 122.02 662.03 C 122.01 662.52 121.99 663.51 121.98 664.00 C 119.66 663.99 117.34 663.99 115.02 664.00 C 115.01 664.49 114.99 665.49 114.98 665.98 C 112.86 665.98 110.74 666.00 108.62 666.12 C 107.07 667.26 105.13 666.95 103.34 667.06 C 102.91 667.54 102.06 668.51 101.64 669.00 C 99.88 668.99 98.13 668.99 96.38 669.00 C 95.95 668.53 95.10 667.59 94.68 667.12 C 93.21 666.99 91.70 666.94 90.38 666.18 C 89.73 666.12 88.42 666.01 87.77 665.95 C 88.14 665.46 88.89 664.47 89.26 663.98 C 88.70 663.99 87.58 664.00 87.02 664.00 C 87.01 663.59 87.00 662.76 86.99 662.35 C 84.10 662.07 83.74 659.40 83.86 657.00 C 83.40 657.00 82.47 656.99 82.01 656.98 C 82.22 653.53 81.34 649.87 82.67 646.58 C 83.31 645.25 83.90 643.90 84.42 642.53 C 84.71 641.35 84.98 640.18 85.23 639.00 C 85.68 639.00 86.56 638.98 87.00 638.98 C 87.00 637.77 87.00 636.57 87.00 635.38 C 87.47 634.95 88.41 634.11 88.88 633.68 C 89.01 632.21 89.04 630.70 89.81 629.39 C 89.87 628.80 90.01 627.61 90.07 627.02 C 90.55 627.01 91.52 626.99 92.00 626.98 C 92.00 625.76 92.00 624.56 92.00 623.36 C 92.49 622.93 93.48 622.08 93.97 621.65 C 94.02 620.63 94.08 619.62 94.15 618.62 C 95.81 615.54 94.74 611.88 94.96 608.55 C 94.14 607.55 93.34 606.56 92.58 605.53 C 92.38 604.90 91.97 603.63 91.77 603.00 C 91.34 603.00 90.48 602.99 90.05 602.98 C 90.01 602.37 89.92 601.15 89.88 600.54 C 89.57 599.91 88.96 598.65 88.66 598.02 C 88.24 598.00 87.41 597.98 87.00 597.97 C 87.00 597.23 87.00 595.77 87.00 595.03 C 86.58 595.02 85.75 595.00 85.34 594.98 C 85.04 594.35 84.43 593.09 84.12 592.46 C 84.08 591.85 83.99 590.64 83.95 590.03 C 83.57 590.02 82.80 589.98 82.42 589.97 C 81.59 588.41 80.63 586.95 79.74 585.44 C 79.23 584.48 78.70 583.53 78.17 582.60 C 77.63 581.19 77.12 579.77 76.78 578.31 C 76.33 577.88 75.44 577.03 75.00 576.60 C 75.00 574.85 75.00 573.11 75.00 571.38 C 75.47 570.95 76.40 570.11 76.87 569.68 C 77.03 568.27 77.20 566.88 77.46 565.49 C 78.95 563.48 80.53 561.28 83.12 560.66 C 82.77 560.26 82.08 559.44 81.73 559.04 C 82.94 558.98 84.16 558.92 85.38 558.86 C 87.04 557.68 89.12 558.03 91.03 557.97 C 96.81 558.09 102.60 557.85 108.38 558.12 C 110.65 559.61 113.48 558.83 116.03 559.01 C 120.49 558.75 125.06 559.58 129.44 558.47 C 130.92 557.39 132.41 556.30 134.12 555.62 C 133.80 555.29 133.15 554.63 132.83 554.30 C 134.71 554.03 135.97 552.90 136.36 551.04 C 136.66 551.02 137.25 550.98 137.55 550.96 C 138.48 548.86 140.15 547.28 141.67 545.63 C 142.92 543.18 145.36 541.60 146.45 539.06 C 146.73 539.03 147.29 538.97 147.57 538.94 C 148.41 537.39 149.40 535.93 150.34 534.45 C 150.56 533.89 151.01 532.77 151.23 532.21 C 151.81 532.01 152.95 531.61 153.52 531.41 C 154.55 530.65 155.56 529.85 156.55 529.05 C 157.23 529.04 158.57 529.01 159.25 529.00 C 158.87 528.50 158.12 527.49 157.75 526.99 Z" />
<path fill="#6d7886" opacity="1.00" d=" M 818.04 559.00 C 820.01 558.99 821.99 558.99 823.98 559.00 C 823.99 559.50 824.01 560.50 824.01 561.00 C 824.51 561.00 825.50 561.00 825.99 561.01 C 826.00 561.50 826.00 562.49 826.01 562.99 C 826.50 562.99 827.50 563.01 828.00 563.02 C 827.57 567.35 829.08 572.14 826.93 576.13 C 827.44 576.09 828.47 576.00 828.98 575.96 C 828.99 576.47 829.01 577.49 829.02 578.00 C 829.76 578.00 831.24 578.00 831.98 578.00 C 831.99 578.46 831.99 579.37 832.00 579.83 C 833.99 580.63 836.07 581.12 838.24 581.08 C 837.86 581.57 837.12 582.54 836.74 583.02 C 837.31 583.02 838.44 583.00 839.00 583.00 C 838.99 585.51 838.99 588.04 839.00 590.56 C 838.17 591.36 837.36 592.18 836.57 593.00 C 835.93 593.00 834.66 593.00 834.02 593.00 C 834.01 593.48 834.00 594.44 833.99 594.92 C 832.10 595.04 830.06 594.71 828.40 595.82 C 827.80 595.88 826.60 596.01 826.00 596.08 C 825.99 597.59 825.99 599.11 826.00 600.64 C 825.51 601.06 824.53 601.92 824.04 602.35 C 824.14 604.96 823.94 607.59 822.82 610.00 C 822.37 610.00 821.47 610.01 821.02 610.01 C 821.01 610.51 820.99 611.50 820.98 612.00 C 818.32 612.00 815.66 611.99 813.02 612.00 C 813.01 611.51 812.99 610.52 812.99 610.02 C 812.59 610.01 811.80 609.99 811.40 609.98 C 810.51 608.30 809.48 606.70 808.60 605.03 C 808.29 605.02 807.66 604.99 807.35 604.97 C 806.57 600.27 800.93 602.36 797.61 602.12 C 796.09 603.34 793.91 603.35 792.39 602.14 C 791.25 602.06 790.12 601.99 789.00 601.94 C 788.99 600.63 788.99 599.32 789.00 598.02 C 788.49 598.01 787.48 597.99 786.97 597.98 C 786.99 596.84 787.02 595.70 787.06 594.58 C 787.97 593.47 788.83 592.32 789.45 591.03 C 789.83 591.02 790.57 590.98 790.95 590.97 C 790.99 590.36 791.08 589.15 791.12 588.54 C 791.43 587.91 792.03 586.65 792.34 586.02 C 792.75 586.00 793.58 585.98 794.00 585.97 C 793.99 584.42 793.99 582.89 794.00 581.36 C 793.50 580.93 792.50 580.07 792.00 579.64 C 791.99 578.54 791.99 577.44 792.01 576.36 C 791.50 575.93 790.49 575.07 789.98 574.64 C 789.99 572.94 790.00 571.26 790.05 569.58 C 790.97 568.48 791.84 567.33 792.45 566.02 C 792.84 566.01 793.60 565.99 793.98 565.98 C 793.99 565.48 794.01 564.50 794.02 564.00 C 795.75 563.99 797.49 563.98 799.25 563.99 C 798.87 564.50 798.12 565.50 797.75 566.01 C 800.15 566.00 802.56 566.00 804.98 565.99 C 804.99 566.50 805.01 567.50 805.02 568.00 C 806.33 567.99 807.65 567.99 808.98 568.00 C 808.99 567.50 809.01 566.50 809.01 566.00 C 809.51 566.00 810.49 566.00 810.99 565.99 C 810.99 565.50 811.01 564.50 811.02 564.01 C 811.65 564.00 812.90 563.99 813.53 563.98 C 814.78 562.57 816.18 561.27 817.97 560.56 C 817.99 560.17 818.02 559.39 818.04 559.00 Z" />
</g>
<g id="#d2c7bde9">
<path fill="#d2c7bd" opacity="0.91" d=" M 682.82 330.24 L 683.44 331.07 C 684.03 379.09 683.38 427.15 683.77 475.18 C 684.21 499.12 683.82 523.07 683.93 547.01 C 684.07 551.95 683.35 556.99 684.64 561.84 C 672.01 573.49 658.37 583.99 645.45 595.32 C 626.75 610.95 608.12 626.65 589.55 642.44 C 586.32 644.90 583.70 648.04 580.46 650.48 C 575.35 653.50 571.39 658.01 566.62 661.49 C 561.47 666.43 555.54 670.44 550.40 675.39 C 542.02 681.75 534.62 689.36 525.82 695.17 C 525.07 695.00 523.57 694.66 522.82 694.49 C 528.95 691.77 533.88 687.15 538.97 682.92 C 583.98 644.98 629.02 607.10 674.04 569.16 C 677.13 566.36 681.51 564.18 682.93 560.07 C 683.44 549.09 682.90 538.07 683.09 527.07 C 682.99 494.73 683.54 462.39 683.41 430.05 C 683.43 402.69 683.42 375.33 683.41 347.97 C 683.40 342.06 683.75 336.10 682.82 330.24 Z" />
</g>
<g id="#ccccccff">
<path fill="#cccccc" opacity="1.00" d=" M 390.28 363.28 C 394.38 361.98 398.77 362.67 403.01 362.54 C 408.34 362.71 413.71 362.11 419.01 362.90 C 424.16 364.53 428.53 369.33 428.51 374.93 C 428.66 381.28 428.45 387.63 428.58 393.98 C 428.96 398.67 427.35 403.64 423.48 406.53 C 417.58 410.84 409.77 408.05 403.05 409.04 C 396.99 409.29 389.60 409.81 385.18 404.81 C 381.36 400.56 381.64 394.38 381.63 389.04 C 381.84 383.38 381.09 377.63 382.40 372.07 C 383.28 368.03 386.39 364.64 390.28 363.28 Z" />
<path fill="#cccccc" opacity="1.00" d=" M 392.33 434.54 C 398.20 434.06 404.10 434.51 409.99 434.35 C 413.17 434.38 416.40 434.12 419.55 434.72 C 424.85 436.20 428.74 441.55 428.55 447.05 C 428.55 454.03 428.54 461.00 428.55 467.98 C 428.81 474.63 422.84 481.19 416.02 480.72 C 408.65 480.70 401.28 480.77 393.92 480.69 C 388.89 480.75 384.28 477.01 382.76 472.32 C 381.21 467.73 381.70 462.82 381.65 458.06 C 381.74 453.15 381.18 448.13 382.54 443.34 C 383.76 438.88 387.75 435.23 392.33 434.54 Z" />
<path fill="#cccccc" opacity="1.00" d=" M 390.30 502.53 C 395.38 500.91 400.78 501.78 406.01 501.60 C 411.47 501.77 417.43 500.68 422.40 503.55 C 426.44 505.78 428.61 510.47 428.55 514.98 C 428.56 521.65 428.55 528.33 428.55 535.00 C 428.61 539.30 426.78 543.90 422.88 546.07 C 417.61 549.64 410.99 548.10 405.03 548.38 C 398.87 548.07 391.70 549.87 386.61 545.38 C 381.85 541.84 381.60 535.43 381.63 530.04 C 381.82 524.37 381.26 518.66 382.03 513.03 C 382.53 508.35 385.88 504.11 390.30 502.53 Z" />
</g>
<g id="#edededff">
<path fill="#ededed" opacity="1.00" d=" M 449.65 371.69 C 451.30 370.92 453.16 370.85 454.96 370.81 C 474.64 370.93 494.33 370.82 514.01 370.84 C 519.49 370.89 525.00 370.50 530.43 371.40 C 530.17 375.13 530.16 378.88 530.42 382.61 C 528.31 382.96 526.19 383.27 524.06 383.25 C 505.68 383.10 487.29 383.25 468.91 383.19 C 462.38 383.11 455.84 383.52 449.34 382.83 C 449.36 379.12 448.96 375.36 449.65 371.69 Z" />
<path fill="#ededed" opacity="1.00" d=" M 449.83 399.08 C 449.98 396.01 447.99 389.33 452.99 389.76 C 509.65 389.81 566.31 389.75 622.97 389.79 C 629.53 389.96 636.13 389.32 642.66 390.26 C 642.76 393.96 643.20 397.73 642.43 401.39 C 638.81 402.83 634.78 402.02 630.99 402.18 C 572.68 402.20 514.36 402.13 456.04 402.24 C 453.70 402.22 449.61 402.52 449.83 399.08 Z" />
<path fill="#ededed" opacity="1.00" d=" M 450.01 442.90 C 476.00 442.35 502.02 442.69 528.02 442.66 C 530.08 442.30 529.98 444.68 530.16 446.02 C 530.33 448.58 530.39 451.22 529.72 453.72 C 528.98 455.61 526.56 454.92 524.99 455.20 C 501.33 455.05 477.66 455.23 454.00 455.12 C 452.73 454.94 450.83 455.19 450.26 453.72 C 449.18 450.22 449.87 446.48 450.01 442.90 Z" />
<path fill="#ededed" opacity="1.00" d=" M 449.52 462.31 C 449.93 460.89 451.91 461.47 453.00 461.22 C 516.22 461.27 579.44 461.21 642.66 461.25 C 642.86 465.47 642.89 469.70 642.79 473.93 C 592.52 474.42 542.22 473.96 491.94 474.15 C 477.76 474.00 463.56 474.44 449.39 473.85 C 449.40 470.01 448.97 466.13 449.52 462.31 Z" />
<path fill="#ededed" opacity="1.00" d=" M 451.25 510.18 C 453.14 509.75 455.09 509.79 457.03 509.77 C 479.67 509.90 502.31 509.86 524.95 509.78 C 526.48 509.84 528.11 509.84 529.52 510.57 C 530.56 514.27 530.79 518.62 529.01 522.13 C 525.34 522.74 521.62 522.40 517.92 522.43 C 498.98 522.43 480.03 522.36 461.08 522.45 C 457.73 522.44 454.35 522.66 451.03 522.09 C 449.27 518.67 448.66 513.23 451.25 510.18 Z" />
<path fill="#ededed" opacity="1.00" d=" M 341.11 527.15 C 363.24 545.22 384.81 563.97 406.81 582.21 C 435.37 606.32 463.98 630.39 492.55 654.49 C 500.33 660.90 511.33 663.01 520.95 659.98 C 526.68 658.39 531.39 654.58 535.74 650.70 C 577.88 615.23 619.99 579.71 662.09 544.18 C 669.14 538.54 675.69 532.28 683.09 527.07 C 682.90 538.07 683.44 549.09 682.93 560.07 C 681.51 564.18 677.13 566.36 674.04 569.16 C 629.02 607.10 583.98 644.98 538.97 682.92 C 533.88 687.15 528.95 691.77 522.82 694.49 C 523.57 694.66 525.07 695.00 525.82 695.17 C 524.87 695.67 523.88 696.10 522.89 696.52 C 521.31 695.26 519.33 694.92 517.39 694.70 C 517.44 695.40 517.52 696.79 517.56 697.49 C 513.89 698.90 510.04 699.00 506.35 697.59 C 506.39 697.04 506.47 695.93 506.51 695.38 C 498.67 694.50 492.37 689.40 486.77 684.26 C 438.30 643.33 389.60 602.68 341.29 561.56 C 340.92 550.09 341.26 538.62 341.11 527.15 Z" />
<path fill="#ededed" opacity="1.00" d=" M 449.38 529.28 C 460.57 528.31 471.80 529.36 483.01 528.91 C 516.00 529.06 548.98 528.93 581.96 528.91 C 599.97 529.12 617.99 529.02 636.00 528.82 C 638.12 528.88 640.40 528.63 642.37 529.63 C 643.30 533.58 642.73 537.67 642.69 541.69 C 589.79 541.68 536.89 541.68 483.98 541.68 C 472.50 541.56 461.01 541.91 449.53 541.54 C 449.30 537.46 449.28 533.36 449.38 529.28 Z" />
</g>
<g id="#202b38ff">
<path fill="#202b38" opacity="1.00" d=" M 335.57 478.63 C 336.85 477.34 338.11 476.03 339.34 474.70 C 339.46 474.87 339.70 475.20 339.81 475.37 C 340.05 503.99 339.85 532.62 339.91 561.24 C 339.30 561.16 338.10 560.99 337.49 560.90 C 326.06 551.23 314.53 541.69 303.36 531.71 C 297.95 527.36 292.88 522.56 287.25 518.50 C 288.76 517.11 290.21 515.66 291.62 514.17 C 291.94 514.10 292.58 513.97 292.91 513.90 C 292.97 513.57 293.08 512.91 293.14 512.58 C 293.94 511.85 294.74 511.13 295.55 510.41 C 297.55 509.78 299.53 508.97 300.70 507.13 C 301.11 507.08 301.93 506.99 302.35 506.94 C 301.95 506.54 301.15 505.73 300.75 505.33 C 302.99 504.87 305.41 504.38 306.65 502.24 C 306.82 502.11 307.17 501.87 307.34 501.74 C 309.32 499.67 311.59 497.88 314.08 496.47 C 313.71 496.10 312.98 495.34 312.61 494.96 C 313.37 494.99 314.90 495.06 315.66 495.09 C 316.66 494.15 317.64 493.19 318.62 492.24 C 318.81 492.11 319.18 491.86 319.36 491.74 C 322.20 488.77 325.54 486.36 329.20 484.50 C 328.84 484.23 328.11 483.70 327.75 483.43 C 330.65 482.36 333.30 480.72 335.57 478.63 Z" />
<path fill="#202b38" opacity="1.00" d=" M 683.77 475.18 C 685.90 476.45 687.93 477.93 689.67 479.73 C 689.85 479.85 690.20 480.10 690.37 480.23 C 691.33 481.20 692.33 482.14 693.33 483.10 C 694.08 483.06 695.59 482.99 696.34 482.95 C 695.93 483.46 695.11 484.46 694.70 484.96 C 695.11 485.01 695.92 485.09 696.33 485.13 C 697.98 486.81 699.74 488.37 701.47 489.98 C 701.97 490.00 702.97 490.03 703.47 490.05 C 704.07 490.91 704.72 491.75 705.41 492.58 C 707.10 493.90 708.89 495.11 710.56 496.49 C 712.66 498.15 714.73 499.85 716.64 501.72 C 716.82 501.86 717.16 502.14 717.33 502.27 C 719.05 503.82 720.94 505.17 722.67 506.73 C 722.83 506.87 723.15 507.14 723.32 507.28 C 725.00 508.76 726.80 510.11 728.52 511.57 C 729.87 512.54 731.23 513.49 732.62 514.43 C 734.46 516.04 736.30 517.81 736.32 520.46 C 735.36 521.16 734.42 521.87 733.48 522.59 C 733.29 522.30 732.90 521.72 732.71 521.43 C 716.44 534.61 701.25 549.08 684.64 561.84 C 683.35 556.99 684.07 551.95 683.93 547.01 C 683.82 523.07 684.21 499.12 683.77 475.18 Z" />
</g>
<g id="#e3d4c9ff">
<path fill="#e3d4c9" opacity="1.00" d=" M 339.81 475.37 L 340.41 476.19 C 341.55 481.38 341.07 486.72 341.10 492.00 C 341.10 503.71 341.09 515.43 341.11 527.15 C 341.26 538.62 340.92 550.09 341.29 561.56 C 389.60 602.68 438.30 643.33 486.77 684.26 C 492.37 689.40 498.67 694.50 506.51 695.38 C 506.47 695.93 506.39 697.04 506.35 697.59 C 497.29 696.41 490.28 690.10 483.75 684.26 C 475.50 677.20 467.05 670.39 458.86 663.28 C 453.82 659.62 449.66 654.92 444.58 651.33 C 440.88 648.45 437.23 645.52 433.69 642.46 C 425.55 634.82 416.55 628.17 408.25 620.71 C 389.20 604.79 370.26 588.72 351.24 572.75 C 346.43 569.07 342.16 564.76 337.49 560.90 C 338.10 560.99 339.30 561.16 339.91 561.24 C 339.85 532.62 340.05 503.99 339.81 475.37 Z" />
</g>
<g id="#f6f6f6ff">
<path fill="#f6f6f6" opacity="1.00" d=" M 286.56 518.38 L 287.25 518.50 C 292.88 522.56 297.95 527.36 303.36 531.71 C 314.53 541.69 326.06 551.23 337.49 560.90 C 342.16 564.76 346.43 569.07 351.24 572.75 C 370.26 588.72 389.20 604.79 408.25 620.71 C 416.55 628.17 425.55 634.82 433.69 642.46 C 427.50 649.06 420.11 654.38 413.29 660.29 C 378.21 689.88 343.07 719.41 307.99 749.00 C 303.28 752.75 299.11 757.24 293.72 760.04 L 293.22 759.01 C 292.51 757.66 291.85 756.30 291.22 754.93 C 290.50 753.28 289.87 751.59 289.21 749.93 C 287.55 744.44 286.29 738.77 286.52 733.00 C 286.54 661.46 286.46 589.92 286.56 518.38 Z" />
<path fill="#f6f6f6" opacity="1.00" d=" M 684.64 561.84 C 701.25 549.08 716.44 534.61 732.71 521.43 C 732.65 580.28 732.70 639.14 732.68 697.99 C 732.52 712.99 733.07 728.00 732.28 742.99 C 731.82 744.35 731.34 745.71 730.91 747.10 C 730.56 748.36 730.25 749.65 729.89 750.93 C 729.14 752.60 728.50 754.32 727.74 756.00 L 727.35 756.95 C 723.35 755.53 720.29 752.54 717.20 749.78 C 674.57 714.10 632.23 678.06 589.55 642.44 C 608.12 626.65 626.75 610.95 645.45 595.32 C 658.37 583.99 672.01 573.49 684.64 561.84 Z" />
</g>
<g id="#dadadaff">
<path fill="#dadada" opacity="1.00" d=" M 433.69 642.46 C 437.23 645.52 440.88 648.45 444.58 651.33 C 441.35 653.07 438.50 655.38 435.79 657.82 C 394.34 692.68 352.96 727.63 311.52 762.51 C 308.39 764.98 305.32 767.53 302.68 770.54 C 305.46 772.99 308.54 775.10 311.20 777.69 C 311.50 778.04 312.09 778.73 312.39 779.08 C 304.54 774.68 298.14 767.83 293.72 760.04 C 299.11 757.24 303.28 752.75 307.99 749.00 C 343.07 719.41 378.21 689.88 413.29 660.29 C 420.11 654.38 427.50 649.06 433.69 642.46 Z" />
<path fill="#dadada" opacity="1.00" d=" M 580.46 650.48 C 583.70 648.04 586.32 644.90 589.55 642.44 C 632.23 678.06 674.57 714.10 717.20 749.78 C 720.29 752.54 723.35 755.53 727.35 756.95 C 727.24 757.21 727.02 757.74 726.91 758.00 C 726.68 758.50 726.21 759.50 725.98 760.01 C 723.75 763.55 721.17 766.84 718.59 770.13 C 717.32 765.85 713.43 763.46 710.20 760.79 C 674.03 730.28 637.81 699.84 601.64 669.32 C 594.80 662.78 586.66 657.70 580.46 650.48 Z" />
</g>
<g id="#e1d0c3ff">
<path fill="#e1d0c3" opacity="1.00" d=" M 517.39 694.70 C 519.33 694.92 521.31 695.26 522.89 696.52 C 521.11 696.83 519.33 697.16 517.56 697.49 C 517.52 696.79 517.44 695.40 517.39 694.70 Z" />
</g>
</svg>
