<?xml version="1.0" encoding="UTF-8" standalone="no"?>
<svg width="37px" height="48px" viewBox="0 0 37 48" version="1.1" xmlns="http://www.w3.org/2000/svg" xmlns:xlink="http://www.w3.org/1999/xlink" xmlns:sketch="http://www.bohemiancoding.com/sketch/ns">
    <!-- Generator: Sketch 3.4.3 (16044) - http://www.bohemiancoding.com/sketch -->
    <title>audio</title>
    <desc>Created with Sketch.</desc>
    <defs></defs>
    <g id="Page-1" stroke="none" stroke-width="1" fill-rule="evenodd" sketch:type="MSPage">
        <g id="Asset-Icons" sketch:type="MSArtboardGroup" transform="translate(-522.000000, -19.000000)">
            <g id="audio" sketch:type="MSLayerGroup" transform="translate(522.000000, 19.000000)">
                <g id="Page-1" transform="translate(0.338753, 0.000000)" sketch:type="MSShapeGroup">
                    <path d="M36.299458,10.8384 L36.299458,46.248 C36.299458,47.2128 35.5083469,48 34.5387534,48 L1.76070461,48 C0.791111111,48 0,47.2128 0,46.248 L0,1.872 C0,0.9072 0.791111111,0.12 1.76070461,0.12 L24.3604336,0.12 L36.299458,10.8384 Z" id="Fill-1" fill="#4AC1E6"></path>
                    <path d="M36.299458,10.8384 L36.299458,11.04 L25.8027642,11.04 C24.9392954,11.04 24.2398374,10.344 24.2398374,9.4848 L24.2398374,0.12 L24.3604336,0.12 L36.299458,10.8384 Z" id="Fill-3" opacity="0.6" fill="#FFFFFF"></path>
                </g>
                <path d="M14.6876538,21.9970959 L14.6876538,25.9948625 L14.6876538,32.1972445 C14.0006183,31.8994533 13.0481008,31.8994533 12.1245449,32.3701555 C10.7553008,33.0730068 10.3691451,34.349026 10.8952823,35.1607471 C11.4230285,35.9708672 12.8646768,36.3118862 14.2355298,35.610636 C15.221836,35.1047111 15.6980948,34.3009951 15.6916588,33.5885377 L15.6916588,25.794734 L23.7269169,24.1953072 L23.7269169,31.1966021 C23.0382725,30.8988109 22.0857549,30.8988109 21.163808,31.3711141 C19.794564,32.0723643 19.4067992,33.3499846 19.9345454,34.1601047 C20.4606827,34.9718258 21.9023309,35.3128448 23.2731839,34.6115946 C24.2578811,34.1072708 24.7357489,33.3035548 24.729313,32.5910974 L24.729313,23.9967797 L24.729313,20.9980545 L24.729313,19.9974121 L14.6876538,21.9970959 Z" id="Fill-4" fill="#FFFFFF" sketch:type="MSShapeGroup"></path>
            </g>
        </g>
    </g>
</svg>