<?xml version="1.0" encoding="UTF-8" standalone="no"?>
<svg width="25px" height="27px" viewBox="0 0 25 27" version="1.1" xmlns="http://www.w3.org/2000/svg" xmlns:xlink="http://www.w3.org/1999/xlink" xmlns:sketch="http://www.bohemiancoding.com/sketch/ns">
    <!-- Generator: Sketch 3.4 (15588) - http://www.bohemiancoding.com/sketch -->
    <title>Imported Layers</title>
    <desc>Created with Sketch.</desc>
    <defs>
        <path d="M0.00487804878,5.2097561 C0.00487804878,4.06768293 0.775,3.11097561 1.80914634,2.86158537 C2.24207317,1.3 3.63658537,0.156707317 5.28963415,0.156707317 C6.49268293,0.156707317 7.55914634,0.761585366 8.21707317,1.69329268 C8.2945122,1.68658537 8.37317073,1.68353659 8.45182927,1.68353659 C10.0420732,1.68353659 11.3310976,3.01280488 11.3310976,4.65243902 C11.3310976,6.20365854 10.177439,7.47682927 8.70731707,7.6097561 L2.24756098,7.62134146 C1,7.56768293 0.00487804878,6.50853659 0.00487804878,5.2097561 L0.00487804878,5.2097561 Z M1.03414634,5.2097561 L1.03414634,5.2097561 C1.03414634,5.95914634 1.59756098,6.56280488 2.29146341,6.59268293 L2.24573171,6.59207317 L8.7054878,6.5804878 L8.61402439,6.5847561 C9.55792683,6.49878049 10.3012195,5.66646341 10.3012195,4.65243902 C10.3012195,3.57439024 9.46585366,2.71341463 8.45182927,2.71341463 C8.40182927,2.71341463 8.35182927,2.7152439 8.30243902,2.7195122 L7.71585366,2.76829268 L7.37621951,2.28719512 C6.88902439,1.59756098 6.12134146,1.18597561 5.28963415,1.18597561 C4.13414634,1.18597561 3.12012195,1.98658537 2.80121951,3.13658537 L2.63963415,3.72073171 L2.05,3.86280488 C1.4652439,4.00365854 1.03414634,4.55731707 1.03414634,5.2097561 L1.03414634,5.2097561 Z" id="path-1"></path>
    </defs>
    <g id="Board" stroke="none" stroke-width="1" fill-rule="evenodd" sketch:type="MSPage">
        <g id="Card-View-(Board-Files)" sketch:type="MSArtboardGroup" transform="translate(-1024.000000, -736.000000)">
            <g id="Right-Sidebar" sketch:type="MSLayerGroup" transform="translate(980.000000, 79.000000)">
                <g id="Imported-Layers" transform="translate(44.000000, 657.000000)">
                    <path d="M23.3579268,0.535365854 L1.39268293,0.535365854 C0.723170732,0.535365854 0.179878049,1.07804878 0.179878049,1.74817073 L0.179878049,25.5420732 C0.179878049,26.2121951 0.723170732,26.754878 1.39268293,26.754878 L23.3579268,26.754878 C24.027439,26.754878 24.570122,26.2121951 24.570122,25.5420732 L24.570122,1.74817073 C24.570122,1.07804878 24.027439,0.535365854 23.3579268,0.535365854 L23.3579268,0.535365854 Z M2.61890244,2.97439024 L22.1310976,2.97439024 L22.1310976,24.3158537 L2.61890244,24.3158537 L2.61890244,2.97439024 Z" id="Fill-1" sketch:type="MSShapeGroup"></path>
                    <path d="M6.71219512,14.9658537 C6.71219512,13.8237805 7.48231707,12.8670732 8.51646341,12.6176829 C8.94939024,11.0560976 10.3439024,9.91280488 11.9969512,9.91280488 C13.2,9.91280488 14.2664634,10.5176829 14.9243902,11.4493902 C15.0018293,11.4426829 15.0804878,11.4396341 15.1591463,11.4396341 C16.7493902,11.4396341 18.0384146,12.7689024 18.0384146,14.4085366 C18.0384146,15.9597561 16.8847561,17.2329268 15.4146341,17.3658537 L8.95487805,17.377439 C7.70731707,17.3237805 6.71219512,16.2646341 6.71219512,14.9658537 L6.71219512,14.9658537 Z M7.74146341,14.9658537 L7.74146341,14.9658537 C7.74146341,15.7152439 8.30487805,16.3189024 8.99878049,16.3487805 L8.95304878,16.3481707 L15.4128049,16.3365854 L15.3213415,16.3408537 C16.2652439,16.254878 17.0085366,15.422561 17.0085366,14.4085366 C17.0085366,13.3304878 16.1731707,12.4695122 15.1591463,12.4695122 C15.1091463,12.4695122 15.0591463,12.4713415 15.0097561,12.4756098 L14.4231707,12.5243902 L14.0835366,12.0432927 C13.5963415,11.3536585 12.8286585,10.9420732 11.9969512,10.9420732 C10.8414634,10.9420732 9.82743902,11.7426829 9.50853659,12.8926829 L9.34695122,13.4768293 L8.75731707,13.6189024 C8.17256098,13.7597561 7.74146341,14.3134146 7.74146341,14.9658537 L7.74146341,14.9658537 Z" id="Fill-2" sketch:type="MSShapeGroup"></path>
                    <g id="Group-5" transform="translate(6.707317, 9.756098)">
                        <mask id="mask-2" sketch:name="Clip 4">
                            <use xlink:href="#path-1"></use>
                        </mask>
                        <g id="Clip-4"></g>
                    </g>
                </g>
            </g>
        </g>
    </g>
</svg>
