<?xml version="1.0" encoding="UTF-8" standalone="no"?>
<svg width="37px" height="49px" viewBox="0 0 37 49" version="1.1" xmlns="http://www.w3.org/2000/svg" xmlns:xlink="http://www.w3.org/1999/xlink" xmlns:sketch="http://www.bohemiancoding.com/sketch/ns">
    <!-- Generator: Sketch 3.4.3 (16044) - http://www.bohemiancoding.com/sketch -->
    <title>zip + Group + Rectangle 1 + Oval 2</title>
    <desc>Created with Sketch.</desc>
    <defs></defs>
    <g id="Page-1" stroke="none" stroke-width="1" fill="none" fill-rule="evenodd" sketch:type="MSPage">
        <g id="Asset-Icons" sketch:type="MSArtboardGroup" transform="translate(-241.000000, -19.000000)">
            <g id="zip-+-Group-+-Rectangle-1-+-Oval-2" sketch:type="MSLayerGroup" transform="translate(241.000000, 19.000000)">
                <g id="zip" sketch:type="MSShapeGroup">
                    <g id="Page-1">
                        <path d="M36.299458,10.8384 L36.299458,46.248 C36.299458,47.2128 35.5083469,48 34.5387534,48 L1.76070461,48 C0.791111111,48 0,47.2128 0,46.248 L0,1.872 C0,0.9072 0.791111111,0.12 1.76070461,0.12 L24.3604336,0.12 L36.299458,10.8384 Z" id="Fill-1" fill="#4BCAA8"></path>
                        <path d="M36.299458,10.8384 L36.299458,11.04 L25.8027642,11.04 C24.9392954,11.04 24.2398374,10.344 24.2398374,9.4848 L24.2398374,0.12 L24.3604336,0.12 L36.299458,10.8384 Z" id="Fill-3" opacity="0.5" fill="#FDFDFE"></path>
                    </g>
                </g>
                <g id="Group" transform="translate(7.395693, 31.000000)" fill="#FFFFFF" sketch:type="MSShapeGroup">
                    <g transform="translate(0.141319, 15.357143)" id="Fill-3">
                        <g>
                            <path d="M0,0 L2.41074516,0 L2.41074516,1.70683018 L0,1.70683018 L0,0 Z"></path>
                        </g>
                    </g>
                    <g transform="translate(0.141319, 8.571429)" id="Fill-3">
                        <g>
                            <path d="M0,6.80160308 L2.41074516,6.80160308 L2.41074516,8.50843326 L0,8.50843326 L0,6.80160308 Z"></path>
                            <path d="M0,3.40080154 L2.41074516,3.40080154 L2.41074516,5.10763172 L0,5.10763172 L0,3.40080154 Z"></path>
                            <path d="M2.29314784,5.10120231 L4.703893,5.10120231 L4.703893,6.80803249 L2.29314784,6.80803249 L2.29314784,5.10120231 Z"></path>
                            <path d="M0,0 L2.41074516,0 L2.41074516,1.70683018 L0,1.70683018 L0,0 Z"></path>
                            <path d="M2.29314784,1.70040077 L4.703893,1.70040077 L4.703893,3.40723095 L2.29314784,3.40723095 L2.29314784,1.70040077 Z"></path>
                        </g>
                    </g>
                    <g transform="translate(0.141319, 1.785714)" id="Fill-3">
                        <g>
                            <path d="M0,6.80160308 L2.41074516,6.80160308 L2.41074516,8.50843326 L0,8.50843326 L0,6.80160308 Z"></path>
                            <path d="M0,3.40080154 L2.41074516,3.40080154 L2.41074516,5.10763172 L0,5.10763172 L0,3.40080154 Z"></path>
                            <path d="M2.29314784,5.10120231 L4.703893,5.10120231 L4.703893,6.80803249 L2.29314784,6.80803249 L2.29314784,5.10120231 Z"></path>
                            <path d="M0,0 L2.41074516,0 L2.41074516,1.70683018 L0,1.70683018 L0,0 Z"></path>
                            <path d="M2.29314784,1.70040077 L4.703893,1.70040077 L4.703893,3.40723095 L2.29314784,3.40723095 L2.29314784,1.70040077 Z"></path>
                        </g>
                    </g>
                    <g transform="translate(0.141319, 0.000000)" id="Fill-3">
                        <g>
                            <path d="M0,1.80160308 L2.41074516,1.80160308 L2.41074516,3.50843326 L0,3.50843326 L0,1.80160308 Z"></path>
                            <path d="M2.29314784,0.101202312 L4.703893,0.101202312 L4.703893,1.80803249 L2.29314784,1.80803249 L2.29314784,0.101202312 Z"></path>
                        </g>
                    </g>
                </g>
                <g id="Rectangle-1-+-Oval-2" transform="translate(7.395693, 22.000000)" sketch:type="MSShapeGroup">
                    <path d="M4.99721545,5.25 L5,5.25 L5,0.999842305 C5,0.447612047 4.55237094,0 4.00019251,0 L0.999807492,0 C0.443716645,0 -5.68434189e-14,0.447644648 -5.68434189e-14,0.999842305 L-5.68434189e-14,5.25 L0.00278454819,5.25 C0.000935087721,5.29142284 -5.68434189e-14,5.33309676 -5.68434189e-14,5.375 C-5.68434189e-14,6.82474747 1.11928813,8 2.5,8 C3.88071187,8 5,6.82474747 5,5.375 C5,5.33309676 4.99906491,5.29142284 4.99721545,5.25 Z" id="Rectangle-1" fill="#FFFFFF"></path>
                    <ellipse id="Oval-2" fill="#4BCAA8" cx="2.5" cy="5.375" rx="1.07142857" ry="1.125"></ellipse>
                </g>
            </g>
        </g>
    </g>
</svg>