<?xml version="1.0" encoding="UTF-8" standalone="no"?>
<svg width="37px" height="48px" viewBox="0 0 37 48" version="1.1" xmlns="http://www.w3.org/2000/svg" xmlns:xlink="http://www.w3.org/1999/xlink" xmlns:sketch="http://www.bohemiancoding.com/sketch/ns">
    <!-- Generator: Sketch 3.4.3 (16044) - http://www.bohemiancoding.com/sketch -->
    <title>mov + play43 (1)</title>
    <desc>Created with Sketch.</desc>
    <defs></defs>
    <g id="Page-1" stroke="none" stroke-width="1" fill="none" fill-rule="evenodd" sketch:type="MSPage">
        <g id="Asset-Icons" sketch:type="MSArtboardGroup" transform="translate(-382.000000, -21.000000)">
            <g id="mov-+-play43-(1)" sketch:type="MSLayerGroup" transform="translate(382.000000, 21.000000)">
                <g id="mov" sketch:type="MSShapeGroup">
                    <g id="Page-1" transform="translate(0.238482, 0.000000)">
                        <path d="M36.299458,10.8384 L36.299458,46.248 C36.299458,47.2128 35.5083469,48 34.5387534,48 L1.76070461,48 C0.791111111,48 0,47.2128 0,46.248 L0,1.872 C0,0.9072 0.791111111,0.12 1.76070461,0.12 L24.3604336,0.12 L36.299458,10.8384 Z" id="Fill-1" fill="#9D68BB"></path>
                        <path d="M36.299458,10.8384 L36.299458,11.04 L25.8027642,11.04 C24.9392954,11.04 24.2398374,10.344 24.2398374,9.4848 L24.2398374,0.12 L24.3604336,0.12 L36.299458,10.8384 Z" id="Fill-3" fill="#CFB6DE"></path>
                    </g>
                </g>
                <g id="play43-(1)" transform="translate(8.000000, 18.000000)" fill="#FFFFFF" sketch:type="MSShapeGroup">
                    <g id="Capa_1">
                        <g id="_x33_56._Play">
                            <path d="M17.7255618,4.7506728 C15.10268,0.207695838 9.29333193,-1.34893696 4.75071794,1.27442881 C0.207740976,3.89694764 -1.34895232,9.70605371 1.27441346,14.2488492 C3.89693228,18.7918261 9.70609884,20.3487009 14.2487733,17.7255771 C18.7918108,15.1021509 20.34923,9.29334728 17.7255618,4.7506728 L17.7255618,4.7506728 Z M13.2991614,16.0798936 C9.66532427,18.1786347 5.01756755,16.9332558 2.91943149,13.2986928 C0.820811468,9.66485566 2.06661378,5.01715943 5.70057188,2.91944685 C9.33465096,0.820826826 13.9821657,2.06608467 16.0804228,5.70052674 C18.1787403,9.33490831 16.933301,13.9816366 13.2991614,16.0798936 L13.2991614,16.0798936 Z M12.9193045,9.11379398 L7.94565368,6.21305222 C7.49241467,5.94844097 7.12683494,6.15999688 7.12937579,6.68425866 L7.15484477,12.4419428 C7.15714364,12.9660836 7.5272001,13.1794544 7.98177003,12.9169 L12.9173686,10.0673382 C13.3714546,9.8052678 13.3724225,9.37840522 12.9193045,9.11379398 L12.9193045,9.11379398 Z" id="Shape"></path>
                        </g>
                    </g>
                </g>
            </g>
        </g>
    </g>
</svg>