<?xml version="1.0" encoding="UTF-8" standalone="no"?>
<svg width="37px" height="48px" viewBox="0 0 37 48" version="1.1" xmlns="http://www.w3.org/2000/svg" xmlns:xlink="http://www.w3.org/1999/xlink" xmlns:sketch="http://www.bohemiancoding.com/sketch/ns">
    <!-- Generator: Sketch 3.4.3 (16044) - http://www.bohemiancoding.com/sketch -->
    <title>sketch</title>
    <desc>Created with Sketch.</desc>
    <defs></defs>
    <g id="Page-1" stroke="none" stroke-width="1" fill-rule="evenodd" sketch:type="MSPage">
        <g id="Asset-Icons" sketch:type="MSArtboardGroup" transform="translate(-238.000000, -107.000000)">
            <g id="sketch" sketch:type="MSLayerGroup" transform="translate(238.000000, 107.000000)">
                <g id="Page-1-+-MP4" sketch:type="MSShapeGroup">
                    <g id="Page-1" transform="translate(0.238482, 0.000000)">
                        <path d="M36.299458,10.8384 L36.299458,46.248 C36.299458,47.2128 35.5083469,48 34.5387534,48 L1.76070461,48 C0.791111111,48 0,47.2128 0,46.248 L0,1.872 C0,0.9072 0.791111111,0.12 1.76070461,0.12 L24.3604336,0.12 L36.299458,10.8384 Z" id="Fill-1" fill="#FFDB61"></path>
                        <path d="M36.299458,10.8384 L36.299458,11.04 L25.8027642,11.04 C24.9392954,11.04 24.2398374,10.344 24.2398374,9.4848 L24.2398374,0.12 L24.3604336,0.12 L36.299458,10.8384 Z" id="Fill-3" opacity="0.5" fill="#FFFFFF"></path>
                    </g>
                </g>
                <g id="Page-1" transform="translate(10.000000, 21.000000)" fill="#FFFFFF" sketch:type="MSShapeGroup">
                    <path d="M11.9718723,4.67669245 L10.842867,1.5605937 L12.0857389,1.5605937 L14.6886274,4.67669245 L11.9718723,4.67669245 Z M10.5787309,11.0283321 L11.9960258,6.22096003 L14.6689595,6.22096003 L10.5787309,11.0283321 Z M8.53999996,12.60034 L6.65930219,6.22096003 L10.4208703,6.22096003 L8.53999996,12.60034 Z M2.41104039,6.22096003 L5.08397412,6.22096003 L6.50126906,11.0283321 L2.41104039,6.22096003 Z M4.99426099,1.5605937 L6.2371329,1.5605937 L5.10812765,4.67669245 L2.39119999,4.67669245 L4.99426099,1.5605937 Z M7.84558582,1.5605937 L9.2344141,1.5605937 L10.3634193,4.67669245 L6.71658058,4.67669245 L7.84558582,1.5605937 Z M16.8988484,4.94685093 L13.0059886,0.286484606 C12.8626201,0.114918951 12.653347,0.0161494344 12.4330323,0.0161494344 L4.64696766,0.0161494344 C4.42665291,0.0161494344 4.21720725,0.114918951 4.07401129,0.286484606 L0.180978989,4.94685093 C-0.0621090906,5.23785879 -0.0602113129,5.66739134 0.185464646,5.95610224 L7.97152926,15.1072128 C8.11472522,15.2754214 8.32192804,15.3720706 8.53999996,15.3720706 C8.75789935,15.3720706 8.96527471,15.2754214 9.10847067,15.1072128 L16.8945353,5.95610224 C17.1402112,5.66739134 17.142109,5.23785879 16.8988484,4.94685093 L16.8988484,4.94685093 Z" id="Fill-1"></path>
                </g>
            </g>
        </g>
    </g>
</svg>