<?xml version="1.0" encoding="UTF-8" standalone="no"?>
<svg width="37px" height="48px" viewBox="0 0 37 48" version="1.1" xmlns="http://www.w3.org/2000/svg" xmlns:xlink="http://www.w3.org/1999/xlink" xmlns:sketch="http://www.bohemiancoding.com/sketch/ns">
    <!-- Generator: Sketch 3.4.3 (16044) - http://www.bohemiancoding.com/sketch -->
    <title>xls</title>
    <desc>Created with Sketch.</desc>
    <defs></defs>
    <g id="Page-1" stroke="none" stroke-width="1" fill="none" fill-rule="evenodd" sketch:type="MSPage">
        <g id="Asset-Icons" sketch:type="MSArtboardGroup" transform="translate(-171.000000, -19.000000)">
            <g id="xls" sketch:type="MSLayerGroup" transform="translate(171.000000, 19.000000)">
                <g id="Page-1" sketch:type="MSShapeGroup">
                    <path d="M36.299458,10.8384 L36.299458,46.248 C36.299458,47.2128 35.5083469,48 34.5387534,48 L1.76070461,48 C0.791111111,48 0,47.2128 0,46.248 L0,1.872 C0,0.9072 0.791111111,0.12 1.76070461,0.12 L24.3604336,0.12 L36.299458,10.8384 Z" id="Fill-1" fill="#39A341"></path>
                    <path d="M36.299458,10.8384 L36.299458,11.04 L25.8027642,11.04 C24.9392954,11.04 24.2398374,10.344 24.2398374,9.4848 L24.2398374,0.12 L24.3604336,0.12 L36.299458,10.8384 Z" id="Fill-3" opacity="0.5" fill="#FDFDFE"></path>
                    <path d="M6,28 L12.6043071,28 L12.6043071,29.422561 L6,29.422561 L6,28 Z" id="Fill-3" fill="#FFFFFF"></path>
                    <path d="M6,31 L12.6043071,31 L12.6043071,32.422561 L6,32.422561 L6,31 Z" id="Fill-4" fill="#FFFFFF"></path>
                    <path d="M6,22 L12.6043071,22 L12.6043071,23.422561 L6,23.422561 L6,22 Z" id="Fill-2" fill="#FFFFFF"></path>
                    <path d="M6,25 L12.6043071,25 L12.6043071,26.422561 L6,26.422561 L6,25 Z" id="Fill-3" fill="#FFFFFF"></path>
                    <path d="M6,37 L12.6043071,37 L12.6043071,38.422561 L6,38.422561 L6,37 Z" id="Fill-3" fill="#FFFFFF"></path>
                    <path d="M6,40 L12.6043071,40 L12.6043071,41.422561 L6,41.422561 L6,40 Z" id="Fill-4" fill="#FFFFFF"></path>
                    <path d="M6,34 L12.6043071,34 L12.6043071,35.422561 L6,35.422561 L6,34 Z" id="Fill-3" fill="#FFFFFF"></path>
                    <path d="M15,28 L21.6043071,28 L21.6043071,29.422561 L15,29.422561 L15,28 Z" id="Fill-3" fill="#FFFFFF"></path>
                    <path d="M15,31 L21.6043071,31 L21.6043071,32.422561 L15,32.422561 L15,31 Z" id="Fill-4" fill="#FFFFFF"></path>
                    <path d="M15,22 L21.6043071,22 L21.6043071,23.422561 L15,23.422561 L15,22 Z" id="Fill-2" fill="#FFFFFF"></path>
                    <path d="M15,25 L21.6043071,25 L21.6043071,26.422561 L15,26.422561 L15,25 Z" id="Fill-3" fill="#FFFFFF"></path>
                    <path d="M15,37 L21.6043071,37 L21.6043071,38.422561 L15,38.422561 L15,37 Z" id="Fill-3" fill="#FFFFFF"></path>
                    <path d="M15,40 L21.6043071,40 L21.6043071,41.422561 L15,41.422561 L15,40 Z" id="Fill-4" fill="#FFFFFF"></path>
                    <path d="M15,34 L21.6043071,34 L21.6043071,35.422561 L15,35.422561 L15,34 Z" id="Fill-3" fill="#FFFFFF"></path>
                    <path d="M15,28 L21.6043071,28 L21.6043071,29.422561 L15,29.422561 L15,28 Z" id="Fill-3" fill="#FFFFFF"></path>
                    <path d="M15,31 L21.6043071,31 L21.6043071,32.422561 L15,32.422561 L15,31 Z" id="Fill-4" fill="#FFFFFF"></path>
                    <path d="M15,22 L21.6043071,22 L21.6043071,23.422561 L15,23.422561 L15,22 Z" id="Fill-2" fill="#FFFFFF"></path>
                    <path d="M15,25 L21.6043071,25 L21.6043071,26.422561 L15,26.422561 L15,25 Z" id="Fill-3" fill="#FFFFFF"></path>
                    <path d="M15,37 L21.6043071,37 L21.6043071,38.422561 L15,38.422561 L15,37 Z" id="Fill-3" fill="#FFFFFF"></path>
                    <path d="M15,40 L21.6043071,40 L21.6043071,41.422561 L15,41.422561 L15,40 Z" id="Fill-4" fill="#FFFFFF"></path>
                    <path d="M15,34 L21.6043071,34 L21.6043071,35.422561 L15,35.422561 L15,34 Z" id="Fill-3" fill="#FFFFFF"></path>
                    <path d="M24,28 L30.6043071,28 L30.6043071,29.422561 L24,29.422561 L24,28 Z" id="Fill-3" fill="#FFFFFF"></path>
                    <path d="M24,31 L30.6043071,31 L30.6043071,32.422561 L24,32.422561 L24,31 Z" id="Fill-4" fill="#FFFFFF"></path>
                    <path d="M24,22 L30.6043071,22 L30.6043071,23.422561 L24,23.422561 L24,22 Z" id="Fill-2" fill="#FFFFFF"></path>
                    <path d="M24,25 L30.6043071,25 L30.6043071,26.422561 L24,26.422561 L24,25 Z" id="Fill-3" fill="#FFFFFF"></path>
                    <path d="M24,37 L30.6043071,37 L30.6043071,38.422561 L24,38.422561 L24,37 Z" id="Fill-3" fill="#FFFFFF"></path>
                    <path d="M24,40 L30.6043071,40 L30.6043071,41.422561 L24,41.422561 L24,40 Z" id="Fill-4" fill="#FFFFFF"></path>
                    <path d="M24,34 L30.6043071,34 L30.6043071,35.422561 L24,35.422561 L24,34 Z" id="Fill-3" fill="#FFFFFF"></path>
                    <path d="M24,28 L30.6043071,28 L30.6043071,29.422561 L24,29.422561 L24,28 Z" id="Fill-3" fill="#FFFFFF"></path>
                    <path d="M24,31 L30.6043071,31 L30.6043071,32.422561 L24,32.422561 L24,31 Z" id="Fill-4" fill="#FFFFFF"></path>
                    <path d="M24,22 L30.6043071,22 L30.6043071,23.422561 L24,23.422561 L24,22 Z" id="Fill-2" fill="#FFFFFF"></path>
                    <path d="M24,25 L30.6043071,25 L30.6043071,26.422561 L24,26.422561 L24,25 Z" id="Fill-3" fill="#FFFFFF"></path>
                    <path d="M24,37 L30.6043071,37 L30.6043071,38.422561 L24,38.422561 L24,37 Z" id="Fill-3" fill="#FFFFFF"></path>
                    <path d="M24,40 L30.6043071,40 L30.6043071,41.422561 L24,41.422561 L24,40 Z" id="Fill-4" fill="#FFFFFF"></path>
                    <path d="M24,34 L30.6043071,34 L30.6043071,35.422561 L24,35.422561 L24,34 Z" id="Fill-3" fill="#FFFFFF"></path>
                </g>
            </g>
        </g>
    </g>
</svg>