<?xml version="1.0" encoding="UTF-8" ?>
<!DOCTYPE svg PUBLIC "-//W3C//DTD SVG 1.1//EN" "http://www.w3.org/Graphics/SVG/1.1/DTD/svg11.dtd">
<svg width="512pt" height="512pt" viewBox="0 0 512 512" version="1.1" xmlns="http://www.w3.org/2000/svg">

<g id="#252525ff">
<path d=" M 77.78 41.77 C 102.79 24.25 133.51 15.11 164.02 16.05 C 199.51 16.85 234.36 31.57 259.85 56.24 C 252.32 63.79 244.78 71.33 237.23 78.87 C 218.62 61.12 193.79 50.02 168.11 48.30 C 141.57 46.28 114.43 54.15 93.14 70.15 C 69.77 87.43 53.59 114.12 49.31 142.89 C 45.62 166.63 49.77 191.54 61.16 212.71 C 73.86 236.62 95.52 255.60 120.92 264.99 C 146.75 274.66 176.18 274.31 201.75 263.95 C 229.29 253.00 251.94 230.61 263.35 203.27 C 271.47 211.08 278.95 219.57 287.60 226.80 C 284.34 232.97 280.66 238.90 276.57 244.55 C 285.69 253.72 294.86 262.84 304.00 272.00 C 293.33 282.67 282.67 293.33 272.00 304.00 C 262.85 294.86 253.72 285.70 244.55 276.57 C 219.94 294.54 189.49 304.31 159.01 304.00 C 130.17 303.88 101.44 294.80 77.81 278.25 C 53.55 261.43 34.68 236.97 24.63 209.21 C 13.58 178.97 13.14 145.02 23.34 114.50 C 33.02 85.23 52.46 59.33 77.78 41.77 Z" />
<path d=" M 330.43 279.63 C 335.33 277.78 341.15 278.54 345.37 281.67 C 347.43 283.23 349.15 285.18 350.99 286.99 C 388.84 324.84 426.69 362.69 464.54 400.54 C 467.31 403.39 470.60 405.99 472.12 409.79 C 474.68 415.72 473.18 423.08 468.48 427.52 C 454.65 441.33 440.86 455.18 427.01 468.96 C 421.03 474.97 410.29 474.74 404.53 468.53 C 364.03 428.00 323.48 387.53 283.01 346.98 C 277.20 341.15 277.22 330.80 283.04 324.99 C 296.65 311.30 310.34 297.70 323.96 284.02 C 325.79 282.15 327.93 280.50 330.43 279.63 Z" />
</g>
<g id="#a1c057ff">
<path d=" M 318.11 49.04 C 322.96 47.66 328.04 48.03 333.02 48.04 C 345.04 48.20 357.07 48.15 369.08 48.41 C 375.39 48.40 379.07 57.04 374.59 61.54 C 363.14 73.19 351.50 84.65 339.98 96.23 C 357.69 96.65 375.68 94.86 393.08 99.03 C 422.53 105.55 448.83 124.71 464.20 150.65 C 474.38 167.59 479.85 187.29 479.99 207.05 C 480.01 223.37 480.00 239.68 480.00 256.00 C 458.67 256.00 437.33 256.00 416.00 256.00 C 415.98 239.98 416.02 223.97 415.99 207.96 C 416.00 195.60 411.15 183.30 402.51 174.44 C 393.86 165.42 381.52 160.17 369.04 160.03 C 359.33 159.95 349.62 160.04 339.91 160.02 C 351.48 171.81 363.22 183.45 374.71 195.30 C 379.00 199.86 375.31 208.41 369.03 208.30 C 354.33 208.28 339.63 208.15 324.94 207.94 C 315.91 207.74 307.58 203.04 301.69 196.37 C 282.70 177.34 263.65 158.36 244.67 139.32 C 238.48 133.43 238.47 122.58 244.67 116.69 C 264.31 97.01 283.99 77.36 303.64 57.69 C 307.62 53.64 312.58 50.46 318.11 49.04 Z" />
<path d=" M 32.01 280.81 C 49.83 299.67 71.83 314.54 95.99 324.00 C 96.11 332.70 95.35 341.62 98.03 350.05 C 102.52 365.71 115.61 378.52 131.42 382.53 C 138.77 384.60 146.47 384.07 154.02 384.13 C 160.04 384.12 166.06 384.14 172.08 384.12 C 160.50 372.29 148.72 360.66 137.23 348.76 C 133.03 344.20 136.73 335.77 142.94 335.83 C 157.30 335.83 171.68 336.02 186.05 336.15 C 194.11 336.22 202.07 339.51 207.76 345.24 C 227.60 365.07 247.44 384.91 267.27 404.76 C 273.49 410.61 273.56 421.46 267.40 427.38 C 247.59 447.21 227.76 467.02 207.94 486.85 C 202.21 492.68 194.18 496.22 185.97 496.13 C 171.65 496.03 157.32 495.96 143.00 495.75 C 136.60 495.80 132.88 487.02 137.49 482.51 C 148.92 470.90 160.53 459.47 172.01 447.91 C 161.32 447.82 150.62 447.98 139.93 447.81 C 111.95 447.01 84.52 435.10 64.79 415.26 C 44.38 395.05 32.35 366.72 32.02 338.00 C 31.98 318.93 32.00 299.87 32.01 280.81 Z" />
</g>
</svg>
