<?xml version="1.0" encoding="UTF-8" ?>
<!DOCTYPE svg PUBLIC "-//W3C//DTD SVG 1.1//EN" "http://www.w3.org/Graphics/SVG/1.1/DTD/svg11.dtd">
<svg width="660pt" height="830pt" viewBox="0 0 660 830" version="1.1" xmlns="http://www.w3.org/2000/svg">
<g id="#ffffffff">
</g>
<g id="#333333ff">
<path opacity="1.00" d=" M 295.56 6.83 C 343.93 3.95 392.89 8.35 439.61 21.42 C 490.60 35.54 538.51 60.29 579.95 93.14 C 583.58 96.10 587.65 98.73 590.28 102.72 C 594.38 108.70 595.27 116.70 592.63 123.45 C 589.95 130.60 583.37 136.14 575.86 137.54 C 568.82 139.05 561.33 136.78 555.96 132.08 C 527.20 108.96 495.30 89.53 460.82 76.21 C 418.93 59.78 373.91 52.00 329.00 51.37 C 286.70 50.68 244.10 56.78 204.23 71.16 C 172.98 82.39 143.46 98.62 117.56 119.42 C 104.86 129.70 92.86 140.97 82.74 153.83 C 78.32 159.38 71.15 162.60 64.07 162.23 C 56.13 161.95 48.51 157.14 44.91 150.06 C 41.24 143.17 41.49 134.30 45.72 127.71 C 48.62 123.35 52.13 119.44 55.57 115.52 C 76.35 92.56 101.00 73.28 127.51 57.37 C 178.27 27.05 236.67 10.42 295.56 6.83 Z" />
<path opacity="1.00" d=" M 299.57 84.84 C 325.03 83.04 350.72 83.25 376.00 87.01 C 427.76 94.38 477.12 115.18 520.05 144.76 C 550.88 166.02 578.75 191.53 602.85 220.18 C 608.64 227.19 614.30 234.32 619.39 241.84 C 623.31 247.65 624.24 255.32 621.82 261.89 C 619.14 269.91 611.49 275.90 603.12 276.79 C 595.72 277.72 587.86 274.76 583.10 268.98 C 560.07 236.82 531.43 208.76 499.34 185.69 C 459.99 157.48 414.17 137.59 365.97 131.37 C 341.45 128.10 316.56 128.57 291.98 131.04 C 254.89 134.87 218.24 145.34 185.73 163.83 C 157.11 179.91 132.19 202.05 111.25 227.24 C 92.17 249.87 74.62 273.80 59.01 298.95 C 56.69 302.61 54.83 306.62 51.79 309.76 C 46.52 315.18 38.42 317.64 31.02 316.10 C 23.13 314.60 16.31 308.56 13.92 300.88 C 11.61 294.19 13.01 286.63 16.87 280.79 C 36.44 248.28 59.15 217.69 84.12 189.12 C 105.08 165.49 129.33 144.67 156.44 128.38 C 199.58 102.21 249.44 88.41 299.57 84.84 Z" />
<path opacity="1.00" d=" M 302.51 163.90 C 342.79 160.89 383.96 165.61 421.86 179.91 C 457.16 193.09 489.28 214.60 515.08 242.05 C 539.00 267.51 558.24 297.48 570.83 330.09 C 575.20 341.65 579.01 353.52 580.62 365.81 C 582.98 383.28 582.27 400.99 580.75 418.50 C 577.41 456.59 569.24 494.04 564.92 532.01 C 563.79 543.32 562.58 554.84 564.59 566.13 C 567.16 581.10 574.03 594.99 582.59 607.41 C 592.04 621.06 603.54 633.13 615.53 644.56 C 619.87 648.53 622.80 654.11 623.09 660.04 C 623.83 668.89 618.71 677.87 610.71 681.74 C 602.88 685.80 592.69 684.77 585.97 679.01 C 581.55 675.12 577.45 670.87 573.28 666.71 C 549.44 642.50 528.44 613.65 520.97 579.94 C 516.26 560.32 518.13 539.98 520.48 520.17 C 523.73 494.38 528.46 468.80 532.09 443.06 C 534.90 422.21 537.50 401.16 536.34 380.07 C 535.68 364.64 530.20 349.95 524.03 335.97 C 509.64 304.28 488.19 275.66 461.00 253.83 C 436.41 233.84 406.91 220.10 375.92 213.60 C 338.79 205.94 299.55 206.18 263.11 217.27 C 231.47 226.84 203.11 245.58 180.08 269.10 C 158.87 290.51 141.96 315.70 126.55 341.47 C 106.63 375.50 79.97 406.01 47.08 428.02 C 41.19 431.67 35.27 436.23 28.09 436.68 C 18.43 437.57 8.63 431.55 5.19 422.46 C 1.32 413.21 4.63 401.62 12.85 395.86 C 44.03 377.68 68.84 349.94 87.03 319.01 C 106.56 286.05 128.78 254.20 157.09 228.12 C 179.87 206.87 206.61 189.77 235.80 178.76 C 257.17 170.64 279.73 165.73 302.51 163.90 Z" />
<path opacity="1.00" d=" M 317.36 241.48 C 352.41 239.84 387.76 249.17 417.74 267.33 C 444.87 283.92 468.54 306.82 484.25 334.60 C 493.84 351.53 499.94 370.33 502.70 389.57 C 505.67 410.23 504.91 431.27 502.33 451.94 C 498.80 480.51 491.84 508.49 487.24 536.88 C 484.31 555.47 482.26 574.53 485.30 593.24 C 488.40 612.72 493.26 632.15 502.13 649.88 C 509.08 663.76 518.97 676.39 531.82 685.26 C 541.30 691.96 552.19 696.26 563.07 700.14 C 568.53 701.99 573.34 705.81 576.08 710.92 C 579.93 717.85 579.70 726.81 575.52 733.55 C 571.53 740.26 563.80 744.49 556.01 744.39 C 550.66 744.45 545.76 742.07 540.84 740.31 C 523.83 734.00 507.50 725.31 493.95 713.14 C 470.54 692.66 456.04 663.86 447.68 634.30 C 441.66 612.30 437.41 589.52 438.43 566.62 C 440.14 522.11 454.52 479.35 458.36 435.09 C 460.07 415.28 459.24 394.93 452.98 375.92 C 448.11 360.96 439.75 347.26 429.35 335.51 C 412.72 316.90 391.66 301.98 367.97 293.86 C 340.84 284.34 310.53 284.20 283.38 293.70 C 254.56 303.57 229.98 323.39 211.28 347.14 C 197.81 364.19 187.06 383.27 178.39 403.16 C 167.57 427.94 150.80 449.61 132.18 469.02 C 106.16 495.80 76.73 519.12 45.63 539.72 C 40.43 542.94 35.41 547.12 29.12 547.91 C 20.63 549.27 11.52 545.34 6.81 538.12 C 1.68 530.72 1.74 520.23 6.85 512.85 C 10.33 507.52 16.29 504.80 21.38 501.34 C 43.73 486.44 65.15 470.07 84.88 451.84 C 101.43 436.28 117.09 419.44 128.99 399.99 C 134.40 391.32 137.93 381.68 142.42 372.53 C 157.47 341.45 177.49 312.39 203.43 289.41 C 234.66 261.40 275.22 243.25 317.36 241.48 Z" />
<path opacity="1.00" d=" M 604.35 305.60 C 614.70 303.01 626.20 308.82 630.38 318.60 C 639.31 338.37 644.30 359.68 647.92 380.99 C 658.25 446.30 651.97 513.20 637.66 577.41 C 636.33 584.28 631.81 590.50 625.46 593.55 C 617.08 597.92 606.02 596.21 599.34 589.52 C 593.68 584.05 591.24 575.57 593.17 567.93 C 604.38 517.94 610.28 466.38 606.25 415.17 C 604.21 391.77 600.42 368.34 592.55 346.13 C 590.47 339.83 586.32 333.97 586.77 327.05 C 586.86 316.97 594.52 307.72 604.35 305.60 Z" />
<path opacity="1.00" d=" M 320.37 322.53 C 342.84 321.25 365.68 327.84 383.91 341.06 C 401.20 353.46 414.11 371.35 422.00 391.00 C 428.02 406.27 432.10 422.55 432.11 439.05 C 431.98 461.64 425.42 483.72 416.01 504.10 C 402.29 533.39 383.53 560.04 363.13 585.04 C 337.98 615.66 310.14 643.99 281.15 670.98 C 238.37 710.65 193.13 747.65 146.07 782.12 C 141.74 785.49 136.72 788.41 131.10 788.61 C 121.80 789.37 112.43 783.75 108.77 775.16 C 104.46 765.86 107.57 753.84 115.95 747.91 C 146.66 725.59 176.47 702.05 205.41 677.49 C 236.00 651.51 265.57 624.28 293.34 595.28 C 317.46 569.80 340.43 542.99 359.26 513.30 C 368.30 498.86 376.27 483.64 381.61 467.43 C 385.67 454.96 388.06 441.56 385.70 428.50 C 382.72 412.55 376.57 396.65 365.21 384.77 C 354.75 373.55 339.40 367.08 324.04 367.75 C 305.69 368.33 288.34 377.72 276.44 391.47 C 270.14 398.58 265.28 406.85 261.41 415.50 C 245.12 450.73 225.73 484.84 200.59 514.55 C 178.07 541.44 151.06 564.11 123.25 585.30 C 96.06 605.87 68.07 625.34 40.41 645.26 C 36.51 648.20 31.86 650.28 26.92 650.43 C 17.42 651.09 7.94 645.07 4.56 636.16 C 0.78 627.04 3.95 615.76 11.84 609.88 C 44.16 586.54 77.05 563.95 108.42 539.32 C 134.77 518.64 159.55 495.53 179.17 468.24 C 195.01 446.45 207.83 422.62 219.24 398.27 C 222.18 391.98 225.14 385.67 228.84 379.78 C 242.40 357.37 263.06 339.06 287.60 329.59 C 298.07 325.57 309.15 323.09 320.37 322.53 Z" />
<path opacity="1.00" d=" M 319.39 413.47 C 329.98 410.28 342.30 416.12 346.44 426.39 C 348.96 432.11 348.78 438.80 346.35 444.51 C 340.30 459.35 332.37 473.36 324.01 487.00 C 304.24 518.76 280.89 548.15 255.81 575.85 C 203.17 633.65 142.79 683.96 79.15 729.20 C 73.50 733.52 65.83 735.19 58.96 733.15 C 50.56 730.98 43.88 723.47 42.62 714.90 C 41.17 706.52 45.02 697.62 51.99 692.81 C 113.29 649.24 171.57 600.90 222.27 545.20 C 248.12 516.53 272.25 486.06 291.62 452.58 C 296.42 444.18 300.86 435.55 304.56 426.60 C 307.12 420.22 312.78 415.29 319.39 413.47 Z" />
<path opacity="1.00" d=" M 389.50 589.78 C 397.32 587.78 406.08 590.36 411.57 596.28 C 417.10 602.02 419.12 610.85 416.68 618.45 C 415.65 621.57 413.86 624.38 412.56 627.39 C 406.03 642.58 404.52 659.78 407.86 675.94 C 411.06 692.12 419.02 707.01 429.00 720.01 C 438.61 732.55 450.20 743.45 462.59 753.22 C 466.49 756.35 470.99 759.01 473.66 763.39 C 478.69 771.02 478.38 781.73 472.85 789.03 C 465.90 798.97 450.67 801.28 441.07 793.87 C 414.94 774.50 391.28 750.70 376.26 721.57 C 365.54 700.86 359.72 677.43 360.77 654.06 C 361.57 635.88 365.89 617.65 374.61 601.59 C 377.57 595.75 383.11 591.30 389.50 589.78 Z" />
<path opacity="1.00" d=" M 288.16 712.16 C 300.90 710.54 313.94 713.25 325.59 718.44 C 340.93 725.37 353.34 737.67 362.18 751.84 C 370.94 765.63 376.85 781.02 381.56 796.60 C 383.60 803.22 382.52 810.77 378.43 816.41 C 373.94 822.94 365.82 826.67 357.95 825.94 C 349.28 825.34 341.31 819.29 338.48 811.07 C 333.14 794.51 327.38 776.89 314.30 764.71 C 309.04 759.94 302.03 757.04 294.91 757.01 C 288.32 757.86 282.47 761.40 276.94 764.88 C 261.18 775.43 247.78 789.08 235.43 803.39 C 229.38 810.32 218.91 812.70 210.39 809.33 C 202.08 806.22 196.03 797.87 195.88 788.98 C 195.58 783.05 197.92 777.23 201.81 772.83 C 215.18 757.26 229.92 742.75 246.55 730.67 C 258.99 721.87 272.87 714.25 288.16 712.16 Z" />
</g>
</svg>
