<?xml version="1.0" encoding="UTF-8" ?>
<!DOCTYPE svg PUBLIC "-//W3C//DTD SVG 1.1//EN" "http://www.w3.org/Graphics/SVG/1.1/DTD/svg11.dtd">
<svg width="256pt" height="256pt" viewBox="0 0 256 256" version="1.1" xmlns="http://www.w3.org/2000/svg">
<g id="#000000ff">
<path d=" M 5.05 24.05 C 8.71 20.46 14.17 20.15 19.00 19.99 C 36.02 20.02 53.05 19.97 70.07 20.02 C 73.96 19.92 77.75 21.56 80.43 24.35 C 84.95 29.31 87.63 35.63 92.17 40.56 C 135.79 40.43 179.41 40.53 223.03 40.51 C 228.87 40.36 235.23 42.51 238.32 47.78 C 242.72 54.81 240.44 63.48 241.00 71.28 C 248.12 71.60 254.35 76.74 256.00 83.67 L 256.00 89.36 C 247.62 133.89 239.48 178.46 231.19 223.01 C 230.56 227.69 229.94 232.82 226.23 236.20 C 222.17 240.71 215.72 241.31 210.03 241.02 C 147.70 240.97 85.36 241.01 23.03 241.01 C 17.98 240.97 12.58 241.55 7.99 239.02 C 3.70 236.95 0.79 232.67 0.00 228.03 L 0.00 32.69 C 0.81 29.39 2.41 26.26 5.05 24.05 M 10.52 35.92 C 10.45 79.12 10.54 122.32 10.48 165.52 C 11.96 160.25 12.54 154.78 13.67 149.43 C 17.33 129.66 21.00 109.88 24.67 90.10 C 25.42 86.52 25.48 82.69 27.31 79.42 C 29.72 74.81 34.74 71.67 39.93 71.49 C 103.28 71.51 166.63 71.49 229.99 71.50 C 229.97 66.31 230.06 61.11 229.98 55.92 C 230.11 53.20 227.38 51.35 224.86 51.52 C 182.58 51.48 140.29 51.50 98.01 51.50 C 93.87 51.53 89.25 51.97 85.78 49.24 C 79.56 44.48 77.11 36.57 71.82 30.97 C 53.15 31.04 34.49 30.99 15.83 30.99 C 13.04 30.76 10.46 33.10 10.52 35.92 M 36.42 85.59 C 27.84 132.37 19.21 179.17 10.41 225.93 C 11.26 227.86 12.45 230.24 14.98 229.98 C 82.21 230.05 149.44 229.93 216.67 230.04 C 220.55 227.86 220.02 223.07 220.89 219.32 C 229.11 175.20 237.16 131.05 245.46 86.94 C 245.46 83.69 242.11 82.00 239.25 82.01 C 173.79 81.98 108.33 82.01 42.87 82.00 C 40.29 81.89 37.27 82.86 36.42 85.59 Z" />
</g>
</svg>
