<?xml version="1.0" encoding="utf-8"?>
<!-- Generator: Adobe Illustrator 18.1.0, SVG Export Plug-In . SVG Version: 6.00 Build 0)  -->
<svg version="1.1" id="Layer_1" xmlns="http://www.w3.org/2000/svg" xmlns:xlink="http://www.w3.org/1999/xlink" x="0px" y="0px"
	 viewBox="0 0 81.9 71" enable-background="new 0 0 81.9 71" xml:space="preserve">
<g>
	<path d="M4.4,58.7L22,14.9h8.8l17.5,43.8l-9.3,0L36.3,52H16.4l-2.6,6.7H4.4z M26.6,26.6l-6.7,16.7h13.2L26.6,26.6z"
		/>
	<path d="M51.1,33c3.7-2.3,8-3.5,12.9-3.5c3.5,0,6.3,1,8.3,2.9c2,1.9,3.1,4.9,3.1,8.8v17.5h-8.2v-2.3
		c-2.4,1.6-4.5,2.3-6.4,2.3c-3.9,0-6.8-0.8-8.8-2.5C50,54.6,49,52.3,49,49.4c0-2.7,0.9-5.2,2.8-7.3c1.8-2.1,4.8-3.2,8.9-3.2
		c1.9,0,4,0.6,6.4,1.8v-0.9c0-2.1-1.6-3.3-4.7-3.5c-3.5,0-6.2,0.6-8.2,1.8L51.1,33z M67.2,49.9v-3.3c-0.8-1.5-2.6-2.3-5.6-2.3
		c-3.5,0.4-5.4,1.8-5.6,4.1c0.2,2.3,2,3.6,5.6,3.8C64.5,52.2,66.4,51.5,67.2,49.9z"/>
</g>
</svg>
