<?xml version="1.0" encoding="utf-8"?>
<!-- Generator: Adobe Illustrator 18.1.0, SVG Export Plug-In . SVG Version: 6.00 Build 0)  -->
<svg version="1.1" id="Layer_1" xmlns="http://www.w3.org/2000/svg" xmlns:xlink="http://www.w3.org/1999/xlink" x="0px" y="0px"
	 viewBox="0 0 81.9 71" enable-background="new 0 0 81.9 71" xml:space="preserve">
<g>
	<path d="M58.5,8c0-2.8-2.3-5.1-5.1-5.1H18.2c-2.7,0-4.9,2.2-4.9,4.9v42.8c0,2.8,2.3,5.1,5.1,5.1h35c2.8,0,5.1-2.3,5.1-5.1V8z
		 M53.4,46.7c0,2.1-1.7,3.9-3.9,3.9H22.2c-2.1,0-3.9-1.7-3.9-3.9V11.8c0-2.1,1.7-3.9,3.9-3.9h27.3c2.1,0,3.9,1.7,3.9,3.9L53.4,46.7z
		 M53.4,46.7"/>
	<path d="M62.1,14.3v5.1c1.6,0,2.8,1.3,2.8,2.8v37.1c0,1.6-1.3,2.8-2.8,2.8H32.4c-1.5,0-2.7-1.2-2.7-2.7h-5V62
		c0,2.8,2.3,5.1,5.1,5.1h34.9c2.8,0,5.1-2.3,5.1-5.1V19.4c0-2.8-2.3-5.1-5.1-5.1H62.1z M62.1,14.3"/>
	<path d="M24.8,17.8h22.6c1.4,0,2.5-1.1,2.5-2.5c0-1.4-1.1-2.5-2.5-2.5H24.8c-1.4,0-2.5,1.1-2.5,2.5C22.3,16.7,23.4,17.8,24.8,17.8
		L24.8,17.8z M24.8,17.8"/>
	<path d="M24.8,27h22.6c1.4,0,2.5-1.1,2.5-2.5c0-1.4-1.1-2.5-2.5-2.5H24.8c-1.4,0-2.5,1.1-2.5,2.5C22.3,25.9,23.4,27,24.8,27
		L24.8,27z M24.8,27"/>
	<path d="M24.8,36.1h22.6c1.4,0,2.5-1.1,2.5-2.5c0-1.4-1.1-2.5-2.5-2.5H24.8c-1.4,0-2.5,1.1-2.5,2.5C22.3,35,23.4,36.1,24.8,36.1
		L24.8,36.1z M24.8,36.1"/>
	<path d="M24.8,44.9h22.6c1.4,0,2.5-1.1,2.5-2.5c0-1.4-1.1-2.5-2.5-2.5H24.8c-1.4,0-2.5,1.1-2.5,2.5C22.3,43.8,23.4,44.9,24.8,44.9
		L24.8,44.9z M24.8,44.9"/>
</g>
</svg>
