<?xml version="1.0" encoding="UTF-8" standalone="no"?>
<svg width="21px" height="20px" viewBox="0 0 21 20" version="1.1" xmlns="http://www.w3.org/2000/svg" xmlns:xlink="http://www.w3.org/1999/xlink" xmlns:sketch="http://www.bohemiancoding.com/sketch/ns">
    <!-- Generator: Sketch 3.4.3 (16044) - http://www.bohemiancoding.com/sketch -->
    <title>Shape</title>
    <desc>Created with Sketch.</desc>
    <defs></defs>
    <g id="Page-1" stroke="none" stroke-width="1" sketch:type="MSPage">
        <g id="Board-View" sketch:type="MSArtboardGroup" transform="translate(-179.000000, -30.000000)" stroke="#9EA3B3" stroke-width="0.75">
            <path d="M190.53948,49.6185949 L188.54227,49.6185949 C188.24178,49.6185949 188.136952,49.6192437 187.112951,47.0823203 L186.322149,46.7608834 C184.167372,47.7384483 183.912299,47.7384483 183.827027,47.7384483 L183.662138,47.7384483 L183.521533,47.6176778 L182.105746,46.2324774 C181.890435,46.0175373 181.815822,45.9429246 182.923704,43.439183 L182.601248,42.67628 C180,41.7441315 180,41.6359663 180,41.3288031 L180,39.3707071 C180,39.0639147 180,38.9670573 182.592628,37.9645596 L182.915084,37.1999883 C181.743156,34.7343409 181.823793,34.6577818 182.054953,34.4401538 L183.577515,32.947437 L183.766596,32.941505 C183.996458,32.941505 184.849267,33.2526538 186.303519,33.8666094 L187.092004,33.5464701 C188.041299,30.9996293 188.157806,31 188.457276,31 L190.454486,31 C190.753678,31 190.858877,31.0003707 191.882878,33.5379429 L192.674978,33.8570627 C194.826418,32.8807953 195.084828,32.8807953 195.170748,32.8807953 L195.334618,32.8807953 L195.475223,32.9995268 L196.89101,34.38241 C197.106321,34.5996673 197.179914,34.6740019 196.072032,37.1787631 L196.395415,37.9460223 C199,38.8741853 199,38.9819798 199,39.2897918 L199,41.2455706 C199,41.5451335 199,41.6506108 196.404035,42.6536645 L196.083618,43.4188846 C197.249615,45.8738731 197.172592,45.950803 196.954315,46.1707481 L195.420168,47.6727336 L195.230068,47.6780167 C195.001224,47.6780167 194.150362,47.3664972 192.698149,46.7518928 L191.90503,47.0723101 C190.95314,49.6185949 190.844974,49.6185949 190.53948,49.6185949 L190.53948,49.6185949 Z M188.749888,48.8101828 L190.325188,48.8101828 C190.505927,48.4416611 190.896694,47.464745 191.209511,46.6232438 L191.272537,46.4557592 L192.706862,45.876561 L192.861092,45.941905 C193.71594,46.3064412 194.726316,46.7104619 195.120049,46.8345692 L196.227004,45.7518976 C196.086398,45.3621507 195.660133,44.4084989 195.275669,43.6040724 L195.198091,43.4405733 L195.791563,42.0238595 L195.953115,41.9614814 C196.816583,41.6291075 197.817042,41.2187841 198.190846,41.03165 L198.190846,39.5106638 C197.812685,39.332891 196.816212,38.9537104 195.957472,38.6492351 L195.789338,38.5891742 L195.191973,37.1710701 L195.263249,37.0111858 C195.630751,36.1819193 196.039499,35.2037055 196.170465,34.8096023 L195.060544,33.7246136 C194.70231,33.8496478 193.699164,34.279528 192.853028,34.6656601 L192.695461,34.7379556 L191.261137,34.159777 L191.197091,34.0002634 C190.858043,33.1540353 190.436783,32.1728555 190.246775,31.809617 L188.672587,31.809617 C188.490829,32.1771191 188.10136,33.154406 187.789284,33.9956291 L187.727277,34.1621868 L186.296938,34.7433314 L186.142708,34.6773386 C185.285914,34.3134513 184.273498,33.9100794 183.878468,33.7860648 L182.773459,34.8693851 C182.912119,35.2584833 183.339682,36.2114863 183.722848,37.0159128 L183.801446,37.1797826 L183.205008,38.5958476 L183.044475,38.6578549 C182.182397,38.9898581 181.183607,39.3999034 180.80971,39.5862961 L180.80971,41.1092287 C181.187871,41.2876502 182.183324,41.6678505 183.041509,41.9736234 L183.208345,42.034333 L183.805802,43.4477102 L183.734526,43.6072237 C183.367024,44.4358414 182.958647,45.4127576 182.82731,45.8061193 L183.939549,46.8944447 C184.296763,46.768391 185.298612,46.3385108 186.145767,45.9520079 L186.304353,45.8793416 L187.735712,46.4611351 L187.799758,46.6206486 C188.139825,47.4671548 188.559788,48.4466662 188.749888,48.8101828 L188.749888,48.8101828 Z M189.499907,43.5678319 C187.668514,43.5678319 186.177187,42.1059797 186.177187,40.3090657 C186.177187,38.513542 187.668236,37.0526167 189.499907,37.0526167 C191.330281,37.0526167 192.817993,38.5138201 192.817993,40.3090657 C192.817993,42.1059797 191.330281,43.5678319 189.499907,43.5678319 L189.499907,43.5678319 Z M189.499907,37.8617702 C188.113687,37.8617702 186.986897,38.959735 186.986897,40.3091584 C186.986897,41.6595087 188.113409,42.758493 189.499907,42.758493 C190.88381,42.758493 192.009674,41.6595087 192.009674,40.3091584 C192.009303,38.959735 190.88381,37.8617702 189.499907,37.8617702 L189.499907,37.8617702 Z" id="Shape" sketch:type="MSShapeGroup"></path>
        </g>
    </g>
</svg>
