<?xml version="1.0" encoding="UTF-8" ?>
<!DOCTYPE svg PUBLIC "-//W3C//DTD SVG 1.1//EN" "http://www.w3.org/Graphics/SVG/1.1/DTD/svg11.dtd">
<svg width="512pt" height="512pt" viewBox="0 0 512 512" version="1.1" xmlns="http://www.w3.org/2000/svg">
<g id="#8c90a2ff">
<path d=" M 186.50 24.36 C 201.56 17.43 220.86 23.24 229.76 37.16 C 235.45 46.20 240.95 55.35 246.58 64.43 C 256.26 63.93 265.96 64.12 275.61 64.97 C 281.20 56.11 286.67 47.17 292.33 38.36 C 301.06 25.37 318.97 19.79 333.51 25.64 C 346.15 30.88 358.66 36.41 371.26 41.74 C 375.98 43.66 380.44 46.32 384.01 49.99 C 392.34 58.27 395.92 70.90 393.25 82.33 C 390.83 92.51 388.30 102.67 385.84 112.84 C 393.10 119.27 399.88 126.26 406.04 133.74 C 416.34 131.56 426.61 129.19 436.93 127.09 C 452.21 124.21 468.68 132.96 474.73 147.30 C 480.08 160.37 485.22 173.53 490.50 186.63 C 497.47 201.91 491.40 221.48 477.01 230.12 C 468.15 235.63 459.24 241.06 450.36 246.53 C 450.84 256.24 450.67 265.99 449.80 275.68 C 458.42 281.27 467.12 286.72 475.71 292.34 C 489.88 301.51 495.20 321.39 487.68 336.47 C 482.19 349.14 476.86 361.88 471.31 374.51 C 464.89 388.64 448.27 396.87 433.12 393.72 C 422.61 391.31 412.15 388.66 401.64 386.18 C 395.52 393.16 388.82 399.63 381.70 405.59 C 383.92 416.09 386.36 426.55 388.45 437.07 C 391.34 452.70 381.98 469.41 367.17 475.14 C 353.63 480.57 340.10 486.05 326.50 491.35 C 312.02 496.72 294.56 490.75 286.07 477.94 C 280.39 468.92 274.99 459.71 269.39 450.63 C 259.65 451.25 249.87 451.13 240.15 450.31 C 234.67 458.81 229.23 467.33 223.74 475.83 C 218.85 483.44 210.97 489.08 202.13 491.08 C 194.74 492.82 186.84 491.95 179.89 488.93 C 167.11 483.45 154.31 478.04 141.56 472.50 C 127.24 466.33 118.60 449.74 121.66 434.46 C 123.99 423.89 126.71 413.39 129.17 402.85 C 121.87 396.41 115.06 389.41 108.81 381.94 C 98.21 384.18 87.66 386.63 77.05 388.76 C 61.52 391.52 45.04 382.26 39.22 367.63 C 33.87 354.33 28.52 341.03 23.28 327.69 C 17.80 312.56 24.26 294.31 37.99 285.95 C 46.67 280.58 55.44 275.35 64.15 270.01 C 63.53 260.27 63.66 250.49 64.46 240.76 C 55.71 235.10 46.88 229.54 38.16 223.82 C 28.42 217.33 22.40 205.71 22.79 194.00 C 22.86 188.85 24.31 183.84 26.41 179.17 C 31.83 166.66 37.07 154.07 42.55 141.59 C 48.98 127.38 65.75 119.12 80.96 122.39 C 91.29 124.78 101.59 127.34 111.91 129.80 C 118.58 122.14 125.91 115.04 133.79 108.63 C 131.58 98.11 129.07 87.65 127.05 77.09 C 124.56 62.13 133.19 46.23 147.09 40.18 C 160.17 34.77 173.38 29.66 186.50 24.36 M 165.01 73.68 C 167.74 86.35 170.49 99.01 173.24 111.68 C 175.27 119.38 171.74 127.89 165.13 132.22 C 153.39 140.58 142.96 150.74 134.20 162.17 C 129.95 167.94 122.32 171.11 115.26 169.51 C 102.09 166.43 88.95 163.18 75.79 160.05 C 71.00 171.25 66.19 182.44 61.39 193.64 C 71.94 200.43 82.47 207.22 93.03 213.99 C 100.14 217.77 104.68 225.94 103.30 234.00 C 101.07 248.17 100.87 262.65 102.70 276.88 C 103.54 282.34 101.92 288.11 98.28 292.27 C 95.92 295.05 92.66 296.79 89.59 298.66 C 79.61 304.73 69.63 310.80 59.65 316.88 C 64.19 328.20 68.72 339.52 73.26 350.83 C 86.19 347.99 99.12 345.14 112.05 342.33 C 119.20 340.68 127.07 343.58 131.43 349.47 C 140.05 361.05 150.12 371.58 161.55 380.41 C 167.46 384.83 170.60 392.75 168.78 399.97 C 165.69 412.95 162.54 425.91 159.43 438.88 C 170.65 443.69 181.89 448.49 193.11 453.29 C 200.35 442.11 207.49 430.87 214.76 419.71 C 218.79 413.39 226.73 410.10 234.07 411.45 C 247.69 413.53 261.57 413.74 275.24 412.09 C 279.63 411.44 284.27 411.84 288.19 414.03 C 292.29 416.08 295.06 419.89 297.26 423.78 C 303.56 434.17 309.90 444.55 316.23 454.92 C 327.65 450.35 339.07 445.81 350.49 441.23 C 347.65 428.16 344.73 415.10 341.91 402.02 C 340.27 394.77 343.62 386.95 349.61 382.70 C 360.30 374.82 369.94 365.53 378.21 355.14 C 382.56 348.62 390.76 344.67 398.56 346.62 C 411.70 349.75 424.83 352.96 437.97 356.11 C 442.81 344.82 447.63 333.53 452.47 322.24 C 441.36 315.08 430.20 308.02 419.12 300.83 C 413.00 296.88 409.58 289.24 410.77 282.04 C 412.86 268.11 413.29 253.89 411.60 239.89 C 409.85 230.94 415.40 222.15 423.40 218.38 C 433.84 212.02 444.25 205.61 454.68 199.23 C 450.13 187.81 445.56 176.38 440.99 164.96 C 427.90 167.76 414.83 170.67 401.73 173.43 C 394.74 174.84 387.23 171.69 383.12 165.92 C 374.61 154.25 364.53 143.73 353.16 134.82 C 347.21 130.35 344.48 122.26 346.34 115.07 C 349.43 102.15 352.58 89.24 355.67 76.32 C 344.51 71.55 333.35 66.75 322.19 61.97 C 315.17 73.05 308.25 84.19 301.21 95.26 C 297.31 101.55 289.56 105.12 282.23 103.92 C 267.95 101.76 253.37 101.41 239.02 103.18 C 231.83 104.20 224.34 100.60 220.51 94.46 C 213.41 83.00 206.42 71.47 199.37 59.98 C 187.90 64.52 176.47 69.13 165.01 73.68 Z" />
<path d=" M 243.57 156.83 C 263.90 154.39 284.96 158.20 303.05 167.85 C 325.38 179.60 343.00 199.98 351.36 223.80 C 359.59 246.92 359.00 273.03 349.70 295.74 C 340.21 319.22 321.53 338.79 298.59 349.50 C 277.69 359.33 253.39 361.59 231.00 355.99 C 208.38 350.40 187.94 336.64 174.12 317.90 C 161.10 300.47 153.98 278.74 154.17 256.99 C 154.19 232.73 163.37 208.64 179.52 190.54 C 195.79 171.97 219.01 159.62 243.57 156.83 M 246.49 194.71 C 232.11 196.80 218.60 204.10 208.84 214.84 C 199.30 225.22 193.33 238.83 192.34 252.90 C 191.32 266.26 194.70 279.90 201.85 291.24 C 210.08 304.42 223.27 314.44 238.24 318.67 C 252.70 322.83 268.66 321.60 282.28 315.18 C 297.46 308.14 309.64 294.91 315.37 279.17 C 320.51 265.31 320.50 249.63 315.37 235.76 C 310.00 220.97 298.91 208.38 284.93 201.14 C 273.22 195.01 259.56 192.75 246.49 194.71 Z" />
</g>
</svg>
