<?xml version="1.0" encoding="UTF-8" standalone="no"?>
<svg width="66px" height="69px" viewBox="0 0 66 69" version="1.1" xmlns="http://www.w3.org/2000/svg" xmlns:xlink="http://www.w3.org/1999/xlink">
    <!-- Generator: Sketch 39.1 (31720) - http://www.bohemiancoding.com/sketch -->
    <title>Group 3</title>
    <desc>Created with Sketch.</desc>
    <defs>
        <path d="M54,20 C59.5228475,20 64,15.5228475 64,10 C64,6.31287166 62.0044974,3.09181792 59.0345592,1.35790577 C57.5559092,0.494638896 55.8357192,0 54,0 C48.4771525,0 44,4.4771525 44,10 C44,15.5228475 48.4771525,20 54,20 Z" id="path-1"></path>
        <mask id="mask-2" maskContentUnits="userSpaceOnUse" maskUnits="objectBoundingBox" x="-2" y="-2" width="24" height="24">
            <rect x="42" y="-2" width="24" height="24" fill="white"></rect>
            <use xlink:href="#path-1" fill="black"></use>
        </mask>
    </defs>
    <g id="Page-1" stroke="none" stroke-width="1" fill="none" fill-rule="evenodd">
        <g id="Group-3" transform="translate(0.000000, 2.000000)">
            <g id="Group-6">
                <g id="Group-5" transform="translate(0.058480, 3.000000)">
                    <path d="M31.9707602,63.8689602 C49.6277236,63.8689602 63.9415205,49.5714065 63.9415205,31.9344801 C63.9415205,14.2975538 49.6277236,0 31.9707602,0 C14.3137969,0 0,14.2975538 0,31.9344801 C0,49.5714065 14.3137969,63.8689602 31.9707602,63.8689602 Z" id="Oval" fill="#EA4335" opacity="0.900000036"></path>
                    <g id="new-google-favicon" transform="translate(19.812865, 18.929577)" fill="#FFFFFF">
                        <g id="Layer_1">
                            <g id="Group">
                                <path d="M8.67415716,0.690193709 C5.55311411,1.73901748 2.89368229,4.03289658 1.41239255,6.93577012 C0.895663567,7.93722766 0.523618701,8.99958464 0.296257949,10.1025413 C-0.26869907,12.8362497 0.124014955,15.7526564 1.40550283,18.2427671 C2.23915892,19.8667523 3.43797015,21.3148057 4.8848113,22.4448288 C6.25586553,23.5139523 7.84739079,24.3124117 9.54226185,24.7522411 C11.678075,25.3138693 13.9516825,25.3003361 16.101275,24.8199071 C18.044176,24.3800778 19.8837312,23.4665861 21.3512415,22.1403315 C22.9014284,20.7396443 24.0106733,18.8991277 24.5962995,16.9165125 C25.2370434,14.7579655 25.3197201,12.4505532 24.9201163,10.2311067 L12.8631068,10.2311067 L12.8631068,15.143662 L19.8492826,15.143662 C19.5805835,16.7135143 18.6298022,18.1480346 17.2863068,19.0344598 C16.4388713,19.5960881 15.4674208,19.9547181 14.4615217,20.1306499 C13.4556227,20.299815 12.4083853,20.3201148 11.4024862,20.1238832 C10.3759179,19.9208851 9.40446745,19.5013556 8.5501422,18.912661 C7.18597769,17.9721029 6.14563001,16.598482 5.61512159,15.0489295 C5.07083373,13.4723105 5.06394401,11.7197598 5.61512159,10.1499075 C6.0009459,9.04018427 6.63480012,8.01842692 7.47534592,7.1793679 C8.50880389,6.13731073 9.85229924,5.39298418 11.3060301,5.08848695 C12.5461797,4.83135596 13.8552264,4.8787222 15.0678171,5.23735226 C16.101275,5.54184949 17.0520564,6.1034777 17.8305947,6.83427104 C18.6160228,6.06287807 19.4014508,5.2914851 20.1868789,4.52009213 C20.600262,4.10732923 21.0343144,3.70809954 21.4339181,3.28180342 C20.2419966,2.19914662 18.8364938,1.32625458 17.306976,0.771392969 C14.5510881,-0.23006457 11.4507142,-0.250364385 8.67415716,0.690193709 L8.67415716,0.690193709 Z" id="Shape"></path>
                            </g>
                        </g>
                    </g>
                </g>
                <g id="Oval-17-Copy-2">
                    <use fill="#FFFFFF" fill-rule="evenodd" xlink:href="#path-1"></use>
                    <use stroke="#EC5549" mask="url(#mask-2)" stroke-width="4" xlink:href="#path-1"></use>
                </g>
            </g>
            <path d="M52.7911714,12.5272285 L50.7149945,10.4514998 C50.4598612,10.1966652 50.0465581,10.1965158 49.7914247,10.4516492 C49.5361918,10.7068821 49.5361918,11.120235 49.7914247,11.3753684 L52.3294612,13.9130065 C52.457003,14.0403988 52.6240872,14.1041448 52.7911714,14.1041448 C52.9582556,14.1041448 53.125788,14.0403988 53.25328,13.9128073 C53.2536784,13.9122594 58.8507753,8.31496338 58.8507753,8.31496338 C59.1060082,8.05997943 59.1060082,7.64632774 58.8507753,7.39134379 C58.5956917,7.13621044 58.1820898,7.13621044 57.9272553,7.39139359 L52.7911714,12.5272285 Z" id="Shape" stroke="#EC5549" fill="#EC5549"></path>
        </g>
    </g>
</svg>