<?xml version="1.0" encoding="UTF-8" ?>
<!DOCTYPE svg PUBLIC "-//W3C//DTD SVG 1.1//EN" "http://www.w3.org/Graphics/SVG/1.1/DTD/svg11.dtd">
<svg width="117pt" height="116pt" viewBox="0 0 117 116" version="1.1" xmlns="http://www.w3.org/2000/svg">
<g id="#ffffffff">
</g>
<g id="#010101ff">
<path d=" M 23.58 5.63 C 31.22 1.10 40.38 1.03 48.99 0.92 C 57.35 1.05 65.72 0.85 74.09 1.05 C 70.93 2.61 67.87 4.37 64.65 5.81 C 61.74 6.09 58.81 5.85 55.90 5.91 C 66.28 13.41 69.16 29.18 61.99 39.77 C 58.96 44.63 53.15 47.42 51.31 53.05 C 50.16 56.63 52.87 59.69 55.33 61.89 C 60.10 66.00 65.24 69.99 68.51 75.48 C 71.83 82.00 71.92 90.10 68.77 96.70 C 64.66 104.92 56.62 110.68 47.82 112.98 C 39.07 115.22 29.76 115.57 20.93 113.58 C 13.75 111.91 6.76 107.58 3.43 100.82 C -0.18 93.14 3.22 83.68 9.55 78.53 C 18.52 71.35 30.36 69.52 41.52 69.10 C 37.81 64.49 35.59 58.28 38.47 52.64 C 31.63 53.41 24.19 52.52 18.60 48.19 C 13.14 43.79 9.15 37.17 9.12 30.02 C 8.79 19.98 14.93 10.43 23.58 5.63 M 32.26 6.25 C 28.75 7.10 25.56 9.50 24.02 12.80 C 21.23 18.06 21.59 24.37 22.98 29.99 C 24.76 36.35 27.74 42.90 33.36 46.75 C 38.58 50.55 46.53 49.41 50.83 44.75 C 53.59 40.09 53.20 34.36 52.78 29.17 C 51.84 22.81 49.74 16.40 45.75 11.29 C 42.68 7.22 37.25 5.18 32.26 6.25 M 34.53 73.65 C 28.42 74.81 21.57 76.46 17.82 81.88 C 13.52 87.48 14.07 96.09 18.94 101.17 C 24.46 107.23 33.07 109.27 41.00 109.05 C 46.78 108.85 53.09 107.56 57.16 103.12 C 61.60 98.56 62.27 91.04 59.17 85.57 C 56.53 81.07 51.96 78.25 48.03 74.99 C 44.40 71.58 38.94 73.23 34.53 73.65 Z" />
<path d=" M 92.10 2.13 C 94.04 2.14 95.98 2.16 97.93 2.17 C 97.91 8.14 97.94 14.11 97.92 20.07 C 103.77 20.13 109.63 20.00 115.49 20.17 C 115.47 22.06 115.47 23.96 115.49 25.86 C 109.63 26.18 103.76 25.88 97.89 26.05 C 97.95 32.13 97.95 38.22 97.87 44.30 C 95.94 44.29 94.02 44.29 92.09 44.31 C 92.10 38.22 92.05 32.14 92.13 26.06 C 86.20 25.92 80.27 26.06 74.34 25.95 C 74.36 23.99 74.37 22.03 74.39 20.07 C 80.30 20.12 86.20 20.05 92.11 20.12 C 92.08 14.12 92.09 8.13 92.10 2.13 Z" />
</g>
</svg>
