<?xml version="1.0" encoding="UTF-8" ?>
<!DOCTYPE svg PUBLIC "-//W3C//DTD SVG 1.1//EN" "http://www.w3.org/Graphics/SVG/1.1/DTD/svg11.dtd">
<svg width="512pt" height="492pt" viewBox="0 0 512 492" version="1.1" xmlns="http://www.w3.org/2000/svg">
<g id="#babfd2ff">
<path d=" M 49.52 0.00 L 193.18 0.00 C 202.73 0.52 212.08 4.37 219.08 10.91 C 227.41 18.55 232.34 29.73 232.33 41.04 C 232.34 87.36 232.33 133.68 232.33 180.00 C 232.42 190.84 228.04 201.65 220.35 209.31 C 212.71 217.05 201.88 221.47 191.02 221.36 C 144.36 221.35 97.70 221.37 51.04 221.35 C 40.67 221.34 30.40 217.13 22.95 209.93 C 14.88 202.26 10.16 191.19 10.24 180.05 C 10.23 134.02 10.25 87.99 10.24 41.97 C 10.05 31.93 13.59 21.85 20.18 14.26 C 27.43 5.70 38.34 0.51 49.52 0.00 M 51.21 40.97 C 51.20 87.44 51.20 133.92 51.21 180.39 C 97.93 180.40 144.65 180.40 191.37 180.39 C 191.37 133.92 191.39 87.44 191.36 40.97 C 144.64 40.96 97.92 40.95 51.21 40.97 Z" />
<path d=" M 308.64 0.00 L 452.81 0.00 C 461.95 0.57 470.90 4.13 477.75 10.23 C 486.51 17.87 491.76 29.36 491.75 40.98 C 491.76 87.66 491.78 134.33 491.74 181.00 C 491.67 197.61 480.44 213.46 464.73 218.90 C 456.53 222.12 447.60 221.25 438.99 221.36 C 395.99 221.35 353.00 221.38 310.00 221.34 C 293.84 221.27 278.49 210.56 272.64 195.53 C 269.90 189.07 269.44 181.98 269.67 175.04 C 269.68 130.36 269.66 85.68 269.68 41.00 C 269.66 29.96 274.31 19.00 282.32 11.39 C 289.34 4.56 298.89 0.58 308.64 0.00 M 310.63 40.97 C 310.64 87.44 310.62 133.92 310.64 180.39 C 357.36 180.40 404.08 180.40 450.80 180.39 C 450.80 133.92 450.81 87.45 450.80 40.97 C 404.07 40.95 357.35 40.96 310.63 40.97 Z" />
<path d=" M 41.53 259.74 C 44.95 258.87 48.48 258.55 52.00 258.57 C 98.35 258.57 144.70 258.56 191.05 258.57 C 201.44 258.48 211.77 262.56 219.31 269.70 C 227.60 277.42 232.45 288.68 232.33 300.01 C 232.34 345.99 232.33 391.97 232.34 437.96 C 232.44 444.34 231.09 450.73 228.35 456.50 C 221.97 470.37 207.28 479.84 192.01 479.91 C 145.34 479.95 98.67 479.91 52.01 479.93 C 42.17 480.11 32.32 476.59 24.84 470.20 C 15.75 462.58 10.25 450.88 10.25 439.02 C 10.24 392.34 10.22 345.66 10.26 298.98 C 10.24 280.80 23.77 263.73 41.53 259.74 M 51.19 299.54 C 51.22 346.01 51.19 392.49 51.20 438.97 C 97.93 438.97 144.65 438.97 191.37 438.97 C 191.38 392.49 191.38 346.01 191.37 299.54 C 144.64 299.53 97.91 299.53 51.19 299.54 Z" />
<path d=" M 301.43 259.63 C 304.89 258.79 308.46 258.54 312.01 258.56 C 358.33 258.58 404.65 258.55 450.98 258.58 C 462.28 258.59 473.43 263.61 481.00 272.00 C 487.93 279.54 491.85 289.76 491.76 300.00 C 491.76 346.35 491.77 392.71 491.75 439.06 C 491.85 454.80 482.00 470.04 467.56 476.33 C 461.45 479.11 454.70 480.17 448.03 479.94 C 402.67 479.93 357.30 479.93 311.94 479.94 C 305.94 480.07 299.93 478.92 294.43 476.53 C 279.74 470.32 269.57 454.94 269.68 438.98 C 269.67 392.33 269.66 345.68 269.69 299.02 C 269.64 280.66 283.44 263.44 301.43 259.63 M 310.63 299.54 C 310.63 346.01 310.63 392.49 310.64 438.97 C 357.36 438.97 404.08 438.97 450.80 438.97 C 450.80 392.49 450.81 346.01 450.80 299.53 C 404.08 299.53 357.36 299.53 310.63 299.54 Z" />
</g>
</svg>
