<?xml version="1.0" encoding="UTF-8" standalone="no"?>
<svg width="32px" height="21px" viewBox="0 0 32 21" version="1.1" xmlns="http://www.w3.org/2000/svg" xmlns:xlink="http://www.w3.org/1999/xlink">
    <!-- Generator: Sketch 39 (31667) - http://www.bohemiancoding.com/sketch -->
    <title>Outline</title>
    <desc>Created with Sketch.</desc>
    <defs></defs>
    <g id="Settings" stroke="none" stroke-width="1" fill-rule="evenodd">
        <g id="Member-Invite" transform="translate(-421.000000, -449.000000)" >
            <g id="Group-13" transform="translate(421.000000, 434.000000)">
                <g id="Outline" transform="translate(0.000000, 15.000000)">
                    <path d="M2.28750894,11.9817025 L2.28750894,11.9817025 L2.28223484,8.38050705 C2.32538279,8.43509509 2.42658486,8.55902216 2.58165726,8.74220038 C2.85058625,9.05987092 3.16532688,9.41707954 3.52155633,9.80369083 C4.54346665,10.9127571 5.68254827,12.0227524 6.90061165,13.0520546 C10.1472311,15.7955511 13.3096707,17.4159314 15.951487,17.4538656 C15.9987864,17.4544321 15.9987864,17.4544321 16.0459207,17.4545455 C18.7012519,17.4545455 21.8786743,15.8336453 25.1369333,13.0591595 C26.3443743,12.0309946 27.4722924,10.9221285 28.4831572,9.81420093 C28.8355167,9.42800807 29.1466755,9.0712111 29.412397,8.75394804 C29.56553,8.57111209 29.6653428,8.44752079 29.7077393,8.39326415 L29.7121144,11.981223 C29.6693482,11.9267676 29.5688587,11.8029396 29.4147841,11.6198334 C29.1475099,11.302198 28.8346182,10.9450066 28.4803871,10.5584012 C27.4641868,9.44932738 26.3308766,8.3393218 25.1183064,7.31006026 C21.8458664,4.53232697 18.6584664,2.90909091 16.0017259,2.90909091 C15.9999367,2.90909107 15.9999367,2.90909107 15.9981474,2.90909189 C13.3419232,2.91054998 10.1550953,4.53377435 6.88310472,7.31032739 C5.67013529,8.33963167 4.53640555,9.44967968 3.5197902,10.5587963 C3.16541362,10.9454174 2.85238732,11.3026243 2.58499261,11.620275 C2.43084508,11.803394 2.33030334,11.9272346 2.28750894,11.9817025 L2.28750894,11.9817025 Z M0,10.1844511 C0,10.1844511 8.00172588,0 16.0017259,0 C24.0017259,0 32,10.1844511 32,10.1844511 C32,10.1844511 24.0459207,20.3636364 16.0459207,20.3636364 C8.0459207,20.3636364 0,10.1844511 0,10.1844511 L0,10.1844511 Z M16,14.5454545 C18.4099698,14.5454545 20.3636364,12.591788 20.3636364,10.1818182 C20.3636364,7.77184836 18.4099698,5.81818182 16,5.81818182 C13.5900302,5.81818182 11.6363636,7.77184836 11.6363636,10.1818182 C11.6363636,12.591788 13.5900302,14.5454545 16,14.5454545 Z" id="Shape"></path>
                </g>
            </g>
        </g>
    </g>
</svg>
