<?xml version="1.0" encoding="UTF-8" standalone="no"?>
<svg width="13px" height="53px" viewBox="0 0 13 53" version="1.1" xmlns="http://www.w3.org/2000/svg" xmlns:xlink="http://www.w3.org/1999/xlink" xmlns:sketch="http://www.bohemiancoding.com/sketch/ns">
    <!-- Generator: Sketch 3.3.3 (12081) - http://www.bohemiancoding.com/sketch -->
    <title>Group Copy 3</title>
    <desc>Created with Sketch.</desc>
    <defs></defs>
    <g id="Listview" stroke="none" stroke-width="1" fill-rule="evenodd" sketch:type="MSPage">
        <g id="List-View-" sketch:type="MSArtboardGroup" transform="translate(-930.000000, -408.000000)">
            <g id="Group-Copy-3" sketch:type="MSLayerGroup" transform="translate(930.000000, 408.000000)">
                <rect id="Rectangle-121" sketch:type="MSShapeGroup" x="0" y="0" width="2.6" height="2.5"></rect>
                <rect id="Rectangle-121-Copy" sketch:type="MSShapeGroup" x="5.2" y="0" width="2.6" height="2.5"></rect>
                <rect id="Rectangle-121-Copy-2" sketch:type="MSShapeGroup" x="10.4" y="0" width="2.6" height="2.5"></rect>
                <rect id="Rectangle-121-Copy-5" sketch:type="MSShapeGroup" x="0" y="5" width="2.6" height="2.5"></rect>
                <rect id="Rectangle-121-Copy-3" sketch:type="MSShapeGroup" x="5.2" y="5" width="2.6" height="2.5"></rect>
                <rect id="Rectangle-121-Copy-4" sketch:type="MSShapeGroup" x="10.4" y="5" width="2.6" height="2.5"></rect>
                <rect id="Rectangle-121-Copy-8" sketch:type="MSShapeGroup" x="0" y="10" width="2.6" height="2.5"></rect>
                <rect id="Rectangle-121-Copy-6" sketch:type="MSShapeGroup" x="5.2" y="10" width="2.6" height="2.5"></rect>
                <rect id="Rectangle-121-Copy-7" sketch:type="MSShapeGroup" x="10.4" y="10" width="2.6" height="2.5"></rect>
                <rect id="Rectangle-121-Copy-11" sketch:type="MSShapeGroup" x="0" y="15" width="2.6" height="2.5"></rect>
                <rect id="Rectangle-121-Copy-9" sketch:type="MSShapeGroup" x="5.2" y="15" width="2.6" height="2.5"></rect>
                <rect id="Rectangle-121-Copy-10" sketch:type="MSShapeGroup" x="10.4" y="15" width="2.6" height="2.5"></rect>
                <rect id="Rectangle-121-Copy-14" sketch:type="MSShapeGroup" x="0" y="20" width="2.6" height="2.5"></rect>
                <rect id="Rectangle-121-Copy-12" sketch:type="MSShapeGroup" x="5.2" y="20" width="2.6" height="2.5"></rect>
                <rect id="Rectangle-121-Copy-13" sketch:type="MSShapeGroup" x="10.4" y="20" width="2.6" height="2.5"></rect>
                <rect id="Rectangle-121-Copy-17" sketch:type="MSShapeGroup" x="0" y="25" width="2.6" height="2.5"></rect>
                <rect id="Rectangle-121-Copy-15" sketch:type="MSShapeGroup" x="5.2" y="25" width="2.6" height="2.5"></rect>
                <rect id="Rectangle-121-Copy-16" sketch:type="MSShapeGroup" x="10.4" y="25" width="2.6" height="2.5"></rect>
                <rect id="Rectangle-121-Copy-20" sketch:type="MSShapeGroup" x="0" y="30" width="2.6" height="2.5"></rect>
                <rect id="Rectangle-121-Copy-18" sketch:type="MSShapeGroup" x="5.2" y="30" width="2.6" height="2.5"></rect>
                <rect id="Rectangle-121-Copy-19" sketch:type="MSShapeGroup" x="10.4" y="30" width="2.6" height="2.5"></rect>
                <rect id="Rectangle-121-Copy-23" sketch:type="MSShapeGroup" x="0" y="35" width="2.6" height="2.5"></rect>
                <rect id="Rectangle-121-Copy-21" sketch:type="MSShapeGroup" x="5.2" y="35" width="2.6" height="2.5"></rect>
                <rect id="Rectangle-121-Copy-22" sketch:type="MSShapeGroup" x="10.4" y="35" width="2.6" height="2.5"></rect>
                <rect id="Rectangle-121-Copy-26" sketch:type="MSShapeGroup" x="0" y="45" width="2.6" height="2.5"></rect>
                <rect id="Rectangle-121-Copy-24" sketch:type="MSShapeGroup" x="5.2" y="45" width="2.6" height="2.5"></rect>
                <rect id="Rectangle-121-Copy-25" sketch:type="MSShapeGroup" x="10.4" y="45" width="2.6" height="2.5"></rect>
                <rect id="Rectangle-121-Copy-29" sketch:type="MSShapeGroup" x="0" y="40" width="2.6" height="2.5"></rect>
                <rect id="Rectangle-121-Copy-27" sketch:type="MSShapeGroup" x="5.2" y="40" width="2.6" height="2.5"></rect>
                <rect id="Rectangle-121-Copy-28" sketch:type="MSShapeGroup" x="10.4" y="40" width="2.6" height="2.5"></rect>
                <rect id="Rectangle-121-Copy-32" sketch:type="MSShapeGroup" x="0" y="50" width="2.6" height="2.5"></rect>
                <rect id="Rectangle-121-Copy-30" sketch:type="MSShapeGroup" x="5.2" y="50" width="2.6" height="2.5"></rect>
                <rect id="Rectangle-121-Copy-31" sketch:type="MSShapeGroup" x="10.4" y="50" width="2.6" height="2.5"></rect>
            </g>
        </g>
    </g>
</svg>