<?xml version="1.0" encoding="UTF-8" standalone="no"?>
<svg width="20px" height="22px" viewBox="0 0 20 22" version="1.1" xmlns="http://www.w3.org/2000/svg" xmlns:xlink="http://www.w3.org/1999/xlink" xmlns:sketch="http://www.bohemiancoding.com/sketch/ns">
    <!-- Generator: Sketch 3.4.3 (16044) - http://www.bohemiancoding.com/sketch -->
    <title>Fill 1</title>
    <desc>Created with Sketch.</desc>
    <defs></defs>
    <g id="Page-1" stroke="none" stroke-width="1" sketch:type="MSPage">
        <g id="Board-View" sketch:type="MSArtboardGroup" transform="translate(-1222.000000, -106.000000)" stroke="#FFFFFF">
            <g id="Page-1" sketch:type="MSLayerGroup" transform="translate(1223.000000, 107.000000)">
                <path d="M10.5208578,11.666618 L7.1875139,11.666618 L7.47914218,8.33327405 L10.8124861,8.33327405 L10.5208578,11.666618 Z M16.3562821,8.33327405 C17.2640402,8.33327405 18,7.59737141 18,6.68955616 L18,6.64370518 C18,5.73588993 17.2640402,4.9999873 16.3562821,4.9999873 L14.4374583,4.9999873 L14.71851,1.78693075 C14.8026083,0.826289678 14.0454381,0 13.0810809,0 L13.0477503,0 C12.1954479,0 11.4845861,0.651404179 11.4102641,1.50044784 L11.1041144,4.9999873 L7.77077047,4.9999873 L8.05187933,1.78693075 C8.13592042,0.826289678 7.37875025,0 6.41445024,0 L6.38111966,0 C5.52881726,0 4.81789827,0.651404179 4.7436334,1.50044784 L4.43748372,4.9999873 L1.64371788,4.9999873 C0.735959803,4.9999873 0,5.73588993 0,6.64370518 L0,6.68955616 C0,7.59737141 0.735959803,8.33327405 1.64371788,8.33327405 L4.14585543,8.33327405 L3.85422715,11.666618 L1.64371788,11.666618 C0.735959803,11.666618 0,12.4025206 0,13.3103358 L0,13.356244 C0,14.2640021 0.735959803,14.9999619 1.64371788,14.9999619 L3.56259886,14.9999619 L3.28149,18.2129613 C3.19744891,19.1736023 3.95461908,19.9999492 4.91891909,19.9999492 L4.95224967,19.9999492 C5.80455207,19.9999492 6.51547106,19.3484878 6.58973593,18.4994442 L6.89588561,14.9999619 L10.2292295,14.9999619 L9.94812067,18.2129613 C9.86407958,19.1736023 10.6212498,19.9999492 11.5856069,19.9999492 L11.6189375,19.9999492 C12.4711827,19.9999492 13.1821017,19.3484878 13.2563666,18.4994442 L13.5625734,14.9999619 L16.3562821,14.9999619 C17.2640402,14.9999619 18,14.2640021 18,13.356244 L18,13.3103358 C18,12.4025206 17.2640402,11.666618 16.3562821,11.666618 L13.8542017,11.666618 L14.14583,8.33327405 L16.3562821,8.33327405 Z" id="Fill-1" sketch:type="MSShapeGroup"></path>
            </g>
        </g>
    </g>
</svg>
