<?xml version="1.0" encoding="utf-8"?>
<!-- Generator: Adobe Illustrator 18.1.0, SVG Export Plug-In . SVG Version: 6.00 Build 0)  -->
<svg version="1.1" id="Layer_1" xmlns="http://www.w3.org/2000/svg" xmlns:xlink="http://www.w3.org/1999/xlink" x="0px" y="0px"
	 viewBox="0 0 81.9 71" enable-background="new 0 0 81.9 71" xml:space="preserve">
<g>
	<path d="M21.8,38.6v26.3c0,1.6,1.3,2.8,2.8,2.8c1.6,0,2.8-1.3,2.8-2.8V38.6c0-1.6-1.3-2.8-2.8-2.8C23,35.7,21.8,37,21.8,38.6
		L21.8,38.6z M21.8,38.6"/>
	<path d="M11.1,67.7h6.2V36.5c0-0.1,0-0.3,0-0.4c0-13.5,10.9-24.4,24.2-24.4c13.3,0,24.2,10.9,24.2,24.4c0,0.2,0,0.4,0.1,0.6v31H72
		c4.3,0,7.9-3.6,7.9-8.1V43.3c0-3.7-2.4-6.8-5.7-7.8C73.9,17.6,59.4,3.2,41.5,3.2C23.7,3.2,9.2,17.6,8.9,35.5
		c-3.3,1-5.7,4.1-5.7,7.8v16.3C3.2,64,6.7,67.7,11.1,67.7L11.1,67.7z M11.1,67.7"/>
	<path d="M55.7,38.6v26.3c0,1.6,1.3,2.8,2.8,2.8c1.6,0,2.8-1.3,2.8-2.8V38.6c0-1.6-1.3-2.8-2.8-2.8C57,35.7,55.7,37,55.7,38.6
		L55.7,38.6z M55.7,38.6"/>
</g>
</svg>
