<?xml version="1.0" encoding="UTF-8" standalone="no"?>
<svg width="127px" height="103px" viewBox="0 0 127 103" version="1.1" xmlns="http://www.w3.org/2000/svg" xmlns:xlink="http://www.w3.org/1999/xlink" xmlns:sketch="http://www.bohemiancoding.com/sketch/ns">
    <!-- Generator: Sketch 3.3.3 (12081) - http://www.bohemiancoding.com/sketch -->
    <title>Picture</title>
    <desc>Created with Sketch.</desc>
    <defs></defs>
    <g id="Cardview" stroke="none" stroke-width="1" fill-rule="evenodd" sketch:type="MSPage">
        <path d="M0,6.05858239 C0,2.71251973 2.71133007,0 6.04003589,0 L120.959964,0 C124.295784,0 127,2.70205701 127,6.05858239 L127,96.9414176 C127,100.28748 124.28867,103 120.959964,103 L6.04003589,103 C2.70421618,103 0,100.297943 0,96.9414176 L0,6.05858239 Z M12.0952381,12.1176471 L114.904762,12.1176471 L114.904762,90.8823529 L12.0952381,90.8823529 L12.0952381,12.1176471 Z M50.7972394,68.5469238 C47.9408984,66.7973098 44.420113,65.6372549 40.1052632,65.6372549 C22.5575009,65.6372549 18.1428571,84.8235294 18.1428571,84.8235294 L52.9166667,84.8235294 L108.857143,84.8235294 C108.857143,84.8235294 102.02116,53.5196078 76.3114035,53.5196078 C63.7986177,53.5196078 55.7564836,60.9346023 50.7972394,68.5469238 L50.7972394,68.5469238 Z M40.8214286,48.4705882 C46.6664422,48.4705882 51.4047619,43.7234898 51.4047619,37.8676471 C51.4047619,32.0118043 46.6664422,27.2647059 40.8214286,27.2647059 C34.976415,27.2647059 30.2380952,32.0118043 30.2380952,37.8676471 C30.2380952,43.7234898 34.976415,48.4705882 40.8214286,48.4705882 Z" id="Picture" sketch:type="MSShapeGroup"></path>
    </g>
</svg>
