<?xml version="1.0" encoding="UTF-8" standalone="no"?>
<svg width="9px" height="12px" viewBox="0 0 9 12" version="1.1" xmlns="http://www.w3.org/2000/svg" xmlns:xlink="http://www.w3.org/1999/xlink" xmlns:sketch="http://www.bohemiancoding.com/sketch/ns">
    <!-- Generator: Sketch 3.3.3 (12081) - http://www.bohemiancoding.com/sketch -->
    <title>I</title>
    <desc>Created with Sketch.</desc>
    <defs></defs>
    <g id="New-Card" stroke="none" stroke-width="1" fill-rule="evenodd" sketch:type="MSPage">
        <g id="Card-View-Copy" sketch:type="MSArtboardGroup" transform="translate(-452.000000, -346.000000)">
            <g id="FormattingBar" sketch:type="MSLayerGroup" transform="translate(403.000000, 332.000000)">
                <g id="TextButtons" transform="translate(0.302595, 0.685092)" sketch:type="MSShapeGroup">
                    <g id="Italic" transform="translate(48.823021, 13.631910)">
                        <path d="M3.33296551,0.759603478 L3.41618781,0.475269413 L8.42465668,0.475269413 L8.32630306,0.759603478 C7.87236101,0.759603478 7.52560493,0.862065179 7.2860244,1.06699166 C7.04644388,1.27191813 6.83586837,1.69969574 6.65429155,2.3503373 L4.77800714,9.02066076 C4.64182452,9.49199165 4.57373424,9.80706139 4.57373424,9.96587941 C4.57373424,10.1503132 4.64434639,10.2937596 4.7855728,10.3962229 C4.96714962,10.5294251 5.31012291,10.6011483 5.81450296,10.6113946 L5.73884633,10.8957286 L0.647155169,10.8957286 L0.730377461,10.6113946 C1.23980131,10.6113946 1.61303695,10.5127752 1.85009558,10.3155335 C2.0871542,10.1182917 2.30151251,9.68667181 2.49317693,9.02066076 L4.38459266,2.3503373 C4.50060008,1.94048435 4.55860291,1.6305377 4.55860291,1.42048806 C4.55860291,1.23093107 4.48799076,1.0823616 4.34676435,0.974775203 C4.20553793,0.867188802 3.86760837,0.795465611 3.33296551,0.759603478 L3.33296551,0.759603478 Z" id="I"></path>
                    </g>
                </g>
            </g>
        </g>
    </g>
</svg>