<?xml version="1.0" encoding="UTF-8" standalone="no"?>
<svg width="16px" height="28px" viewBox="0 0 16 28" version="1.1" xmlns="http://www.w3.org/2000/svg" xmlns:xlink="http://www.w3.org/1999/xlink" xmlns:sketch="http://www.bohemiancoding.com/sketch/ns">
    <!-- Generator: Sketch 3.3.3 (12081) - http://www.bohemiancoding.com/sketch -->
    <title>Fill 31 Copy</title>
    <desc>Created with Sketch.</desc>
    <defs></defs>
    <g id="Boards" stroke-width="1" fill-rule="evenodd" sketch:type="MSPage">
        <g id="My-Boards" sketch:type="MSArtboardGroup" transform="translate(-688.000000, -300.000000)">
            <path d="M695.999867,303.817638 C695.204737,303.817638 694.458137,304.126411 693.89872,304.686361 C692.74149,305.841992 692.74149,307.725024 693.898187,308.882788 C694.461337,309.447005 695.206871,309.757377 695.997734,309.757377 L696.000933,309.757377 C696.799796,309.749911 697.545329,309.439539 698.101547,308.882788 C699.258777,307.725024 699.258777,305.841992 698.101547,304.686361 C697.541063,304.126411 696.795529,303.817638 695.999867,303.817638 L695.999867,303.817638 Z M697.53573,308.317505 C697.129366,308.724402 696.581682,308.951582 695.9956,308.957448 C695.420185,308.956915 694.8757,308.729735 694.46507,308.317505 C693.619812,307.471714 693.619812,306.096369 694.46507,305.252178 C694.873567,304.842614 695.418585,304.617567 695.999867,304.617567 C696.581682,304.617567 697.127233,304.843147 697.53573,305.252178 C698.381522,306.096369 698.381522,307.471714 697.53573,308.317505 L697.53573,308.317505 Z M701.306595,302.82626 C698.381522,299.90172 693.620878,299.900653 690.692605,302.82626 C687.769132,305.749733 687.769132,310.508244 690.692605,313.43385 C691.003511,313.744756 691.319749,314.011399 691.726113,314.296174 C691.808773,314.342036 691.890899,314.391632 691.967692,314.45296 C692.642832,314.965448 693.029464,315.741379 693.029464,316.581837 L693.029464,324.400875 C693.029464,326.036463 694.361079,327.367545 695.997734,327.367545 C696.732068,327.367545 697.436006,327.100369 697.987957,326.607079 L698.106879,326.493489 C698.6295,325.971403 698.921207,325.282397 698.955871,324.543796 L699.393698,323.985979 C699.559017,323.793463 699.571816,323.454826 699.571816,323.355102 L699.571816,323.001 C699.571816,322.899676 699.559017,322.554106 699.405431,322.383988 L699.106791,322.004289 L699.724336,321.564328 C699.748867,321.546729 699.772331,321.525398 699.793129,321.502466 C699.960048,321.311017 699.97338,320.969181 699.97338,320.868923 L699.97338,320.514821 C699.97338,320.414563 699.960048,320.073793 699.793129,319.882344 C699.772331,319.858879 699.748867,319.838081 699.724336,319.820483 L699.154786,319.414652 L699.450227,319.077615 C699.616079,318.887232 699.628877,318.544863 699.628877,318.444072 L699.628877,318.08997 C699.628877,317.991845 699.617145,317.655342 699.44916,317.456426 L698.970269,316.909275 L698.970269,316.581837 C698.970269,315.739779 699.356902,314.963848 700.026709,314.456159 C700.115234,314.391099 700.204293,314.333504 700.346147,314.241245 C700.68905,314.0002 701.011688,313.728224 701.306595,313.43385 C704.231135,310.508244 704.231135,305.749733 701.306595,302.82626 L701.306595,302.82626 Z M700.740779,312.868034 C700.478402,313.130411 700.190961,313.371989 699.89552,313.580504 C699.7526,313.673296 699.652875,313.738357 699.548351,313.81515 C698.672162,314.479091 698.17034,315.487001 698.17034,316.581837 L698.17034,317.014332 C698.17034,317.057528 698.182073,317.096991 698.194338,317.135921 C698.205537,317.208448 698.229535,317.279375 698.281797,317.33857 L698.81295,317.943316 C698.820416,317.975313 698.829482,318.031842 698.829482,318.08997 L698.829482,318.444072 C698.829482,318.503266 698.821483,318.558195 698.813483,318.590725 L698.281797,319.198138 C698.228469,319.258933 698.203937,319.332526 698.193805,319.407719 C698.192205,319.413052 698.193272,319.417852 698.192205,319.423185 C698.189005,319.453049 698.185806,319.481313 698.189005,319.511177 C698.193805,319.631699 698.245,319.748489 698.350591,319.823682 L699.162786,320.402831 C699.168652,320.434295 699.173451,320.474291 699.173451,320.514821 L699.173451,320.868923 C699.173451,320.909986 699.168652,320.949982 699.162786,320.981979 L698.350591,321.561128 C698.231135,321.64592 698.179406,321.784575 698.191139,321.920563 C698.17354,322.02722 698.195938,322.140276 698.267932,322.232002 L698.754289,322.849013 C698.762288,322.879944 698.77242,322.939139 698.77242,323.001 L698.77242,323.355102 C698.77242,323.415896 698.762288,323.475091 698.754289,323.506022 L698.267932,324.124633 C698.2466,324.151298 698.237001,324.182228 698.223669,324.212626 C698.21407,324.229691 698.204471,324.245156 698.198071,324.263821 C698.197538,324.266487 698.196471,324.269154 698.195938,324.27182 C698.182073,324.312883 698.17034,324.355013 698.17034,324.400875 C698.17034,324.980557 697.947427,325.522909 697.548529,325.92074 L697.445605,326.018865 C697.049373,326.372434 696.535819,326.567616 695.997734,326.567616 C694.801573,326.567616 693.829926,325.595436 693.829926,324.400875 L693.829926,316.581837 C693.829926,315.489134 693.328104,314.481224 692.457248,313.819949 C692.353257,313.73729 692.234335,313.663697 692.152209,313.6205 C691.821038,313.385321 691.536263,313.146409 691.258421,312.868034 C688.646387,310.254933 688.646387,306.004111 691.258421,303.392076 C693.873656,300.778975 698.127678,300.777909 700.740779,303.392076 C703.353346,306.004111 703.353346,310.254933 700.740779,312.868034 L700.740779,312.868034 Z" id="Fill-31-Copy" sketch:type="MSShapeGroup"></path>
        </g>
    </g>
</svg>