<?xml version="1.0" encoding="utf-8"?>
<!-- Generator: Adobe Illustrator 18.1.0, SVG Export Plug-In . SVG Version: 6.00 Build 0)  -->
<svg version="1.1" id="Layer_1" xmlns="http://www.w3.org/2000/svg" xmlns:xlink="http://www.w3.org/1999/xlink" x="0px" y="0px"
	 viewBox="0 0 81.9 71" enable-background="new 0 0 81.9 71" xml:space="preserve">
<path d="M68.1,32.4L56.3,44.2c-6.5,6.5-17,6.5-23.5,0c-1-1-1.8-2.2-2.5-3.4l5.5-5.5c0.3-0.3,0.6-0.4,0.9-0.6
	c0.4,1.3,1,2.5,2.1,3.5c3.2,3.2,8.5,3.2,11.8,0l11.8-11.8c3.2-3.2,3.2-8.5,0-11.8c-3.2-3.2-8.5-3.2-11.8,0L46.2,19
	c-3.4-1.3-7.1-1.7-10.6-1.2l8.9-8.9c6.5-6.5,17-6.5,23.5,0C74.6,15.4,74.6,25.9,68.1,32.4L68.1,32.4z M36.9,51.8L32.7,56
	c-3.2,3.2-8.5,3.2-11.8,0c-3.2-3.2-3.2-8.5,0-11.8l11.8-11.8c3.2-3.2,8.5-3.2,11.8,0c1,1,1.7,2.2,2.1,3.5c0.3-0.2,0.6-0.3,0.9-0.6
	l5.5-5.5c-0.7-1.2-1.5-2.3-2.5-3.4c-6.5-6.5-17-6.5-23.5,0L15.1,38.3c-6.5,6.5-6.5,17,0,23.5c6.5,6.5,17,6.5,23.5,0l8.9-8.9
	C44,53.5,40.3,53.1,36.9,51.8L36.9,51.8z M36.9,51.8"/>
</svg>
