<?xml version="1.0" encoding="UTF-8" ?>
<!DOCTYPE svg PUBLIC "-//W3C//DTD SVG 1.1//EN" "http://www.w3.org/Graphics/SVG/1.1/DTD/svg11.dtd">
<svg width="512pt" height="348pt" viewBox="0 0 512 348" version="1.1" xmlns="http://www.w3.org/2000/svg">
<g id="#babfd2ff">
<path d=" M 27.68 0.00 L 30.52 0.00 C 43.93 -0.04 56.38 10.49 58.38 23.78 C 60.11 33.41 56.48 43.77 49.07 50.17 C 38.18 59.91 19.90 59.73 9.24 49.72 C 3.82 44.82 0.61 37.79 0.00 30.55 L 0.00 27.77 C 0.16 13.10 13.03 0.23 27.68 0.00 Z" />
<path d=" M 146.70 0.00 L 465.08 0.00 C 479.90 0.06 493.09 13.16 493.01 28.02 C 493.76 43.32 480.29 57.33 465.00 57.27 C 359.67 57.36 254.34 57.27 149.01 57.31 C 140.75 57.61 132.39 54.37 126.74 48.28 C 120.09 41.34 117.44 30.92 119.85 21.63 C 122.74 9.51 134.26 0.30 146.70 0.00 Z" />
<path d=" M 11.85 147.74 C 19.19 142.32 29.05 141.06 37.76 143.33 C 47.55 145.92 55.61 154.12 57.94 163.99 C 60.35 173.36 57.59 183.85 50.83 190.77 C 40.70 201.61 22.17 202.58 10.73 193.28 C 4.43 188.33 0.58 180.63 0.00 172.68 L 0.00 170.40 C 0.15 161.54 4.62 152.88 11.85 147.74 Z" />
<path d=" M 146.27 142.34 C 251.17 142.20 356.09 142.33 460.99 142.28 C 466.65 142.07 472.49 142.78 477.54 145.50 C 488.80 151.07 495.21 164.60 492.41 176.85 C 489.88 189.89 477.31 199.94 464.03 199.58 C 358.37 199.58 252.71 199.63 147.05 199.56 C 132.34 199.62 119.16 186.73 119.00 172.00 C 118.04 156.83 131.09 142.69 146.27 142.34 Z" />
<path d=" M 13.11 289.16 C 20.26 284.46 29.44 283.51 37.64 285.58 C 47.42 288.13 55.49 296.25 57.89 306.08 C 60.43 315.67 57.53 326.48 50.44 333.45 C 40.18 343.99 21.82 344.75 10.54 335.41 C 4.20 330.33 0.36 322.44 0.00 314.35 L 0.00 312.56 C 0.19 303.22 5.21 294.16 13.11 289.16 Z" />
<path d=" M 142.11 285.12 C 145.05 284.55 148.05 284.54 151.02 284.56 C 255.34 284.58 359.66 284.55 463.98 284.57 C 476.72 284.22 488.94 293.36 492.04 305.74 C 494.47 314.56 492.34 324.48 486.43 331.47 C 481.01 338.08 472.54 341.98 464.00 341.87 C 358.66 341.88 253.32 341.88 147.98 341.86 C 138.97 342.00 130.03 337.64 124.68 330.39 C 117.84 321.48 117.10 308.47 122.86 298.84 C 126.94 291.80 134.12 286.66 142.11 285.12 Z" />
</g>
</svg>
