<?xml version="1.0" encoding="UTF-8" standalone="no"?>
<svg width="16px" height="13px" viewBox="0 0 16 13" version="1.1" xmlns="http://www.w3.org/2000/svg" xmlns:xlink="http://www.w3.org/1999/xlink" xmlns:sketch="http://www.bohemiancoding.com/sketch/ns">
    <!-- Generator: Sketch 3.3.3 (12081) - http://www.bohemiancoding.com/sketch -->
    <title>Menu</title>
    <desc>Created with Sketch.</desc>
    <defs></defs>
    <g id="Cardview" stroke="none" stroke-width="1" fill-rule="evenodd" sketch:type="MSPage">
        <g id="Card-View-(Board-Files)" sketch:type="MSArtboardGroup" transform="translate(-1237.000000, -34.000000)">
            <g id="Header" sketch:type="MSLayerGroup" transform="translate(219.000000, 0.000000)">
                <g id="Side-Bar" transform="translate(1008.000000, 23.000000)" sketch:type="MSShapeGroup">
                    <path d="M10,11.9411765 C10,11.4213791 10.4279613,11 10.941139,11 L25.058861,11 C25.5786377,11 26,11.4177551 26,11.9411765 C26,12.4609739 25.5720387,12.8823529 25.058861,12.8823529 L10.941139,12.8823529 C10.4213623,12.8823529 10,12.4645978 10,11.9411765 Z M10,17.1764706 C10,16.6566732 10.4279613,16.2352941 10.941139,16.2352941 L25.058861,16.2352941 C25.5786377,16.2352941 26,16.6530492 26,17.1764706 C26,17.696268 25.5720387,18.1176471 25.058861,18.1176471 L10.941139,18.1176471 C10.4213623,18.1176471 10,17.6998919 10,17.1764706 Z M10,22.4117647 C10,21.8919673 10.4279613,21.4705882 10.941139,21.4705882 L25.058861,21.4705882 C25.5786377,21.4705882 26,21.8883434 26,22.4117647 C26,22.9315621 25.5720387,23.3529412 25.058861,23.3529412 L10.941139,23.3529412 C10.4213623,23.3529412 10,22.935186 10,22.4117647 Z" id="Menu"></path>
                </g>
            </g>
        </g>
    </g>
</svg>
