<?xml version="1.0" encoding="UTF-8" ?>
<!DOCTYPE svg PUBLIC "-//W3C//DTD SVG 1.1//EN" "http://www.w3.org/Graphics/SVG/1.1/DTD/svg11.dtd">
<svg width="98pt" height="96pt" viewBox="0 0 98 96" version="1.1" xmlns="http://www.w3.org/2000/svg">
<g id="#ffffffff">
<path opacity="0.70" d=" M 46.41 0.00 L 54.63 0.00 C 70.27 1.45 84.58 11.47 91.74 25.38 C 96.92 34.86 98.13 46.06 96.42 56.61 C 93.50 72.65 82.01 86.92 66.73 92.76 C 55.67 97.16 42.90 96.84 32.07 91.91 C 30.26 91.21 28.25 89.81 26.28 90.84 C 19.97 93.86 13.04 95.14 6.15 96.00 L 2.40 96.00 C 0.87 95.08 0.89 93.46 0.97 91.89 C 7.79 83.48 8.15 71.61 5.59 61.51 C 1.77 48.85 3.38 34.63 10.21 23.26 C 17.72 10.40 31.48 1.23 46.41 0.00 M 26.50 42.07 C 21.50 44.00 21.00 51.84 25.95 54.12 C 30.42 57.03 36.75 52.15 35.44 47.09 C 34.93 42.95 30.26 40.74 26.50 42.07 M 46.27 42.10 C 44.65 42.74 43.38 44.06 42.82 45.71 C 40.61 49.84 44.60 55.29 49.09 55.03 C 53.51 55.15 57.38 49.77 55.18 45.70 C 54.04 42.13 49.56 40.74 46.27 42.10 M 66.49 42.07 C 64.52 43.08 62.79 44.86 62.54 47.15 C 61.36 51.92 67.05 56.71 71.48 54.38 C 74.67 53.22 76.42 49.31 75.21 46.14 C 74.19 42.49 69.91 40.92 66.49 42.07 Z" />
</g>
<g id="#000000ff">
<path opacity="1.00" d=" M 46.27 42.10 C 49.56 40.74 54.04 42.13 55.18 45.70 C 57.38 49.77 53.51 55.15 49.09 55.03 C 44.60 55.29 40.61 49.84 42.82 45.71 C 43.38 44.06 44.65 42.74 46.27 42.10 Z" />
</g>
</svg>
