<?xml version="1.0" encoding="UTF-8" ?>
<!DOCTYPE svg PUBLIC "-//W3C//DTD SVG 1.1//EN" "http://www.w3.org/Graphics/SVG/1.1/DTD/svg11.dtd">
<svg width="98pt" height="96pt" viewBox="0 0 98 96" version="1.1" xmlns="http://www.w3.org/2000/svg">
<g id="#ffffffff">
<path opacity="0.70" d=" M 46.51 0.00 L 54.52 0.00 C 70.21 1.39 84.58 11.45 91.75 25.40 C 96.91 34.86 98.12 46.05 96.42 56.59 C 93.72 71.36 83.82 84.66 70.27 91.21 C 58.68 96.98 44.61 97.42 32.75 92.20 C 30.71 91.48 28.54 89.76 26.32 90.82 C 19.97 93.85 13.00 95.17 6.07 96.00 L 2.40 96.00 C 0.87 95.08 0.90 93.45 0.97 91.89 C 7.78 83.49 8.15 71.63 5.60 61.55 C 1.84 49.09 3.31 35.13 9.87 23.86 C 17.33 10.67 31.31 1.19 46.51 0.00 M 26.50 42.07 C 21.51 43.99 20.99 51.82 25.93 54.11 C 30.40 57.04 36.76 52.16 35.44 47.09 C 34.92 42.95 30.26 40.74 26.50 42.07 M 46.50 42.07 C 41.52 43.99 40.99 51.80 45.91 54.10 C 50.39 57.05 56.77 52.16 55.45 47.08 C 54.92 42.94 50.26 40.75 46.50 42.07 M 66.29 42.09 C 64.68 42.74 63.39 44.04 62.82 45.69 C 60.63 49.75 64.46 55.13 68.89 55.03 C 73.41 55.31 77.42 49.80 75.17 45.67 C 74.01 42.12 69.56 40.75 66.29 42.09 Z" />
</g>
<g id="#000000ff">
<path opacity="1.00" d=" M 66.29 42.09 C 69.56 40.75 74.01 42.12 75.17 45.67 C 77.42 49.80 73.41 55.31 68.89 55.03 C 64.46 55.13 60.63 49.75 62.82 45.69 C 63.39 44.04 64.68 42.74 66.29 42.09 Z" />
</g>
</svg>
