<?xml version="1.0" encoding="UTF-8" ?>
<!DOCTYPE svg PUBLIC "-//W3C//DTD SVG 1.1//EN" "http://www.w3.org/Graphics/SVG/1.1/DTD/svg11.dtd">
<svg width="98pt" height="96pt" viewBox="0 0 98 96" version="1.1" xmlns="http://www.w3.org/2000/svg">
<g id="#ffffffff">
<path d=" M 46.43 0.00 L 54.67 0.00 C 70.29 1.47 84.58 11.47 91.73 25.37 C 96.90 34.82 98.11 45.99 96.44 56.52 C 93.58 72.35 82.40 86.48 67.43 92.49 C 56.21 97.16 43.13 96.95 32.07 91.91 C 30.26 91.22 28.25 89.81 26.28 90.84 C 19.97 93.85 13.03 95.15 6.13 96.00 L 2.39 96.00 C 0.87 95.08 0.89 93.46 0.97 91.89 C 7.78 83.49 8.14 71.63 5.60 61.55 C 1.69 48.64 3.45 34.09 10.61 22.62 C 18.19 10.09 31.75 1.20 46.43 0.00 M 26.50 42.07 C 21.52 43.99 20.99 51.81 25.91 54.11 C 29.73 56.60 35.27 53.39 35.54 48.99 C 36.27 44.12 30.97 40.35 26.50 42.07 M 46.50 42.07 C 41.52 43.99 40.99 51.81 45.92 54.11 C 49.73 56.59 55.24 53.41 55.54 49.03 C 56.31 44.15 50.98 40.35 46.50 42.07 M 66.50 42.07 C 61.51 44.01 61.00 51.82 65.93 54.11 C 70.11 56.82 75.97 52.81 75.61 48.02 C 75.53 43.48 70.64 40.55 66.50 42.07 Z" />
</g>
</svg>
