<?xml version="1.0" encoding="UTF-8" ?>
<!DOCTYPE svg PUBLIC "-//W3C//DTD SVG 1.1//EN" "http://www.w3.org/Graphics/SVG/1.1/DTD/svg11.dtd">
<svg width="98pt" height="96pt" viewBox="0 0 98 96" version="1.1" xmlns="http://www.w3.org/2000/svg">
<g id="#ffffffff">
<path opacity="0.70" d=" M 46.42 0.00 L 54.69 0.00 C 69.77 1.44 83.64 10.80 90.98 23.99 C 96.74 33.77 98.25 45.56 96.41 56.65 C 93.70 71.39 83.81 84.66 70.29 91.21 C 58.93 96.85 45.19 97.42 33.47 92.51 C 30.94 91.57 28.19 89.46 25.50 91.15 C 19.44 94.03 12.75 95.13 6.16 96.00 L 2.40 96.00 C 0.88 95.08 0.90 93.46 0.97 91.90 C 6.51 85.20 7.72 75.93 6.73 67.54 C 6.25 62.56 4.18 57.89 3.90 52.88 C 2.14 38.84 7.28 24.21 17.19 14.15 C 24.82 6.14 35.39 0.95 46.42 0.00 M 26.30 42.09 C 23.17 43.33 21.29 47.40 22.66 50.53 C 23.84 53.74 27.64 55.97 30.99 54.77 C 34.49 53.55 37.07 49.20 35.17 45.68 C 34.02 42.14 29.57 40.74 26.30 42.09 M 46.49 42.08 C 41.52 44.00 41.00 51.79 45.90 54.10 C 50.38 57.06 56.78 52.16 55.45 47.07 C 54.92 42.94 50.24 40.74 46.49 42.08 M 66.49 42.08 C 63.60 43.38 61.73 46.74 62.64 49.86 C 63.18 52.82 66.14 54.84 69.01 55.02 C 73.29 54.92 76.84 50.32 75.22 46.19 C 74.23 42.51 69.93 40.90 66.49 42.08 Z" />
</g>
<g id="#000000ff">
<path opacity="1.00" d=" M 26.30 42.09 C 29.57 40.74 34.02 42.14 35.17 45.68 C 37.07 49.20 34.49 53.55 30.99 54.77 C 27.64 55.97 23.84 53.74 22.66 50.53 C 21.29 47.40 23.17 43.33 26.30 42.09 Z" />
</g>
</svg>
