<?xml version="1.0" encoding="UTF-8" standalone="no"?>
<svg width="19px" height="14px" viewBox="0 0 19 14" version="1.1" xmlns="http://www.w3.org/2000/svg" xmlns:xlink="http://www.w3.org/1999/xlink" xmlns:sketch="http://www.bohemiancoding.com/sketch/ns">
    <!-- Generator: Sketch 3.5.2 (25235) - http://www.bohemiancoding.com/sketch -->
    <title>letter</title>
    <desc>Created with Sketch.</desc>
    <defs></defs>
    <g id="Invite-Board" stroke="none" stroke-width="1" fill-rule="evenodd" sketch:type="MSPage">
        <g id="Invite-To-Board-(-filled-out-)" sketch:type="MSArtboardGroup" transform="translate(-448.000000, -410.000000)">
            <g id="letter" sketch:type="MSLayerGroup" transform="translate(448.000000, 410.000000)">
                <g id="Capa_1" sketch:type="MSShapeGroup">
                    <g id="Group">
                        <path d="M18.3370596,0.0165501859 L0.643631436,0.0165501859 C0.288192412,0.0165501859 0,0.307843866 0,0.667107807 L0,13.3133234 C0,13.6725353 0.288192412,13.963881 0.643631436,13.963881 L18.3370596,13.963881 C18.6924472,13.963881 18.9806911,13.6725353 18.9806911,13.3133234 L18.9806911,0.667107807 C18.9806911,0.307895911 18.6924472,0.0165501859 18.3370596,0.0165501859 L18.3370596,0.0165501859 Z M17.6934282,12.6628178 L1.28726287,12.6628178 L1.28726287,1.31766543 L17.6934282,1.31766543 L17.6934282,12.6628178 L17.6934282,12.6628178 Z" id="Shape"></path>
                        <path d="M2.97383469,4.38220818 L9.15269648,8.23023048 C9.25619241,8.29471375 9.37323035,8.32692937 9.49031978,8.32692937 C9.60740921,8.32692937 9.72444715,8.29471375 9.82794309,8.23023048 L16.0068049,4.38220818 C16.3094146,4.19375465 16.4036423,3.79295911 16.2171951,3.48709294 C16.030748,3.18122677 15.6341165,3.08598513 15.3316098,3.27449071 L9.49031978,6.91220074 L3.6490813,3.27449071 C3.34657453,3.08614126 2.95004607,3.18117472 2.76349593,3.48709294 C2.57699729,3.79290706 2.67117344,4.19375465 2.97383469,4.38220818 L2.97383469,4.38220818 Z" id="Shape"></path>
                    </g>
                </g>
            </g>
        </g>
    </g>
</svg>
