<?xml version="1.0" encoding="utf-8"?>
<!-- Generator: Adobe Illustrator 18.1.0, SVG Export Plug-In . SVG Version: 6.00 Build 0)  -->
<svg version="1.1" id="Layer_1" xmlns="http://www.w3.org/2000/svg" xmlns:xlink="http://www.w3.org/1999/xlink" x="0px" y="0px"
	 viewBox="0 0 81.9 71" enable-background="new 0 0 81.9 71" xml:space="preserve">
<g>
	<path d="M63.9,18.4c-0.2-0.9-0.7-1.9-1.1-2.7c-4.3-10.3-13.7-14-21.3-14c-10.1,0-21.3,6.8-22.8,20.8v2.9c0,0.1,0,1.2,0.1,1.7
		c0.8,6.7,6.1,13.8,10.1,20.5c4.2,7.2,8.6,14.2,13,21.3c2.7-4.6,5.4-9.3,8-13.7c0.7-1.3,1.5-2.6,2.3-3.9c0.5-0.8,1.4-1.7,1.8-2.4
		C58.2,41,65,33.2,65,25.5v-3.2C65,21.5,64,18.6,63.9,18.4L63.9,18.4z M41.8,32.8c-3,0-6.2-1.5-7.9-5.6c-0.2-0.7-0.2-2-0.2-2.1v-1.9
		c0-5.3,4.5-7.6,8.3-7.6c4.8,0,8.5,3.8,8.5,8.6C50.5,29,46.5,32.8,41.8,32.8L41.8,32.8z M41.8,32.8"/>
</g>
</svg>
