<?xml version="1.0" encoding="utf-8"?>
<!-- Generator: Adobe Illustrator 18.1.0, SVG Export Plug-In . SVG Version: 6.00 Build 0)  -->
<svg version="1.1" id="Layer_1" xmlns="http://www.w3.org/2000/svg" xmlns:xlink="http://www.w3.org/1999/xlink" x="0px" y="0px"
	 viewBox="0 0 81.9 71" enable-background="new 0 0 81.9 71" xml:space="preserve">
<g>
	<path d="M54.9,39.1c0,5.7-5.7,11.4-11.3,11.4h-3.8c-5.7,0-11.3-5.7-11.3-11.4V27.8h-3.8v11.3c0,7.6,7.6,15.1,15.1,15.1v7.6H28.4
		v3.8h26.5v-3.8H43.5v-7.6c7.6,0,15.1-7.5,15.1-15.1V27.8h-3.8V39.1z M54.9,39.1"/>
	<path d="M43.5,46.7c4.2,0,7.6-3.4,7.6-7.5V12.6c0-4.2-3.4-7.5-7.6-7.5h-3.7c-4.2,0-7.6,3.4-7.6,7.5v26.5c0,4.2,3.4,7.5,7.6,7.5
		H43.5z M43.5,46.7"/>
</g>
</svg>
