<?xml version="1.0" encoding="utf-8"?>
<!-- Generator: Adobe Illustrator 18.1.0, SVG Export Plug-In . SVG Version: 6.00 Build 0)  -->
<svg version="1.1" id="Layer_1" xmlns="http://www.w3.org/2000/svg" xmlns:xlink="http://www.w3.org/1999/xlink" x="0px" y="0px"
	 viewBox="0 0 68.1 68.1" enable-background="new 0 0 68.1 68.1" xml:space="preserve">
<g>
	<g>
		<path d="M62.3,15.1l-1,0.3L55.9,16l-1.5,2.4L53.2,18l-4.3-3.9l-0.6-2L47.5,10l-2.7-2.4l-3.2-0.6l-0.1,1.5l3.1,3.1
			l1.5,1.8l-1.7,0.9L43,13.7l-2.1-0.9l0.1-1.7L38.2,10l-0.9,4l-2.8,0.6l0.3,2.2l3.6,0.7l0.6-3.6l3,0.4l1.4,0.8h2.2l1.5,3.1l4.1,4.1
			L51,24l-3.3-0.4L42,26.5L38,31.3l-0.5,2.2H36l-2.7-1.3l-2.6,1.3l0.7,2.8l1.1-1.3l2-0.1l-0.1,2.5l1.7,0.5l1.7,1.9l2.7-0.8l3.1,0.5
			l3.6,1l1.8,0.2l3.1,3.5l5.9,3.5l-3.8,7.3l-4,1.9L48.5,61l-5.8,3.9l-0.6,2.2c14.9-3.6,26-17,26-33.1C68.1,27.1,66,20.6,62.3,15.1z"
			/>
		<path d="M38,51.9l-2.5-4.6l2.3-4.7l-2.3-0.7l-2.6-2.6L27.3,38l-1.9-3.9v2.3h-0.8l-4.9-6.6v-5.4l-3.6-5.8l-5.7,1
			H6.6l-1.9-1.3l2.5-1.9l-2.4,0.6C1.7,22,0,27.8,0,34.1c0,18.8,15.2,34,34,34c1.4,0,2.9-0.1,4.3-0.3L38,63.7c0,0,1.6-6.1,1.6-6.3
			C39.5,57.2,38,51.9,38,51.9z"/>
		<path d="M12.7,11l6-0.8l2.8-1.5l3.1,0.9l5-0.3l1.7-2.7L33.9,7L40,6.4l1.7-1.8L44,3l3.3,0.5l1.2-0.2
			C44.1,1.2,39.3,0,34.1,0C23.5,0,14,4.9,7.8,12.4h0L12.7,11z M35.5,3.4L39,1.5l2.2,1.3L38,5.3l-3.1,0.3l-1.4-0.9L35.5,3.4z
			 M25.2,3.7l1.5,0.6l2-0.6l1.1,1.9l-4.6,1.2L23,5.5C23,5.5,25.2,4.1,25.2,3.7z"/>
	</g>
</g>
</svg>
