<?xml version="1.0" encoding="UTF-8" standalone="no"?>
<svg width="197px" height="197px" viewBox="0 0 197 197" version="1.1" xmlns="http://www.w3.org/2000/svg" xmlns:xlink="http://www.w3.org/1999/xlink">
    <!-- Generator: Sketch 39.1 (31720) - http://www.bohemiancoding.com/sketch -->
    <title>Page 1</title>
    <desc>Created with Sketch.</desc>
    <defs>
        <rect id="path-1" x="0" y="0" width="197" height="197"></rect>
        <polygon id="path-3" points="27.50015 55 55 55 55 0 27.50015 0 0.0003 0 0.0003 55 27.50015 55"></polygon>
        <polygon id="path-5" points="8.84435 18 0 18 0 0.312 17.6887 0.312 17.6887 18"></polygon>
    </defs>
    <g id="Page-1" stroke="none" stroke-width="1" fill="none" fill-rule="evenodd">
        <g>
            <mask id="mask-2" fill="white">
                <use xlink:href="#path-1"></use>
            </mask>
            <use id="Rectangle-295" fill="#D8E0E6" opacity="0.404559235" xlink:href="#path-1"></use>
            <g id="Group-3" mask="url(#mask-2)">
                <g transform="translate(71.000000, 71.000000)">
                    <mask id="mask-4" fill="white">
                        <use xlink:href="#path-3"></use>
                    </mask>
                    <g id="Clip-2" stroke="none" fill="none"></g>
                    <path d="M49.0093,0 L5.9903,0 C2.6903,0 0.0003,2.682 0.0003,5.991 L0.0003,49.009 C0.0003,52.31 2.6823,55 5.9903,55 L49.0093,55 C52.3103,55 55.0003,52.318 55.0003,49.009 L55.0003,5.991 C55.0003,2.69 52.3183,0 49.0093,0" id="Fill-1" stroke="none" fill="#DADFE2" fill-rule="evenodd" mask="url(#mask-4)"></path>
                </g>
            </g>
            <path d="M84.0576,77.2754 C81.2166,77.2754 78.9136,79.5784 78.9136,82.4194 C78.9136,85.2604 81.2166,87.5634 84.0576,87.5634 C86.8986,87.5634 89.2016,85.2604 89.2016,82.4194 C89.2016,79.5784 86.8986,77.2754 84.0576,77.2754" id="Fill-4" fill="#BEC8CF" mask="url(#mask-2)"></path>
            <path d="M111.9188,92.2327 L86.2488,117.9027 L91.5168,123.1717 L94.3448,125.9997 L120.0098,125.9997 C123.3098,125.9997 125.9998,123.3177 125.9998,120.0097 L125.9998,106.3137 L111.9188,92.2327 Z" id="Fill-6" fill="#BEC8CF" mask="url(#mask-2)"></path>
            <g id="Group-10" mask="url(#mask-2)">
                <g transform="translate(71.000000, 108.000000)">
                    <mask id="mask-6" fill="white">
                        <use xlink:href="#path-5"></use>
                    </mask>
                    <g id="Clip-9" stroke="none" fill="none"></g>
                    <path d="M5.9907,18 L17.6887,18 L-0.0003,0.312 L-0.0003,12.009 C-0.0003,15.31 2.6817,18 5.9907,18" id="Fill-8" stroke="none" fill="#BEC8CF" fill-rule="evenodd" mask="url(#mask-6)"></path>
                </g>
            </g>
        </g>
    </g>
</svg>