<?xml version="1.0" encoding="UTF-8" ?>
<!DOCTYPE svg PUBLIC "-//W3C//DTD SVG 1.1//EN" "http://www.w3.org/Graphics/SVG/1.1/DTD/svg11.dtd">
<svg width="19pt" height="21pt" viewBox="0 0 19 21" version="1.1" xmlns="http://www.w3.org/2000/svg">
<g id="#9a9ea1ce">
<path d=" M 10.71 1.63 C 12.89 -0.48 17.23 0.28 18.24 3.25 C 19.21 5.14 18.29 7.43 16.78 8.74 C 14.13 11.22 11.68 13.92 8.86 16.22 C 6.39 17.92 3.17 14.64 5.08 12.24 C 7.29 10.02 9.42 7.64 11.90 5.73 L 13.02 6.10 C 13.04 9.83 6.01 11.07 7.10 15.00 C 10.15 12.37 13.04 9.55 15.83 6.66 C 17.70 4.95 15.79 2.77 13.96 2.16 C 9.83 4.43 6.90 8.34 3.50 11.51 C 0.54 14.70 4.57 20.03 8.46 18.34 C 11.36 16.78 13.30 13.92 15.76 11.79 C 16.27 12.31 16.76 12.85 17.24 13.40 C 13.74 16.06 11.04 21.28 5.95 20.49 C 1.43 20.11 -1.25 14.19 1.62 10.63 C 4.51 7.50 7.66 4.61 10.71 1.63 Z" />
</g>
</svg>
