<?xml version="1.0" encoding="utf-8"?>
<!-- Generator: Adobe Illustrator 18.1.0, SVG Export Plug-In . SVG Version: 6.00 Build 0)  -->
<svg version="1.1" id="Layer_1" xmlns="http://www.w3.org/2000/svg" xmlns:xlink="http://www.w3.org/1999/xlink" x="0px" y="0px"
	 viewBox="0 0 92.8 97.3" enable-background="new 0 0 92.8 97.3" xml:space="preserve">
<g>
	<path d="M91.5,0.6c-0.7-0.5-1.6-0.5-2.3-0.1L1,52.8c-0.7,0.4-1.2,1.3-1,2.2c0.1,0.9,0.7,1.6,1.6,1.8L24,63
		c0.7,0.2,1.4,0,2-0.4l35.8-29.2l-25,31.8c-0.3,0.4-0.5,0.9-0.5,1.3v28.6c0,1,0.6,1.8,1.6,2.1c0.2,0.1,0.4,0.1,0.6,0.1
		c0.7,0,1.4-0.4,1.8-1l15.6-24.4l22.8,6.3c0.6,0.2,1.2,0.1,1.8-0.3c0.5-0.3,0.9-0.9,1-1.5L92.4,2.7C92.5,1.9,92.2,1.1,91.5,0.6z"/>
</g>
</svg>
