<?xml version="1.0" encoding="UTF-8" standalone="no"?>
<svg width="50px" height="65px" viewBox="0 0 50 65" version="1.1" xmlns="http://www.w3.org/2000/svg" xmlns:xlink="http://www.w3.org/1999/xlink">
    <!-- Generator: Sketch 39.1 (31720) - http://www.bohemiancoding.com/sketch -->
    <title>pdf-drag</title>
    <desc>Created with Sketch.</desc>
    <defs></defs>
    <g id="Page-1" stroke="none" stroke-width="1" fill="none" fill-rule="evenodd">
        <g id="pdf-drag" transform="translate(1.000000, 2.000000)">
            <path d="M47.1641492,13.8997726 L47.1641492,59.3110316 C47.1641492,60.5483453 46.1495839,61.5578947 44.9061228,61.5578947 L2.86971283,61.5578947 C1.6262517,61.5578947 0.611686398,60.5483453 0.611686398,59.3110316 L0.611686398,2.40075789 C0.611686398,1.16344421 1.6262517,0.153894737 2.86971283,0.153894737 L31.8528741,0.153894737 L47.1641492,13.8997726 Z" id="Fill-1" stroke="#D8E0E6" stroke-width="1" fill="#FFFFFF"></path>
            <path d="M47.1641492,13.8997726 L47.1641492,14.1583158 L33.7025998,14.1583158 C32.5952389,14.1583158 31.6982147,13.2657263 31.6982147,12.16384 L31.6982147,0.153894737 L31.8528741,0.153894737 L47.1641492,13.8997726 Z" id="Fill-3" stroke="#D8E0E6" stroke-width="1"></path>
            <path d="M40.2411474,44.2464 C39.1629,42.312 34.4408368,41.08 30.2711842,40.8464 C29.8943211,40.4456 29.5118211,40.024 29.1196579,39.5808 C25.5362368,35.5104 24.0851526,29.5952 23.5432105,26.4616 C23.4787895,25.7976 23.4079263,25.2456 23.3483368,24.8344 C23.3000211,24.5072 23.1985579,23.8248 22.4842895,23.8248 C22.2555947,23.8248 22.0349526,23.9224 21.8779263,24.096 C21.6234632,24.3848 21.6613105,24.6952 21.7064053,25.0536 C21.7571368,25.4648 21.8336368,26.0152 21.9423474,26.6432 C22.2475421,29.8248 22.3916842,35.8824 19.9267737,40.6944 C19.6698947,41.196 19.4138211,41.6776 19.1593579,42.1368 C14.5468105,43.4696 10.8248842,45.8464 10.2797211,47.8176 C10.0824316,48.5312 10.2539526,49.2152 10.7636842,49.7448 C11.3571632,50.3608 12.0577421,50.6728 12.8460947,50.6728 C15.0283579,50.6728 17.5158158,48.2584 20.2392158,43.4992 C21.4519421,43.1824 22.6558105,42.9616 23.8194158,42.8448 C24.2727789,42.7992 25.0063737,42.704 25.4573211,42.6352 C26.6998421,42.4448 28.1058316,42.368 29.5504737,42.4152 C32.8939263,45.868 35.6277947,47.6184 37.6763842,47.6184 C38.7763737,47.6176 39.6871263,47.0848 40.2395368,46.1184 C40.5793579,45.52 40.5809684,44.8544 40.2411474,44.2464 L40.2411474,44.2464 Z M12.8452895,49.0728 C12.5038579,49.0728 12.2123526,48.9352 11.9264842,48.6384 C11.8097211,48.5176 11.7839526,48.4136 11.8322684,48.2424 C12.1133053,47.2272 14.4743368,45.4872 17.9248895,44.224 C15.9753474,47.28 14.1095526,49.0728 12.8452895,49.0728 L12.8452895,49.0728 Z M25.2101053,41.056 C24.7817053,41.1216 24.0859579,41.2112 23.6559474,41.256 C22.8740368,41.3328 22.0703842,41.4552 21.2594842,41.62 C21.2933053,41.5544 21.3271263,41.488 21.3609474,41.4216 C22.5696474,39.0624 23.3185421,36.2336 23.5955526,32.9912 C24.7044,36.0744 26.1506526,38.6392 27.9069316,40.6344 C27.9584684,40.6936 28.0124211,40.7536 28.0639579,40.8144 C27.0501316,40.8384 26.0934789,40.9208 25.2101053,41.056 L25.2101053,41.056 Z M38.8351579,45.3328 C38.5678105,45.8032 38.1877263,46.0216 37.6425632,46.0216 L37.6417579,46.0216 C36.3613895,46.0216 34.3925211,44.8176 32.0355158,42.6096 C35.6833579,43.0648 38.3544158,44.1616 38.8335474,45.0216 C38.9028,45.1464 38.9028,45.2128 38.8351579,45.3328 L38.8351579,45.3328 Z" id="Shape" fill="#E8584B"></path>
        </g>
    </g>
</svg>
