<?xml version="1.0" encoding="UTF-8" standalone="no"?>
<svg width="20px" height="21px" viewBox="0 0 20 21" version="1.1" xmlns="http://www.w3.org/2000/svg" xmlns:xlink="http://www.w3.org/1999/xlink" xmlns:sketch="http://www.bohemiancoding.com/sketch/ns">
    <!-- Generator: Sketch 3.3.3 (12081) - http://www.bohemiancoding.com/sketch -->
    <title>User</title>
    <desc>Created with Sketch.</desc>
    <defs></defs>
    <g id="Cardview" stroke="none" stroke-width="1" fill-rule="evenodd" sketch:type="MSPage">
        <g id="Card-View" sketch:type="MSArtboardGroup" transform="translate(-1042.000000, -105.000000)">
            <g id="Board-Members" sketch:type="MSLayerGroup" transform="translate(981.000000, 80.000000)">
                <path d="M63.9103231,42.8499278 C64.1924901,42.3344479 64.5162225,41.8967065 64.8781808,41.5583459 C66.0171994,40.4935851 67.673897,39.7827802 68.9406258,39.5145503 C70.5278268,39.1784604 70.8169743,36.5402245 69.4797803,35.6798168 C68.3066788,34.9249932 67.523312,33.3585724 67.523312,31.5890797 C67.523312,28.9521224 69.0221062,27.0394537 70.9877921,27.0394537 C72.9461665,27.0394537 74.4522722,28.9671864 74.4522722,31.5890797 C74.4522722,33.3585724 73.6689054,34.9249932 72.4958038,35.6798168 C71.1586099,36.5402245 71.4477574,39.1784604 73.0349584,39.5145503 C74.3016871,39.7827802 75.9583848,40.4935851 77.0974034,41.5583459 C77.4593617,41.8967065 77.7830941,42.3344479 78.065261,42.8499278 C78.3424645,43.35634 78.5302907,43.9605463 78.5302907,43.9605463 L70.9587746,43.9605463 L63.5791033,43.9605463 C63.5791033,43.9605463 63.6331196,43.35634 63.9103231,42.8499278 Z M61.0533099,44.7961293 C60.9311285,45.4610087 61.722411,46 62.0571728,46 L62.0571728,46 L70.9587746,46 L79.9184114,46 L79.9184114,46 C80.595011,46 80.9827261,45.1250922 80.9222743,44.7961293 L80.9222743,44.7961293 C80.885557,44.5963234 80.809257,44.2726218 80.6847662,43.8644179 C80.4785196,43.1881378 80.2063612,42.5110228 79.8562092,41.8713436 C79.4763157,41.177331 79.0255768,40.5678551 78.4920491,40.0691106 C77.3026618,38.9572648 75.8614876,38.2096683 74.5031774,37.7883735 C74.1969815,37.6934035 73.8949965,37.6150149 73.6010557,37.5527729 C73.6010557,37.5527729 73.6010555,37.3365542 73.6010557,37.336554 C75.3823182,36.1904136 76.4935566,34.0262807 76.4935566,31.5890797 C76.4935566,27.9359837 74.1997212,25 70.9877921,25 C67.7701938,25 65.4820275,27.9200164 65.4820275,31.5890797 C65.4820275,34.0262807 66.5932658,36.1904136 68.3745282,37.336554 C68.3745282,37.3365542 68.3745282,37.5527729 68.3745282,37.5527729 C66.7766419,37.8911255 64.9410389,38.706628 63.483535,40.0691106 C62.9500074,40.5678551 62.4992685,41.177331 62.119375,41.8713436 C61.7692229,42.5110228 61.4970646,43.1881378 61.290818,43.8644179 C61.1663271,44.2726218 61.0900272,44.5963234 61.0533099,44.7961293 L61.0533099,44.7961293 Z" id="User" sketch:type="MSShapeGroup"></path>
            </g>
        </g>
    </g>
</svg>