<?xml version="1.0" encoding="UTF-8" standalone="no"?>
<!-- Generator: Adobe Illustrator 18.1.0, SVG Export Plug-In . SVG Version: 6.00 Build 0)  -->

<svg
   xmlns:dc="http://purl.org/dc/elements/1.1/"
   xmlns:cc="http://creativecommons.org/ns#"
   xmlns:rdf="http://www.w3.org/1999/02/22-rdf-syntax-ns#"
   xmlns:svg="http://www.w3.org/2000/svg"
   xmlns="http://www.w3.org/2000/svg"
   xmlns:sodipodi="http://sodipodi.sourceforge.net/DTD/sodipodi-0.dtd"
   xmlns:inkscape="http://www.inkscape.org/namespaces/inkscape"
   version="1.1"
   id="Layer_1"
   x="0px"
   y="0px"
   viewBox="0 0 92 92"
   enable-background="new 0 0 92 92"
   xml:space="preserve"
   inkscape:version="0.91 r13725"
   sodipodi:docname="person-circle.svg"><metadata
     id="metadata13"><rdf:RDF><cc:Work
         rdf:about=""><dc:format>image/svg+xml</dc:format><dc:type
           rdf:resource="http://purl.org/dc/dcmitype/StillImage" /></cc:Work></rdf:RDF></metadata><defs
     id="defs11" /><sodipodi:namedview
     pagecolor="#ffffff"
     bordercolor="#666666"
     borderopacity="1"
     objecttolerance="10"
     gridtolerance="10"
     guidetolerance="10"
     inkscape:pageopacity="0"
     inkscape:pageshadow="2"
     inkscape:window-width="1128"
     inkscape:window-height="858"
     id="namedview9"
     showgrid="false"
     inkscape:zoom="2.5652174"
     inkscape:cx="-2.7288136"
     inkscape:cy="46"
     inkscape:window-x="2007"
     inkscape:window-y="700"
     inkscape:window-maximized="0"
     inkscape:current-layer="Layer_1" /><g
     id="g3"
     transform="matrix(0.88983051,0,0,0.88983051,5.0677965,5.0677965)"><g
       id="g5"><path
         d="M 46,0 C 20.6,0 0,20.6 0,46 0,71.4 20.6,92 46,92 71.4,92 92,71.4 92,46 92,20.6 71.4,0 46,0 Z m 26.6,71.4 c 0,-1.1 0,-1.8 0,-1.8 C 72.6,63.3 65.3,61 61.5,59.4 60.1,58.8 57.4,57.5 54.7,56.2 53.8,55.8 53,54.6 52.9,53.5 l -0.3,-3 c 2.1,-1.9 4,-4.6 4.3,-7.6 l 0.5,0 c 0.7,0 1.4,-0.6 1.5,-1.2 l 0.7,-4.5 c 0.1,-1 -0.8,-1.6 -1.6,-1.6 0,-0.1 0,-0.2 0,-0.3 0.1,-0.5 0.2,-1.1 0.2,-1.6 0,-0.4 0.1,-0.8 0.1,-1.3 0.1,-2.1 -0.3,-4 -0.9,-5.1 -0.6,-1.5 -1.5,-2.9 -2.8,-4.1 -3.6,-3.4 -7.8,-4.7 -11.3,-2 -2.4,-0.4 -5.3,0.7 -7.4,3.1 -1.1,1.3 -1.8,2.8 -2.1,4.3 -0.3,0.9 -0.5,2.1 -0.5,3.3 0,1.4 0.1,2.6 0.3,3.6 -0.7,0 -1.4,0.6 -1.4,1.5 l 0.7,4.5 c 0.1,0.7 0.8,1.2 1.5,1.2 l 0.4,0 c 0.7,3.3 2.4,5.9 4.3,7.8 l -0.3,2.9 c -0.1,1 -0.9,2.2 -1.9,2.7 -2.6,1.3 -5.2,2.5 -6.8,3.2 C 26.4,60.8 19,63.3 19,69.5 L 19,71 C 13,64.4 9.3,55.7 9.3,46 9.3,25.8 25.8,9.3 46,9.3 c 20.3,0 36.8,16.5 36.8,36.8 0,9.8 -3.9,18.7 -10.2,25.3 z"
         id="path7"
         inkscape:connector-curvature="0" /></g></g></svg>