<?xml version="1.0" encoding="UTF-8" standalone="no"?>
<svg width="210px" height="143px" viewBox="0 0 210 143" version="1.1" xmlns="http://www.w3.org/2000/svg" xmlns:xlink="http://www.w3.org/1999/xlink">
    <!-- Generator: Sketch 3.6.1 (26313) - http://www.bohemiancoding.com/sketch -->
    <title>Group</title>
    <desc>Created with Sketch.</desc>
    <defs></defs>
    <g id="Sign-Up" stroke="none" stroke-width="1" fill="none" fill-rule="evenodd">
        <g id="Desktop-HD-Copy-2" transform="translate(-615.000000, -261.000000)">
            <g id="Group" transform="translate(617.000000, 258.000000)">
                <g id="Group-5" transform="translate(0.000000, 31.000000)">
                    <circle id="Oval-259" stroke="#D2ECF9" stroke-width="2" cx="2.54320988" cy="3.33333333" r="2.54320988"></circle>
                    <circle id="Oval-259" fill="#D2ECF9" cx="23.5246914" cy="31.9444444" r="1.90740741"></circle>
                </g>
                <g id="Group-4" transform="translate(27.000000, 38.000000)" fill="#D2ECF9">
                    <rect id="Rectangle-1377" x="7.33333333" y="0.148148148" width="3.81481481" height="16.5308642" rx="100"></rect>
                    <rect id="Rectangle-1377" x="7.33333333" y="0.148148148" width="3.81481481" height="16.5308642" rx="100"></rect>
                </g>
                <g id="Group-2" transform="translate(27.000000, 38.000000)" fill="#D2ECF9">
                    <rect id="Rectangle-1377" x="7.33333333" y="0.148148148" width="3.81481481" height="16.5308642" rx="100"></rect>
                    <rect id="Rectangle-1377" x="7.33333333" y="0.148148148" width="3.81481481" height="16.5308642" rx="100"></rect>
                </g>
                <g id="Rectangle-1377-+-Rectangle-1377" transform="translate(173.927802, 77.285827) rotate(-315.000000) translate(-173.927802, -77.285827) translate(166.933975, 70.292000)" fill="#D2ECF9">
                    <rect id="Rectangle-1377" x="5.37986705" y="0" width="3.22792023" height="13.9876543" rx="100"></rect>
                    <path d="M12.3830925,5.37986705 C13.2692675,5.37986705 13.9876543,6.09624717 13.9876543,6.99382716 L13.9876543,6.99382716 C13.9876543,7.88519272 13.2747742,8.60778727 12.3830925,8.60778727 L1.60456181,8.60778727 C0.71838679,8.60778727 0,7.89140716 0,6.99382716 L0,6.99382716 C0,6.1024616 0.712880124,5.37986705 1.60456181,5.37986705 L12.3830925,5.37986705 L12.3830925,5.37986705 Z" id="Rectangle-1377"></path>
                </g>
                <g id="Group-3" transform="translate(21.000000, 61.000000)">
                    <circle id="Oval-259" fill="#D2ECF9" cx="2.52469136" cy="1.94444444" r="1.90740741"></circle>
                    <circle id="Oval-259" fill="#D2ECF9" cx="171.648148" cy="27.3765432" r="1.90740741"></circle>
                    <circle id="Oval-259" stroke="#D2ECF9" stroke-width="2" cx="182.45679" cy="6.39506173" r="2.54320988"></circle>
                </g>
                <g id="Page-1" transform="translate(67.395062, 0.000000)"></g>
                <g id="Group-6" transform="translate(50.000000, 12.000000)">
                    <ellipse id="Oval-264" fill="#EEFAFF" cx="56.2001798" cy="125.09606" rx="55.3359822" ry="8.66396135"></ellipse>
                    <rect id="Rectangle-1383" fill="#B4DCF3" x="46.6419753" y="106.259259" width="21.617284" height="15.2592593"></rect>
                    <rect id="Rectangle-1382" fill="#05A6F7" x="23.7530864" y="0.716049383" width="67.3950617" height="106.814815"></rect>
                </g>
                <path d="M138.048447,114.66081 C138.048447,115.830435 137.080673,116.778507 135.886741,116.778507 L76.3098037,116.778507 C75.116074,116.778507 74.1480978,115.830435 74.1480978,114.66081 L74.1480978,19.1733092 C74.1480978,18.003684 75.116074,17.0556118 76.3098037,17.0556118 L135.886741,17.0556118 C137.080673,17.0556118 138.048447,18.003684 138.048447,19.1733092 L138.048447,114.66081 Z M106.098373,132.774584 C102.636618,132.774584 99.8303342,130.025629 99.8303342,126.634348 C99.8303342,123.243068 102.636618,120.494113 106.098373,120.494113 C109.559927,120.494113 112.366211,123.243068 112.366211,126.634348 C112.366211,130.025629 109.559927,132.774584 106.098373,132.774584 L106.098373,132.774584 Z M94.2086883,11.3555174 C94.2086883,11.0051041 94.498597,10.7210975 94.8562922,10.7210975 L117.340455,10.7210975 C117.69815,10.7210975 117.988059,11.0051041 117.988059,11.3555174 L117.988059,11.3683639 C117.988059,11.7185794 117.69815,12.0025861 117.340455,12.0025861 L94.8562922,12.0025861 C94.498597,12.0025861 94.2086883,11.7185794 94.2086883,11.3683639 L94.2086883,11.3555174 Z M132.369304,3.81481481 L79.827443,3.81481481 C72.9612275,3.81481481 67.3950617,9.26746571 67.3950617,15.9938973 L67.3950617,124.808168 C67.3950617,131.534599 72.9612275,136.987448 79.827443,136.987448 L132.369304,136.987448 C139.235318,136.987448 144.801483,131.534599 144.801483,124.808168 L144.801483,15.9938973 C144.801483,9.26746571 139.235318,3.81481481 132.369304,3.81481481 L132.369304,3.81481481 Z" id="Fill-1" fill="#D2ECF9"></path>
                <path d="M99.2830009,70.2317189 L96.6419753,72.8727445 L103.68471,79.9154796 L119.530864,64.9496676 L116.889839,62.308642 L103.68471,74.6334283 L99.2830009,70.2317189 Z" id="Check" fill="#FFFFFF"></path>
            </g>
        </g>
    </g>
</svg>