<?xml version="1.0" encoding="utf-8"?>
<!-- Generator: Adobe Illustrator 18.1.0, SVG Export Plug-In . SVG Version: 6.00 Build 0)  -->
<svg version="1.1" id="Layer_1" xmlns="http://www.w3.org/2000/svg" xmlns:xlink="http://www.w3.org/1999/xlink" x="0px" y="0px"
	 viewBox="0 0 81.9 71" enable-background="new 0 0 81.9 71" xml:space="preserve">
<path d="M74.9,4.2H7.8C6,4.2,4.5,5.7,4.5,7.5v57.2c0,1.8,1.5,3.3,3.3,3.3h67.1c1.8,0,3.3-1.5,3.3-3.3V7.5
	C78.3,5.7,76.8,4.2,74.9,4.2z M24.8,12.9c3.8,0,7,3.1,7,7c0,3.8-3.1,7-7,7c-3.8,0-7-3.1-7-7C17.9,16.1,21,12.9,24.8,12.9z M15,58.8
	l13.9-18l10.5,8.7l14.5-26.1L69,58.8C64.9,58.8,15,58.8,15,58.8z"/>
</svg>
