<?xml version="1.0" encoding="UTF-8" standalone="no"?>
<svg width="60px" height="60px" viewBox="0 0 60 60" version="1.1" xmlns="http://www.w3.org/2000/svg" xmlns:xlink="http://www.w3.org/1999/xlink" xmlns:sketch="http://www.bohemiancoding.com/sketch/ns">
    <!-- Generator: Sketch 3.4.1 (15681) - http://www.bohemiancoding.com/sketch -->
    <title>play43 (1)</title>
    <desc>Created with Sketch.</desc>
    <defs></defs>
    <g id="Homepage" stroke="none" stroke-width="1" fill-rule="evenodd" sketch:type="MSPage">
        <g id="Desktop-HD-Copy" sketch:type="MSArtboardGroup" transform="translate(-690.000000, -241.000000)">
            <g id="play43-(1)" sketch:type="MSLayerGroup" transform="translate(690.000000, 241.000000)">
                <path d="M55.573966,14.9580348 C47.3511259,0.736550802 29.1391544,-4.14145722 14.8971507,4.07589572 C0.655147059,12.2783824 -4.23053768,30.4691711 3.99788603,44.6906551 C12.2132813,58.9102807 30.4345588,63.7808556 44.6765625,55.5709358 C58.9185662,47.361016 63.7968061,29.1776604 55.573966,14.9580348 L55.573966,14.9580348 Z M41.6948989,50.4179011 C30.3024127,56.9869519 15.7328355,53.088262 9.15344669,41.7136765 C2.5740579,30.3390909 6.47702206,15.7924064 17.8713695,9.22335561 C29.2638557,2.65430481 43.8408778,6.55113636 50.4128217,17.9257219 C56.9922105,29.3021658 53.0873851,43.8488503 41.6948989,50.4179011 L41.6948989,50.4179011 Z M40.5037224,28.6108824 L24.9086167,19.5312834 C23.4903722,18.7024866 22.3420037,19.3640374 22.3494485,21.0049064 L22.4294807,39.0284492 C22.4369256,40.6767513 23.6001838,41.343877 25.0240119,40.5169385 L40.4962776,31.5952941 C41.9201057,30.7757888 41.9275506,29.4396791 40.5037224,28.6108824 L40.5037224,28.6108824 Z" id="Fill-1" sketch:type="MSShapeGroup"></path>
            </g>
        </g>
    </g>
</svg>
