<?xml version="1.0" encoding="UTF-8" standalone="no"?>
<svg width="26px" height="24px" viewBox="0 0 26 24" version="1.1" xmlns="http://www.w3.org/2000/svg" xmlns:xlink="http://www.w3.org/1999/xlink" xmlns:sketch="http://www.bohemiancoding.com/sketch/ns">
    <!-- Generator: Sketch 3.5.1 (25234) - http://www.bohemiancoding.com/sketch -->
    <title>interface</title>
    <desc>Created with Sketch.</desc>
    <defs></defs>
    <g id="Page-1" stroke="none" stroke-width="1" fill-rule="evenodd" sketch:type="MSPage">
        <g id="Artboard-1" sketch:type="MSArtboardGroup" transform="translate(-1295.000000, -4759.000000)" fill="#BABFD2">
            <g id="interface" sketch:type="MSLayerGroup" transform="translate(1295.000000, 4759.000000)">
                <g id="Capa_1" sketch:type="MSShapeGroup">
                    <path d="M20.6587485,7.51796713 C22.5543207,8.86149418 24.1101439,10.6695979 25.1675,12.7812163 C22.8451791,17.4188737 18.1194908,20.5937075 12.6675234,20.5937075 C11.1400126,20.5937075 9.66968906,20.3443802 8.29306836,19.8836472 L10.1962812,17.9804344 C11.0033724,18.1586526 11.8313229,18.2499648 12.6675234,18.2499648 C14.8540479,18.2499648 16.9852131,17.627748 18.8307229,16.4505798 C20.2994996,15.5136453 21.5442144,14.2586648 22.4790865,12.7811694 C21.5744956,11.3513458 20.3790462,10.1310527 18.9720506,9.20466499 L20.6587485,7.51796713 L20.6587485,7.51796713 Z M12.6675234,17.3222177 C12.1127595,17.3222177 11.5749644,17.2495617 11.0628566,17.113859 L18.7088952,9.46782041 C18.8447385,9.97983444 18.9174883,10.517489 18.9174883,11.0722529 C18.9174883,14.5239765 16.119247,17.3222177 12.6675234,17.3222177 L12.6675234,17.3222177 Z M22.2930402,0.281286621 L16.9314007,5.64287924 C15.5867487,5.20530248 14.1542063,4.96877197 12.6674766,4.96877197 C7.2153686,4.96877197 2.48972712,8.1436058 0.1675,12.7812632 C1.2089655,14.8611473 2.73408573,16.6462355 4.59117368,17.9831532 L0.167546875,22.4067331 L0.167546875,23.7187134 L1.47952715,23.7187134 L23.6049736,1.59322002 L23.6049736,0.281286621 L22.2930402,0.281286621 Z M10.3237808,7.94724704 C11.4967302,7.94724704 12.4684459,8.8089006 12.6404766,9.93380333 L9.96659438,12.6077325 C8.84173852,12.435608 7.98008496,11.4639392 7.98008496,10.2909897 C7.98003809,8.99658751 9.02933168,7.94724704 10.3237808,7.94724704 L10.3237808,7.94724704 Z M2.85591347,12.7812163 C3.79078555,11.3036272 5.03545354,10.0487405 6.50418332,9.11189965 C6.5998549,9.05086859 6.69646397,8.9917594 6.79368242,8.93368146 C6.55054255,9.60085125 6.41751172,10.3209427 6.41751172,11.0722529 C6.41751172,12.5009984 6.89727584,13.8175724 7.70408582,14.8701473 L6.27463717,16.2995959 C4.90570394,15.3805676 3.74161383,14.1811338 2.85591347,12.7812163 L2.85591347,12.7812163 Z" id="Shape"></path>
                </g>
            </g>
        </g>
    </g>
</svg>