<?xml version="1.0" encoding="utf-8"?>
<!-- Generator: Adobe Illustrator 18.1.0, SVG Export Plug-In . SVG Version: 6.00 Build 0)  -->
<svg version="1.1" id="Capa_1" xmlns="http://www.w3.org/2000/svg" xmlns:xlink="http://www.w3.org/1999/xlink" x="0px" y="0px"
	 viewBox="-47.5 275.9 70.8 62.3" enable-background="new -47.5 275.9 70.8 62.3" xml:space="preserve">
<g>
	<path d="M-20.1,277.9c-0.8-1.7-2.7-2.4-4.4-1.7c-4.8,2.1-9,4.7-12.3,8c-4,3.8-6.8,8.2-8.3,13.1
		c-1.5,4.9-2.3,11.6-2.3,20.1v17.5c0,1.9,1.5,3.4,3.4,3.4h22.4c1.9,0,3.4-1.5,3.4-3.4v-22.4c0-1.9-1.5-3.4-3.4-3.4h-10.7
		c0.1-5.8,1.5-10.4,4-13.9c2.1-2.8,5.1-5.1,9.3-6.8c1.8-0.7,2.5-2.9,1.7-4.6L-20.1,277.9z"/>
	<path d="M21.2,288.3c1.8-0.7,2.5-2.9,1.7-4.6l-2.8-5.8c-0.8-1.7-2.7-2.4-4.4-1.7c-4.8,2.1-8.9,4.7-12.3,7.9
		c-4,3.9-6.8,8.3-8.3,13.1c-1.5,4.8-2.2,11.5-2.2,20v17.5c0,1.9,1.5,3.4,3.4,3.4h22.4c1.9,0,3.4-1.5,3.4-3.4v-22.4
		c0-1.9-1.5-3.4-3.4-3.4H8c0.1-5.8,1.5-10.4,4-13.9C14,292.4,17.1,290.1,21.2,288.3z"/>
</g>
</svg>
