<?xml version="1.0" encoding="UTF-8" standalone="no"?>
<svg width="130px" height="118px" viewBox="0 0 130 118" version="1.1" xmlns="http://www.w3.org/2000/svg" xmlns:xlink="http://www.w3.org/1999/xlink">
    <!-- Generator: Sketch 39.1 (31720) - http://www.bohemiancoding.com/sketch -->
    <title>Group 5</title>
    <desc>Created with Sketch.</desc>
    <defs>
        <rect id="path-1" x="0" y="0" width="59.1578429" height="59" rx="4"></rect>
        <mask id="mask-2" maskContentUnits="userSpaceOnUse" maskUnits="objectBoundingBox" x="0" y="0" width="59.1578429" height="59" fill="white">
            <use xlink:href="#path-1"></use>
        </mask>
    </defs>
    <g id="App" stroke="none" stroke-width="1" fill="none" fill-rule="evenodd">
        <g id="Link-Account" transform="translate(-571.000000, -138.000000)">
            <g id="Group-7" transform="translate(425.000000, 95.000000)">
                <g id="Group-5" transform="translate(146.000000, 43.000000)">
                    <g id="Group-2" transform="translate(0.000000, 16.716667)">
                        <rect id="Rectangle" fill="#00ACED" x="0" y="0" width="48.3122384" height="48.1833333" rx="4"></rect>
                        <g id="twitter" transform="translate(10.095095, 12.944776)" fill="#FFFFFF">
                            <g id="Capa_1">
                                <path d="M28.06734,2.76436004 C27.0345537,3.22428841 25.9249113,3.53518326 24.7601213,3.67496757 C25.948922,2.95925427 26.861984,1.82594979 27.2919828,0.47545385 C26.1792158,1.13825942 24.9469986,1.61949403 23.6352941,1.87880247 C22.5849657,0.754857312 21.0883574,0.052632455 19.4321167,0.052632455 C16.2520228,0.052632455 13.6738393,2.6418079 13.6738393,5.83554086 C13.6738393,6.2888076 13.724766,6.73018248 13.8229465,7.15349937 C9.03726445,6.91224894 4.79423379,4.60996442 1.95418092,1.11106232 C1.45850924,1.96518356 1.17449299,2.95859362 1.17449299,4.0184549 C1.17449299,6.02487456 2.19105299,7.79499871 3.73617595,8.83206728 C2.79225087,8.80200732 1.90435062,8.54187307 1.12806146,8.10870135 C1.12751327,8.13281539 1.12751327,8.15703953 1.12751327,8.18142884 C1.12751327,10.9833913 3.11244754,13.3206908 5.74660097,13.8520804 C5.2634828,13.984157 4.75470943,14.0550677 4.22954524,14.0550677 C3.85847672,14.0550677 3.49776895,14.0187315 3.14610629,13.9511241 C3.87892413,16.2485638 6.00545538,17.9208004 8.52525677,17.9673217 C6.55452058,19.5185477 4.07161225,20.442974 1.37370454,20.442974 C0.908895859,20.442974 0.450555794,20.4156668 5.48188095e-05,20.3619883 C2.54836199,22.0030088 5.57518255,22.960413 8.82703432,22.960413 C19.4186313,22.960413 25.2106222,14.1482205 25.2106222,6.50605411 C25.2106222,6.25533424 25.2049211,6.00593568 25.1939025,5.75785844 C26.3191134,4.94255088 27.2953816,3.9240358 28.06734,2.76436004 L28.06734,2.76436004 Z" id="Shape"></path>
                            </g>
                        </g>
                    </g>
                    <g id="Group-3" transform="translate(70.003447, 0.000000)">
                        <use id="Rectangle-Copy" stroke="#BABFD1" mask="url(#mask-2)" stroke-width="2" xlink:href="#path-1"></use>
                        <g id="new-google-favicon-copy" transform="translate(12.361340, 12.328358)">
                            <g id="Layer_1">
                                <g id="Group">
                                    <path d="M12.1490456,0.963226762 C7.77770514,2.4269537 4.05289846,5.62826618 1.97820044,9.67948461 C1.25446857,11.0771078 0.733381626,12.5597215 0.414939604,14.0989956 C-0.376340571,17.9141291 0.173695648,21.9842343 1.96855068,25.4594054 C3.13617143,27.7258213 4.81522936,29.7467088 6.84167859,31.3237566 C8.76198048,32.8158137 10.9910746,33.9301348 13.3649152,34.5439558 C16.3563402,35.327758 19.5407604,35.3088712 22.551485,34.6383898 C25.2727168,34.0245688 27.8492023,32.7497099 29.9046008,30.8988036 C32.0757964,28.9440198 33.6294075,26.3754151 34.4496369,23.6084991 C35.3470644,20.5960546 35.4628615,17.3758553 34.9031756,14.2784202 L18.0160986,14.2784202 L18.0160986,21.1343284 L27.8009535,21.1343284 C27.4246129,23.3251971 26.0929463,25.3271978 24.2112434,26.5642831 C23.0243232,27.3480853 21.6637073,27.8485855 20.2548425,28.0941139 C18.8459778,28.3301989 17.3792146,28.3585291 15.9703499,28.0846705 C14.5325359,27.8013685 13.17192,27.2158777 11.97535,26.3943019 C10.0646978,25.0816694 8.60758435,23.1646593 7.86455297,21.0021208 C7.10222207,18.8018087 7.09257231,16.3559681 7.86455297,14.1650994 C8.40493943,12.6163819 9.29271719,11.1904286 10.4699877,10.019447 C11.9174514,8.56516346 13.7991543,7.5263895 15.8352533,7.10143652 C17.5722098,6.74258733 19.4056638,6.80869113 21.1040213,7.30919131 C22.551485,7.73414429 23.8831516,8.51794646 24.9735743,9.53783362 C26.0736468,8.46128606 27.1737192,7.38473851 28.2737916,6.30819095 C28.8527771,5.73214357 29.4607119,5.17498299 30.0203979,4.58004882 C28.3509897,3.06910488 26.382439,1.85090633 24.2401927,1.07654756 C20.3802894,-0.321075587 16.0378982,-0.349405786 12.1490456,0.963226762 L12.1490456,0.963226762 Z" id="Shape" fill="#FFFFFF"></path>
                                    <path d="M12.1490456,0.963226762 C16.0282484,-0.349405786 20.3802894,-0.321075587 24.2401927,1.06710416 C26.382439,1.84146293 28.34134,3.05021808 30.0203979,4.57060542 C29.4607119,5.16553959 28.8527771,5.72270017 28.2737916,6.29874755 C27.1737192,7.37529511 26.0736468,8.45184266 24.9735743,9.52839022 C23.8831516,8.50850306 22.551485,7.73414429 21.1040213,7.29974791 C19.4056638,6.79924773 17.5722098,6.72370053 15.8352533,7.09199312 C13.808804,7.5169461 11.9271012,8.55572006 10.4699877,10.0100036 C9.29271719,11.1715418 8.40493943,12.6069385 7.86455297,14.155656 C5.90565204,12.6635989 3.94675112,11.1809852 1.97820044,9.68892801 C4.05289846,5.62826618 7.77770514,2.4269537 12.1490456,0.963226762 L12.1490456,0.963226762 Z" id="Shape" fill="#EA4335"></path>
                                    <path d="M0.424589363,14.0895522 C0.743031385,12.5597215 1.26411833,11.0676644 1.9878502,9.67004121 C3.94675112,11.1620984 5.90565204,12.6447121 7.87420272,14.1367692 C7.10222207,16.3370813 7.10222207,18.7829219 7.87420272,20.9737906 C5.9153018,22.4658477 3.95640088,23.9579048 1.99749996,25.4405186 C0.183345407,21.9747909 -0.366690813,17.9046857 0.424589363,14.0895522 L0.424589363,14.0895522 Z" id="Shape" fill="#FBBC05"></path>
                                    <path d="M18.0160986,14.2689768 L34.9031756,14.2689768 C35.4628615,17.3569685 35.3374147,20.5771678 34.4496369,23.5990557 C33.6294075,26.3659717 32.0757964,28.9345764 29.9046008,30.8893602 C28.0035984,29.44452 26.102596,27.9996799 24.2015937,26.5548397 C26.0832965,25.3177544 27.4149632,23.3157537 27.7913037,21.124885 L18.0064489,21.124885 C18.0160986,18.8395822 18.0160986,16.5542795 18.0160986,14.2689768 L18.0160986,14.2689768 Z" id="Shape" fill="#4285F4"></path>
                                    <path d="M1.97820044,25.449962 C3.93710136,23.9673482 5.89600229,22.4752911 7.85490321,20.983234 C8.60758435,23.1457725 10.0550481,25.0627826 11.9657002,26.3754151 C13.1622702,27.1969909 14.5325359,27.7824817 15.9607001,28.0657837 C17.3695648,28.3490857 18.8266783,28.3113121 20.2451928,28.0752271 C21.6540575,27.8296987 23.0146734,27.3291985 24.2015937,26.5453963 C26.102596,27.9902365 28.0035984,29.4350766 29.9046008,30.8799168 C27.8492023,32.7402665 25.2727168,34.005682 22.551485,34.619503 C19.5407604,35.2899844 16.3563402,35.3088712 13.3649152,34.525069 C10.9910746,33.911248 8.76198048,32.8063703 6.84167859,31.3048698 C4.82487912,29.7372654 3.14582119,27.7163779 1.97820044,25.449962 L1.97820044,25.449962 Z" id="Shape" fill="#34A853"></path>
                                </g>
                            </g>
                        </g>
                    </g>
                    <g id="square" transform="translate(34.508742, 52.116667)" fill="#3B5998">
                        <g id="Capa_1">
                            <path d="M62.4113684,7.10542736e-15 L3.64604739,7.10542736e-15 C1.6337599,7.10542736e-15 0,1.60628833 0,3.5919136 L0,61.4847311 C0,63.4703564 1.6337599,65.0787879 3.64604739,65.0787879 L35.2835576,65.0787879 L35.2835576,39.8764561 L26.675318,39.8764561 L26.675318,30.053344 L35.2835576,30.053344 L35.2835576,22.8095086 C35.2835576,14.4051595 40.4926629,9.82632689 48.1045482,9.82632689 C51.7538588,9.82632689 54.8832377,10.0952918 55.7958373,10.2120933 L55.7958373,18.9968509 L50.51603,18.9989941 C46.3772441,18.9989941 45.5788555,20.9374701 45.5788555,23.780354 L45.5788555,30.0501292 L55.4532046,30.0501292 L54.1620774,39.8721698 L45.5777678,39.8721698 L45.5777678,65.0755732 L62.4102807,65.0755732 C64.4247436,65.0755732 66.0595912,63.4649985 66.0595912,61.4847311 L66.0595912,3.58977046 C66.0585035,1.60628833 64.4258313,7.10542736e-15 62.4113684,7.10542736e-15 L62.4113684,7.10542736e-15 Z" id="Shape"></path>
                        </g>
                    </g>
                </g>
            </g>
        </g>
    </g>
</svg>