<?xml version="1.0" encoding="UTF-8" ?>
<!DOCTYPE svg PUBLIC "-//W3C//DTD SVG 1.1//EN" "http://www.w3.org/Graphics/SVG/1.1/DTD/svg11.dtd">
<svg width="256pt" height="256pt" viewBox="0 0 256 256" version="1.1" xmlns="http://www.w3.org/2000/svg">
<g id="#000000ff">
<path d=" M 125.87 0.00 L 129.92 0.00 C 152.28 0.56 174.57 6.62 193.71 18.27 C 218.83 33.23 238.51 57.09 248.34 84.63 C 253.22 97.80 255.48 111.81 256.00 125.82 L 256.00 128.75 C 255.61 135.45 252.64 142.03 247.40 146.31 C 241.13 151.72 231.96 153.35 224.17 150.61 C 215.77 147.80 209.27 139.93 208.32 131.09 C 207.57 124.02 207.83 116.86 206.54 109.85 C 201.86 77.78 183.17 47.59 155.31 30.67 C 134.28 17.61 108.21 12.98 84.00 18.17 C 58.89 23.33 36.44 38.87 21.68 59.69 C 12.51 72.28 6.49 86.89 2.73 101.95 C 9.04 71.16 27.22 43.04 52.69 24.64 C 73.74 9.03 99.74 0.65 125.87 0.00 Z" />
<path d=" M 8.57 109.71 C 14.84 104.28 24.04 102.65 31.84 105.39 C 40.27 108.22 46.77 116.13 47.70 125.01 C 48.42 131.98 48.18 139.04 49.44 145.96 C 54.13 178.60 73.38 209.32 102.00 226.12 C 122.78 238.58 148.27 242.90 171.97 237.84 C 196.87 232.72 219.16 217.41 233.92 196.85 C 243.31 184.14 249.46 169.33 253.27 154.06 C 246.96 184.82 228.81 212.92 203.37 231.32 C 182.31 246.95 156.28 255.35 130.12 256.00 L 126.06 256.00 C 99.83 255.42 73.75 246.96 52.62 231.31 C 28.65 213.93 11.05 187.94 3.94 159.19 C 1.46 149.71 0.45 139.93 0.00 130.18 L 0.00 127.25 C 0.39 120.56 3.35 113.99 8.57 109.71 Z" />
</g>
</svg>
