<?xml version="1.0" encoding="utf-8"?>
<!-- Generator: Adobe Illustrator 18.1.0, SVG Export Plug-In . SVG Version: 6.00 Build 0)  -->
<svg version="1.1" id="Layer_1" xmlns="http://www.w3.org/2000/svg" xmlns:xlink="http://www.w3.org/1999/xlink" x="0px" y="0px"
	 viewBox="0 0 81.9 71" enable-background="new 0 0 81.9 71" xml:space="preserve">
<g>
	<path d="M3.4,24l36.4,15.6c0.3,0.1,0.5,0.2,0.8,0.2c0.3,0,0.5-0.1,0.8-0.2L77.8,24c0.8-0.3,1.3-1.1,1.2-1.9c0-0.8-0.5-1.6-1.3-1.9
		L41.3,6.4c-0.5-0.2-1-0.2-1.5,0L3.5,20.2c-0.8,0.3-1.3,1-1.3,1.9C2.2,22.9,2.7,23.7,3.4,24z"/>
	<path d="M76.2,29.1L40.6,44.3L5,29.1c-1-0.4-2.2,0-2.7,1.1c-0.4,1,0,2.2,1.1,2.7l37.2,15.9l37.2-15.9c1-0.4,1.5-1.7,1.1-2.7
		C78.4,29.2,77.2,28.7,76.2,29.1z"/>
	<path d="M76.2,37.3L40.6,52.5L5,37.3c-1-0.4-2.2,0-2.7,1.1c-0.4,1,0,2.2,1.1,2.7L40.6,57l37.2-15.9c1-0.4,1.5-1.6,1.1-2.7
		C78.4,37.4,77.2,36.9,76.2,37.3z"/>
	<path d="M76.2,45.5L40.6,60.7L5,45.5c-1-0.4-2.2,0-2.7,1.1c-0.4,1,0,2.2,1.1,2.7l37.2,15.9l37.2-15.9c1-0.4,1.5-1.6,1.1-2.7
		C78.4,45.5,77.2,45.1,76.2,45.5z"/>
</g>
</svg>
