<?xml version="1.0" encoding="UTF-8" standalone="no"?>
<svg width="21px" height="20px" viewBox="0 0 21 20" version="1.1" xmlns="http://www.w3.org/2000/svg" xmlns:xlink="http://www.w3.org/1999/xlink" xmlns:sketch="http://www.bohemiancoding.com/sketch/ns">
    <!-- Generator: Sketch 3.4 (15588) - http://www.bohemiancoding.com/sketch -->
    <title>Shape</title>
    <desc>Created with Sketch.</desc>
    <defs></defs>
    <g id="Board" stroke="none" stroke-width="1" fill="none" fill-rule="evenodd" sketch:type="MSPage">
        <g id="Card-View-(Board-Members)" sketch:type="MSArtboardGroup" transform="translate(-299.000000, -511.000000)" stroke-width="2" stroke="#CDD1DF">
            <g id="star129" sketch:type="MSLayerGroup" transform="translate(300.000000, 512.000000)">
                <g id="Capa_1" sketch:type="MSShapeGroup">
                    <path d="M17.9941302,7.61529618 L14.2823785,11.2338495 L15.1584441,16.3435783 C15.2212304,16.711467 15.0691698,17.0837704 14.767501,17.3035226 C14.5968007,17.4276237 14.3937261,17.4909006 14.1906516,17.4909006 C14.0346667,17.4909006 13.8777009,17.4536212 13.733979,17.3780814 L9.1451806,14.9657125 L4.55638216,17.3780814 C4.22577285,17.5522153 3.82550994,17.5227842 3.52286016,17.3045036 C3.22119143,17.0847514 3.06962128,16.7129386 3.13289814,16.3445594 L4.00945429,11.2348305 L0.296721486,7.6157867 C0.0284079906,7.35532149 -0.0667525543,6.96535947 0.0475382032,6.61022424 C0.163300515,6.25508901 0.469874436,5.99658588 0.839725213,5.94262887 L5.97005582,5.19655058 L8.26568134,0.547418392 C8.43000496,0.211903894 8.77140568,-1.77635684e-15 9.14469008,-1.77635684e-15 C9.51895553,-1.77635684e-15 9.85888469,0.211903894 10.0241893,0.546927874 L12.3198149,5.19606006 L17.4511265,5.94213835 C17.8199962,5.99560484 18.1275512,6.25459849 18.2413514,6.60973372 C18.3580948,6.96486895 18.2604817,7.35483098 17.9941302,7.61529618 L17.9941302,7.61529618 Z" id="Shape"></path>
                </g>
            </g>
        </g>
    </g>
</svg>