<?xml version="1.0" encoding="utf-8"?>
<!-- Generator: Adobe Illustrator 18.1.0, SVG Export Plug-In . SVG Version: 6.00 Build 0)  -->
<svg version="1.1" id="Capa_1" xmlns="http://www.w3.org/2000/svg" xmlns:xlink="http://www.w3.org/1999/xlink" x="0px" y="0px"
	 width="603px" height="542px" viewBox="0 0 603 542" enable-background="new 0 0 603 542" xml:space="preserve">
<g>
	<g>
		<path d="M556.4,64.8c-1.4-16.6-14.8-30.6-31.7-30.6H72.3c-16.9,0-30.3,14-31.8,30.6H40v421.7
			c0,17.8,14.5,32.3,32.3,32.3h452.4c17.8,0,32.3-14.5,32.3-32.3V64.8H556.4z M201.6,486.5H72.3v-96.9h129.2V486.5z M201.6,360H72.3
			v-99.6h129.2V360z M201.6,228H72.3v-96.9h129.2V228z M363.1,486.5H233.9v-96.9h129.2V486.5z M363.1,360H233.9v-99.6h129.2V360z
			 M363.1,228H233.9v-96.9h129.2V228z M524.7,486.5H395.4v-96.9h129.2V486.5z M524.7,360H395.4v-99.6h129.2V360z M524.7,228H395.4
			v-96.9h129.2V228z"/>
	</g>
</g>
</svg>
