<?xml version="1.0" encoding="UTF-8" ?>
<!DOCTYPE svg PUBLIC "-//W3C//DTD SVG 1.1//EN" "http://www.w3.org/Graphics/SVG/1.1/DTD/svg11.dtd">
<svg width="404pt" height="512pt" viewBox="0 0 404 512" version="1.1" xmlns="http://www.w3.org/2000/svg">
<g id="#000000cc">
<path d=" M 142.57 16.53 C 149.84 13.01 157.96 11.45 166.01 11.55 C 191.01 11.59 216.00 11.47 240.99 11.61 C 260.97 11.81 279.92 25.09 287.05 43.74 C 292.61 57.35 290.06 72.32 290.65 86.60 C 311.10 86.64 331.55 86.58 352.00 86.63 C 362.33 86.58 372.58 90.85 379.77 98.27 C 386.70 105.29 390.70 115.05 390.72 124.92 C 390.76 146.15 390.74 167.39 390.73 188.63 C 374.05 188.64 357.38 188.62 340.71 188.64 C 340.67 275.12 340.73 361.59 340.68 448.07 C 340.75 458.98 336.27 469.84 328.42 477.44 C 320.96 484.84 310.50 489.00 300.00 488.90 C 234.67 488.91 169.33 488.92 104.00 488.89 C 93.76 488.95 83.59 484.91 76.21 477.81 C 68.10 470.18 63.44 459.12 63.53 447.99 C 63.49 361.54 63.54 275.09 63.50 188.64 C 46.83 188.62 30.15 188.65 13.48 188.62 C 13.48 167.41 13.44 146.19 13.49 124.98 C 13.50 115.38 17.23 105.85 23.83 98.87 C 31.01 91.12 41.48 86.63 52.03 86.63 C 72.54 86.58 93.05 86.64 113.56 86.60 C 113.92 75.23 112.68 63.72 114.59 52.45 C 117.59 36.96 128.29 23.24 142.57 16.53 M 140.59 61.04 C 140.39 69.48 140.57 77.92 140.51 86.36 C 181.57 86.40 222.62 86.36 263.68 86.38 C 263.67 77.92 263.80 69.45 263.62 60.99 C 263.07 49.20 252.76 38.97 240.95 38.56 C 215.63 38.42 190.30 38.54 164.97 38.50 C 152.53 38.07 141.09 48.59 140.59 61.04 M 46.84 114.82 C 43.01 116.65 40.44 120.74 40.46 124.99 C 40.36 137.21 40.45 149.44 40.43 161.67 C 54.30 161.87 68.17 161.35 82.04 161.47 C 175.95 161.58 269.87 161.23 363.78 161.68 C 363.79 149.77 363.80 137.87 363.78 125.96 C 364.32 119.41 358.57 113.35 351.99 113.60 C 329.32 113.64 306.64 113.33 283.98 113.82 C 229.33 113.80 174.67 113.80 120.02 113.82 C 98.69 113.30 77.35 113.70 56.01 113.55 C 52.94 113.58 49.67 113.36 46.84 114.82 M 90.47 188.83 C 90.49 275.24 90.43 361.66 90.50 448.07 C 90.24 455.33 96.55 462.12 103.91 461.93 C 169.29 461.98 234.68 461.96 300.07 461.93 C 307.57 462.27 314.05 455.37 313.72 447.96 C 313.77 361.60 313.74 275.24 313.74 188.87 C 239.31 188.83 164.89 188.91 90.47 188.83 Z" />
<path d=" M 147.43 262.54 C 152.85 260.72 159.53 262.29 162.98 267.02 C 165.15 269.84 165.59 273.51 165.54 276.96 C 165.53 309.32 165.54 341.68 165.54 374.03 C 165.60 377.68 164.89 381.55 162.36 384.34 C 157.06 390.47 146.17 390.23 141.26 383.73 C 138.85 380.72 138.51 376.71 138.57 373.00 C 138.64 340.33 138.52 307.66 138.63 274.99 C 138.49 269.49 142.09 264.12 147.43 262.54 Z" />
<path d=" M 247.32 262.60 C 255.25 259.43 265.49 265.14 265.52 274.03 C 265.78 307.03 265.54 340.04 265.64 373.05 C 265.71 376.77 265.34 380.80 262.89 383.81 C 257.78 390.49 246.32 390.42 241.30 383.66 C 238.93 380.65 238.61 376.66 238.66 372.97 C 238.73 340.30 238.60 307.64 238.72 274.97 C 238.59 269.55 242.10 264.25 247.32 262.60 Z" />
</g>
</svg>
