<?xml version="1.0" encoding="UTF-8" ?>
<!DOCTYPE svg PUBLIC "-//W3C//DTD SVG 1.1//EN" "http://www.w3.org/Graphics/SVG/1.1/DTD/svg11.dtd">
<svg width="609pt" height="261pt" viewBox="0 0 609 261" version="1.1" xmlns="http://www.w3.org/2000/svg">
<g id="#ffffffff">
<path d=" M 17.52 7.91 C 17.36 4.45 20.40 1.21 23.89 1.24 C 33.28 1.03 42.68 0.93 52.08 1.01 C 55.58 1.04 57.90 4.71 57.68 7.96 C 57.72 20.39 57.67 32.81 57.69 45.24 C 67.77 45.30 77.85 45.15 87.92 45.31 C 91.33 45.34 93.96 48.63 93.73 51.94 C 93.78 59.32 93.78 66.69 93.73 74.07 C 93.98 77.74 90.73 81.10 87.04 80.85 C 77.26 80.93 67.47 80.84 57.69 80.88 C 57.71 99.28 57.64 117.68 57.72 136.07 C 57.66 139.88 59.44 144.32 63.50 145.28 C 70.92 147.02 78.29 144.08 85.29 141.94 C 87.93 140.91 91.01 142.50 91.78 145.20 C 94.05 151.76 95.95 158.45 98.15 165.05 C 98.76 167.18 99.79 169.50 98.85 171.71 C 97.61 174.93 93.97 175.84 91.07 176.94 C 79.72 180.71 67.97 183.75 55.97 184.15 C 45.85 184.44 34.92 181.85 27.84 174.17 C 19.94 165.70 17.81 153.62 17.54 142.44 C 17.44 121.92 17.53 101.40 17.50 80.88 C 13.41 80.79 9.31 81.07 5.23 80.75 C 2.50 80.50 0.71 78.04 0.00 75.59 L 0.00 50.72 C 0.45 48.10 2.38 45.55 5.20 45.35 C 9.29 45.08 13.39 45.32 17.49 45.25 C 17.53 32.80 17.45 20.36 17.52 7.91 Z" />
<path d=" M 163.27 50.83 C 171.62 44.29 182.43 41.21 192.98 41.92 C 199.83 42.37 207.08 43.21 212.96 47.07 C 215.79 48.76 217.48 52.57 215.58 55.58 C 211.40 63.02 207.23 70.48 202.94 77.85 C 201.22 81.10 197.09 81.71 194.02 80.12 C 184.67 76.49 173.32 79.22 166.88 86.95 C 165.32 89.06 163.03 91.19 163.12 93.99 C 163.14 120.33 163.12 146.67 163.13 173.02 C 163.08 174.97 163.09 177.20 161.67 178.73 C 159.71 180.74 156.70 180.78 154.09 180.82 C 145.43 180.78 136.76 180.88 128.10 180.78 C 124.56 180.84 121.42 177.58 121.58 174.05 C 121.53 133.38 121.58 92.71 121.56 52.03 C 121.56 50.03 121.75 47.69 123.45 46.35 C 125.61 44.71 128.47 44.80 131.04 44.74 C 139.70 44.80 148.37 44.66 157.02 44.81 C 160.33 44.90 162.57 47.85 163.27 50.83 Z" />
<path d=" M 512.47 50.54 C 526.06 42.40 542.84 39.81 558.25 43.51 C 572.21 46.75 584.73 55.19 593.48 66.48 C 603.07 78.70 608.25 94.06 609.00 109.50 L 609.00 115.97 C 608.42 130.60 603.62 145.12 594.88 156.92 C 585.51 169.74 571.53 179.27 555.96 182.66 C 541.31 186.01 525.65 183.54 512.31 176.82 C 512.27 202.92 512.40 229.03 512.24 255.13 C 512.48 258.63 509.25 260.82 506.08 261.00 L 476.33 261.00 C 472.68 260.33 470.27 256.72 470.74 253.09 C 470.80 224.37 470.67 195.65 470.80 166.94 C 471.76 161.98 475.59 157.90 475.69 152.65 C 477.17 144.21 470.38 137.33 470.74 129.04 C 470.75 103.71 470.76 78.37 470.73 53.03 C 470.80 50.78 470.63 48.09 472.52 46.46 C 474.88 44.56 478.13 44.82 480.98 44.73 C 489.33 44.81 497.68 44.65 506.03 44.81 C 509.35 44.75 511.52 47.68 512.47 50.54 M 532.47 79.65 C 524.03 81.71 516.37 87.42 512.37 95.15 C 512.31 107.20 512.20 119.27 512.43 131.31 C 519.53 144.93 537.37 151.72 551.56 145.40 C 569.58 138.15 577.28 114.54 568.72 97.49 C 562.72 84.07 546.85 75.84 532.47 79.65 Z" />
</g>
<g id="#50b0e3ff">
<path fill="#50b0e3" opacity="1.00" d=" M 373.50 12.64 C 388.20 10.48 403.61 13.08 416.55 20.49 C 432.97 29.71 445.42 45.68 450.39 63.83 C 454.27 77.46 453.72 92.16 449.37 105.60 C 446.95 117.99 447.01 131.54 452.87 143.01 C 454.13 146.08 457.81 148.33 456.93 152.02 C 456.26 153.96 454.17 155.31 452.12 154.92 C 441.05 153.86 429.75 152.13 419.70 147.09 C 417.14 145.81 414.35 146.93 412.01 148.13 C 398.00 154.88 381.58 156.16 366.58 152.25 C 374.38 134.35 377.24 114.15 373.33 94.93 C 368.76 70.50 353.77 48.51 333.24 34.63 C 343.61 23.00 358.08 15.03 373.50 12.64 Z" />
<path fill="#50b0e3" opacity="1.00" d=" M 272.35 42.69 C 282.97 41.15 294.08 41.46 304.33 44.91 C 323.84 51.16 339.97 66.55 347.72 85.44 C 357.08 107.65 354.07 134.45 340.21 154.15 C 329.63 169.58 312.75 180.67 294.19 183.57 C 282.99 185.00 271.36 184.27 260.75 180.19 C 257.38 179.08 254.36 177.04 250.88 176.27 C 247.86 176.37 245.37 178.33 242.60 179.29 C 233.72 182.56 224.29 183.96 214.91 184.81 C 211.65 185.10 209.35 181.07 211.13 178.35 C 221.58 164.59 221.25 145.56 216.59 129.67 C 212.57 113.00 214.65 94.87 222.70 79.68 C 232.47 60.67 251.18 46.30 272.35 42.69 M 248.50 104.41 C 241.41 106.94 240.11 117.56 246.37 121.73 C 252.34 126.49 262.26 121.63 262.08 113.98 C 262.65 107.09 254.80 101.64 248.50 104.41 M 278.17 104.37 C 272.43 106.51 269.89 114.33 273.65 119.28 C 276.83 124.32 284.66 125.05 288.76 120.77 C 292.90 116.86 292.61 109.48 288.10 105.98 C 285.40 103.64 281.47 103.23 278.17 104.37 M 308.61 104.07 C 301.14 106.05 299.07 116.95 305.29 121.50 C 310.86 126.27 320.69 122.38 321.19 115.00 C 322.49 108.14 315.20 101.95 308.61 104.07 Z" />
</g>
</svg>
