<?xml version="1.0" encoding="utf-8"?>
<!-- Generator: Adobe Illustrator 19.0.1, SVG Export Plug-In . SVG Version: 6.00 Build 0)  -->
<svg version="1.1" id="Layer_1" xmlns="http://www.w3.org/2000/svg" xmlns:xlink="http://www.w3.org/1999/xlink" x="0px" y="0px"
	 viewBox="-168 338 274 117" enable-background="new -168 338 274 117" xml:space="preserve">
<g id="_x23_ffffffff">
	<path d="M-157.7,338h14.1c0.9,1.1,1.8,2.4,1.5,3.9c0,5.3,0,10.7,0,16c4.7,0.1,9.4-0.2,14.1,0.2c1.4,0,2.2,1.5,2.1,2.8
		c0.1,3.7,0.3,7.4-0.1,11c-0.2,1.4-1.7,2.1-2.9,2c-4.4,0.2-8.8,0-13.1,0c0,7.7,0,15.4,0,23.1c0.1,2,0,4.8,2.2,5.7
		c4.2,1.8,8.5-2.2,12.6-0.9c1.6,3.7,2.7,7.6,3.8,11.4c0.8,2.5-2.1,3.5-4,4.1c-7.5,2.3-15.9,4.7-23.6,1.7c-6.3-2.5-8.9-9.7-9.1-16
		c-0.2-9.7,0-19.3-0.1-29c-2.1,0-4.1,0-6.2,0c-0.4-0.5-1.2-1.5-1.7-2v-12.4c1.9-2.4,5.2-1.5,7.9-1.7c0-5.3-0.1-10.7,0-16
		C-160.3,340.1-159.3,338.6-157.7,338z"/>
	<path d="M-18.1,353.1c7.1-7.6,17.9-11.6,28.2-9.6C24.1,346,35,358.9,35.7,373c0.8,7.1-3,13.9-2.1,21c0.1,4.1,1.9,7.7,4,11.1
		c0.4,2.1-1.9,2.5-3.5,2.1c-4.5-0.4-9-1.4-13.1-3.3c-1.5-0.9-3.1,0.3-4.5,0.7c-6.1,2.8-13.1,3.1-19.5,1.6c4.1-9.2,5-19.7,2.2-29.4
		C-3.5,367.1-9.9,358.7-18.1,353.1z"/>
	<path d="M-94.3,360.1c5.9-4.2,13.8-4.7,20.5-2.3c1.6,0.6,3.8,2.1,3,4.1c-1.6,3.4-3.6,6.6-5.5,9.9c-0.6,0.9-1.4,2.4-2.7,2.1
		c-3-0.5-6.2-1.7-9.2-0.4c-3.1,1.2-6.6,3.8-6.5,7.4c0,11.3,0,22.7,0,34c0.1,1.4-0.1,3.5-1.9,3.8c-4.5,0.4-9.1,0.1-13.7,0.2
		c-2.1,0.2-3.5-1.9-3.2-3.8c0-18,0-36.1,0-54.1c-0.4-2,1.3-3.4,3.2-3.2c4.6,0,9.3-0.4,13.9,0.3C-95.7,358.5-94.8,359.6-94.3,360.1z"
		/>
	<path d="M-48.6,357.6c13.9-4.3,29.7,3.2,35.9,16.2c7.5,14,2.4,33.1-11,41.6c-9.2,6.4-21.6,6.4-31.4,1.5c-5.5,1.8-11.1,3.8-17,3.8
		c-0.3-0.4-1-1.2-1.4-1.7c4.2-6.1,5.3-13.9,3.4-21c-2-6.9-1.9-14.4,0.7-21.1C-65.8,367.7-58,360.3-48.6,357.6 M-56.5,384.7
		c-2.9,1.3-3.4,5.7-0.8,7.6c2.4,2.1,6.5,0.7,7.2-2.4C-49,386.4-53.3,382.8-56.5,384.7 M-43.3,384.7c-2.7,1.3-3.2,5.4-0.9,7.4
		c2.3,2.3,6.6,1,7.3-2.1C-35.6,386.4-40.1,382.7-43.3,384.7 M-29.6,384.5c-2.9,1.1-3.8,5.4-1.4,7.4c2.2,2.4,6.7,1.2,7.5-2
		C-22.4,386.5-26.3,383-29.6,384.5z"/>
	<path d="M62.9,360c8.7-4.8,20-4.8,28.4,0.6c8.9,5.4,14.1,15.7,14.7,26v4c-0.6,10.2-6,20.2-14.9,25.6c-8.5,5.5-19.7,5.5-28.6,1.2
		c-0.1,12.3,0.3,24.7-0.2,37c-0.6,0.2-1.7,0.6-2.3,0.8H45.6c-1.1-1.1-2.1-2.3-1.8-4c0-12,0-24.1,0-36.1c-0.4-3.8,2.8-7,2.2-10.8
		c-0.6-3.1-2.3-5.9-2.2-9.1c0-11.4-0.1-22.7,0-34c-0.2-1.4,0.6-3.1,2.2-3.1c4.3-0.4,8.7-0.2,13-0.2C60.7,357.5,61.8,359,62.9,360
		 M62.5,380.2c0,5.5,0,11.1,0,16.6c2.7,4.2,7.3,7.4,12.5,7.3c7.6,0.1,13.8-6.7,14.3-14.1c0.9-7.6-4.5-15.6-12.3-16.8
		C71.3,372.2,65.6,375.4,62.5,380.2z"/>
</g>
</svg>
