<?xml version="1.0" encoding="UTF-8" standalone="no"?>

<svg width="33px" height="33px" viewBox="0 0 33 33"  xmlns="http://www.w3.org/2000/svg">

    <linearGradient x1="79.1341723%" y1="101.110144%" x2="79.1341722%" y2="1.44066651%" id="icon-linear-gradient">
        <stop stop-color="#3F8ED5" offset="0%"></stop>
        <stop stop-color="#1E5CB4" offset="100%"></stop>
    </linearGradient>
    <g id="Page-1" stroke="none" stroke-width="1" fill="none" fill-rule="evenodd">
        <g id="Group-3">
            <rect id="Rectangle" fill="url(#icon-linear-gradient)" x="0" y="0" width="33" height="33" rx="4"></rect>
            <path d="M14.0527374,15.9675182 L13.0134005,15.9675182 C12.7074586,15.9675182 12.4629936,15.6904036 12.4629936,15.3827889 L12.4629936,13.3212771 C12.4629936,12.9828719 12.7074586,12.7365478 13.0134005,12.7365478 L14.0527374,12.7365478 L14.0527374,9.32141539 C14.0527374,9.01380075 14.3277966,8.73668615 14.6337386,8.73668615 L17.1407311,8.70589564 C17.4463845,8.70589564 17.6908494,8.98301024 17.6908494,9.29062488 L17.6908494,12.7365478 L20.3814072,12.7365478 C20.7176547,12.7365478 20.9624083,12.9828719 20.9624083,13.3212771 L20.9624083,15.3827889 C20.9624083,15.6904036 20.7176547,15.9675182 20.3814072,15.9675182 L17.6908494,15.9675182 L17.6908494,20.8905143 C17.6908494,21.7520676 18.1494738,21.8752297 18.6386923,21.8752297 C19.1585051,21.8752297 19.800406,21.6596961 20.1366536,21.5368245 C20.4731898,21.413372 20.7176547,21.567615 20.8094373,21.8752297 L21.420744,23.8135795 C21.5431208,24.1211941 21.3901498,24.4290992 21.0844965,24.5519708 C20.9315255,24.6443423 18.9443457,25.3519431 17.4463845,25.3519431 C15.0923629,25.3519431 14.0527374,23.87487 14.0527374,21.382872 L14.0527374,15.9675182" id="Fill-1" fill="#FFFFFF"></path>
        </g>
    </g>
</svg>
