<?xml version="1.0" encoding="UTF-8" ?>
<!DOCTYPE svg PUBLIC "-//W3C//DTD SVG 1.1//EN" "http://www.w3.org/Graphics/SVG/1.1/DTD/svg11.dtd">
<svg width="1044pt" height="512pt" viewBox="0 0 1044 512" version="1.1" xmlns="http://www.w3.org/2000/svg">
<g id="#d2ecf9ff">
<path fill="#d2ecf9" opacity="1.00" d=" M 22.42 0.00 L 22.70 0.00 C 28.05 0.18 33.39 2.04 37.41 5.64 C 43.19 10.61 46.09 18.65 44.81 26.16 C 43.64 33.98 37.98 40.90 30.57 43.64 C 23.13 46.53 14.21 45.04 8.13 39.85 C 3.05 35.69 0.16 29.24 0.00 22.72 L 0.00 22.41 C -0.07 10.46 10.46 -0.07 22.42 0.00 M 18.37 10.70 C 12.03 12.78 8.31 20.38 10.66 26.66 C 12.59 32.75 19.60 36.54 25.76 34.79 C 32.43 33.23 36.78 25.65 34.70 19.10 C 32.94 12.32 24.94 8.15 18.37 10.70 Z" />
<path fill="#d2ecf9" opacity="1.00" d=" M 178.99 48.91 C 179.03 44.15 183.19 39.92 187.96 39.80 C 193.05 39.41 197.85 43.82 197.87 48.92 C 197.99 57.47 197.87 66.02 197.92 74.56 C 204.28 74.60 210.63 74.51 216.99 74.60 C 221.98 74.53 226.43 79.01 226.30 84.01 C 226.43 88.79 222.39 93.20 217.61 93.46 C 211.05 93.63 204.48 93.47 197.92 93.53 C 197.86 100.06 198.02 106.60 197.85 113.13 C 197.65 118.10 192.93 122.29 187.97 121.90 C 183.32 121.78 179.18 117.73 179.01 113.07 C 178.86 106.56 179.00 100.04 178.95 93.52 C 170.43 93.50 161.90 93.58 153.38 93.49 C 148.76 93.48 144.60 89.61 144.23 85.02 C 143.56 79.89 147.83 74.79 153.01 74.63 C 161.65 74.48 170.30 74.61 178.94 74.57 C 178.99 66.02 178.88 57.46 178.99 48.91 Z" />
<path fill="#d2ecf9" opacity="1.00" d=" M 120.47 154.73 C 127.28 151.76 135.26 158.99 132.94 166.06 C 131.45 172.70 122.23 175.38 117.42 170.55 C 112.23 166.18 114.03 156.85 120.47 154.73 Z" />
<path fill="#d2ecf9" opacity="1.00" d=" M 1011.54 164.71 C 1022.57 161.82 1034.94 168.79 1038.18 179.71 C 1040.99 188.04 1038.28 197.86 1031.59 203.56 C 1025.64 208.89 1016.75 210.57 1009.26 207.85 C 1001.27 205.14 995.22 197.54 994.39 189.14 C 992.89 178.18 1000.76 167.06 1011.54 164.71 M 1012.49 174.76 C 1006.48 176.77 1002.80 183.73 1004.57 189.83 C 1006.05 196.05 1012.78 200.34 1019.06 199.01 C 1026.12 197.93 1031.04 190.08 1028.90 183.24 C 1027.20 176.38 1019.09 172.16 1012.49 174.76 Z" />
<path fill="#d2ecf9" opacity="1.00" d=" M 849.08 224.02 C 845.31 219.66 848.27 212.14 853.89 211.28 C 857.75 210.30 860.97 213.03 863.34 215.71 C 866.99 219.39 870.66 223.05 874.34 226.72 C 878.73 222.32 883.10 217.91 887.52 213.54 C 890.22 210.66 895.08 210.31 898.14 212.82 C 901.67 215.41 902.34 221.04 899.35 224.29 C 894.91 228.99 890.21 233.43 885.70 238.06 C 890.19 242.67 894.87 247.11 899.31 251.77 C 902.13 254.81 901.81 260.01 898.76 262.77 C 895.93 265.59 890.95 265.75 888.02 263.02 C 883.38 258.57 878.92 253.93 874.33 249.42 C 869.80 253.87 865.39 258.44 860.83 262.85 C 857.57 266.11 851.65 265.50 849.01 261.78 C 846.72 258.84 846.88 254.32 849.48 251.62 C 853.91 247.04 858.49 242.60 862.98 238.06 C 858.37 233.36 853.57 228.84 849.08 224.02 Z" />
<path fill="#d2ecf9" opacity="1.00" d=" M 959.41 284.49 C 965.37 280.91 973.77 286.04 973.35 292.96 C 973.56 299.93 964.96 304.77 959.12 300.99 C 952.83 297.70 953.01 287.56 959.41 284.49 Z" />
</g>
<g id="#b4dbf1ff">
<path fill="#b4dbf1" opacity="1.00" d=" M 489.79 54.84 C 498.95 49.17 511.32 49.61 520.13 55.77 C 534.51 65.43 548.75 75.29 563.15 84.91 C 523.14 84.89 483.13 84.94 443.11 84.89 C 458.76 75.01 474.15 64.73 489.79 54.84 Z" />
<path fill="#b4dbf1" opacity="1.00" d=" M 299.76 177.78 C 306.07 173.68 312.43 169.68 318.67 165.48 C 318.67 187.01 318.66 208.53 318.67 230.06 C 311.10 223.37 303.49 216.73 296.02 209.94 C 292.13 206.38 288.41 202.63 284.22 199.43 C 287.02 190.94 291.79 182.37 299.76 177.78 Z" />
<path fill="#b4dbf1" opacity="1.00" d=" M 701.53 179.00 C 709.27 185.00 720.14 189.11 722.89 199.49 C 715.55 205.28 708.70 211.65 701.56 217.68 C 701.49 204.79 701.53 191.89 701.53 179.00 Z" />
</g>
<g id="#05a6f7ff">
<path fill="#05a6f7" opacity="1.00" d=" M 318.70 102.05 C 318.46 92.82 326.76 84.65 335.97 84.93 C 371.68 84.85 407.40 84.95 443.11 84.89 C 483.13 84.94 523.14 84.89 563.15 84.91 C 603.45 84.91 643.75 84.88 684.05 84.93 C 693.07 84.58 701.40 92.35 701.46 101.42 C 701.61 127.28 701.47 153.14 701.53 179.00 C 701.53 191.89 701.49 204.79 701.56 217.68 C 643.94 267.06 585.93 315.99 528.01 365.02 C 524.19 362.49 520.55 359.69 516.59 357.39 C 508.32 352.69 497.64 352.73 489.39 357.44 C 485.16 359.90 481.17 362.74 477.01 365.32 C 423.99 320.52 371.00 275.67 318.67 230.06 C 318.66 208.53 318.67 187.01 318.67 165.48 C 318.69 144.34 318.62 123.19 318.70 102.05 M 539.58 192.56 C 524.08 208.02 508.57 223.47 493.05 238.91 C 485.69 231.67 478.48 224.29 471.07 217.11 C 466.92 213.14 459.65 213.55 455.95 217.91 C 452.17 221.92 452.41 228.79 456.41 232.56 C 465.24 241.44 474.16 250.24 483.02 259.11 C 485.06 261.15 487.13 263.46 490.04 264.21 C 493.93 265.43 498.30 264.06 501.05 261.11 C 519.61 242.63 538.18 224.15 556.72 205.65 C 559.33 203.18 560.67 199.44 559.98 195.89 C 559.10 190.42 553.42 186.34 547.95 187.27 C 544.48 187.64 541.86 190.15 539.58 192.56 Z" />
</g>
<g id="#fefefeff">
<path fill="#fefefe" opacity="1.00" d=" M 539.58 192.56 C 541.86 190.15 544.48 187.64 547.95 187.27 C 553.42 186.34 559.10 190.42 559.98 195.89 C 560.67 199.44 559.33 203.18 556.72 205.65 C 538.18 224.15 519.61 242.63 501.05 261.11 C 498.30 264.06 493.93 265.43 490.04 264.21 C 487.13 263.46 485.06 261.15 483.02 259.11 C 474.16 250.24 465.24 241.44 456.41 232.56 C 452.41 228.79 452.17 221.92 455.95 217.91 C 459.65 213.55 466.92 213.14 471.07 217.11 C 478.48 224.29 485.69 231.67 493.05 238.91 C 508.57 223.47 524.08 208.02 539.58 192.56 Z" />
</g>
<g id="#d1eaf6ff">
<path fill="#d1eaf6" opacity="1.00" d=" M 284.22 199.43 C 288.41 202.63 292.13 206.38 296.02 209.94 C 303.49 216.73 311.10 223.37 318.67 230.06 C 371.00 275.67 423.99 320.52 477.01 365.32 C 419.82 402.37 362.61 439.39 305.42 476.42 C 301.04 479.32 296.40 481.90 292.45 485.41 C 288.91 488.54 286.72 492.80 284.18 496.70 C 283.59 494.20 283.31 491.63 283.33 489.06 C 283.34 395.02 283.33 300.97 283.34 206.93 C 283.34 204.40 283.67 201.89 284.22 199.43 Z" />
<path fill="#d1eaf6" opacity="1.00" d=" M 701.56 217.68 C 708.70 211.65 715.55 205.28 722.89 199.49 C 723.72 203.25 723.77 207.12 723.71 210.96 C 723.69 304.00 723.72 397.04 723.70 490.08 C 723.77 494.25 722.63 498.37 720.52 501.96 C 718.00 498.39 715.51 494.71 712.09 491.95 C 708.01 488.61 703.48 485.88 699.18 482.84 C 642.12 443.57 585.06 404.31 528.01 365.02 C 585.93 315.99 643.94 267.06 701.56 217.68 Z" />
</g>
<g id="#edf8fdff">
<path fill="#edf8fd" opacity="1.00" d=" M 489.39 357.44 C 497.64 352.73 508.32 352.69 516.59 357.39 C 520.55 359.69 524.19 362.49 528.01 365.02 C 585.06 404.31 642.12 443.57 699.18 482.84 C 703.48 485.88 708.01 488.61 712.09 491.95 C 715.51 494.71 718.00 498.39 720.52 501.96 C 717.42 507.50 711.43 511.01 705.26 512.00 L 301.96 512.00 C 293.75 510.89 286.22 504.84 284.18 496.70 C 286.72 492.80 288.91 488.54 292.45 485.41 C 296.40 481.90 301.04 479.32 305.42 476.42 C 362.61 439.39 419.82 402.37 477.01 365.32 C 481.17 362.74 485.16 359.90 489.39 357.44 Z" />
</g>
</svg>
