<?xml version="1.0" encoding="UTF-8" ?>
<!DOCTYPE svg PUBLIC "-//W3C//DTD SVG 1.1//EN" "http://www.w3.org/Graphics/SVG/1.1/DTD/svg11.dtd">
<svg width="173pt" height="120pt" viewBox="0 0 173 120" version="1.1" xmlns="http://www.w3.org/2000/svg">
<g id="#ffffffff">
</g>
<g id="#2b2c31ff">
</g>
<g id="#538ac8ff">
<path fill="#538ac8" opacity="1.00" d=" M 87.92 20.05 C 97.79 6.90 117.11 3.62 131.70 10.19 C 142.21 15.06 150.12 25.38 151.57 36.94 C 152.82 44.53 151.52 52.37 148.29 59.31 C 147.51 63.72 148.95 68.70 152.07 71.98 C 153.81 73.98 156.72 74.22 158.57 76.02 C 158.73 79.02 155.11 78.76 153.03 78.93 C 145.88 78.75 138.75 77.50 131.88 75.51 C 124.94 78.54 117.11 79.83 109.64 78.26 C 112.64 67.79 112.59 56.35 108.83 46.08 C 105.26 35.26 97.57 26.03 87.92 20.05 Z" />
</g>
<g id="#3165adff">
<path fill="#3165ad" opacity="1.00" d=" M 46.73 22.62 C 54.28 20.69 62.32 20.64 69.91 22.40 C 81.05 25.02 90.71 32.74 96.24 42.70 C 101.38 52.01 102.37 63.20 100.35 73.53 C 97.83 86.09 88.88 97.01 77.33 102.41 C 65.62 107.73 51.66 107.48 39.97 102.21 C 31.23 104.69 22.10 106.46 12.99 106.16 C 10.72 106.31 7.30 104.82 8.89 102.04 C 12.76 100.59 16.78 98.60 18.62 94.64 C 20.49 90.53 22.06 85.39 19.82 81.14 C 14.76 69.80 15.07 56.32 20.02 45.00 C 25.24 34.24 35.08 25.64 46.73 22.62 M 36.43 56.65 C 31.15 58.41 29.89 66.23 34.43 69.51 C 38.53 73.10 45.73 70.37 46.46 64.98 C 47.70 59.53 41.56 54.43 36.43 56.65 M 56.36 56.51 C 51.22 57.90 49.32 65.13 53.19 68.82 C 56.77 72.93 64.28 71.21 65.72 65.95 C 67.79 60.47 61.84 54.50 56.36 56.51 M 77.27 56.22 C 71.78 56.61 68.58 63.76 72.08 68.07 C 75.09 72.60 82.75 71.89 84.87 66.88 C 87.57 61.89 82.82 55.34 77.27 56.22 Z" />
</g>
</svg>
