<?xml version="1.0" encoding="UTF-8" ?>
<!DOCTYPE svg PUBLIC "-//W3C//DTD SVG 1.1//EN" "http://www.w3.org/Graphics/SVG/1.1/DTD/svg11.dtd">
<svg width="101pt" height="79pt" viewBox="0 0 101 79" version="1.1" xmlns="http://www.w3.org/2000/svg">
<g id="#ffffffff">
<path d=" M 46.40 0.00 L 47.72 0.00 C 57.80 0.16 67.36 5.50 73.23 13.60 C 87.29 12.28 100.25 24.28 101.00 38.17 L 101.00 40.41 C 101.12 53.99 89.46 66.53 75.73 66.57 C 75.71 63.49 75.71 60.41 75.74 57.34 C 83.89 56.94 91.01 50.12 91.63 41.98 C 92.68 33.80 87.14 25.08 78.91 23.36 C 75.56 22.45 72.13 23.21 68.75 23.41 C 65.38 18.14 61.21 12.92 55.10 10.78 C 45.84 7.03 34.50 10.68 28.81 18.79 C 25.85 22.65 24.79 27.48 23.37 32.03 C 19.50 32.66 15.21 33.41 12.50 36.52 C 7.70 41.64 8.29 50.79 13.97 55.03 C 16.48 57.11 19.85 57.29 22.96 57.30 C 22.96 60.37 22.97 63.44 22.95 66.52 C 10.98 67.76 -0.16 57.32 0.00 45.35 L 0.00 44.59 C 0.04 35.13 6.88 26.33 16.06 24.03 C 19.80 10.65 32.37 0.25 46.40 0.00 Z" />
<path d=" M 46.90 29.81 C 48.58 28.04 51.53 27.64 53.36 29.41 C 58.53 34.33 63.53 39.43 68.64 44.42 C 70.16 45.70 71.22 48.03 69.94 49.85 C 68.90 52.27 65.09 52.33 63.56 50.37 C 60.44 47.28 57.28 44.22 54.29 41.00 C 54.15 52.01 54.36 63.03 54.18 74.04 C 54.11 76.16 52.27 77.96 50.09 77.65 C 47.65 77.73 46.33 75.20 46.48 73.05 C 46.47 62.45 46.47 51.85 46.48 41.25 C 43.54 44.38 40.46 47.39 37.40 50.40 C 35.87 52.32 32.14 52.26 31.09 49.90 C 29.95 48.32 30.56 46.10 31.93 44.87 C 36.90 39.83 41.86 34.78 46.90 29.81 Z" />
</g>
</svg>
