<?xml version="1.0" encoding="UTF-8" ?>
<!DOCTYPE svg PUBLIC "-//W3C//DTD SVG 1.1//EN" "http://www.w3.org/Graphics/SVG/1.1/DTD/svg11.dtd">
<svg width="512pt" height="884pt" viewBox="0 0 512 884" version="1.1" xmlns="http://www.w3.org/2000/svg">
<g id="#8b90a2ff">
<path d=" M 85.59 38.62 C 96.35 32.69 110.01 32.43 120.98 37.98 C 130.84 42.81 138.38 52.09 141.10 62.72 C 142.72 68.67 142.32 74.89 142.36 80.98 C 142.36 227.93 142.35 374.88 142.36 521.82 C 165.99 531.45 186.07 549.71 197.19 572.73 C 204.60 587.66 208.27 604.40 207.80 621.07 C 207.34 643.02 199.49 664.68 186.02 681.99 C 174.77 696.69 159.40 707.96 142.36 715.05 C 142.37 758.36 142.36 801.67 142.36 844.98 C 142.40 851.06 141.21 857.18 138.51 862.65 C 133.11 874.01 121.83 882.24 109.39 884.00 L 98.57 884.00 C 84.56 882.15 72.13 871.92 67.62 858.54 C 65.43 852.62 65.36 846.23 65.46 840.00 C 65.46 798.34 65.48 756.67 65.45 715.01 C 48.24 707.92 32.79 696.46 21.51 681.60 C 8.47 664.74 0.93 643.79 0.00 622.50 L 0.00 615.36 C 0.64 593.78 8.23 572.48 21.40 555.38 C 32.68 540.48 48.16 528.95 65.43 521.88 C 65.54 371.92 65.41 221.96 65.49 72.00 C 65.49 58.31 73.52 45.05 85.59 38.62 Z" />
<path d=" M 357.14 44.16 C 364.59 37.22 374.90 33.46 385.08 34.03 C 396.26 34.49 407.05 40.22 413.77 49.15 C 418.98 55.91 421.71 64.45 421.63 72.97 C 421.64 109.47 421.62 145.97 421.64 182.48 C 441.86 190.77 459.58 205.25 471.15 223.85 C 481.67 240.52 487.36 260.22 487.10 279.95 C 487.02 302.41 479.20 324.69 465.46 342.42 C 454.20 357.20 438.79 368.60 421.65 375.66 C 421.60 532.10 421.65 688.53 421.63 844.97 C 421.73 852.56 419.72 860.21 415.57 866.60 C 409.65 875.97 399.50 882.50 388.52 884.00 L 378.22 884.00 C 359.60 882.05 344.39 864.67 344.76 845.97 C 344.70 689.20 344.79 532.42 344.72 375.64 C 327.48 368.57 312.02 357.06 300.74 342.19 C 286.91 324.24 279.14 301.65 279.28 278.96 C 279.18 256.31 286.97 233.77 300.80 215.86 C 312.08 201.02 327.53 189.58 344.73 182.50 C 344.78 145.67 344.70 108.83 344.77 72.00 C 344.81 61.53 349.42 51.22 357.14 44.16 Z" />
</g>
</svg>
