<?xml version="1.0" encoding="UTF-8" standalone="no"?>
<svg width="31px" height="29px" viewBox="0 0 31 29" version="1.1" xmlns="http://www.w3.org/2000/svg" xmlns:xlink="http://www.w3.org/1999/xlink">
    <!-- Generator: Sketch 39 (31667) - http://www.bohemiancoding.com/sketch -->
    <title>warning (1)</title>
    <desc>Created with Sketch.</desc>
    <defs></defs>
    <g id="App" stroke="none" stroke-width="1" fill="none" fill-rule="evenodd">
        <g id="Delete-Board" transform="translate(-625.000000, -255.000000)" fill="#F94C74">
            <g id="Group-3" transform="translate(340.000000, 198.000000)">
                <g id="Group-7">
                    <g id="warning-(1)" transform="translate(285.000000, 57.000000)">
                        <g id="Group">
                            <path d="M15.5497466,9.74892251 C15.0030574,9.74892251 14.6384932,10.121321 14.6384932,10.6800258 L14.6384932,17.3836273 C14.6384932,17.9422251 15.0029527,18.3147306 15.5497466,18.3147306 C16.0964358,18.3147306 16.461,17.9423321 16.461,17.3836273 L16.461,10.6800258 C16.461,10.121321 16.0964358,9.74892251 15.5497466,9.74892251 L15.5497466,9.74892251 Z" id="Shape"></path>
                            <path d="M16.0964358,21.4803321 C15.7319764,21.1079336 15.1851824,21.1079336 14.820723,21.4803321 C14.6384932,21.6665314 14.6384932,22.0389299 14.6384932,22.2251292 C14.6384932,22.5975277 14.6384932,22.7837269 14.820723,22.9699262 C15.0029527,23.1561255 15.3674122,23.1561255 15.5496419,23.1561255 C15.7318716,23.1561255 16.0963311,23.1561255 15.9141014,22.9699262 C16.0963311,22.7837269 16.2785608,22.4113284 16.2785608,22.2251292 C16.2787703,21.8527306 16.2787703,21.6665314 16.0964358,21.4803321 L16.0964358,21.4803321 Z" id="Shape"></path>
                            <path d="M30.311402,21.6665314 L19.5591149,2.48672325 C18.8301959,0.99702214 17.1900236,0.0660258303 15.5497466,0.0660258303 C13.9095743,0.0660258303 12.4516318,0.997129151 11.5403784,2.48672325 L0.788091216,21.6665314 C-0.123162162,23.1562325 -0.123162162,25.0183321 0.788091216,26.5080332 C1.51701014,27.9977343 3.15718243,28.9287306 4.79745946,28.9287306 L26.3020338,28.9287306 C28.1244358,28.9287306 29.5823784,27.9976273 30.311402,26.5080332 C31.2226554,25.0183321 31.2226554,23.1562325 30.311402,21.6665314 L30.311402,21.6665314 Z M28.8534595,25.7632362 C28.489,26.6943395 27.5777466,27.2529373 26.4843682,27.2529373 L4.79745946,27.2529373 C3.88620608,27.2529373 2.97505743,26.6943395 2.42836824,25.7632362 C1.88167905,24.8321328 1.88167905,23.7149373 2.42836824,22.7838339 L13.1806554,3.60391882 C13.5451149,2.6728155 14.4563682,2.11421771 15.5497466,2.11421771 C16.6432297,2.11421771 17.5543784,2.6728155 18.1011723,3.60391882 L28.8534595,22.7837269 C29.4002534,23.7148303 29.4002534,24.8321328 28.8534595,25.7632362 L28.8534595,25.7632362 Z" id="Shape"></path>
                        </g>
                    </g>
                </g>
            </g>
        </g>
    </g>
</svg>